<?xml version="1.0" encoding="utf-8"?>
<!-- Generator: Adobe Illustrator 27.7.0, SVG Export Plug-In . SVG Version: 6.00 Build 0)  -->
<svg version="1.1" id="Layer_1" xmlns="http://www.w3.org/2000/svg" xmlns:xlink="http://www.w3.org/1999/xlink" x="0px" y="0px"
	 viewBox="0 0 956.2 227.5" style="enable-background:new 0 0 956.2 227.5;" xml:space="preserve">
<style type="text/css">
	.st0{fill:#184079;}
</style>
<g>
	<g>
		<path class="st0" d="M94.5,16.2L14.8,208.8H63L81.5,164h73.3l18.5,44.7h47.9L141.5,16.2H94.5z M90.7,129.7l27.4-67.2l27.4,67.2
			H90.7z M303.7,174c-4.5-0.3-8.4-0.7-11.5-1.3c-3.2-0.6-5.8-1.4-7.9-2.5c-2.1-1.1-4.1-2.5-6.1-4.2c-1.9-1.7-3.4-3.3-4.5-4.6
			c-1.1-1.3-1.9-3.4-2.6-6.2c-0.7-2.8-1.2-6.5-1.4-11.3c-0.3-4.7-0.6-11.3-1-19.8V16.2h-41v107.9c0,10,0.4,18.8,1.2,26.4
			c0.8,7.6,1.9,13.6,3.5,18c3.1,9.2,8.1,17,15.2,23.4c7,6.3,15.4,10.9,25.3,13.6c2.5,0.6,4.9,1.1,7.1,1.6c2.2,0.5,4.9,0.8,8.1,1
			c3.2,0.2,7,0.3,11.4,0.4c4.4,0.1,10,0.1,16.7,0.1h43.6v-34.3h-39.2C313.8,174.4,308.2,174.3,303.7,174z M433.1,17.1
			c-5,0.6-9.6,1.4-13.7,2.6c-4.1,1.2-7.9,2.7-11.4,4.8c-3.5,2-6.9,4.5-10.4,7.4c-21.7,18.3-32.6,44.8-32.6,79.7
			c0,16,2.2,30.4,6.5,43.3c4.3,12.9,10.6,23.7,18.9,32.3c3.8,4,8,7.5,12.6,10.2c4.5,2.8,9.8,5,15.7,6.7c6,1.6,12.8,2.8,20.6,3.6
			c7.8,0.8,16.8,1.1,27,1.1h53.4v-34.3H468c-9.8,0-18.1-0.8-25-2.3c-6.8-1.6-12.5-4-16.9-7.5c-4.4-3.4-7.8-8-10.1-13.6
			c-2.3-5.6-3.9-12.5-4.6-20.8h108.2V95.9H411.4c0.4-4.8,0.8-8.8,1.1-11.8c0.4-3.1,0.9-5.7,1.4-7.9c0.6-2.2,1.3-4.2,2.2-5.9
			c0.9-1.7,2.1-3.6,3.6-5.5c2.1-2.7,4.4-5,6.9-6.8c2.5-1.8,5.5-3.3,9.1-4.3c3.6-1.1,7.8-1.8,12.7-2.3c4.9-0.5,10.8-0.7,17.7-0.7
			h53.4V16.2h-69.3C443.8,16.2,438.1,16.5,433.1,17.1z M663.9,16.2l-73.6,95l69.6,97.5h54l-76.5-97.5l80.2-95H663.9z M547.9,208.8
			h41V16.2h-41V208.8z M901.8,127.9c-2.6-7.7-6.1-13.8-10.5-18.2c-5.6-5.8-12.6-9.9-21.1-12.3c-8.5-2.4-19.7-3.6-33.8-3.6h-30.9
			c-7.3,0-12.8-0.3-16.6-0.9c-3.8-0.6-7-1.7-9.7-3.5c-6-3.7-9-9.5-9-17.6c0-8.9,3.1-14.9,9.2-18.2c2.3-1.3,5.5-2.2,9.7-2.6
			c4.1-0.4,10.7-0.6,19.8-0.6h86V16.2h-95.2c-5.6,0-10.5,0.1-14.7,0.2c-4.2,0.1-7.9,0.3-11.1,0.6c-3.2,0.3-6,0.7-8.5,1.3
			c-2.5,0.6-4.8,1.3-6.9,2c-10,3.5-18.1,10.1-24.2,19.8c-6.2,9.7-9.2,20.7-9.2,33c0,8.5,1.6,16.4,4.7,23.8
			c3.2,7.4,7.7,13.6,13.4,18.6c5,4.4,11.4,7.6,19.2,9.7c7.8,2,17.4,3,29,3H827c4.6,0,8.7,0.3,12.3,0.9c3.6,0.6,6.4,1.4,8.5,2.6
			c3.8,1.9,6.9,4.7,9.1,8.4c2.2,3.7,3.3,7.7,3.3,12.1c0,7.9-3.2,13.8-9.5,17.6c-2.5,1.5-6,2.7-10.4,3.5c-4.4,0.8-10.5,1.2-18.2,1.2
			h-87.7v34.3H831c7.1,0,13.3-0.1,18.5-0.4c5.2-0.3,9.8-0.7,13.7-1.3c3.9-0.6,7.4-1.3,10.3-2.3c2.9-1,5.5-2.2,7.8-3.7
			c7.5-4.6,13.5-11.3,17.9-20.1c4.4-8.8,6.6-18.3,6.6-28.7C905.8,143.7,904.5,135.6,901.8,127.9z"/>
	</g>
	<g>
		<path class="st0" d="M912.4,31.7c0-8.5,6.8-15.3,15.3-15.3c8.5,0,15.3,6.8,15.3,15.3c0,8.4-6.8,15.3-15.3,15.3
			C919.2,46.9,912.4,40.1,912.4,31.7z M914.4,31.7c0,7.3,5.9,13.2,13.2,13.2c7.3,0,13.2-6,13.2-13.2c0-7.3-5.9-13.2-13.2-13.2
			C920.3,18.5,914.4,24.3,914.4,31.7z M927.3,33.5h-3.2v6.9h-2.3V23h7.1c3,0,5.5,2.1,5.5,5.3c0,3.9-3.5,5.2-4.5,5.2l4.7,7h-2.9
			L927.3,33.5z M924.1,25v6.5h4.8c1.8,0,3.2-1.4,3.2-3.2c0-1.9-1.4-3.3-3.2-3.3H924.1z"/>
	</g>
</g>
</svg>
