<?xml version="1.0" encoding="utf-8"?>
<!-- Generator: Adobe Illustrator 27.7.0, SVG Export Plug-In . SVG Version: 6.00 Build 0)  -->
<svg version="1.1" id="Layer_1" xmlns="http://www.w3.org/2000/svg" xmlns:xlink="http://www.w3.org/1999/xlink" x="0px" y="0px"
	 viewBox="0 0 784 611.7" style="enable-background:new 0 0 784 611.7;" xml:space="preserve">
<style type="text/css">
	.st0{fill:#EFF8F9;}
	.st1{fill:#DCF0F4;}
	.st2{fill:#BCDFE8;}
	.st3{fill:#7FC16A;}
	.st4{fill:#9B7EB8;}
	.st5{fill:#0FAAA4;}
	.st6{fill:#DDDDDD;}
	.st7{fill:#F1BB13;}
	.st8{fill:#EE6C4B;}
	.st9{fill:#F9D08C;}
	.st10{fill:#FFE59C;}
	.st11{fill:#FD9526;}
	.st12{fill:#FDB426;}
	.st13{fill:#00202E;}
	.st14{fill:#01374F;}
	.st15{fill:#EF941B;}
	.st16{fill:#E83636;}
	.st17{fill:#FFFFFF;}
	.st18{fill:#E95D24;}
	.st19{fill:#FD761B;}
	.st20{fill:#FFBE51;}
</style>
<g>
	<g>
		<g>
			<g>
				<path class="st0" d="M714.1,328.3c-1,18.9-4.3,37.6-9.5,55.7c-0.1,0.2-0.1,0.4-0.2,0.5c-11.5,39.5-32.4,76.1-59.9,104.8
					c-23,24-50.6,41.7-80,54.2c-22,9.4-45.1,15.9-67.9,20c-14.4,2.6-28.9,4.1-43.3,4.7c-4,0.2-8.1,0.3-12.1,0.3c-0.9,0-1.9,0-2.9,0
					c-0.1,0-0.1,0-0.2,0c-0.2,0-0.4,0-0.6,0c-0.4,0-0.7,0-1.1,0c-0.9,0-1.8,0-2.7,0c-0.1,0-0.2,0-0.3,0h0c-0.6,0-1.2,0-1.8,0
					c-0.5,0-0.9,0-1.4,0c-1,0-2,0-3-0.1c-1.3,0-2.7-0.1-4-0.1c-0.1,0-0.1,0-0.2,0c-0.1,0-0.2,0-0.3,0c-35.8-1.2-71.5-6.9-106.7-13.7
					c-41.8-8-83.3-19.7-122.4-37.3c-23.5-10.6-46.3-23.4-67-39.3c-4.5-3.5-8.9-7-13.2-10.8c-19.5-17.1-38.8-38.5-49-63.7
					c-14.5-35.4-8.5-74.7,11.3-105c9.1-13.8,21-25.8,35.2-34.7c4.5-2.8,9-5.3,13.7-7.6c1.3-0.6,2.5-1.2,3.8-1.8
					c19.1-8.8,39.7-14,60.5-16.9c3.3-0.5,6.5-0.9,9.8-1.2c13.9-1.5,27.8-2.1,41.3-2.3c0.5,0,1,0,1.5,0c0.6,0,1.2,0,1.8,0
					c6.8-0.2,12.6-0.8,17.5-1.8c8.2-1.8,13.9-4.7,17.7-8.6c4.4-4.6,6.1-10.6,5.9-17.6c-0.4-13.9-8.3-31.8-16.9-50.9
					c-1.3-2.8-2.5-5.6-3.8-8.4c-0.3-0.8-0.7-1.5-1-2.3c-4-8.9-7.8-17.9-11-26.7c-0.5-1.3-0.9-2.5-1.3-3.8c-0.3-0.9-0.5-1.7-0.8-2.5
					c-1.1-3.4-2-6.8-2.8-10.1c-0.6-2.6-1.1-5.2-1.5-7.7c-0.6-3.9-0.9-7.7-0.8-11.4c0.2-18.3,8.7-34.2,32.7-44.7
					c5.9-2.6,12-4.5,18.2-5.9c27.5-6.5,56.4-5.5,84.1-2.3c35.3,4.1,70.1,12.7,103.6,24.6c36.1,12.8,71.1,29.5,103.4,50.8
					c15.4,10.1,30.3,21.4,44.1,33.9c0.1,0.1,0.2,0.2,0.3,0.3c36.2,32.9,65.2,74.3,77.4,125.8C713.4,285.1,715.2,306.7,714.1,328.3z"
					/>
			</g>
			<g>
				<path class="st1" d="M714.4,328.3c-1,18.9-4.3,37.6-9.5,55.7c-11.5,39.7-32.5,76.5-60.1,105.3c-0.8,0.8-1.6,1.6-2.4,2.4
					c-0.1,0.1-0.2,0.2-0.3,0.3c-0.7,0.7-1.3,1.3-2,2c-0.2,0.2-0.4,0.4-0.7,0.7c-0.6,0.5-1.1,1.1-1.7,1.6c-0.3,0.3-0.7,0.6-1,0.9
					c-0.7,0.7-1.4,1.3-2.1,1.9c-0.1,0.1-0.3,0.2-0.4,0.4c-0.8,0.7-1.6,1.4-2.4,2.2c-1.8,1.6-3.6,3.1-5.4,4.6
					c-0.7,0.6-1.5,1.2-2.3,1.8c-0.3,0.2-0.5,0.4-0.8,0.6c-0.8,0.7-1.6,1.3-2.5,1.9c-0.9,0.7-1.9,1.4-2.8,2.1
					c-0.9,0.7-1.9,1.4-2.8,2.1c-0.8,0.6-1.6,1.2-2.5,1.8c-0.2,0.2-0.5,0.3-0.7,0.5c-0.9,0.6-1.7,1.2-2.6,1.8c-1,0.7-1.9,1.3-2.9,2
					c-0.9,0.6-1.7,1.2-2.6,1.7c-1.3,0.8-2.6,1.7-3.9,2.5c-0.7,0.4-1.4,0.8-2,1.3c-0.2,0.1-0.4,0.2-0.6,0.4c-0.7,0.4-1.3,0.8-2,1.2
					c-0.4,0.2-0.8,0.5-1.3,0.7c-0.9,0.5-1.7,1-2.6,1.5c-0.9,0.5-1.8,1-2.7,1.5c-0.2,0.1-0.4,0.2-0.6,0.3c-0.9,0.5-1.8,1-2.7,1.5
					c0,0,0,0,0,0c-0.9,0.5-1.9,1-2.8,1.5c-0.3,0.1-0.5,0.3-0.8,0.4c-0.9,0.4-1.7,0.9-2.6,1.3c-0.9,0.4-1.7,0.8-2.6,1.3
					c-1.2,0.6-2.5,1.2-3.7,1.8c-1,0.5-2,0.9-3.1,1.4c-0.1,0-0.2,0.1-0.3,0.1c-0.7,0.3-1.5,0.7-2.2,1c-0.5,0.2-1,0.5-1.6,0.7
					c0,0,0,0,0,0c-0.6,0.2-1.1,0.5-1.7,0.7c-0.2,0.1-0.5,0.2-0.7,0.3c-1.1,0.4-2.1,0.9-3.2,1.3c-0.9,0.4-1.8,0.7-2.8,1.1
					c-2.1,0.8-4.2,1.6-6.3,2.4c-0.6,0.2-1.1,0.4-1.7,0.6c-0.8,0.3-1.6,0.6-2.5,0.9c-1,0.3-2,0.7-3,1c-1.9,0.6-3.8,1.3-5.7,1.9
					c-0.6,0.2-1.3,0.4-1.9,0.6c-0.8,0.3-1.7,0.5-2.5,0.8c-0.8,0.2-1.5,0.5-2.3,0.7c-0.1,0-0.2,0-0.2,0.1c-0.6,0.2-1.2,0.3-1.8,0.5
					c-2.7,0.8-5.4,1.5-8.1,2.2c-0.8,0.2-1.5,0.4-2.3,0.6c-0.9,0.2-1.8,0.5-2.7,0.7c-1,0.2-2,0.5-3,0.7c-1.1,0.3-2.3,0.5-3.4,0.8
					c-1.1,0.2-2.3,0.5-3.4,0.7c-0.1,0-0.1,0-0.2,0c-1.1,0.2-2.1,0.4-3.2,0.7c-0.7,0.1-1.4,0.3-2.2,0.4c-0.7,0.1-1.3,0.3-2,0.4
					c-0.9,0.2-1.7,0.3-2.6,0.5c-14.4,2.6-28.9,4.1-43.3,4.7c-4.1,0.2-8.3,0.3-12.4,0.3c-0.9,0-1.9,0-2.9,0c-0.3,0-0.5,0-0.8,0
					c-0.4,0-0.7,0-1.1,0c-0.9,0-1.8,0-2.7,0c-0.7,0-1.4,0-2.2,0c-0.5,0-0.9,0-1.4,0c-2.4,0-4.8-0.1-7.2-0.2c-1,0-2-0.1-2.9-0.1
					c-0.8,0-1.7-0.1-2.5-0.1c-0.9,0-1.8-0.1-2.7-0.1c-0.3,0-0.5,0-0.8,0c-0.8,0-1.6-0.1-2.4-0.1c-0.9-0.1-1.9-0.1-2.8-0.2
					c-1.5-0.1-3-0.2-4.4-0.3c-1-0.1-2-0.1-3-0.2c-1.2-0.1-2.4-0.2-3.6-0.3c0,0,0,0-0.1,0c-1.1-0.1-2.3-0.2-3.4-0.3
					c-0.1,0-0.3,0-0.4,0c-1-0.1-2-0.2-2.9-0.3c-1.5-0.2-3-0.3-4.6-0.5c-1-0.1-2-0.2-2.9-0.3c-1.1-0.1-2.2-0.2-3.2-0.4
					c-1-0.1-2.1-0.2-3.1-0.4c-2.8-0.3-5.5-0.7-8.3-1.1c-2.2-0.3-4.4-0.6-6.6-0.9c-2.4-0.4-4.9-0.7-7.3-1.1c-0.8-0.1-1.7-0.3-2.5-0.4
					c-4.2-0.7-8.4-1.4-12.5-2.1c-0.9-0.2-1.8-0.3-2.7-0.5c-7.1-1.2-14.1-2.5-21.1-3.9c-41.8-8-83.3-19.7-122.4-37.3
					c-23.5-10.6-46.3-23.4-67-39.3c-4.5-3.5-8.9-7-13.2-10.8C94.3,450,75,428.6,64.7,403.5c-14.5-35.4-8.5-74.7,11.3-105
					c0,0,18.6,14.6,48.6,29.2c1.2,0.6,2.5,1.2,3.8,1.8c13.4,6.3,28.9,12.4,46,17.2c6.3,1.8,12.9,3.4,19.6,4.7c0.2,0,0.4,0.1,0.5,0.1
					c1,0.2,2.1,0.4,3.1,0.6c2.3,0.4,4.7,0.8,7.1,1.2c4.3,0.7,8.6,1.2,13,1.7c1,0.1,2.1,0.2,3.2,0.3c6.6,0.6,13.3,0.9,20.1,0.8
					c1,0,2.1,0,3.1,0c6.6-0.1,13.3-0.6,20.1-1.4c0.9-0.1,1.7-0.2,2.5-0.3c2.1-0.3,4.2-0.6,6.3-1c3.3-0.6,6.6-1.2,9.9-1.9
					c1.3-0.3,2.6-0.6,3.9-0.9c1-0.3,2.1-0.5,3.1-0.8c6.7-1.8,13.4-3.9,20.1-6.5c1-0.4,2.1-0.8,3.1-1.2c2.7-1.1,5.4-2.2,8.1-3.5
					c1.4-0.6,2.7-1.3,4.1-1.9c2.7-1.3,5.3-2.6,8-4.1c10.6-5.7,21.2-12.7,31.7-21c1-0.8,2.1-1.7,3.1-2.5c2.3-1.8,4.5-3.8,6.8-5.7
					C513.2,181.5,614,363.4,631,138.5c0-0.1,0-0.2,0-0.3c36.4,32.9,65.5,74.5,77.8,126.1C713.8,285.1,715.6,306.7,714.4,328.3z"/>
			</g>
			<g>
				<path class="st2" d="M704.9,384c-11.5,39.7-32.5,76.5-60.1,105.3c-0.8,0.8-1.6,1.6-2.4,2.4c-0.1,0.1-0.2,0.2-0.3,0.3
					c-0.7,0.7-1.3,1.3-2,2c-0.2,0.2-0.4,0.4-0.7,0.7c-0.6,0.5-1.1,1.1-1.7,1.6c-0.3,0.3-0.7,0.6-1,0.9c-0.7,0.7-1.4,1.3-2.1,1.9
					c-0.1,0.1-0.3,0.2-0.4,0.4c-0.8,0.7-1.6,1.4-2.4,2.2c-1.8,1.6-3.6,3.1-5.4,4.6c-0.7,0.6-1.5,1.2-2.3,1.8
					c-0.3,0.2-0.5,0.4-0.8,0.6c-0.8,0.7-1.6,1.3-2.5,1.9c-0.9,0.7-1.9,1.4-2.8,2.1c-0.9,0.7-1.9,1.4-2.8,2.1
					c-0.8,0.6-1.6,1.2-2.5,1.8c-0.2,0.2-0.5,0.3-0.7,0.5c-0.9,0.6-1.7,1.2-2.6,1.8c-1,0.7-1.9,1.3-2.9,2c-0.9,0.6-1.7,1.2-2.6,1.7
					c-1.3,0.8-2.6,1.7-3.9,2.5c-0.7,0.4-1.4,0.8-2,1.3c-0.2,0.1-0.4,0.2-0.6,0.4c-0.7,0.4-1.3,0.8-2,1.2c-0.4,0.2-0.8,0.5-1.3,0.7
					c-0.9,0.5-1.7,1-2.6,1.5c-0.9,0.5-1.8,1-2.7,1.5c-0.2,0.1-0.4,0.2-0.6,0.3c-0.9,0.5-1.8,1-2.7,1.5c0,0,0,0,0,0
					c-0.9,0.5-1.9,1-2.8,1.5c-0.3,0.1-0.5,0.3-0.8,0.4c-0.9,0.4-1.7,0.9-2.6,1.3c-0.9,0.4-1.7,0.8-2.6,1.3c-1.2,0.6-2.5,1.2-3.7,1.8
					c-1,0.5-2,0.9-3.1,1.4c-0.1,0-0.2,0.1-0.3,0.1c-0.7,0.3-1.5,0.7-2.2,1c-0.5,0.2-1,0.5-1.6,0.7c0,0,0,0,0,0
					c-0.6,0.2-1.1,0.5-1.7,0.7v0c-0.2,0.1-0.5,0.2-0.7,0.3c-1.1,0.4-2.1,0.9-3.2,1.3c-0.9,0.4-1.8,0.7-2.8,1.1
					c-2.1,0.8-4.2,1.6-6.3,2.4c-0.2,0.1-0.4,0.1-0.6,0.2c-0.4,0.1-0.7,0.3-1.1,0.4c-0.8,0.3-1.6,0.6-2.5,0.9c-1,0.3-2,0.7-3,1
					c-1.9,0.6-3.8,1.3-5.7,1.9c-0.6,0.2-1.3,0.4-1.9,0.6c-0.8,0.3-1.7,0.5-2.5,0.8c-0.8,0.2-1.5,0.5-2.3,0.7c-0.1,0-0.2,0-0.2,0.1
					c-0.6,0.2-1.2,0.3-1.8,0.5c-2.7,0.8-5.4,1.5-8.1,2.2c-0.8,0.2-1.5,0.4-2.3,0.6c-0.9,0.2-1.8,0.5-2.7,0.7c-1,0.2-2,0.5-3,0.7
					c-1.1,0.3-2.3,0.5-3.4,0.8c-1.1,0.2-2.3,0.5-3.4,0.7c-0.1,0-0.1,0-0.2,0c-1.1,0.2-2.1,0.4-3.2,0.7c-0.7,0.1-1.4,0.3-2.2,0.4
					c-0.7,0.1-1.3,0.3-2,0.4c-0.9,0.2-1.7,0.3-2.6,0.5c-14.4,2.6-28.9,4.1-43.3,4.7c-4.1,0.2-8.3,0.3-12.4,0.3c-0.9,0-1.9,0-2.9,0
					c-0.3,0-0.5,0-0.8,0c-0.4,0-0.7,0-1.1,0c-1,0-2,0-3,0h0c-0.6,0-1.2,0-1.8,0c-0.5,0-0.9,0-1.4,0c-2.4,0-4.8-0.1-7.2-0.2
					c-1,0-2-0.1-2.9-0.1c-0.8,0-1.7-0.1-2.5-0.1c-0.9,0-1.8-0.1-2.7-0.1c-0.3,0-0.5,0-0.8,0c-0.8,0-1.6-0.1-2.4-0.1
					c-0.9-0.1-1.9-0.1-2.8-0.2c-1.5-0.1-3-0.2-4.4-0.3c-1-0.1-2-0.1-3-0.2c-1.2-0.1-2.4-0.2-3.6-0.3c0,0,0,0-0.1,0
					c-1.1-0.1-2.3-0.2-3.4-0.3c-0.1,0-0.3,0-0.4,0c-1-0.1-2-0.2-2.9-0.3c-1.5-0.2-3-0.3-4.6-0.5c-1-0.1-2-0.2-2.9-0.3
					c-1.1-0.1-2.2-0.2-3.2-0.4c-1-0.1-2.1-0.2-3.1-0.4c-2.8-0.3-5.5-0.7-8.3-1.1c-2.2-0.3-4.4-0.6-6.6-0.9c-2.4-0.4-4.9-0.7-7.3-1.1
					c-0.8-0.1-1.7-0.3-2.5-0.4c-4.2-0.7-8.4-1.4-12.5-2.1c-0.9-0.2-1.8-0.3-2.7-0.5c-7.1-1.2-14.1-2.5-21.1-3.9
					c-41.8-8-83.3-19.7-122.4-37.3c-23.5-10.6-46.3-23.4-67-39.3c0.5,0.2,134.7,49.8,268.3-4.6c17-6.9,32.8-11.6,47.7-14.6
					c0.5-0.1,0.9-0.2,1.4-0.3c14.7-3,28.5-4.4,41.7-5c3.6-0.2,7.1-0.3,10.7-0.3c72.6-1.3,127.1,17.3,207.8-68.5
					C704.6,384.3,704.7,384.2,704.9,384z"/>
			</g>
		</g>
	</g>
</g>
<g>
	<path class="st3" d="M310.9,141l-15-56c53.8-14.4,111.2-2.2,154.5,32.8l-36.5,45.1c-19.9-16.2-45.3-25.8-73-25.8
		C330.5,137.1,320.5,138.5,310.9,141L310.9,141z"/>
	<path class="st4" d="M254.7,175.5l-71.8-64.7c27.5-30.6,63.3-52.5,103-63.1l25,93.3C288.9,146.9,269.5,159.1,254.7,175.5z"/>
	<path class="st5" d="M345,369l4,115.9c-93,3.2-179-49.4-218.3-133.8C91.3,266.8,106.2,167,168.5,97.9l86.2,77.6
		c-18.5,20.6-29.8,47.8-29.8,77.6c0,64.1,51.9,116,116,116C342.3,369.1,343.6,369.1,345,369z"/>
	<path class="st6" d="M428.5,329.2l87.5,76.1c-42.2,48.6-102.7,77.4-167,79.7L345,369C378.3,367.9,408,352.7,428.5,329.2z"/>
	<path class="st7" d="M456.6,261.2l57.8,4.1c-2.6,37.7-17.5,73.5-42.2,102l-43.8-38.1C444.5,310.7,454.9,287.1,456.6,261.2z"/>
	<path class="st8" d="M413.9,162.9l24.3-30c39.2,31.8,60.5,80.6,57,131l-38.6-2.7c0.2-2.7,0.3-5.4,0.3-8.1
		C456.9,216.7,440.2,184.2,413.9,162.9z"/>
</g>
<g>
	<g>
		<g>
			<path class="st7" d="M660.8,420.6l2,10.2c-11,2.1-22.1-3.1-27.6-12.9c-5.4-9.8-3.9-22,3.7-30.2l7.6,7.1
				c-2.6,2.8-4.2,6.5-4.2,10.6c0,8.6,7,15.5,15.5,15.5C658.9,420.9,659.8,420.8,660.8,420.6z"/>
		</g>
	</g>
	<g>
		<g>
			<path class="st7" d="M652.4,435.9l-1.8,10.2c-15-2.6-27.3-13.3-32.1-27.8c-4.8-14.5-1.3-30.4,9.2-41.4
				c10.4-11.1,26.1-15.5,40.8-11.6l-2.7,10c-2.6-0.7-5.3-1.1-8-1.1c-17.2,0-31.1,13.9-31.1,31.1
				C626.8,420.7,637.9,433.4,652.4,435.9z"/>
		</g>
	</g>
	<g>
		<g>
			<path class="st8" d="M699.4,426.5l9.2,4.7c-13.5,26.5-45.1,38.1-72.5,26.8c-27.5-11.4-41.5-41.9-32.4-70.2l9.8,3.2
				c-1.5,4.5-2.3,9.4-2.3,14.4c0,25.7,20.9,46.6,46.6,46.6C676,451.9,691.6,441.6,699.4,426.5z"/>
		</g>
	</g>
	<g>
		<g>
			<path class="st3" d="M601.1,430.6c9.7,21.7,31.5,36.8,56.8,36.8c29.9,0,54.8-21.1,60.8-49.2l10.1,2.1
				c-6.5,30.7-32.1,53.7-63.3,57c-31.2,3.3-61-13.9-73.8-42.6L601.1,430.6z"/>
		</g>
	</g>
	<g>
		<g>
			<path class="st8" d="M609,465.7l-6.5,8c-36.1-29.3-43.3-81.6-16.3-119.5c27-37.9,78.8-48.2,118.3-23.5l-5.5,8.8
				c-11.9-7.5-26-11.8-41.2-11.8c-42.9,0-77.6,34.8-77.6,77.6C580.2,429.7,591.4,451.4,609,465.7z"/>
		</g>
	</g>
	<g>
		<g>
			<path class="st7" d="M566.4,387.6l-10.1-2c10.5-53.8,61.1-90.2,115.4-82.9c54.3,7.3,93.6,55.7,89.4,110.4
				c-4.1,54.7-50.2,96.6-105,95.7l0.2-10.4c0.5,0,1.1,0,1.6,0c51.5,0,93.2-41.7,93.2-93.2c0-51.5-41.7-93.2-93.2-93.2
				C612.5,312.2,574.7,344.6,566.4,387.6z"/>
		</g>
	</g>
</g>
<g>
	<g>
		<g>
			<path class="st9" d="M23.4,318.7c0.4-0.8,0.8-1.5,1.3-2.3c0.4-0.6,0.8-1.1,1.2-1.7c0.1-0.2,0.2-0.3,0.4-0.5
				c0.4-0.6,0.9-1.1,1.4-1.6c1.1-1.2,2.4-2.2,3.8-3.2c1.4-0.9,3-1.6,4.8-2.1c0.1,0,0.3-0.1,0.4-0.1l-4.4,1.1c-0.1,0-0.3,0.1-0.4,0.1
				c-1.8,0.5-3.4,1.2-4.8,2.1c-1.4,0.9-2.6,2-3.8,3.2c-0.5,0.5-0.9,1.1-1.4,1.6c-0.1,0.2-0.2,0.3-0.4,0.5c-0.1,0.2-0.3,0.3-0.4,0.5
				c-0.3,0.4-0.5,0.8-0.8,1.1c-0.5,0.7-0.9,1.5-1.3,2.3c0,0.1-0.1,0.1-0.1,0.2l0,0v0l0,0v0c-0.3,0.5-0.5,1.1-0.8,1.6l4.4-1.1
				C22.8,319.9,23.1,319.3,23.4,318.7z"/>
		</g>
		<g>
			<path class="st9" d="M34.8,293.8c0.5-0.1,1-0.2,1.5-0.2c0.3,0,0.6-0.1,0.9-0.1c0.4,0,0.8-0.1,1.2-0.1c0.3,0,0.6,0,0.9-0.1
				c0.5,0,1-0.1,1.6-0.1c0.3,0,0.6,0,0.9,0c0.6,0,1.2,0.1,1.8,0.1c0.6,0.1,1.2,0.1,1.7,0.2c0.3,0,0.6,0.1,0.8,0.1
				c0.5,0.1,0.9,0.2,1.4,0.3c0.3,0.1,0.6,0.1,0.9,0.2c0.4,0.1,0.8,0.3,1.2,0.4c0.3,0.1,0.7,0.2,1,0.4c0.7,0.3,1.3,0.6,1.9,0.9
				c0.1,0,0.1,0.1,0.2,0.1c0.7,0.4,1.3,0.8,1.9,1.3c0.3,0.2,0.6,0.5,0.8,0.7c0.1,0.1,0.3,0.2,0.4,0.4c0.4,0.4,0.9,0.9,1.3,1.3
				c0.4,0.5,0.8,1,1.1,1.5c0.1,0.2,0.2,0.3,0.3,0.5c0.2,0.4,0.5,0.7,0.7,1.1c0.1,0.2,0.2,0.4,0.3,0.6c0.2,0.4,0.4,0.8,0.5,1.1
				c0.1,0.2,0.2,0.4,0.3,0.6c0.2,0.6,0.4,1.2,0.6,1.8c0.2,0.6,0.3,1.2,0.4,1.7c0.1,0.5,0.1,1,0.2,1.5c0,0.2,0,0.4,0.1,0.5
				c0,0.2,0,0.4,0,0.6c0,0.4,0,0.8,0,1.2c0,0.2,0,0.3,0,0.5c0,0.5-0.1,0.9-0.2,1.4c-0.1,0.5-0.2,1-0.4,1.5c-0.2,0.7-0.4,1.3-0.6,2
				c0,0.1-0.1,0.3-0.2,0.4c-0.2,0.6-0.5,1.1-0.8,1.7c-0.1,0.3-0.3,0.6-0.4,0.8c-0.6,1-1.2,2-1.8,2.9c-0.6,0.9-1.3,1.7-2,2.5
				c-1.5,1.7-2.9,3.2-4.4,4.5c-1.2,1.1-2.4,2.3-3.7,3.7c-1.3,1.3-2.6,2.7-3.8,4.3c-0.5,0.6-0.9,1.2-1.4,1.8
				c-0.1,0.1-0.1,0.2-0.1,0.2c-0.6,0.9-1.2,1.8-1.7,2.7c-0.1,0.2-0.2,0.4-0.3,0.5c0,0.1-0.1,0.1-0.1,0.2c-0.3,0.5-0.5,1.1-0.7,1.6
				c0,0,0,0,0,0c0,0,0,0,0,0c-0.2,0.5-0.3,0.9-0.4,1.4c0,0,0,0.1,0,0.1c-0.1,0.3-0.1,0.6-0.2,0.9v0l4.4-1.1c0.1-0.3,0.2-0.7,0.2-1
				c0.1-0.5,0.3-0.9,0.4-1.4c0,0,0,0,0-0.1c0.2-0.5,0.4-1.1,0.7-1.6c0.1-0.2,0.2-0.5,0.4-0.7c0.5-0.9,1.1-1.8,1.7-2.7
				c0.5-0.7,1-1.4,1.5-2c1.2-1.5,2.5-2.9,3.8-4.3c1.3-1.3,2.6-2.5,3.7-3.7c1.4-1.4,2.9-2.9,4.4-4.5c0.7-0.8,1.4-1.6,2-2.5
				c0,0,0,0,0-0.1c0.7-0.9,1.3-1.9,1.8-2.9c0.1-0.2,0.2-0.3,0.3-0.5c0.1-0.1,0.1-0.2,0.1-0.3c0.3-0.6,0.5-1.1,0.8-1.7
				c0-0.1,0.1-0.2,0.1-0.3c0,0,0-0.1,0-0.1c0.2-0.6,0.4-1.3,0.6-2c0,0,0-0.1,0-0.1c0.1-0.5,0.2-0.9,0.3-1.4c0-0.2,0.1-0.4,0.1-0.6
				c0-0.3,0.1-0.5,0.1-0.8c0-0.2,0-0.3,0-0.5c0-0.1,0-0.1,0-0.2c0-0.3,0-0.7,0-1c0-0.2,0-0.4,0-0.6c0,0,0,0,0-0.1
				c0-0.2,0-0.3-0.1-0.5c0-0.5-0.1-1-0.2-1.5c0-0.1,0-0.1,0-0.2c-0.1-0.5-0.2-1-0.4-1.6c-0.1-0.5-0.3-1-0.5-1.5
				c0-0.1-0.1-0.2-0.1-0.3c-0.1-0.2-0.2-0.4-0.3-0.6c-0.2-0.4-0.3-0.8-0.5-1.1c-0.1-0.2-0.2-0.4-0.3-0.6c-0.2-0.4-0.4-0.7-0.7-1.1
				c-0.1-0.2-0.2-0.3-0.3-0.5c-0.3-0.5-0.7-1-1.1-1.5c-0.4-0.5-0.8-0.9-1.3-1.3c-0.1-0.1-0.3-0.3-0.4-0.4c-0.2-0.2-0.4-0.4-0.6-0.5
				c-0.1-0.1-0.2-0.1-0.3-0.2c-0.6-0.5-1.2-0.9-1.9-1.3c0,0-0.1-0.1-0.1-0.1c0,0,0,0,0,0c-0.6-0.3-1.2-0.7-1.9-0.9
				c-0.1,0-0.1-0.1-0.2-0.1c-0.2-0.1-0.5-0.2-0.8-0.3c-0.4-0.1-0.8-0.3-1.2-0.4c0,0-0.1,0-0.1,0c-0.2-0.1-0.5-0.1-0.7-0.2
				c-0.4-0.1-0.9-0.2-1.4-0.3c-0.1,0-0.1,0-0.2-0.1c-0.2,0-0.4,0-0.6-0.1c-0.6-0.1-1.1-0.2-1.7-0.2c-0.1,0-0.3,0-0.4-0.1
				c-0.5,0-1-0.1-1.4-0.1c-0.3,0-0.6,0-0.9,0c-0.3,0-0.5,0-0.8,0c-0.2,0-0.5,0-0.8,0c-0.3,0-0.6,0-0.9,0.1c-0.4,0-0.8,0.1-1.3,0.1
				c-0.3,0-0.6,0.1-0.9,0.1c-0.1,0-0.2,0-0.2,0c-0.4,0.1-0.8,0.1-1.2,0.2c-0.2,0-0.5,0.1-0.7,0.1c-0.7,0.1-1.5,0.3-2.2,0.5l-4.4,1.1
				c0.8-0.2,1.5-0.4,2.2-0.5C34.4,293.8,34.6,293.8,34.8,293.8z"/>
		</g>
		<g>
			<polygon class="st9" points="75.3,338.2 70.9,339.3 74.6,352.9 19.5,368 23.9,366.9 79,351.8 			"/>
		</g>
	</g>
	<g>
		<g>
			<path class="st10" d="M40.9,293.2c0.3,0,0.6,0,0.9,0c3.3,0.1,6.2,0.7,8.8,1.8c2.6,1.1,4.7,2.7,6.5,4.8c1.7,2.1,3,4.5,3.8,7.2
				c0.7,2.6,0.8,5.1,0.4,7.4c-0.4,2.3-1.2,4.4-2.3,6.4c-1.1,2-2.4,3.8-3.9,5.5c-1.5,1.7-2.9,3.2-4.4,4.5c-1.2,1.1-2.4,2.3-3.7,3.7
				c-1.3,1.3-2.6,2.7-3.8,4.3c-1.2,1.5-2.3,3.1-3.2,4.7c-0.9,1.6-1.5,3.2-1.8,4.9l32.8-9l3.7,13.6L19.5,368
				c-0.9-3.4-1.5-6.5-1.7-9.4c-0.2-2.9,0-5.7,0.8-8.4c0.7-2.7,2-5.4,3.7-8c1.7-2.7,4.1-5.4,7.2-8.4c2.6-2.5,4.9-4.7,7-6.6
				c2.1-1.9,3.8-3.6,5.1-5.1c1.3-1.5,2.3-2.9,2.8-4.2c0.5-1.3,0.6-2.7,0.2-4.1c-0.6-2.2-2.1-3.9-4.3-5c-1.2-0.6-2.6-0.9-4.2-0.9
				c-1.3,0-2.8,0.2-4.3,0.6c-1.8,0.5-3.4,1.2-4.8,2.1c-1.4,0.9-2.6,2-3.8,3.2c-1.1,1.2-2.1,2.4-2.9,3.8c-0.8,1.3-1.5,2.7-2.2,4
				l-12.9-8.4c0.7-1.3,1.8-2.8,3.3-4.6c1.5-1.7,3.3-3.5,5.5-5.3c2.2-1.8,4.7-3.4,7.5-5c2.8-1.5,5.9-2.8,9.4-3.7
				C34.5,293.7,37.8,293.2,40.9,293.2z"/>
		</g>
	</g>
</g>
<g>
	<g>
		<g>
			<path class="st11" d="M126.3,457c-0.1,0.2-0.3,0.4-0.4,0.6c-0.1,0.1-0.2,0.3-0.3,0.4c-0.1,0.1-0.2,0.2-0.2,0.3
				c-0.3,0.3-0.6,0.6-0.9,0.9c-0.1,0.1-0.2,0.2-0.4,0.3c-0.5,0.4-1,0.8-1.6,1.3c-0.8,0.6-1.6,1.1-2.5,1.7c-0.2,0.1-0.5,0.3-0.7,0.4
				c-0.9,0.5-1.8,1.1-2.8,1.6c-2.2,1.2-4.5,2.2-6.8,3c-1.2,0.4-2.3,0.7-3.4,1c-1.1,0.2-2,0.4-3,0.4l0,0c0,0,0,0,0,0l5.6,0.7
				c1.8-0.1,4-0.6,6.3-1.4c2.4-0.8,4.7-1.8,6.8-3c1-0.5,1.9-1.1,2.8-1.6c0.2-0.1,0.5-0.3,0.7-0.4c0.2-0.1,0.5-0.3,0.7-0.4
				c0.6-0.4,1.2-0.8,1.8-1.2c0.6-0.4,1.1-0.9,1.6-1.3c0.1-0.1,0.1-0.1,0.2-0.2c0.1-0.1,0.1-0.1,0.2-0.2c0.3-0.3,0.6-0.6,0.9-0.9
				c0.1-0.1,0.1-0.1,0.2-0.2c0,0,0,0,0.1-0.1c0.1-0.1,0.2-0.3,0.3-0.4c0.1-0.1,0.2-0.3,0.3-0.4c0-0.1,0.1-0.1,0.1-0.2c0,0,0,0,0,0
				l0,0l0,0L126.3,457z"/>
		</g>
		<g>
			<polygon class="st11" points="154.3,499.8 150.6,435.5 145.1,434.8 148.7,499.1 			"/>
		</g>
		<g>
			<polygon class="st11" points="172.8,498.7 167.2,498 168.2,515.3 109.1,518.9 114.7,519.5 173.8,516 			"/>
		</g>
	</g>
	<g>
		<g>
			<path class="st12" d="M145.1,434.8l3.6,64.3l18.5-1.1l1,17.3l-59.1,3.6l-1-17.3l20.7-1.2l-2.5-43.3c-0.8,1.2-2.1,2.5-3.9,3.8
				c-1.8,1.3-3.7,2.5-5.9,3.7c-2.2,1.2-4.5,2.2-6.8,3c-2.4,0.8-4.5,1.3-6.3,1.4l-1-17.9c1.7-0.1,3.8-0.8,6.3-2
				c2.5-1.2,4.9-2.7,7.2-4.4c2.3-1.7,4.4-3.3,6.1-4.9c1.8-1.6,2.8-2.8,3.2-3.7L145.1,434.8z"/>
		</g>
	</g>
</g>
<g>
	<g>
		<g>
			<path class="st12" d="M180.8,477.8l-11.3,28.5l113,27.8l12.7-30c2.2-5.1-2.9-10.8-11.2-12.6L197.1,472
				C190,470.5,182.7,473.1,180.8,477.8z"/>
		</g>
		<g>
			<path class="st13" d="M168.8,506.2l-65.1,49.5c-5,4.2-5.7,12.1,5.1,15.5l91.7,26.6c8.6,2.5,19.4,0.7,23.9-4l58.1-59.8l0.7-4.8
				L168.8,506.2z"/>
		</g>
		<g>
			<path class="st14" d="M109.5,566.3l91.7,26.7c8.6,2.5,19.4,0.7,23.9-4l11.8-12.1l46.3-47.7L171,501.7l-1.6-0.4l-64.7,53.4
				C99.7,558.9,101.8,564.1,109.5,566.3z"/>
		</g>
		<g>
			<g>
				<path class="st15" d="M242.9,534.8l7.9,2c3.2,0.8,7.1,0.2,8.7-1.4l2.7-2.7c1.6-1.6,0.2-3.5-3-4.3l-7.8-1.9
					c-3.2-0.8-7-0.2-8.6,1.3l-2.7,2.6C238.4,532.1,239.7,534,242.9,534.8z"/>
			</g>
			<g>
				<path class="st15" d="M219.4,528.8l7.7,1.9c3.1,0.8,7,0.2,8.6-1.4l2.7-2.6c1.6-1.5,0.4-3.4-2.8-4.2l-7.6-1.9
					c-3.1-0.8-6.9-0.2-8.5,1.3l-2.8,2.5C215.1,526.2,216.3,528.1,219.4,528.8z"/>
			</g>
			<g>
				<path class="st15" d="M196.4,523l7.5,1.9c3.1,0.8,6.9,0.2,8.6-1.3l2.8-2.5c1.6-1.5,0.5-3.3-2.6-4.1l-7.4-1.8
					c-3-0.7-6.8-0.2-8.4,1.3l-2.8,2.5C192.3,520.4,193.4,522.2,196.4,523z"/>
			</g>
			<g>
				<path class="st15" d="M174,517.3l7.3,1.8c3,0.8,6.8,0.2,8.5-1.3l2.8-2.5c1.7-1.5,0.6-3.2-2.4-4l-7.2-1.8
					c-2.9-0.7-6.7-0.2-8.4,1.3l-2.9,2.4C170.1,514.8,171.1,516.6,174,517.3z"/>
			</g>
			<g>
				<path class="st15" d="M231.2,546.2l7.9,2.1c3.3,0.9,7.3,0.2,8.9-1.4l2.7-2.7c1.6-1.6,0.3-3.6-2.9-4.4l-7.9-2
					c-3.2-0.8-7.1-0.2-8.8,1.4l-2.8,2.7C226.7,543.4,228,545.3,231.2,546.2z"/>
			</g>
			<g>
				<path class="st15" d="M207.4,540l7.7,2c3.2,0.8,7.1,0.2,8.8-1.4l2.8-2.7c1.7-1.6,0.4-3.5-2.7-4.3l-7.7-2c-3.1-0.8-7-0.2-8.7,1.4
					l-2.9,2.6C203.1,537.2,204.2,539.1,207.4,540z"/>
			</g>
			<g>
				<path class="st15" d="M184.2,533.9l7.6,2c3.1,0.8,7,0.2,8.7-1.4l2.9-2.6c1.7-1.5,0.6-3.4-2.5-4.2l-7.5-1.9
					c-3-0.8-6.9-0.2-8.6,1.3l-2.9,2.6C180.1,531.2,181.1,533.1,184.2,533.9z"/>
			</g>
			<g>
				<path class="st15" d="M161.5,528l7.4,1.9c3,0.8,6.9,0.2,8.7-1.3l2.9-2.6c1.7-1.5,0.7-3.4-2.3-4.1l-7.3-1.9
					c-3-0.8-6.8-0.2-8.5,1.3l-3,2.5C157.6,525.3,158.5,527.2,161.5,528z"/>
			</g>
			<g>
				<path class="st15" d="M219.1,558l8,2.2c3.3,0.9,7.4,0.2,9.1-1.5l2.9-2.9c1.7-1.7,0.4-3.7-2.9-4.6l-8-2.1
					c-3.2-0.9-7.2-0.2-8.9,1.4l-2.9,2.8C214.6,555,215.8,557.1,219.1,558z"/>
			</g>
			<g>
				<path class="st15" d="M195,551.5l7.8,2.1c3.2,0.9,7.3,0.2,9-1.4l2.9-2.8c1.7-1.6,0.5-3.6-2.7-4.5l-7.8-2
					c-3.2-0.8-7.1-0.2-8.9,1.4l-3,2.7C190.7,548.6,191.8,550.6,195,551.5z"/>
			</g>
			<g>
				<path class="st15" d="M171.5,545.2l7.6,2.1c3.1,0.8,7.1,0.2,8.9-1.4l3-2.7c1.8-1.6,0.6-3.6-2.5-4.4l-7.6-2
					c-3.1-0.8-7-0.2-8.8,1.4l-3,2.7C167.4,542.4,168.4,544.3,171.5,545.2z"/>
			</g>
			<g>
				<path class="st15" d="M148.6,539l7.4,2c3.1,0.8,7,0.2,8.8-1.4l3.1-2.7c1.8-1.6,0.8-3.5-2.3-4.3l-7.4-1.9c-3-0.8-6.9-0.2-8.7,1.3
					l-3.1,2.6C144.6,536.3,145.6,538.2,148.6,539z"/>
			</g>
			<g>
				<path class="st15" d="M206.5,570.3l8.1,2.3c3.3,0.9,7.5,0.2,9.3-1.5l3-3c1.7-1.7,0.4-3.9-2.9-4.8l-8.1-2.2
					c-3.3-0.9-7.4-0.2-9.1,1.5l-3,2.9C202,567.2,203.2,569.3,206.5,570.3z"/>
			</g>
			<g>
				<path class="st15" d="M182.1,563.5l7.9,2.2c3.3,0.9,7.4,0.2,9.2-1.5l3-2.9c1.8-1.7,0.6-3.8-2.6-4.7l-7.9-2.1
					c-3.2-0.9-7.2-0.2-9,1.4l-3.1,2.8C177.8,560.5,178.9,562.6,182.1,563.5z"/>
			</g>
			<g>
				<path class="st15" d="M158.3,556.9l7.7,2.1c3.2,0.9,7.3,0.2,9.1-1.5l3.1-2.8c1.8-1.7,0.7-3.7-2.4-4.5l-7.7-2.1
					c-3.1-0.8-7.1-0.2-9,1.4l-3.2,2.8C154.2,554,155.2,556,158.3,556.9z"/>
			</g>
			<g>
				<path class="st15" d="M120,561.9l10.2,2.9c2.4,0.7,5.6,0.2,7.1-1.1l18.4-16.1c1.4-1.2,0.7-2.8-1.7-3.4l-10-2.7
					c-2.3-0.6-5.4-0.2-6.8,1.1l-18.7,15.8C117,559.7,117.6,561.3,120,561.9z"/>
			</g>
			<g>
				<path class="st15" d="M193.4,583l8.2,2.4c3.4,1,7.6,0.3,9.5-1.6l3.1-3.1c1.8-1.8,0.5-4-2.8-5l-8.2-2.3c-3.3-0.9-7.5-0.2-9.3,1.5
					l-3.1,3C188.8,579.8,190,582,193.4,583z"/>
			</g>
			<g>
				<path class="st15" d="M168.7,575.9l8,2.3c3.3,0.9,7.5,0.3,9.4-1.5l3.2-3c1.9-1.8,0.7-3.9-2.6-4.8l-8-2.2
					c-3.2-0.9-7.4-0.2-9.2,1.5l-3.2,2.9C164.4,572.8,165.4,575,168.7,575.9z"/>
			</g>
			<g>
				<path class="st15" d="M144.7,569l7.8,2.2c3.2,0.9,7.4,0.2,9.3-1.5l3.2-2.9c1.9-1.7,0.8-3.8-2.3-4.7l-7.7-2.2
					c-3.1-0.9-7.2-0.2-9.2,1.5l-3.3,2.9C140.5,566,141.5,568.1,144.7,569z"/>
			</g>
		</g>
		<g>
			<g>
				<path class="st12" d="M243.1,533.6l7.9,2c3.2,0.8,7.1,0.2,8.7-1.4l2.7-2.7c1.6-1.6,0.2-3.5-3-4.3l-7.8-1.9
					c-3.2-0.8-7-0.2-8.6,1.3l-2.7,2.6C238.6,530.9,239.9,532.8,243.1,533.6z"/>
			</g>
			<g>
				<path class="st12" d="M219.5,527.6l7.7,1.9c3.1,0.8,7,0.2,8.6-1.4l2.7-2.6c1.6-1.5,0.4-3.4-2.8-4.2l-7.6-1.9
					c-3.1-0.8-6.9-0.2-8.5,1.3l-2.8,2.5C215.3,525,216.4,526.8,219.5,527.6z"/>
			</g>
			<g>
				<path class="st12" d="M196.6,521.8l7.5,1.9c3.1,0.8,6.9,0.2,8.6-1.3l2.8-2.5c1.6-1.5,0.5-3.3-2.6-4.1l-7.4-1.8
					c-3-0.7-6.8-0.2-8.4,1.3l-2.8,2.5C192.5,519.2,193.5,521,196.6,521.8z"/>
			</g>
			<g>
				<path class="st12" d="M174.2,516.1l7.3,1.8c3,0.8,6.8,0.2,8.5-1.3l2.8-2.5c1.7-1.5,0.6-3.2-2.4-4l-7.2-1.8
					c-2.9-0.7-6.7-0.2-8.4,1.3l-2.9,2.4C170.2,513.6,171.2,515.4,174.2,516.1z"/>
			</g>
			<g>
				<path class="st12" d="M231.4,545l7.9,2.1c3.3,0.9,7.3,0.2,8.9-1.4l2.8-2.7c1.6-1.6,0.3-3.6-2.9-4.4l-7.9-2
					c-3.2-0.8-7.1-0.2-8.8,1.4l-2.8,2.7C226.9,542.1,228.1,544.1,231.4,545z"/>
			</g>
			<g>
				<path class="st12" d="M207.6,538.8l7.7,2c3.2,0.8,7.1,0.2,8.8-1.4l2.8-2.7c1.7-1.6,0.4-3.5-2.7-4.3l-7.7-2
					c-3.1-0.8-7-0.2-8.7,1.4l-2.9,2.6C203.3,536,204.4,537.9,207.6,538.8z"/>
			</g>
			<g>
				<path class="st12" d="M184.3,532.7l7.6,2c3.1,0.8,7,0.2,8.7-1.4l2.9-2.6c1.7-1.5,0.6-3.4-2.5-4.2l-7.5-1.9
					c-3-0.8-6.9-0.2-8.6,1.3l-2.9,2.6C180.2,530,181.3,531.9,184.3,532.7z"/>
			</g>
			<g>
				<path class="st12" d="M161.7,526.8l7.4,1.9c3,0.8,6.9,0.2,8.7-1.3l2.9-2.6c1.7-1.5,0.7-3.4-2.3-4.1l-7.3-1.9
					c-3-0.8-6.8-0.2-8.5,1.3l-3,2.5C157.7,524.1,158.7,526,161.7,526.8z"/>
			</g>
			<g>
				<path class="st12" d="M219.2,556.8l8,2.2c3.3,0.9,7.4,0.2,9.1-1.5l2.9-2.9c1.7-1.7,0.4-3.7-2.9-4.6l-8-2.1
					c-3.2-0.9-7.2-0.2-8.9,1.4l-2.9,2.8C214.7,553.8,216,555.9,219.2,556.8z"/>
			</g>
			<g>
				<path class="st12" d="M195.1,550.3l7.8,2.1c3.2,0.9,7.3,0.2,9-1.4l2.9-2.8c1.7-1.6,0.5-3.6-2.7-4.5l-7.8-2
					c-3.2-0.8-7.1-0.2-8.9,1.4l-3,2.7C190.8,547.4,192,549.4,195.1,550.3z"/>
			</g>
			<g>
				<path class="st12" d="M171.7,544l7.6,2.1c3.1,0.8,7.1,0.2,8.9-1.4l3-2.7c1.8-1.6,0.6-3.6-2.5-4.4l-7.6-2c-3.1-0.8-7-0.2-8.8,1.4
					l-3,2.7C167.5,541.2,168.6,543.1,171.7,544z"/>
			</g>
			<g>
				<path class="st12" d="M148.8,537.8l7.4,2c3.1,0.8,7,0.2,8.8-1.4l3.1-2.7c1.8-1.6,0.8-3.5-2.3-4.3l-7.4-1.9
					c-3-0.8-6.9-0.2-8.7,1.3l-3.1,2.6C144.8,535,145.8,537,148.8,537.8z"/>
			</g>
			<g>
				<path class="st12" d="M206.6,569l8.1,2.3c3.3,0.9,7.5,0.2,9.3-1.5l3-3c1.7-1.7,0.4-3.9-2.9-4.8l-8.1-2.2
					c-3.3-0.9-7.4-0.2-9.1,1.5l-3,2.9C202.1,566,203.3,568.1,206.6,569z"/>
			</g>
			<g>
				<path class="st12" d="M182.2,562.3l7.9,2.2c3.3,0.9,7.4,0.2,9.2-1.5l3-2.9c1.8-1.7,0.6-3.8-2.6-4.7l-7.9-2.1
					c-3.2-0.9-7.2-0.2-9,1.4l-3.1,2.8C177.9,559.3,179,561.4,182.2,562.3z"/>
			</g>
			<g>
				<path class="st12" d="M158.5,555.7l7.7,2.1c3.2,0.9,7.3,0.2,9.1-1.5l3.1-2.8c1.8-1.7,0.7-3.7-2.4-4.5l-7.7-2.1
					c-3.1-0.8-7.1-0.2-9,1.4l-3.2,2.8C154.4,552.7,155.4,554.8,158.5,555.7z"/>
			</g>
			<g>
				<path class="st12" d="M120.2,560.7l10.2,2.9c2.4,0.7,5.6,0.2,7.1-1.1l18.4-16.1c1.4-1.2,0.7-2.8-1.7-3.4l-10-2.7
					c-2.3-0.6-5.4-0.2-6.8,1.1l-18.7,15.8C117.1,558.4,117.8,560,120.2,560.7z"/>
			</g>
			<g>
				<path class="st12" d="M193.5,581.8l8.2,2.4c3.4,1,7.6,0.3,9.5-1.6l3.1-3.1c1.8-1.8,0.5-4-2.8-5l-8.2-2.3
					c-3.3-0.9-7.5-0.2-9.3,1.5l-3.1,3C189,578.6,190.2,580.8,193.5,581.8z"/>
			</g>
			<g>
				<path class="st12" d="M168.9,574.7l8,2.3c3.3,0.9,7.5,0.3,9.4-1.5l3.2-3c1.9-1.8,0.7-3.9-2.6-4.8l-8-2.2
					c-3.2-0.9-7.4-0.2-9.2,1.5l-3.2,2.9C164.5,571.6,165.6,573.8,168.9,574.7z"/>
			</g>
			<g>
				<path class="st12" d="M144.8,567.8l7.8,2.2c3.2,0.9,7.4,0.2,9.3-1.5l3.2-2.9c1.9-1.7,0.8-3.8-2.4-4.7l-7.7-2.2
					c-3.1-0.9-7.2-0.2-9.2,1.5l-3.3,2.9C140.7,564.8,141.7,566.9,144.8,567.8z"/>
			</g>
		</g>
		<g>
			<path class="st16" d="M179.2,477.6l-9.6,23.8l113.6,27.8l10.3-25.8c2.2-5.1-2.9-10.8-11.2-12.6l-86.8-18.9
				C188.3,470.4,181.1,472.9,179.2,477.6z"/>
		</g>
		<g>
			<g>
				<path class="st17" d="M194.8,476.4l83.4,19.2c4.8,1.1,7.7,4.7,6.4,8l-5.4,13.7c-1.3,3.3-6.3,5-11.1,3.8l-82.5-20.8
					c-4.2-1.1-6.6-4.4-5.4-7.4l4.8-12.7C186.2,477.1,190.6,475.4,194.8,476.4z"/>
			</g>
			<g>
				<path class="st17" d="M187.8,498.9l9.1,2.2l19.9,4.8l10.7,2.6l35.7,8.6l4,1c0.6,0.1,1.1,0.2,1.7,0.3c3.9,0.4,7.5-0.9,8.6-3.4
					l1.4-3.5l3.2-7.7c1.2-2.8-1.6-5.9-6.1-6.9l-9.4-2.1l-20.9-4.7l-5.7-1.3l-29.4-6.6l-13.7-3.1l-1.1-0.2c-4-0.9-8,0.5-9.1,3.1
					l-1.9,4.6l-2.3,5.8C181.5,495.1,183.8,498,187.8,498.9z"/>
			</g>
		</g>
	</g>
</g>
<g>
	<g>
		<g>
			<path class="st18" d="M311.3,280.5c-0.4,0-0.9,0.1-1.4,0.1c-0.6,0-1.2,0-1.9-0.1c-0.4,0-0.8-0.1-1.2-0.1
				c-0.9-0.1-1.7-0.2-2.5-0.4c-0.5-0.1-0.9-0.2-1.3-0.3c-0.4-0.1-0.8-0.2-1.2-0.3c-0.3-0.1-0.5-0.2-0.8-0.3
				c-0.4-0.2-0.9-0.3-1.3-0.5c-0.3-0.1-0.5-0.2-0.7-0.4c-0.5-0.2-0.9-0.5-1.4-0.7c-0.6-0.4-1.1-0.8-1.7-1.2
				c-0.5-0.4-0.9-0.8-1.4-1.2c-0.1-0.1-0.3-0.3-0.4-0.4c-0.3-0.3-0.6-0.7-0.9-1c-0.1-0.1-0.2-0.3-0.4-0.4c-0.4-0.5-0.8-1-1.1-1.6
				l-3.9,1c0.4,0.6,0.7,1.1,1.1,1.6c0.1,0.1,0.2,0.3,0.4,0.4c0.3,0.4,0.6,0.7,0.9,1c0.1,0.1,0.3,0.3,0.4,0.4
				c0.4,0.4,0.9,0.9,1.4,1.2c0,0,0,0,0,0c0.5,0.4,1.1,0.8,1.7,1.2c0.2,0.1,0.4,0.2,0.6,0.4c0.2,0.1,0.5,0.3,0.8,0.4
				c0.2,0.1,0.5,0.3,0.7,0.4c0.1,0,0.1,0.1,0.2,0.1c0.3,0.1,0.7,0.3,1.1,0.4c0.3,0.1,0.5,0.2,0.8,0.3c0.1,0,0.1,0,0.2,0.1
				c0.3,0.1,0.7,0.2,1,0.2c0.4,0.1,0.9,0.2,1.3,0.3c0.1,0,0.1,0,0.2,0c0.7,0.1,1.5,0.2,2.3,0.3c0.3,0,0.7,0.1,1,0.1
				c0.1,0,0.1,0,0.2,0c0.6,0,1.3,0.1,1.9,0.1c0.2,0,0.4,0,0.6,0c0.3,0,0.5,0,0.8-0.1c0.4,0,0.8,0,1.1-0.1c0.1,0,0.2,0,0.3,0
				c0.5-0.1,0.9-0.2,1.4-0.3l3.9-1c-0.5,0.1-1.1,0.2-1.7,0.3C312,280.4,311.6,280.4,311.3,280.5z"/>
		</g>
		<g>
			<path class="st18" d="M300.3,233.1c-2.7,1.1-5,2.9-6.8,5.3l3.9-1c1.9-2.4,4.1-4.2,6.8-5.3c0.8-0.3,1.6-0.6,2.4-0.8l-3.9,1
				C301.8,232.5,301,232.8,300.3,233.1z"/>
		</g>
		<g>
			<path class="st18" d="M312.1,249c-0.4,0-0.9,0.1-1.3,0.1c-0.5,0-1.1,0-1.7-0.1c-0.4,0-0.7-0.1-1.1-0.1l-3.2-0.4l-3.9,1l3.2,0.4
				c0.3,0,0.6,0.1,0.9,0.1c0.1,0,0.1,0,0.2,0c0.6,0,1.2,0.1,1.7,0.1c0.2,0,0.4,0,0.6,0c0.3,0,0.5,0,0.8-0.1c0.4,0,0.7,0,1.1-0.1
				c0.1,0,0.2,0,0.3,0c0.5-0.1,1-0.2,1.4-0.3l3.9-1c-0.5,0.1-1.1,0.2-1.7,0.3C312.8,248.9,312.5,249,312.1,249z"/>
		</g>
		<g>
			<path class="st18" d="M337.7,237.6c0-0.2,0-0.4,0-0.5c0-0.2,0-0.3-0.1-0.5c0-0.3-0.1-0.6-0.1-1c0-0.2,0-0.3-0.1-0.5
				c0-0.2-0.1-0.5-0.2-0.7c0-0.1,0-0.2-0.1-0.3c-0.1-0.4-0.2-0.9-0.4-1.3c0-0.1-0.1-0.3-0.2-0.4c-0.9-2.3-2.3-4.4-4.2-6.2
				c-0.3-0.3-0.7-0.6-1.1-1c-0.1-0.1-0.2-0.1-0.2-0.2c-0.2-0.2-0.4-0.3-0.6-0.5c-0.3-0.2-0.6-0.5-1-0.7c-0.2-0.1-0.5-0.3-0.7-0.4
				c-0.2-0.1-0.3-0.2-0.5-0.3c-0.2-0.1-0.4-0.2-0.7-0.4c-0.2-0.1-0.3-0.2-0.5-0.3c-0.6-0.3-1.2-0.6-1.8-0.9c-0.1,0-0.1,0-0.2-0.1
				c-0.1,0-0.2-0.1-0.3-0.1c-0.8-0.3-1.6-0.6-2.4-0.9c-0.1,0-0.2-0.1-0.4-0.1c-0.1,0-0.3-0.1-0.5-0.1c-0.8-0.2-1.7-0.4-2.6-0.6
				c-0.1,0-0.3-0.1-0.4-0.1c-0.1,0-0.1,0-0.2,0c-0.9-0.2-1.8-0.3-2.8-0.4c-0.4,0-0.9-0.1-1.3-0.1c-0.1,0-0.2,0-0.4,0
				c-1-0.1-2-0.1-3-0.1c-0.4,0-0.7,0-1.1,0c-0.7,0-1.5,0.1-2.2,0.1c-0.9,0.1-1.7,0.2-2.5,0.3c-0.1,0-0.3,0-0.4,0.1
				c-0.2,0-0.3,0.1-0.5,0.1c-0.9,0.2-1.8,0.3-2.7,0.5l-3.9,1c0.9-0.2,1.8-0.4,2.7-0.5c0.2,0,0.3-0.1,0.5-0.1c1-0.2,1.9-0.3,2.9-0.4
				c1.1-0.1,2.2-0.1,3.3-0.1c1,0,2,0.1,3,0.1c0.6,0,1.1,0.1,1.7,0.1c0.9,0.1,1.9,0.2,2.8,0.4c0.2,0,0.4,0.1,0.6,0.1
				c0.9,0.2,1.7,0.4,2.6,0.6c0.3,0.1,0.6,0.2,0.8,0.2c0.8,0.3,1.6,0.5,2.4,0.9c0.1,0.1,0.3,0.1,0.4,0.2c0.6,0.3,1.2,0.6,1.8,0.9
				c0.2,0.1,0.3,0.2,0.5,0.3c0.4,0.2,0.8,0.4,1.1,0.7c0.2,0.1,0.5,0.3,0.7,0.4c0.3,0.2,0.7,0.4,1,0.7c0.2,0.2,0.4,0.3,0.6,0.5
				c0.5,0.4,0.9,0.7,1.3,1.1c1.9,1.8,3.3,3.9,4.2,6.2c0.2,0.6,0.4,1.1,0.5,1.7c0,0.1,0,0.2,0.1,0.3c0.1,0.4,0.2,0.8,0.2,1.2
				c0,0.3,0.1,0.6,0.1,1c0,0.3,0.1,0.7,0.1,1c0,0.3,0,0.6,0,0.9c0,0.5,0,1-0.1,1.6c0,0.4-0.1,0.7-0.2,1.1c-0.1,0.4-0.2,0.9-0.3,1.3
				c0,0.1-0.1,0.3-0.1,0.4c-0.1,0.5-0.3,1.1-0.5,1.6c-0.2,0.4-0.3,0.9-0.5,1.3c-0.1,0.3-0.3,0.6-0.4,0.8c-0.3,0.6-0.7,1.2-1.1,1.8
				c-0.2,0.2-0.3,0.5-0.5,0.7c-0.1,0.1-0.2,0.2-0.3,0.4c-0.3,0.3-0.6,0.7-0.9,1c-1.3,1.4-2.9,2.5-4.6,3.3c-0.4,0.2-0.9,0.4-1.3,0.6
				c-0.1,0-0.1,0-0.2-0.1c0,0-0.1,0-0.1,0l-3.9,1c0.1,0,0.3,0.1,0.4,0.1c0.5,0.2,1.1,0.4,1.6,0.6c0.2,0.1,0.4,0.1,0.5,0.2
				c0.5,0.2,1,0.5,1.4,0.7c0.1,0.1,0.3,0.1,0.4,0.2c0.1,0.1,0.3,0.2,0.4,0.3c0.3,0.2,0.5,0.3,0.8,0.5c0.1,0.1,0.3,0.2,0.4,0.3
				c0.2,0.2,0.5,0.4,0.7,0.6c0.1,0.1,0.3,0.2,0.4,0.4c0.2,0.2,0.4,0.4,0.6,0.6c0.1,0.1,0.3,0.3,0.4,0.4c0.2,0.2,0.4,0.5,0.6,0.8
				c0.1,0.1,0.2,0.2,0.3,0.4c0.3,0.4,0.6,0.8,0.9,1.2c0.3,0.5,0.6,1.1,0.9,1.6c0.1,0.2,0.2,0.3,0.2,0.5c0.2,0.4,0.4,0.8,0.5,1.2
				c0.1,0.2,0.2,0.5,0.2,0.7c0.1,0.2,0.1,0.4,0.2,0.6c0.1,0.3,0.2,0.6,0.2,0.9c0,0.2,0.1,0.4,0.1,0.6c0,0.2,0.1,0.4,0.1,0.6
				c0.1,0.6,0.2,1.1,0.2,1.7c0,0.2,0,0.3,0,0.5c0,0.7,0,1.4,0,2.1c0,0.5-0.1,1-0.1,1.6c-0.1,0.6-0.2,1.1-0.3,1.7
				c-0.1,0.3-0.1,0.7-0.2,1c-0.1,0.4-0.2,0.8-0.3,1.2c-0.1,0.3-0.2,0.6-0.3,0.9c-0.1,0.4-0.3,0.7-0.4,1.1c-0.1,0.3-0.3,0.6-0.4,0.9
				c-0.3,0.6-0.6,1.1-0.9,1.7c-0.3,0.5-0.6,0.9-1,1.4c-0.2,0.2-0.3,0.4-0.5,0.6c-0.3,0.3-0.6,0.6-0.8,0.9c-0.2,0.2-0.4,0.4-0.6,0.6
				c-0.3,0.3-0.7,0.6-1,0.9c-0.2,0.1-0.3,0.3-0.5,0.4c-0.5,0.4-1.1,0.8-1.7,1.2c-2,1.2-4.2,2.1-6.8,2.7l3.9-1
				c0.6-0.2,1.2-0.3,1.8-0.5c1.8-0.6,3.4-1.3,4.9-2.2c0.6-0.4,1.2-0.8,1.7-1.2c0.2-0.1,0.3-0.3,0.5-0.4c0.4-0.3,0.7-0.6,1-0.9
				c0.2-0.2,0.4-0.4,0.5-0.6c0.3-0.3,0.6-0.6,0.8-0.9c0.2-0.2,0.3-0.4,0.5-0.6c0.1-0.2,0.3-0.3,0.4-0.5c0.2-0.3,0.4-0.6,0.6-0.9
				c0.3-0.5,0.6-0.9,0.8-1.4c0-0.1,0.1-0.2,0.1-0.3c0.2-0.3,0.3-0.6,0.4-0.9c0.1-0.3,0.2-0.5,0.3-0.7c0-0.1,0.1-0.2,0.1-0.3
				c0.1-0.3,0.2-0.6,0.3-0.9c0.1-0.3,0.2-0.5,0.2-0.8c0-0.1,0.1-0.3,0.1-0.4c0.1-0.3,0.1-0.7,0.2-1c0-0.2,0.1-0.5,0.1-0.7
				c0-0.3,0.1-0.6,0.1-0.9c0.1-0.5,0.1-1,0.1-1.4c0,0,0-0.1,0-0.1c0-0.7,0-1.4,0-2.1c0,0,0-0.1,0-0.1c0-0.1,0-0.2,0-0.3
				c0-0.6-0.1-1.2-0.2-1.7c0-0.1,0-0.2,0-0.3c0-0.1,0-0.2-0.1-0.3c0-0.2-0.1-0.4-0.1-0.6c-0.1-0.3-0.1-0.6-0.2-0.9
				c-0.1-0.2-0.1-0.4-0.2-0.6c0-0.1-0.1-0.2-0.1-0.4c0-0.1-0.1-0.2-0.1-0.3c-0.2-0.4-0.3-0.8-0.5-1.2c-0.1-0.2-0.2-0.3-0.2-0.5
				c-0.3-0.5-0.6-1.1-0.9-1.6c-0.3-0.4-0.6-0.8-0.9-1.2c-0.1-0.1-0.2-0.2-0.3-0.4c-0.2-0.3-0.4-0.5-0.6-0.7
				c-0.1-0.1-0.3-0.3-0.4-0.4c-0.2-0.2-0.4-0.4-0.6-0.6c-0.1-0.1-0.3-0.3-0.4-0.4c-0.1-0.1-0.2-0.2-0.3-0.3
				c-0.1-0.1-0.3-0.2-0.4-0.3c-0.1-0.1-0.3-0.2-0.4-0.3c-0.3-0.2-0.5-0.4-0.8-0.5c-0.1-0.1-0.3-0.2-0.4-0.3c0,0-0.1-0.1-0.1-0.1
				c-0.1,0-0.2-0.1-0.3-0.1c-0.5-0.3-0.9-0.5-1.4-0.7c-0.1,0-0.2-0.1-0.3-0.1c-0.1,0-0.2-0.1-0.3-0.1c-0.5-0.2-1-0.4-1.5-0.5
				l2.3-0.6c1-0.2,1.9-0.6,2.8-1c1.7-0.8,3.3-1.9,4.6-3.3c0.3-0.3,0.6-0.7,0.9-1c0.1-0.1,0.2-0.2,0.3-0.4c0.2-0.2,0.3-0.4,0.5-0.6
				c0,0,0-0.1,0.1-0.1c0.4-0.6,0.8-1.2,1.1-1.8c0-0.1,0.1-0.1,0.1-0.2c0.1-0.2,0.2-0.4,0.3-0.7c0.2-0.4,0.4-0.8,0.5-1.2
				c0,0,0,0,0-0.1c0.2-0.5,0.4-1.1,0.5-1.6c0,0,0-0.1,0-0.1c0-0.1,0-0.2,0.1-0.3c0.1-0.4,0.2-0.8,0.3-1.3c0-0.1,0-0.2,0.1-0.3
				c0-0.3,0.1-0.6,0.1-0.9c0-0.4,0.1-0.8,0.1-1.1c0-0.2,0-0.3,0-0.5C337.7,238.2,337.7,237.9,337.7,237.6z"/>
		</g>
	</g>
	<g>
		<g>
			<path class="st19" d="M328.5,227.2c-1.9-1.8-4.3-3.3-7.1-4.5c-2.8-1.2-6-2-9.5-2.4c-1.6-0.2-3.1-0.3-4.7-0.3
				c-1.1,0-2.2,0-3.3,0.1c-2.6,0.2-5.1,0.7-7.3,1.3c-2.3,0.7-4.4,1.5-6.2,2.6c-1.9,1.1-3.4,2.3-4.6,3.8l7.7,10.6
				c1.9-2.4,4.1-4.2,6.8-5.3c2-0.9,4.2-1.3,6.5-1.3c0.7,0,1.5,0,2.3,0.1c3.1,0.3,5.6,1.3,7.3,2.9c1.8,1.6,2.5,3.8,2.2,6.5
				c-0.3,2.9-1.7,5.2-4.3,6.8c-2,1.2-4.4,1.9-7.4,1.9c-0.9,0-1.8-0.1-2.8-0.2l-3.2-0.4l-1.1,10.2l2.9,0.3c5.2,0.6,9,2,11.3,4.2
				c2.4,2.2,3.4,5.1,3,8.6c-0.4,3.4-1.8,5.8-4.2,7.2c-1.8,1-4.1,1.5-6.9,1.5c-1,0-2-0.1-3.1-0.2c-3.7-0.4-6.8-1.4-9.1-2.9
				c-2.3-1.5-4.3-3.5-5.8-5.9l-8.9,8.8c2.3,3.5,5.4,6.3,9.3,8.4c3.9,2.1,8.5,3.5,13.8,4.1c1.7,0.2,3.4,0.3,5.1,0.3
				c2.2,0,4.3-0.2,6.2-0.5c3.4-0.6,6.4-1.7,9-3.2c2.5-1.5,4.6-3.5,6.1-6c1.6-2.4,2.5-5.2,2.8-8.5c0.5-4.8-0.4-8.9-2.7-12.5
				c-2.3-3.6-5.6-6-9.9-7.3c2-0.1,3.8-0.6,5.6-1.4c1.7-0.8,3.3-1.9,4.6-3.3c1.3-1.4,2.4-2.9,3.2-4.7c0.8-1.8,1.3-3.7,1.5-5.7
				c0.3-2.7,0-5.2-0.9-7.6C331.8,231.1,330.4,229,328.5,227.2z"/>
		</g>
	</g>
</g>
<g>
	<g>
		<g>
			<path class="st20" d="M494,33.9c-11.2,1.2-22.3,2.9-33.4,5.1c-1.9,0.4-3.2,2.8-2.6,4.7c0.7,2.1,2.6,3.1,4.7,2.6
				c10.5-2.2,20.8-3.8,31.3-4.9c2-0.2,3.9-1.6,3.8-3.8C497.7,35.8,496.1,33.7,494,33.9z"/>
		</g>
	</g>
	<g>
		<g>
			<path class="st20" d="M477.2,26c-0.6-1.9-2.7-3.3-4.7-2.6c-1.9,0.6-3.3,2.6-2.6,4.7c1.4,4.7,2.9,9.5,4.3,14.2
				c0.7,2.2,1.3,4.5,1.8,6.8c0.5,2.4,0.8,4.2,0.9,6.6c0.1,2,1.7,3.9,3.8,3.8c2-0.1,3.9-1.7,3.8-3.8c-0.3-5.1-1.5-10.1-2.9-14.9
				C480.2,35.7,478.7,30.9,477.2,26z"/>
		</g>
	</g>
</g>
<g>
	<g>
		<g>
			<path class="st20" d="M763.4,186.3c-10.8,1.6-21.5,3.7-32.1,6.3c-1.9,0.5-3.3,2.7-2.6,4.7c0.6,2,2.6,3.2,4.7,2.6
				c10.6-2.6,21.3-4.7,32.1-6.3c2-0.3,3.2-2.9,2.6-4.7C767.4,186.8,765.5,186,763.4,186.3z"/>
		</g>
	</g>
	<g>
		<circle class="st20" cx="745.5" cy="180.8" r="4.6"/>
	</g>
	<g>
		<circle class="st20" cx="751.1" cy="205.2" r="4.6"/>
	</g>
</g>
<g>
	<g>
		<path class="st20" d="M71.8,209.4c-9.1-0.3-18.1-0.5-27.2-0.8c-2-0.1-3.9,1.8-3.8,3.8c0.1,2.1,1.7,3.7,3.8,3.8
			c9.1,0.3,18.1,0.5,27.2,0.8c2,0.1,3.9-1.8,3.8-3.8C75.4,211.1,73.9,209.4,71.8,209.4z"/>
	</g>
</g>
</svg>
