<?xml version="1.0" encoding="UTF-8"?><svg id="Layer_2" xmlns="http://www.w3.org/2000/svg" viewBox="0 0 124.38 25.8"><defs><style>.cls-1{fill:#fff;}</style></defs><g id="Detailed_-_HE"><path class="cls-1" d="m10.68,0L0,25.8h6.46l2.48-5.99h9.82l2.47,5.99h6.42L16.98,0h-6.3Zm-.5,15.2l3.67-9.01,3.67,9.01h-7.35Zm28.55,5.94c-.61-.04-1.12-.1-1.55-.17-.43-.08-.78-.19-1.06-.33-.28-.14-.56-.33-.81-.56-.26-.23-.46-.44-.6-.62-.14-.18-.26-.46-.35-.83-.09-.37-.15-.88-.19-1.51-.04-.63-.08-1.51-.13-2.65V0h-5.49v14.47c0,1.34.05,2.52.15,3.54.1,1.02.26,1.83.46,2.42.41,1.24,1.09,2.28,2.03,3.13.94.85,2.07,1.46,3.38,1.82.33.08.65.15.95.21.3.06.66.11,1.08.13.43.03.93.05,1.53.06.59.01,1.34.02,2.24.02h5.84v-4.6h-5.26c-.88,0-1.62-.02-2.22-.06ZM56.05.12c-.67.08-1.28.19-1.84.35-.55.15-1.06.37-1.53.64-.47.27-.93.6-1.39.99-2.91,2.45-4.37,6.01-4.37,10.68,0,2.14.29,4.07.87,5.8.58,1.73,1.42,3.17,2.53,4.33.52.54,1.08,1,1.68,1.37.61.38,1.31.67,2.11.89.8.22,1.72.38,2.77.48,1.04.1,2.25.15,3.62.15h7.16v-4.6h-6.92c-1.32,0-2.43-.1-3.34-.31-.92-.21-1.67-.54-2.26-1.01-.59-.46-1.04-1.07-1.35-1.82-.31-.75-.52-1.68-.62-2.78h14.5v-4.6h-14.5c.05-.64.1-1.17.15-1.59.05-.41.12-.77.19-1.06.08-.3.18-.56.29-.79.12-.23.28-.48.48-.73.28-.36.59-.66.93-.91.33-.24.74-.44,1.22-.58.48-.14,1.04-.25,1.7-.31.66-.06,1.45-.1,2.38-.1h7.16V0h-9.28c-.88,0-1.65.04-2.32.12Zm30.94-.12l-9.86,12.73,9.32,13.07h7.23l-10.25-13.07L94.18,0h-7.19Zm-15.55,25.8h5.49V0h-5.49v25.8Zm47.44-10.83c-.35-1.03-.82-1.84-1.41-2.44-.75-.77-1.69-1.32-2.82-1.64-1.13-.32-2.64-.48-4.52-.48h-4.14c-.98,0-1.72-.04-2.22-.12-.5-.08-.94-.23-1.3-.46-.8-.49-1.2-1.28-1.2-2.36,0-1.19.41-2,1.24-2.44.31-.18.74-.3,1.29-.35.55-.05,1.44-.08,2.65-.08h11.53V0h-12.76c-.75,0-1.4,0-1.97.02-.57.01-1.06.04-1.49.08-.43.04-.81.1-1.14.17-.34.08-.64.17-.93.27-1.34.46-2.43,1.35-3.25,2.65-.83,1.3-1.24,2.78-1.24,4.43,0,1.14.21,2.2.64,3.19.43.99,1.03,1.83,1.8,2.5.67.59,1.53,1.02,2.57,1.29,1.04.27,2.34.41,3.89.41h4.76c.62,0,1.16.04,1.64.12.48.08.86.19,1.14.35.51.26.92.63,1.22,1.12.3.49.44,1.03.44,1.62,0,1.06-.43,1.84-1.28,2.36-.34.21-.8.36-1.39.47-.59.1-1.41.16-2.44.16h-11.76v4.6h12.96c.95,0,1.78-.02,2.48-.06.7-.04,1.31-.1,1.84-.17.53-.08.99-.18,1.38-.31.38-.13.73-.3,1.04-.5,1.01-.62,1.8-1.52,2.4-2.69.59-1.17.89-2.46.89-3.85,0-1.13-.17-2.22-.52-3.25Z"/><path class="cls-1" d="m120.29,2.07c0-1.14.92-2.05,2.05-2.05s2.05.91,2.05,2.05-.91,2.05-2.05,2.05-2.05-.92-2.05-2.05Zm.27,0c0,.97.79,1.78,1.78,1.78s1.77-.8,1.77-1.78-.79-1.77-1.77-1.77-1.78.78-1.78,1.77Zm1.73.25h-.42v.93h-.31V.9h.96c.41,0,.74.28.74.71,0,.52-.46.69-.6.69l.63.94h-.39l-.61-.93Zm-.42-1.15v.87h.65c.24,0,.42-.18.42-.42,0-.26-.18-.44-.42-.44h-.65Z"/></g></svg>