<?xml version="1.0" encoding="utf-8"?>
<!-- Generator: Adobe Illustrator 27.7.0, SVG Export Plug-In . SVG Version: 6.00 Build 0)  -->
<svg version="1.1" id="Layer_1" xmlns="http://www.w3.org/2000/svg" xmlns:xlink="http://www.w3.org/1999/xlink" x="0px" y="0px"
	 viewBox="0 0 892.5 503.8" style="enable-background:new 0 0 892.5 503.8;" xml:space="preserve">
<style type="text/css">
	.st0{fill:#B71A17;}
	.st1{fill:#E84D23;}
	.st2{fill:#524192;}
	.st3{fill:#352574;}
	.st4{opacity:0.25;clip-path:url(#SVGID_00000158712804211560782550000000818209862746626710_);}
	.st5{clip-path:url(#SVGID_00000101069945461650223920000017758492645286989977_);fill:#1D1D1B;}
	.st6{fill:#282258;}
	.st7{opacity:0.25;clip-path:url(#SVGID_00000037688698442147227420000013603482574721098915_);}
	.st8{clip-path:url(#SVGID_00000054236337747264679290000003545110901038226617_);fill:#1D1D1B;}
	.st9{opacity:0.25;clip-path:url(#SVGID_00000072979948585904903460000008421762339238706331_);}
	.st10{clip-path:url(#SVGID_00000145777894839064829850000014821834464109531013_);fill:#1D1D1B;}
	.st11{opacity:0.25;clip-path:url(#SVGID_00000086680128694503815380000016785721490072237755_);}
	.st12{clip-path:url(#SVGID_00000154384304248045986780000005596271306052209311_);fill:#1D1D1B;}
	.st13{fill:#FFFFFF;}
	.st14{fill:#1D1D1B;}
</style>
<rect x="7.4" y="402.9" class="st0" width="837.8" height="93.5"/>
<polygon class="st1" points="7.4,402.9 63.4,449.6 7.4,496.4 789.1,496.4 845.2,449.6 789.1,402.9 "/>
<rect x="448" y="190.6" class="st2" width="188.7" height="62.9"/>
<polygon class="st3" points="636.6,190.6 573.7,253.5 636.6,253.5 "/>
<g>
	<defs>
		<rect id="SVGID_1_" x="7" y="11.1" width="878.7" height="485.3"/>
	</defs>
	<clipPath id="SVGID_00000028296109839345653150000012605255783434895516_">
		<use xlink:href="#SVGID_1_"  style="overflow:visible;"/>
	</clipPath>
	<g style="opacity:0.25;clip-path:url(#SVGID_00000028296109839345653150000012605255783434895516_);">
		<g>
			<defs>
				<rect id="SVGID_00000068672600971707380770000002888296522109769356_" x="452.3" y="194.9" width="125.8" height="188.7"/>
			</defs>
			<clipPath id="SVGID_00000032630353520263857570000004333457852340509109_">
				<use xlink:href="#SVGID_00000068672600971707380770000002888296522109769356_"  style="overflow:visible;"/>
			</clipPath>
			<polygon style="clip-path:url(#SVGID_00000032630353520263857570000004333457852340509109_);fill:#1D1D1B;" points="578,383.6 
				578,194.9 452.3,194.9 452.3,257.8 515.1,257.8 515.1,383.6 			"/>
		</g>
	</g>
</g>
<polygon class="st2" points="448,190.6 448,253.5 510.9,253.5 510.9,379.3 573.7,379.3 573.7,190.6 "/>
<polygon class="st3" points="510.9,316.4 510.9,379.3 573.7,316.4 510.9,253.5 "/>
<polygon class="st6" points="448,190.6 448,253.5 510.9,253.5 448,190.6 "/>
<polygon class="st2" points="318.8,190.6 362.9,311.7 308.8,311.7 308.8,358.9 380.1,358.9 387.5,379.3 454.4,379.3 385.8,190.6 "/>
<polygon class="st3" points="362.9,311.7 362.5,311.7 380.2,358.9 429.9,311.9 429.8,311.7 "/>
<g>
	<defs>
		<rect id="SVGID_00000119119448549503806330000001055799335554774974_" x="7" y="11.1" width="878.7" height="485.3"/>
	</defs>
	<clipPath id="SVGID_00000109713584830353119330000013481053589329399712_">
		<use xlink:href="#SVGID_00000119119448549503806330000001055799335554774974_"  style="overflow:visible;"/>
	</clipPath>
	<g style="opacity:0.25;clip-path:url(#SVGID_00000109713584830353119330000013481053589329399712_);">
		<g>
			<defs>
				<rect id="SVGID_00000037684413916472654080000008670500363437064892_" x="244.5" y="194.9" width="135.6" height="188.7"/>
			</defs>
			<clipPath id="SVGID_00000180340115829361287300000001845452601048258229_">
				<use xlink:href="#SVGID_00000037684413916472654080000008670500363437064892_"  style="overflow:visible;"/>
			</clipPath>
			<polygon style="clip-path:url(#SVGID_00000180340115829361287300000001845452601048258229_);fill:#1D1D1B;" points="380.1,194.9 
				313.2,194.9 244.5,383.6 311.4,383.6 380.1,194.9 			"/>
		</g>
	</g>
</g>
<polygon class="st2" points="308.9,190.6 240.2,379.3 307.1,379.3 375.8,190.6 "/>
<polygon class="st6" points="318.8,190.6 347.3,268.9 375.8,190.6 "/>
<polygon class="st2" points="159,190.6 158.8,190.6 158.8,190.8 114.4,235.2 69.8,190.6 7,190.6 7,216.8 114.4,324.2 158.8,279.7 
	158.8,379.3 221.7,379.3 221.7,190.6 159,190.6 "/>
<polygon class="st3" points="158.8,379.3 221.7,379.3 221.7,316.4 "/>
<polygon class="st6" points="69.9,279.6 114.3,235.2 69.9,190.8 "/>
<g>
	<defs>
		<rect id="SVGID_00000030459932904208651350000016388460014362424710_" x="7" y="11.1" width="878.7" height="485.3"/>
	</defs>
	<clipPath id="SVGID_00000175282985365296007630000008386853788114268586_">
		<use xlink:href="#SVGID_00000030459932904208651350000016388460014362424710_"  style="overflow:visible;"/>
	</clipPath>
	<g style="opacity:0.25;clip-path:url(#SVGID_00000175282985365296007630000008386853788114268586_);">
		<g>
			<defs>
				<rect id="SVGID_00000014597850939150424260000002698118693829361295_" x="11.3" y="194.9" width="62.9" height="188.7"/>
			</defs>
			<clipPath id="SVGID_00000170271411226848304650000011884734070360980390_">
				<use xlink:href="#SVGID_00000014597850939150424260000002698118693829361295_"  style="overflow:visible;"/>
			</clipPath>
			
				<rect x="11.3" y="194.9" style="clip-path:url(#SVGID_00000170271411226848304650000011884734070360980390_);fill:#1D1D1B;" width="62.9" height="188.7"/>
		</g>
	</g>
</g>
<rect x="7" y="190.6" class="st2" width="62.9" height="188.7"/>
<polygon class="st3" points="7.3,379.3 69.9,379.3 69.9,316.7 "/>
<polygon class="st2" points="782.3,190.6 782.3,253.5 707.8,253.5 707.8,316.4 782.3,316.4 782.3,379.3 845.2,379.3 845.2,190.6 "/>
<polygon class="st6" points="719.4,253.5 719.4,316.4 782.3,316.4 "/>
<polygon class="st3" points="782.3,379.3 845.2,379.3 845.2,316.4 "/>
<g>
	<defs>
		<rect id="SVGID_00000129885424749825899190000000935577186045173157_" x="7" y="11.1" width="878.7" height="485.3"/>
	</defs>
	<clipPath id="SVGID_00000021110961788743282770000000419049022567524511_">
		<use xlink:href="#SVGID_00000129885424749825899190000000935577186045173157_"  style="overflow:visible;"/>
	</clipPath>
	<g style="opacity:0.25;clip-path:url(#SVGID_00000021110961788743282770000000419049022567524511_);">
		<g>
			<defs>
				<rect id="SVGID_00000020394023701220547630000007557195834897950605_" x="660.5" y="194.9" width="62.9" height="188.7"/>
			</defs>
			<clipPath id="SVGID_00000039110901856969968410000010085667290275132330_">
				<use xlink:href="#SVGID_00000020394023701220547630000007557195834897950605_"  style="overflow:visible;"/>
			</clipPath>
			
				<rect x="660.5" y="194.9" style="clip-path:url(#SVGID_00000039110901856969968410000010085667290275132330_);fill:#1D1D1B;" width="62.9" height="188.7"/>
		</g>
	</g>
</g>
<rect x="656.2" y="190.6" class="st2" width="62.9" height="188.7"/>
<polygon class="st6" points="656.5,190.6 656.5,253.5 719.1,190.9 719.1,190.6 "/>
<path class="st3" d="M164.7,168.5V97.8c0-11.5,4.3-21.9,11.9-28.7c7.2-7,18.7-10.3,31.9-9.1l2.3,0.2V48.4l-1.9-0.2
	c-15.5-1.8-29.7,2.4-40.3,11.8c-1.4,1.3-2.7,2.7-3.9,4.3V50.6H152v117.9H164.7z M237,168.5V97.8c0-11.5,4.3-21.9,11.9-28.7
	c7.2-7,18.7-10.3,31.9-9.1l2.3,0.2V48.4l-1.9-0.2c-15.6-1.8-29.7,2.4-40.3,11.8c-1.4,1.3-2.7,2.7-3.9,4.3V50.6h-12.7v117.9H237z
	 M310.3,168.5V50.6h-12.4v117.9H310.3z M380.2,168.5l45.3-117.9h-13.4l-37.8,98.5l-37.8-98.5h-13.4l45.3,117.9H380.2z M20.8,168.5
	l20.3-52.7h65.2l20.3,52.7H140l-25-65.2H32.3l-25,65.2H20.8z M484.5,60.4c21.8,0,40.5,16.1,45.3,38.7h-90.4
	C443.9,76.6,462.5,60.4,484.5,60.4z M540.8,131.8l0.9-2.8h-13.1l-0.5,1.4c-6.9,18.8-21.2,28.4-42.3,28.4
	c-26.3,0-46.5-20.1-47.7-47.1h105.2l0-2.1c0.3-16-6.6-32.6-18.3-44.5c-11-11.1-25.4-17.3-40.5-17.3c-32.5,0-58.9,27.9-58.9,62.2
	c0,34.4,26.4,61.3,60.2,61.3C513,171.2,532.5,157.2,540.8,131.8z M297.8,11.1v24.6h12.4V11.1H297.8z"/>
<polygon class="st3" points="67.7,11.1 37.1,91 50.5,91 73.6,30.5 96.8,91 110.3,91 79.7,11.1 "/>
<path class="st3" d="M164.7,168.5V97.8c0-11.5,4.3-21.9,11.9-28.7c7.2-7,18.7-10.3,31.9-9.1l2.3,0.2V48.4l-1.9-0.2
	c-15.5-1.8-29.7,2.4-40.3,11.8c-1.4,1.3-2.7,2.7-3.9,4.3V50.6H152v117.9H164.7z M237,168.5V97.8c0-11.5,4.3-21.9,11.9-28.7
	c7.2-7,18.7-10.3,31.9-9.1l2.3,0.2V48.4l-1.9-0.2c-15.6-1.8-29.7,2.4-40.3,11.8c-1.4,1.3-2.7,2.7-3.9,4.3V50.6h-12.7v117.9H237z
	 M310.3,168.5V50.6h-12.4v117.9H310.3z M380.2,168.5l45.3-117.9h-13.4l-37.8,98.5l-37.8-98.5h-13.4l45.3,117.9H380.2z M20.8,168.5
	l20.3-52.7h65.2l20.3,52.7H140l-25-65.2H32.3l-25,65.2H20.8z M484.5,60.4c21.8,0,40.5,16.1,45.3,38.7h-90.4
	C443.9,76.6,462.5,60.4,484.5,60.4z M540.8,131.8l0.9-2.8h-13.1l-0.5,1.4c-6.9,18.8-21.2,28.4-42.3,28.4
	c-26.3,0-46.5-20.1-47.7-47.1h105.2l0-2.1c0.3-16-6.6-32.6-18.3-44.5c-11-11.1-25.4-17.3-40.5-17.3c-32.5,0-58.9,27.9-58.9,62.2
	c0,34.4,26.4,61.3,60.2,61.3C513,171.2,532.5,157.2,540.8,131.8z M297.8,11.1v24.6h12.4V11.1H297.8z"/>
<polygon class="st3" points="67.7,11.1 37.1,91 50.5,91 73.6,30.5 96.8,91 110.3,91 79.7,11.1 "/>
<path class="st13" d="M255.8,455.6h7.5c4.2,0,5.9,2.6,5.9,6.6c0,4-1.6,6.6-5.9,6.6h-7.5V455.6z M255.8,432h6.5c4,0,5,2.8,5,5.6
	c0,2.8-0.9,5.6-5,5.6h-6.5V432z M264,482.7c18.1,0,22.9-8.8,22.9-20c0-7.4-3.6-12-8.2-14.1c3.8-2.5,6.4-6.8,6.4-11.8
	c0-10.7-4.3-18.6-21.4-18.6h-24.7v64.5H264z"/>
<path class="st13" d="M309.6,450.4c0-14.4,2.2-18.7,9-18.7c6.8,0,9,4.3,9,18.7c0,14.4-2.2,18.7-9,18.7
	C311.8,469.1,309.6,464.8,309.6,450.4z M344.7,450.4c0-20.4-4.8-33.6-26.1-33.6c-21.3,0-26.1,13.2-26.1,33.6
	c0,20.4,4.8,33.6,26.1,33.6C339.9,484.1,344.7,470.8,344.7,450.4z"/>
<path class="st13" d="M368.6,450.4c0-14.4,2.2-18.7,9-18.7s9,4.3,9,18.7c0,14.4-2.2,18.7-9,18.7S368.6,464.8,368.6,450.4z
	 M403.7,450.4c0-20.4-4.8-33.6-26.1-33.6c-21.3,0-26.1,13.2-26.1,33.6c0,20.4,4.8,33.6,26.1,33.6
	C398.9,484.1,403.7,470.8,403.7,450.4z"/>
<path class="st13" d="M457.4,462.3c0-14.5-7.4-17.8-22.3-19.6c-5.2-0.6-8.1-1.6-8.1-5.4c0-3.4,3.4-5.2,9.9-5.2
	c6,0,13.3,1.5,17.5,3.4l0.3-15.4c-3.3-1.6-10-3.4-19-3.4c-17.6,0-25.4,7.9-25.4,20.6c0,14.1,6.6,18.1,22.5,20
	c5.1,0.7,7.7,1.9,7.7,5.9c0,3.5-2.7,5.6-10.6,5.6c-8.3,0-15.7-2.7-19.5-4.9l-0.2,15.7c4.8,2.9,12.7,4.5,21.2,4.5
	C447.1,484.1,457.4,478.7,457.4,462.3z"/>
<polygon class="st13" points="491.3,482.7 491.3,433.1 506.4,433.1 506.4,418.2 459.3,418.2 459.3,433.1 474.4,433.1 474.4,482.7 
	"/>
<polygon class="st13" points="555.5,482.7 555.5,467.8 529.1,467.8 529.1,457 553.1,457 553.1,442.1 529.1,442.1 529.1,433.1 
	555.5,433.1 555.5,418.2 512.2,418.2 512.2,482.7 "/>
<path class="st13" d="M579.9,482.7v-23.5h5.9l8.4,23.5h19.5L602.2,456c6.3-3.4,8.4-9.3,8.4-17.2c0-12.6-5.7-20.6-23.7-20.6H563v64.5
	H579.9z M579.9,432.2h7.2c4.4,0,5.5,3.6,5.5,6.7c0,3-0.9,6.8-5.5,6.8h-7.2V432.2z"/>
<polygon class="st14" points="863.9,206.5 863.9,192.5 868.8,192.5 868.8,191.3 857.6,191.3 857.6,192.5 862.5,192.5 862.5,206.5 
	"/>
<polygon class="st14" points="885.8,191.3 883.8,191.3 878.6,203.9 873.5,191.3 871.5,191.3 871.5,206.5 872.8,206.5 872.8,193 
	878.4,206.5 878.9,206.5 884.4,193 884.4,206.5 885.7,206.5 "/>
</svg>
