<?xml version="1.0" encoding="UTF-8"?><svg id="Layer_2" xmlns="http://www.w3.org/2000/svg" viewBox="0 0 1612.71 576.33"><defs><style>.cls-1{fill:#d7b7f3;}.cls-2{fill:#cb3430;}.cls-3{fill:#e21a23;}</style></defs><g id="Hero"><polygon class="cls-2" points="1597.55 15.17 1476.22 136.5 1476.05 388.59 1001.15 387.75 1002.7 558.96 0 559.07 0 541.81 985.28 541.7 983.73 370.46 1458.8 371.3 1458.96 129.34 1585.34 2.96 1597.55 15.17"/><polygon class="cls-1" points="1609.75 27.37 1493.47 143.65 1493.3 405.89 1018.57 405.04 1020.12 576.22 0 576.33 0 559.07 1002.7 558.96 1001.15 387.75 1476.05 388.59 1476.22 136.5 1597.55 15.17 1609.75 27.37"/><polygon class="cls-1" points="1597.55 15.17 1597.55 136.5 1612.71 121.33 1612.71 0 1491.38 0 1476.22 15.17 1597.55 15.17"/><polygon class="cls-3" points="1597.55 15.17 1476.22 15.17 1461.05 30.33 1461.05 30.33 1582.38 30.33 1582.38 151.66 1597.55 136.5 1597.55 15.17"/></g></svg>