<?xml version="1.0" encoding="UTF-8"?><svg id="Layer_2" xmlns="http://www.w3.org/2000/svg" viewBox="0 0 137.6 29.3"><defs><style>.cls-1{fill:#fff;}</style></defs><g id="Detailed_-_HE"><path class="cls-1" d="m131.41,24.06c-1.57,1.18-2.3,1.57-3.23,1.57-.78,0-1.22-.34-1.27-1.08-.05-.24-.05-.69-.1-1.37l-.05-.98v-12.63h5.87v-3.08h-5.87V.03h-3.67v6.46l-3.01.75c-.72-.42-1.34-.65-2.28-.9-1.08-.3-2.15-.44-3.28-.44-5.72,0-10.02,3.5-11.25,8.77h-1.99c-.17-5.29-3.51-8.77-8.56-8.77-5.39,0-9.21,3.39-10.21,8.77h-1.38v-2.6c0-4.16-1.91-6.17-5.82-6.17-2.06,0-4.26.78-5.92,2.2-1.08.88-1.52,1.32-3.03,3.03v-4.65h-3.67v8.18h-2.68v-2.6c0-4.16-1.91-6.17-5.82-6.17-2.06,0-4.26.78-5.93,2.2-1.08.88-1.52,1.32-3.03,3.03v-4.65h-3.67v8.18h-2.21c-1.23-5.02-5.53-8.77-10.56-8.77-6.02,0-10.96,5.29-10.96,11.7,0,1.7.35,3.32.98,4.79l-1.78,1.72c-1.78,1.34-3.15,1.82-5.28,1.82-4.75,0-7.73-3.18-7.73-8.27s2.99-8.42,7.44-8.42c2.01,0,3.28.49,4.99,1.91l2.1-2.98c-1.52-1.08-2.2-1.42-3.67-1.81-1.08-.3-2.15-.44-3.28-.44C4.8,5.9,0,10.85,0,17.85s4.6,11.45,11.36,11.45c2.2,0,4.36-.54,6.17-1.52.32-.13.76-.4,1.32-.74h0s2.1-1.31,2.1-1.31c2,2.19,4.77,3.57,7.83,3.57,5.97,0,10.91-5.34,10.91-11.7,0-.07,0-.15,0-.22h1.86v11.28h3.67v-13.56c3.87-4.26,6.27-5.92,8.52-5.92,1.03,0,1.91.44,2.25,1.17.24.64.34,1.13.34,2.59v15.71h3.67s2.68,0,2.68,0h0s3.67,0,3.67,0v-13.56c3.87-4.26,6.26-5.92,8.52-5.92,1.03,0,1.91.44,2.25,1.17.25.64.34,1.13.34,2.59v15.71h3.67v-11.28h1.12c0,.07,0,.14,0,.22,0,7,4.16,11.7,10.33,11.7,2.89,0,4.75-.63,8.03-2.69l-1.47-2.89c-2.4,1.66-3.82,2.2-5.78,2.2-4.47,0-7.2-3.23-7.24-8.54h16.81c0,.15-.01.3-.01.46,0,6.81,4.6,11.45,11.36,11.45,2.2,0,4.36-.54,6.17-1.52.35-.15.83-.44,1.47-.83l-1.91-2.89c-1.81,1.37-3.18,1.86-5.33,1.86-4.75,0-7.73-3.18-7.73-8.27s2.99-8.42,7.44-8.42c2.01,0,3.28.49,4.99,1.91l1.11-1.57h2.62v14.78c0,2.94,1.71,4.94,4.26,4.94,1.76,0,2.99-.63,5.58-2.79l-1.52-2.45Zm-38.93-14.83c3.03,0,4.75,1.86,4.8,5.29h-10.87c.83-3.42,2.99-5.29,6.07-5.29M28.78,26.02c-3.92,0-6.95-3.72-6.95-8.42s3.03-8.42,6.95-8.42,6.9,3.72,6.9,8.42-3.03,8.42-6.9,8.42m31.22-8.63h2.68v8.56h-2.68v-8.56Z"/><path class="cls-1" d="m133.04,2.28c0-1.27,1.02-2.28,2.28-2.28s2.28,1.01,2.28,2.28-1.01,2.28-2.28,2.28-2.28-1.02-2.28-2.28Zm.3,0c0,1.09.88,1.98,1.98,1.98s1.97-.89,1.97-1.98-.88-1.97-1.97-1.97-1.98.87-1.98,1.97Zm1.93.28h-.47v1.03h-.34V.98h1.07c.45,0,.83.31.83.8,0,.58-.52.77-.67.77l.7,1.05h-.43l-.68-1.03Zm-.47-1.28v.97h.72c.27,0,.47-.2.47-.47,0-.29-.2-.5-.47-.5h-.72Z"/></g></svg>