<?xml version="1.0" encoding="UTF-8"?><svg id="Layer_2" xmlns="http://www.w3.org/2000/svg" viewBox="0 0 121.9 33.69"><defs><style>.cls-1{fill:#fff;}</style></defs><g id="Detailed_-_HE"><path class="cls-1" d="m0,20.52C0,12.85,5.23,6.75,13.06,6.75c2.78,0,5.06.76,6.59,1.63v4.19c-1.74-1.14-3.7-1.85-6.21-1.85-5.28,0-8.49,4.08-8.49,9.52,0,6.04,3.21,9.47,8.16,9.47,2.61,0,4.46-.87,6.15-1.8l1.41,3.37c-1.9,1.31-4.9,2.39-8.16,2.39-8.11,0-12.52-5.88-12.52-13.17Z"/><path class="cls-1" d="m23.18,7.4h4.03l.54,3.16c2.72-2.88,4.9-3.81,7.24-3.81,1.09,0,2.28.27,3.05.76l-1.69,4.25c-.81-.44-1.63-.65-2.45-.65-1.85,0-3.54.98-5.93,3.32v18.72h-4.79V7.4Z"/><path class="cls-1" d="m39.3,26.2c-4.43-6.46-3.99-13.43,1.44-17.15,5.57-3.81,11.72-1.76,16.37,5.02l.68.99-13.74,9.41c2.83,3.94,7.28,5.24,11.5,2.35,2.02-1.38,3.34-3.21,4.27-5.04l3.13,1.88c-1.11,2.61-3.26,5.07-5.68,6.73-7.05,4.83-13.82,1.88-17.97-4.18Zm12.37-11.31c-2.12-2.9-5.59-4.88-8.78-2.7-3.05,2.09-3.05,6.05-.88,9.31l9.66-6.62Z"/><path class="cls-1" d="m74.46,30.37c-1.96,1.85-4.46,3.32-7.67,3.32-4.74,0-8.27-3.1-8.27-8.05,0-3.43,1.74-5.71,4.35-6.97,1.8-.87,3.87-1.2,6.48-1.31l4.79-.16v-1.36c0-3.65-2.23-5.22-5.33-5.22-2.94,0-5.17.93-7.02,2.01l-1.69-3.32c2.99-1.8,6.26-2.56,9.31-2.56,5.83,0,9.53,2.78,9.53,8.98v9.36c0,4.41.16,6.75.49,8.06h-4.14l-.82-2.78Zm-4.52-9.58c-2.07.05-3.43.38-4.52.93-1.31.76-2.01,2.07-2.01,3.65,0,2.67,1.74,4.41,4.52,4.41,2.94,0,5.11-1.79,6.21-2.94v-6.21l-4.19.16Z"/><path class="cls-1" d="m81.97,7.4V1.53l4.79-1.53v7.4h7.73l-1.31,3.87h-6.42v15.19c0,2.29.92,3.27,2.61,3.27s3.1-.71,4.13-1.36l1.58,3.32c-1.69,1.2-4.25,2.01-6.8,2.01-3.97,0-6.31-2.28-6.31-6.31V7.4Z"/><path class="cls-1" d="m94.05,20.09c0-7.84,4.3-13.34,10.88-13.34s10.67,5.17,10.67,13.39v1.2h-16.66c.11,4.84,3.05,8.44,8.16,8.44,2.45,0,4.57-.76,6.37-1.74l1.52,3.32c-2.4,1.52-5.55,2.34-8.49,2.34-8.54,0-12.46-6.26-12.46-13.61Zm16.6-2.34c-.11-3.59-1.85-7.19-5.71-7.19s-5.93,3.27-5.99,7.19h11.7Z"/><path class="cls-1" d="m121.9,9.27c0,1.37-1.08,2.45-2.48,2.45s-2.5-1.08-2.5-2.45,1.11-2.42,2.5-2.42,2.48,1.08,2.48,2.42Zm-4.36,0c0,1.04.74,1.87,1.76,1.93,1.03.06,1.92-.78,1.97-1.81.05-1.13-.75-2.06-1.86-2.06s-1.88.87-1.88,1.94Zm1.49,1.27h-.56v-2.42c.22-.04.53-.07.93-.07.46,0,.67.07.84.18.13.1.24.3.24.53,0,.27-.21.47-.5.56v.03c.24.09.37.27.44.59.07.37.12.52.18.61h-.61c-.07-.09-.12-.31-.19-.59-.04-.27-.19-.38-.5-.38h-.27v.98Zm.01-1.37h.27c.31,0,.56-.1.56-.35,0-.22-.16-.37-.52-.37-.15,0-.25.01-.31.03v.69Z"/></g></svg>