<?xml version="1.0" encoding="utf-8"?>
<!-- Generator: Adobe Illustrator 27.7.0, SVG Export Plug-In . SVG Version: 6.00 Build 0)  -->
<svg version="1.1" id="Layer_1" xmlns="http://www.w3.org/2000/svg" xmlns:xlink="http://www.w3.org/1999/xlink" x="0px" y="0px"
	 viewBox="0 0 886.2 282.5" style="enable-background:new 0 0 886.2 282.5;" xml:space="preserve">
<style type="text/css">
	.st0{fill:#3683C6;}
	.st1{fill:#FFFFFF;}
	.st2{fill:#194781;}
</style>
<g>
	<path class="st0" d="M7.5,12h107.1l2.5,45.8H110C103.5,21.6,94.6,20,59.7,20c-10.6,0-13.1,0.7-13.1,6.9v42.4h6.4
		c15.4,0,22.5-6.7,23.6-24.3h8v58.2h-8c0-15.8-6.4-25.9-20.2-25.9h-9.8v47.9c0,6.2,2.5,6.9,13.1,6.9c41.3,0,43.8-3.7,53.2-39.4h7.1
		l-3.4,47.4H7.5v-8h9.8c6.9,0,9.9-2,9.9-9.1V29c0-7.1-3-9-9.9-9H7.5V12z"/>
	<path class="st0" d="M196.4,81.9c2.3-5.7,2.8-8.3,2.8-10.8c0-5.2-3.4-6.2-12.2-6.2v-7.1h35.3v7.1c-9.2,0-13.5,8.3-18.4,19.9
		l-24.3,57.1h-5.3l-29.6-66.3c-3.9-8.7-5.5-10.6-12.6-10.6h-2.1v-7.1h41.9v7.1h-2.5c-6.6,0-9.8,0.5-9.8,3.7c0,1.4,0.7,3.5,1.6,5.5
		l20,45.8L196.4,81.9z"/>
	<path class="st0" d="M246.1,100.2v2.5c0,20.6,11.5,31.2,25.5,31.2c13.5,0,21.3-7.5,27-19.2l6,3.4c-7.3,16-18.3,24.7-36,24.7
		c-24.5,0-40.6-16.9-40.6-41c0-29.8,16.1-46.7,41.5-46.7c20.7,0,33.9,18.8,35.1,45.1H246.1z M277.5,93.1c7.3,0,9-1.1,9-6.7
		c0-15.1-7.3-24.1-18.6-24.1c-14,0-20.2,11.5-21.8,30.9H277.5z"/>
	<path class="st0" d="M311.5,59.5l33-1.8v21.1h0.4c2.1-9.4,10.6-23.8,26.4-23.8c7.8,0,14,5.7,14,13.8c0,6.8-3.5,12.1-10.6,12.1
		c-5.9,0-9.8-4.4-9.8-9.6c0-3.2,0.9-5.7,4.3-8v-0.4h-0.4c-18.4,1.4-24.3,31.9-24.3,46.5v17.7c0,4.6,3,5.7,10.3,5.7h6.4v7.1H313V133
		h5.8c6.7,0,9.4-1.8,9.4-8.7V71.6c0-4.3-2.7-5-8.5-5h-8.2V59.5z"/>
	<path class="st0" d="M451,57.8h35.3v7.1c-8.7,0.2-11.5,3.5-14.9,11.9l-23.1,55.9c-13.1,31.9-24.7,43.8-39.6,43.8
		c-8.5,0-16.3-4.3-16.3-13.8c0-6,5-10.1,10.8-10.1c5,0,8.5,3.7,8.5,7.4c0,3.2-1.2,4.8-1.2,6c0,1.8,1.1,2.5,2.1,2.5
		c7.6,0,15.4-10.3,24.5-29.8l-27.8-63.2c-3.9-8.7-5.5-10.6-12.6-10.6h-2.1v-7.1h41.9v7.1h-2.5c-6.6,0-9.7,0.5-9.7,3.7
		c0,1.4,0.7,3.5,1.6,5.5l19.5,44.7l13.8-34.2c3.4-8.2,4.6-11.4,4.6-14.2c0-3.9-4.4-5.5-7.5-5.5H451V57.8z"/>
	<path class="st0" d="M533.8,11.1l34.4-1.8v114.4c0,7.8,1.8,9.2,14.5,9.2v7.1l-30.9,1.8v-15.6h-0.4c-3.9,11-12.6,16.5-24.5,16.5
		c-22.9,0-36.2-18.8-36.2-42.7c0-28,16.7-44.9,36-44.9c10.6,0,19.7,4.8,24.7,13.7h0.4V23.2c0-4.3-2.7-5-8.5-5h-9.6V11.1z M530.4,64
		C517.8,64,509,74.4,509,98.9c0,24.5,8.9,34.9,21.5,34.9c12.8,0,21.5-10.5,21.5-34.9C551.9,74.4,543.2,64,530.4,64"/>
	<path class="st0" d="M650.3,79.6c0-11.4-5-16.5-19.2-16.5c-11.9,0-16.5,3.6-16.5,6c0,2,3.9,6,3.9,10.1c0,6.2-4.3,8.7-9.9,8.7
		c-6.4,0-9.4-5.1-9.4-11.2c0-11,13.1-21.6,34.6-21.6c22.9,0,32.8,8.2,32.8,27.1c0,8.9-0.5,34.1-0.5,40.8c0,3.2,2.5,8.2,6.6,8.2
		c4.8,0,6-2.1,7.8-2.1c1.8,0,2.3,0.9,2.3,3c0,2.7-6.6,9.8-15.8,9.8c-9,0-13.5-4.6-15.8-13.3c-7.8,9.4-19.9,14.2-31.9,14.2
		c-13.3,0-24.8-6.2-24.8-21.1c0-16.7,21.3-27.9,55.9-32.5V79.6z M650.3,96.3c-30.7,4.3-38.7,10.6-38.7,23.8
		c0,8.5,6.9,13.8,14.9,13.8c11,0,23.8-8.9,23.8-23.4V96.3z"/>
	<path class="st0" d="M738.3,57.8h35.3v7.1c-8.7,0.2-11.5,3.5-14.9,11.9l-23.1,55.9c-13.1,31.9-24.7,43.8-39.6,43.8
		c-8.5,0-16.3-4.3-16.3-13.8c0-6,5-10.1,10.8-10.1c5,0,8.5,3.7,8.5,7.4c0,3.2-1.2,4.8-1.2,6c0,1.8,1.1,2.5,2.1,2.5
		c7.6,0,15.4-10.3,24.5-29.8l-27.8-63.2c-3.9-8.7-5.5-10.6-12.6-10.6h-2.1v-7.1h41.9v7.1h-2.5c-6.6,0-9.8,0.5-9.8,3.7
		c0,1.4,0.7,3.5,1.6,5.5l19.5,44.7l13.8-34.2c3.4-8.2,4.6-11.4,4.6-14.2c0-3.9-4.4-5.5-7.4-5.5h-5.3V57.8z"/>
	<path class="st1" d="M690.6,175.1c6.8,0,12.3-5.5,12.3-12.2c0-6.7-5.5-12.2-12.3-12.2c-6.8,0-12.8,5.5-12.8,12.2
		C677.9,169.6,683.9,175.1,690.6,175.1"/>
	<path class="st1" d="M403.9,175.1c6.8,0,12.2-5.5,12.2-12.2c0-6.7-5.5-12.2-12.2-12.2c-6.8,0-12.8,5.5-12.8,12.2
		C391.1,169.6,397.1,175.1,403.9,175.1"/>
	<path class="st2" d="M790.2,245.3l-0.1,3.9c-0.3,17.6,9.5,26.5,33.2,26.5c21.9,0,34-11.1,34.3-28.9c0.6-34.3-41.9-23.8-41.6-39.5
		c0.1-4.7,2.1-8.2,9.1-8.2c5.6,0,8.6,2.1,8.5,9.8l0,1.6h23.5l0-2.9c0.2-12.7-6.7-24.8-31.6-24.8c-21.2,0-33.8,9-34.1,26.6
		c-0.3,18.6,10.1,22.9,31.6,30.2c8.1,2.8,10,6.7,9.9,10.8c-0.1,5.1-3.4,9-9.6,9c-4.2,0-6.7-1.6-8.1-4.1c-1.3-2.6-1.5-6-1.6-10H790.2
		z M784.1,218.3c0.4-21.1-6.6-35.6-34.3-35.6c-28.7,0-36.2,18.5-36.7,43.3c-0.5,26.3,1.7,49.6,35.1,49.6c24,0,35-10.9,35.6-38.2
		h-24.5c-0.6,15.5-2.5,20.9-10.3,20.9c-8.8,0-9.8-9.1-9.4-29.1c0.3-18.1,1.7-29.2,10.5-29.2c7,0,9.9,5.4,9.7,18.3H784.1z
		 M675.7,273.4h26.4l1.5-88.3h-26.5L675.7,273.4z M629,250.5c-0.3,20.6,4.8,23.8,23.1,23.8c5.1,0,10.1-0.3,15.2-1l0.3-17.6
		c-1.1,0.2-2.6,0.3-3.8,0.3c-6.2,0-8.4-2-8.3-8.2l0.8-44.6h12.2l0.3-18.3h-12.2l0.4-26h-26.4l-0.5,26h-10.9l-0.3,18.3h10.9
		L629,250.5z M568,246.1c0.1-4.9,1.4-7.7,4.3-9.8c2.5-2,6.1-2.1,14.5-6.5c-0.1,3.6-0.3,8.2-0.4,15.5c-0.2,8.8-5.3,12.1-10.8,12.1
		C570.6,257.4,567.9,253.1,568,246.1 M569.1,212.1c0.3-7.7,2.5-12.1,9.8-12.1c5.9,0,8.3,3.4,8.2,8.8c-0.1,6.7-1.6,8-9.6,10.1
		c-7.4,2-17.2,3.6-23.8,7.2c-6.6,3.6-11,12.2-11.2,22.5c-0.3,19.1,8.2,26.9,23,26.9c8.8,0,17.2-4.6,21-12.4h0.3
		c0.1,3.4,0.4,7,1.3,10.1h25.5c-3-3.9-2.9-12.4-2.8-19.1l0.8-45.4c0.3-18.6-9.2-26.1-30.9-26.1c-10.9,0-18.5,1.5-24.8,5.7
		c-6.3,4.2-10,11.6-10.4,23.7H569.1z M418.9,273.4h26.4l1-57.8c0.2-8.7,4.6-12.6,9.7-12.6c4.9,0,7.6,3.8,7.5,10.1l-1.1,60.2H489
		l1-57.8c0.1-8.7,4.6-12.6,9.7-12.6c4.9,0,7.6,3.8,7.5,10.1l-1,60.2h26.5l1.1-66.1c0.3-17-7.6-24.5-22.6-24.5
		c-9.8,0-15.7,3.3-22.1,13.5c-3.7-12.1-13.8-13.5-21.5-13.5c-9.8,0-17.6,4.9-21.5,12.7h-0.3l0.2-10.5h-25.5L418.9,273.4z
		 M365.6,218.2c0.2-11.9,1.8-19.1,10.5-19.1c7.3,0,8.9,6.7,8.6,19.1H365.6z M410,233.5c0.5-30-1.4-50.8-34.2-50.8
		c-28.7,0-36.2,18.5-36.7,43.3c-0.5,26.3,1.7,49.6,35.1,49.6c21.9,0,34-10.6,34.9-32.5h-24.5c-0.8,11.1-3.1,16.2-9.9,16.2
		c-7.7,0-9.5-6.7-9.3-20.4l0.1-5.4H410z M258.5,273.4H285l1-57.8c0.1-8.7,4.6-12.6,9.7-12.6c4.9,0,7.6,3.8,7.5,10.1l-1.1,60.2h26.5
		l1.2-66.1c0.3-17-7.6-24.5-22.6-24.5c-9,0-16.1,3.3-20.5,11.9h-0.3l0.7-37.9h-26.5L258.5,273.4z M212.2,250.5
		c-0.4,20.6,4.8,23.8,23.1,23.8c5.1,0,10.1-0.3,15.2-1l0.3-17.6c-1.1,0.2-2.6,0.3-3.8,0.3c-6.2,0-8.5-2-8.3-8.2l0.8-44.6h12.2
		L252,185h-12.2l0.5-26h-26.5l-0.4,26h-10.9l-0.3,18.3H213L212.2,250.5z M151.2,246.1c0.1-4.9,1.4-7.7,4.3-9.8
		c2.5-2,6.1-2.1,14.5-6.5c-0.1,3.6-0.3,8.2-0.4,15.5c-0.2,8.8-5.3,12.1-10.8,12.1C153.8,257.4,151.1,253.1,151.2,246.1 M152.3,212.1
		c0.3-7.7,2.5-12.1,9.8-12.1c5.9,0,8.3,3.4,8.2,8.8c-0.1,6.7-1.6,8-9.7,10.1c-7.4,2-17.2,3.6-23.8,7.2c-6.6,3.6-11,12.2-11.2,22.5
		c-0.3,19.1,8.2,26.9,23,26.9c8.8,0,17.2-4.6,20.9-12.4h0.3c0.1,3.4,0.4,7,1.3,10.1h25.5c-3-3.9-2.9-12.4-2.8-19.1l0.8-45.4
		c0.3-18.6-9.2-26.1-30.9-26.1c-10.9,0-18.5,1.5-24.8,5.7c-6.3,4.2-10,11.6-10.4,23.7H152.3z M5.7,273.4h24.5l1.6-90.8h0.3
		l17.2,90.8h21.2l19.4-90.8h0.3l-1.6,90.8h25.5l2-116.6H76.5l-15.2,76.6H61l-13-76.6H7.7L5.7,273.4z"/>
	<path class="st2" d="M879.3,201.2c-0.1,4.3-3.2,7.2-6.8,7.2v0h0c-3.7,0-6.6-2.9-6.5-7.1c0.1-4.3,3.1-7.1,6.8-7.1
		C876.4,194.1,879.4,196.9,879.3,201.2 M882,201.2c0.1-5.9-4.2-9.3-9.2-9.3c-4.9,0-9.4,3.4-9.5,9.3c-0.1,5.9,4.2,9.3,9.2,9.3
		C877.4,210.5,881.9,207.1,882,201.2 M871.1,200.3l0-2.4h1.5c0.8,0,1.9,0.1,1.9,1.1c0,1.1-0.6,1.3-1.5,1.3H871.1z M871.1,202h1
		l2.2,4.2h2.5l-2.5-4.4c1.3-0.1,2.4-0.8,2.5-2.6c0-2.3-1.5-3-4.1-3h-3.7l-0.2,10h2.1L871.1,202z"/>
</g>
</svg>
