<?xml version="1.0" encoding="utf-8"?>
<!-- Generator: Adobe Illustrator 27.7.0, SVG Export Plug-In . SVG Version: 6.00 Build 0)  -->
<svg version="1.1" id="Layer_1" xmlns="http://www.w3.org/2000/svg" xmlns:xlink="http://www.w3.org/1999/xlink" x="0px" y="0px"
	 viewBox="0 0 300 100" style="enable-background:new 0 0 300 100;" xml:space="preserve">
<style type="text/css">
	.st0{display:none;fill:#E54BEA;}
	.st1{display:none;}
	.st2{display:inline;fill:#FFFFFF;}
	.st3{display:inline;}
	.st4{fill:#FFFFFF;}
	.st5{clip-path:url(#SVGID_00000104686875728740405530000001795342691224026755_);fill:#FFFFFF;}
	.st6{opacity:0.85;}
	.st7{filter:url(#Adobe_OpacityMaskFilter);}
	.st8{mask:url(#SVGID_00000023994767563379306600000016537760921421312642_);}
</style>
<rect x="-4.9" y="-4.6" class="st0" width="309.7" height="109.7"/>
<g id="ArriveMath" class="st1">
	<rect x="86.4" y="38.2" class="st2" width="35.2" height="11.7"/>
	<polygon class="st2" points="121.5,38.2 109.8,49.9 121.5,49.9 	"/>
	<polygon class="st2" points="86.4,38.2 86.4,49.9 98.1,49.9 98.1,73.4 109.8,73.4 109.8,38.2 	"/>
	<polygon class="st2" points="98.1,61.7 98.1,73.4 109.8,61.7 98.1,49.9 	"/>
	<polygon class="st2" points="86.4,38.2 86.4,49.9 98.1,49.9 86.4,38.2 	"/>
	<polygon class="st2" points="62.3,38.2 70.5,60.8 60.4,60.8 60.4,69.6 73.7,69.6 75.1,73.4 87.6,73.4 74.8,38.2 	"/>
	<polygon class="st2" points="70.5,60.8 70.4,60.8 73.7,69.6 83,60.8 83,60.8 	"/>
	<polygon class="st2" points="60.4,38.2 47.6,73.4 60.1,73.4 72.9,38.2 	"/>
	<polygon class="st2" points="62.3,38.2 67.6,52.8 72.9,38.2 	"/>
	<polygon class="st2" points="32.5,38.2 32.4,38.2 32.4,38.2 24.1,46.5 15.8,38.2 4.1,38.2 4.1,43.1 24.1,63.1 32.4,54.8 32.4,73.4 
		44.2,73.4 44.2,38.2 32.5,38.2 	"/>
	<polygon class="st2" points="32.4,73.4 44.2,73.4 44.2,61.7 	"/>
	<polygon class="st2" points="15.8,54.8 24.1,46.5 15.8,38.2 	"/>
	<rect x="4.1" y="38.2" class="st2" width="11.7" height="35.2"/>
	<polygon class="st2" points="4.2,73.4 15.8,73.4 15.8,61.7 	"/>
	<polygon class="st2" points="148.7,38.2 148.7,49.9 134.8,49.9 134.8,61.7 148.7,61.7 148.7,73.4 160.4,73.4 160.4,38.2 	"/>
	<polygon class="st2" points="137,49.9 137,61.7 148.7,61.7 	"/>
	<polygon class="st2" points="148.7,73.4 160.4,73.4 160.4,61.7 	"/>
	<rect x="125.2" y="38.2" class="st2" width="11.7" height="35.2"/>
	<polygon class="st2" points="125.2,38.2 125.2,49.9 136.9,38.3 136.9,38.2 	"/>
	<path class="st2" d="M33.5,34.1V20.9c0-2.1,0.8-4.1,2.2-5.4c1.3-1.3,3.5-1.9,5.9-1.7l0.4,0v-2.2l-0.4,0c-2.9-0.3-5.5,0.4-7.5,2.2
		c-0.3,0.2-0.5,0.5-0.7,0.8v-2.6h-2.4v22H33.5z M47,34.1V20.9c0-2.1,0.8-4.1,2.2-5.4c1.3-1.3,3.5-1.9,5.9-1.7l0.4,0v-2.2l-0.4,0
		c-2.9-0.3-5.5,0.4-7.5,2.2c-0.3,0.2-0.5,0.5-0.7,0.8v-2.6h-2.4v22H47z M60.7,34.1v-22h-2.3v22H60.7z M73.7,34.1l8.5-22h-2.5
		l-7.1,18.4l-7-18.4h-2.5l8.5,22H73.7z M6.7,34.1l3.8-9.8h12.2l3.8,9.8h2.5l-4.7-12.2H8.8L4.2,34.1H6.7z M93.2,13.9
		c4.1,0,7.6,3,8.4,7.2H84.7C85.6,16.9,89.1,13.9,93.2,13.9z M103.7,27.2l0.2-0.5h-2.4l-0.1,0.3c-1.3,3.5-3.9,5.3-7.9,5.3
		c-4.9,0-8.7-3.8-8.9-8.8h19.6l0-0.4c0-3-1.2-6.1-3.4-8.3c-2-2.1-4.7-3.2-7.6-3.2c-6.1,0-11,5.2-11,11.6c0,6.4,4.9,11.4,11.2,11.4
		C98.5,34.6,102.1,32,103.7,27.2z M58.4,4.7v4.6h2.3V4.7H58.4z"/>
	<polygon class="st2" points="15.4,4.7 9.7,19.6 12.2,19.6 16.5,8.3 20.9,19.6 23.4,19.6 17.7,4.7 	"/>
	<path class="st2" d="M33.5,34.1V20.9c0-2.1,0.8-4.1,2.2-5.4c1.3-1.3,3.5-1.9,5.9-1.7l0.4,0v-2.2l-0.4,0c-2.9-0.3-5.5,0.4-7.5,2.2
		c-0.3,0.2-0.5,0.5-0.7,0.8v-2.6h-2.4v22H33.5z M47,34.1V20.9c0-2.1,0.8-4.1,2.2-5.4c1.3-1.3,3.5-1.9,5.9-1.7l0.4,0v-2.2l-0.4,0
		c-2.9-0.3-5.5,0.4-7.5,2.2c-0.3,0.2-0.5,0.5-0.7,0.8v-2.6h-2.4v22H47z M60.7,34.1v-22h-2.3v22H60.7z M73.7,34.1l8.5-22h-2.5
		l-7.1,18.4l-7-18.4h-2.5l8.5,22H73.7z M6.7,34.1l3.8-9.8h12.2l3.8,9.8h2.5l-4.7-12.2H8.8L4.2,34.1H6.7z M93.2,13.9
		c4.1,0,7.6,3,8.4,7.2H84.7C85.6,16.9,89.1,13.9,93.2,13.9z M103.7,27.2l0.2-0.5h-2.4l-0.1,0.3c-1.3,3.5-3.9,5.3-7.9,5.3
		c-4.9,0-8.7-3.8-8.9-8.8h19.6l0-0.4c0-3-1.2-6.1-3.4-8.3c-2-2.1-4.7-3.2-7.6-3.2c-6.1,0-11,5.2-11,11.6c0,6.4,4.9,11.4,11.2,11.4
		C98.5,34.6,102.1,32,103.7,27.2z M58.4,4.7v4.6h2.3V4.7H58.4z"/>
	<polygon class="st2" points="15.4,4.7 9.7,19.6 12.2,19.6 16.5,8.3 20.9,19.6 23.4,19.6 17.7,4.7 	"/>
	<g class="st3">
		<path class="st4" d="M62.2,83.2c-1.3,0-1.7,0.8-1.7,3.5c0,2.7,0.4,3.5,1.7,3.5s1.7-0.8,1.7-3.5C63.9,84,63.5,83.2,62.2,83.2z"/>
		<path class="st4" d="M73.2,83.2c-1.3,0-1.7,0.8-1.7,3.5c0,2.7,0.4,3.5,1.7,3.5c1.3,0,1.7-0.8,1.7-3.5C74.9,84,74.5,83.2,73.2,83.2
			z"/>
		<path class="st4" d="M51.9,87.6h-1.4v2.5h1.4c0.8,0,1.1-0.5,1.1-1.2C53,88.1,52.7,87.6,51.9,87.6z"/>
		<path class="st4" d="M112.3,83.3H111v2.5h1.3c0.9,0,1-0.7,1-1.3C113.3,83.9,113.1,83.3,112.3,83.3z"/>
		<path class="st4" d="M52.7,84.3c0-0.5-0.2-1-0.9-1h-1.2v2.1h1.2C52.5,85.3,52.7,84.8,52.7,84.3z"/>
		<path class="st4" d="M160.4,86.5v-8.7H4.2v17.4h0l0,0H150l0,0h10.4V86.5L160.4,86.5L160.4,86.5z M52,92.7h-4.7v-12H52
			c3.2,0,4,1.5,4,3.5c0,0.9-0.5,1.7-1.2,2.2c0.9,0.4,1.5,1.3,1.5,2.6C56.3,91,55.4,92.7,52,92.7z M62.2,92.9c-4,0-4.9-2.5-4.9-6.3
			c0-3.8,0.9-6.3,4.9-6.3s4.9,2.5,4.9,6.3C67.1,90.5,66.2,92.9,62.2,92.9z M73.2,92.9c-4,0-4.9-2.5-4.9-6.3c0-3.8,0.9-6.3,4.9-6.3
			c4,0,4.9,2.5,4.9,6.3C78.1,90.5,77.2,92.9,73.2,92.9z M83.3,92.9c-1.6,0-3-0.3-3.9-0.8l0-2.9c0.7,0.4,2.1,0.9,3.6,0.9
			c1.5,0,2-0.4,2-1c0-0.7-0.5-1-1.4-1.1c-3-0.4-4.2-1.1-4.2-3.7c0-2.4,1.4-3.8,4.7-3.8c1.7,0,2.9,0.3,3.5,0.6l0,2.9
			c-0.8-0.4-2.1-0.6-3.3-0.6c-1.2,0-1.8,0.3-1.8,1c0,0.7,0.5,0.9,1.5,1c2.8,0.3,4.2,0.9,4.2,3.7C88.1,91.9,86.2,92.9,83.3,92.9z
			 M97.3,83.4h-2.8v9.3h-3.1v-9.3h-2.8v-2.8h8.8V83.4z M106.4,83.4h-4.9v1.7h4.5v2.8h-4.5v2h4.9v2.8h-8.1v-12h8.1V83.4z M113.6,92.7
			l-1.6-4.4H111v4.4h-3.1v-12h4.4c3.4,0,4.4,1.5,4.4,3.8c0,1.5-0.4,2.6-1.6,3.2l2.2,5H113.6z"/>
	</g>
	<polygon class="st2" points="163.9,41.2 163.9,38.6 164.8,38.6 164.8,38.3 162.7,38.3 162.7,38.6 163.7,38.6 163.7,41.2 	"/>
	<polygon class="st2" points="168,38.3 167.6,38.3 166.7,40.7 165.7,38.3 165.3,38.3 165.3,41.2 165.6,41.2 165.6,38.7 166.6,41.2 
		166.7,41.2 167.8,38.7 167.8,41.2 168,41.2 	"/>
</g>
<g id="Everyday_Math" class="st1">
	<path class="st2" d="M2.1,5.7h36.4l0.8,15.5h-2.4C34.7,9,31.7,8.5,19.8,8.5c-3.6,0-4.5,0.2-4.5,2.4v14.4h2.2c5.2,0,7.7-2.3,8-8.3
		h2.7v19.8h-2.7c0-5.4-2.2-8.8-6.9-8.8h-3.3v16.3c0,2.1,0.8,2.4,4.5,2.4c14,0,14.9-1.3,18.1-13.4h2.4l-1.1,16.1H2.1v-2.7h3.3
		c2.4,0,3.4-0.7,3.4-3.1V11.5c0-2.4-1-3.1-3.4-3.1H2.1V5.7z"/>
	<path class="st2" d="M66.3,29.5c0.8-1.9,1-2.8,1-3.7c0-1.8-1.1-2.1-4.2-2.1v-2.4h12v2.4c-3.1,0-4.6,2.8-6.3,6.7l-8.3,19.4h-1.8
		L48.7,27.3c-1.3-3-1.9-3.6-4.3-3.6h-0.7v-2.4h14.2v2.4H57c-2.2,0-3.3,0.2-3.3,1.3c0,0.5,0.2,1.2,0.5,1.9l6.8,15.5L66.3,29.5z"/>
	<path class="st2" d="M83.1,35.7v0.8c0,7,3.9,10.6,8.7,10.6c4.6,0,7.2-2.5,9.2-6.5l2,1.1c-2.5,5.4-6.2,8.4-12.2,8.4
		c-8.3,0-13.8-5.7-13.8-13.9c0-10.1,5.5-15.8,14.1-15.8c7,0,11.5,6.4,11.9,15.3H83.1z M93.8,33.3c2.5,0,3.1-0.4,3.1-2.3
		c0-5.1-2.5-8.2-6.3-8.2c-4.8,0-6.9,3.9-7.4,10.5H93.8z"/>
	<path class="st2" d="M105.4,21.9l11.2-0.6v7.2h0.1c0.7-3.2,3.6-8.1,9-8.1c2.6,0,4.8,1.9,4.8,4.7c0,2.3-1.2,4.1-3.6,4.1
		c-2,0-3.3-1.5-3.3-3.3c0-1.1,0.3-1.9,1.4-2.7v-0.1h-0.1c-6.3,0.5-8.3,10.8-8.3,15.8v6c0,1.6,1,1.9,3.5,1.9h2.2v2.4h-16.4v-2.4h2
		c2.3,0,3.2-0.6,3.2-3V26c0-1.4-0.9-1.7-2.9-1.7h-2.8V21.9z"/>
	<path class="st2" d="M152.7,21.3h12v2.4c-3,0.1-3.9,1.2-5.1,4l-7.8,19c-4.5,10.8-8.4,14.9-13.4,14.9c-2.9,0-5.5-1.4-5.5-4.7
		c0-2,1.7-3.4,3.7-3.4c1.7,0,2.9,1.3,2.9,2.5c0,1.1-0.4,1.6-0.4,2.1c0,0.6,0.4,0.8,0.7,0.8c2.6,0,5.2-3.5,8.3-10.1l-9.5-21.5
		c-1.3-3-1.9-3.6-4.3-3.6h-0.7v-2.4h14.2v2.4h-0.8c-2.2,0-3.3,0.2-3.3,1.3c0,0.5,0.2,1.2,0.5,1.9l6.6,15.2l4.7-11.6
		c1.1-2.8,1.6-3.9,1.6-4.8c0-1.3-1.5-1.9-2.5-1.9h-1.8V21.3z"/>
	<path class="st2" d="M180.9,5.4l11.7-0.6v38.9c0,2.7,0.6,3.1,4.9,3.1v2.4L187,49.8v-5.3h-0.1c-1.3,3.7-4.3,5.6-8.3,5.6
		c-7.8,0-12.3-6.4-12.3-14.5c0-9.5,5.7-15.2,12.2-15.2c3.6,0,6.7,1.6,8.4,4.6h0.1V9.5c0-1.4-0.9-1.7-2.9-1.7h-3.3V5.4z M179.7,23.4
		c-4.3,0-7.3,3.6-7.3,11.9c0,8.3,3,11.9,7.3,11.9c4.3,0,7.3-3.6,7.3-11.9C187,27,184.1,23.4,179.7,23.4"/>
	<path class="st2" d="M220.5,28.7c0-3.9-1.7-5.6-6.5-5.6c-4,0-5.6,1.2-5.6,2.1c0,0.7,1.3,2,1.3,3.4c0,2.1-1.4,3-3.4,3
		c-2.2,0-3.2-1.7-3.2-3.8c0-3.7,4.5-7.4,11.7-7.4c7.8,0,11.2,2.8,11.2,9.2c0,3-0.2,11.6-0.2,13.9c0,1.1,0.8,2.8,2.2,2.8
		c1.6,0,2-0.7,2.7-0.7c0.6,0,0.8,0.3,0.8,1c0,0.9-2.2,3.3-5.4,3.3c-3.1,0-4.6-1.6-5.4-4.5c-2.6,3.2-6.7,4.8-10.8,4.8
		c-4.5,0-8.4-2.1-8.4-7.2c0-5.7,7.2-9.5,19-11V28.7z M220.5,34.4c-10.4,1.4-13.1,3.6-13.1,8.1c0,2.9,2.4,4.7,5.1,4.7
		c3.7,0,8.1-3,8.1-8V34.4z"/>
	<path class="st2" d="M250.3,21.3h12v2.4c-3,0.1-3.9,1.2-5.1,4l-7.8,19c-4.5,10.8-8.4,14.9-13.4,14.9c-2.9,0-5.5-1.4-5.5-4.7
		c0-2,1.7-3.4,3.7-3.4c1.7,0,2.9,1.3,2.9,2.5c0,1.1-0.4,1.6-0.4,2.1c0,0.6,0.4,0.8,0.7,0.8c2.6,0,5.2-3.5,8.3-10.1l-9.5-21.5
		c-1.3-3-1.9-3.6-4.3-3.6h-0.7v-2.4h14.2v2.4h-0.8c-2.2,0-3.3,0.2-3.3,1.3c0,0.5,0.2,1.2,0.5,1.9l6.6,15.2l4.7-11.6
		c1.1-2.8,1.6-3.9,1.6-4.8c0-1.3-1.5-1.9-2.5-1.9h-1.8V21.3z"/>
	<path class="st2" d="M234.2,61.1c2.3,0,4.2-1.9,4.2-4.1c0-2.3-1.9-4.1-4.2-4.1c-2.3,0-4.3,1.9-4.3,4.1
		C229.8,59.3,231.9,61.1,234.2,61.1"/>
	<path class="st2" d="M136.7,61.1c2.3,0,4.2-1.9,4.2-4.1c0-2.3-1.9-4.1-4.2-4.1c-2.3,0-4.3,1.9-4.3,4.1
		C132.4,59.3,134.4,61.1,136.7,61.1"/>
	<path class="st2" d="M268,85l0,1.3c-0.1,6,3.2,9,11.3,9c7.4,0,11.5-3.8,11.7-9.8c0.2-11.6-14.2-8.1-14.1-13.4
		c0-1.6,0.7-2.8,3.1-2.8c1.9,0,2.9,0.7,2.9,3.3l0,0.6h8l0-1c0.1-4.3-2.3-8.4-10.7-8.4c-7.2,0-11.5,3.1-11.6,9
		c-0.1,6.3,3.4,7.8,10.7,10.3c2.8,0.9,3.4,2.3,3.4,3.7c0,1.7-1.2,3.1-3.3,3.1c-1.4,0-2.3-0.6-2.7-1.4c-0.4-0.9-0.5-2.1-0.6-3.4H268z
		 M265.9,75.8c0.1-7.2-2.2-12.1-11.7-12.1c-9.8,0-12.3,6.3-12.5,14.7c-0.2,8.9,0.6,16.9,11.9,16.9c8.2,0,11.9-3.7,12.1-13h-8.3
		c-0.2,5.3-0.8,7.1-3.5,7.1c-3,0-3.3-3.1-3.2-9.9c0.1-6.2,0.6-9.9,3.6-9.9c2.4,0,3.4,1.8,3.3,6.2H265.9z M229.1,94.5h9l0.5-30h-9
		L229.1,94.5z M213.2,86.8c-0.1,7,1.6,8.1,7.8,8.1c1.7,0,3.4-0.1,5.2-0.3l0.1-6c-0.4,0.1-0.9,0.1-1.3,0.1c-2.1,0-2.9-0.7-2.8-2.8
		l0.3-15.1h4.2l0.1-6.2h-4.2l0.2-8.8h-9l-0.2,8.8h-3.7l-0.1,6.2h3.7L213.2,86.8z M192.5,85.3c0-1.7,0.5-2.6,1.4-3.3
		c0.8-0.7,2.1-0.7,4.9-2.2c0,1.2-0.1,2.8-0.1,5.3c-0.1,3-1.8,4.1-3.7,4.1C193.4,89.1,192.5,87.6,192.5,85.3 M192.9,73.7
		c0.1-2.6,0.8-4.1,3.3-4.1c2,0,2.8,1.2,2.8,3c0,2.3-0.5,2.7-3.3,3.4c-2.5,0.7-5.8,1.2-8.1,2.4c-2.2,1.2-3.7,4.2-3.8,7.7
		c-0.1,6.5,2.8,9.2,7.8,9.2c3,0,5.9-1.6,7.1-4.2h0.1c0,1.2,0.1,2.4,0.4,3.4h8.7c-1-1.3-1-4.2-0.9-6.5l0.3-15.4
		c0.1-6.3-3.1-8.9-10.5-8.9c-3.7,0-6.3,0.5-8.4,1.9c-2.1,1.4-3.4,3.9-3.5,8H192.9z M141.9,94.5h9l0.3-19.6c0.1-2.9,1.6-4.3,3.3-4.3
		c1.7,0,2.6,1.3,2.5,3.4l-0.4,20.5h9l0.3-19.6c0-2.9,1.6-4.3,3.3-4.3c1.7,0,2.6,1.3,2.5,3.4l-0.4,20.5h9l0.4-22.5
		c0.1-5.8-2.6-8.3-7.7-8.3c-3.3,0-5.3,1.1-7.5,4.6c-1.3-4.1-4.7-4.6-7.3-4.6c-3.3,0-6,1.7-7.3,4.3H151l0.1-3.6h-8.7L141.9,94.5z
		 M123.8,75.8c0.1-4,0.6-6.5,3.6-6.5c2.5,0,3,2.3,2.9,6.5H123.8z M138.8,81c0.2-10.2-0.5-17.2-11.6-17.2c-9.8,0-12.3,6.3-12.5,14.7
		c-0.2,8.9,0.6,16.9,11.9,16.9c7.4,0,11.5-3.6,11.8-11h-8.3c-0.3,3.8-1,5.5-3.4,5.5c-2.6,0-3.2-2.3-3.1-6.9l0-1.8H138.8z M87.4,94.5
		h9l0.3-19.6c0-2.9,1.6-4.3,3.3-4.3c1.7,0,2.6,1.3,2.5,3.4l-0.4,20.5h9l0.4-22.5c0.1-5.8-2.6-8.3-7.7-8.3c-3,0-5.5,1.1-6.9,4.1h-0.1
		L97,54.9h-9L87.4,94.5z M71.6,86.8c-0.1,7,1.6,8.1,7.8,8.1c1.7,0,3.4-0.1,5.2-0.3l0.1-6c-0.4,0.1-0.9,0.1-1.3,0.1
		c-2.1,0-2.9-0.7-2.8-2.8l0.3-15.1H85l0.1-6.2H81l0.2-8.8h-9L72,64.5h-3.7l-0.1,6.2h3.7L71.6,86.8z M50.9,85.3
		c0-1.7,0.5-2.6,1.4-3.3c0.8-0.7,2.1-0.7,4.9-2.2c0,1.2-0.1,2.8-0.1,5.3c-0.1,3-1.8,4.1-3.7,4.1C51.8,89.1,50.9,87.6,50.9,85.3
		 M51.3,73.7c0.1-2.6,0.8-4.1,3.3-4.1c2,0,2.8,1.2,2.8,3c0,2.3-0.5,2.7-3.3,3.4c-2.5,0.7-5.8,1.2-8.1,2.4c-2.2,1.2-3.7,4.2-3.8,7.7
		c-0.1,6.5,2.8,9.2,7.8,9.2c3,0,5.8-1.6,7.1-4.2h0.1c0,1.2,0.1,2.4,0.4,3.4h8.7c-1-1.3-1-4.2-0.9-6.5l0.3-15.4
		c0.1-6.3-3.1-8.9-10.5-8.9c-3.7,0-6.3,0.5-8.4,1.9c-2.1,1.4-3.4,3.9-3.5,8H51.3z M1.5,94.5h8.3l0.5-30.8h0.1l5.8,30.8h7.2l6.6-30.8
		h0.1l-0.5,30.8h8.7L39,54.9H25.5l-5.2,26h-0.1l-4.4-26H2.2L1.5,94.5z"/>
	<path class="st2" d="M298.2,70c0,1.5-1.1,2.4-2.3,2.4v0h0c-1.2,0-2.2-1-2.2-2.4c0-1.5,1-2.4,2.3-2.4
		C297.2,67.6,298.3,68.6,298.2,70 M299.1,70c0-2-1.4-3.2-3.1-3.2c-1.7,0-3.2,1.2-3.2,3.2c0,2,1.4,3.2,3.1,3.2
		C297.6,73.2,299.1,72,299.1,70 M295.5,69.7l0-0.8h0.5c0.3,0,0.7,0,0.6,0.4c0,0.4-0.2,0.4-0.5,0.4H295.5z M295.4,70.3h0.3l0.8,1.4
		h0.9l-0.8-1.5c0.5,0,0.8-0.3,0.8-0.9c0-0.8-0.5-1-1.4-1h-1.3l-0.1,3.4h0.7L295.4,70.3z"/>
</g>
<g id="Inspire_Science">
	<g>
		<g>
			<g>
				<defs>
					<path id="SVGID_1_" d="M80.3,24.9l-2.6,3.3l3-3l0.1,3.1l0.3-3.4l3.2-1.2l-3.4,0.9l1-4.2l-1.5,4l-1.2-1.2l0.8,1.2L77.3,24
						L80.3,24.9z M120,33.4l-3-0.2l0.3-7.8l-0.6,7.7l-3.1-2.3l2.9,2.7l-0.1,3.2l0.4-2.9l1.1,1.9l-0.8-2L120,33.4z M93.4,18l-3.1,0.9
						l0,0l3.2-0.5l-0.7,1.4l1-1.3l3.3,2.6L94,18.1l1.6-0.2l-1.5,0l1.5-1.1l-1.8,1l1.1-2.7l-1.4,2.4l-0.6-0.6l0.4,0.7l-3.1-1.8
						L93.4,18z M104.7,26.3l-1.7,0.2l2.3,0.1l2,2.7l-1.7-2.7l3.6-0.7l-3.7,0.2l-0.4-1.1l0,0.2l0.1,1l-4.5-1.7l0.1,0.1L104.7,26.3z
						 M100.6,24.5L100.6,24.5L100.6,24.5L100.6,24.5z M97.9,54.4L97.9,54.4L97.9,54.4L97.9,54.4z M85.1,36l-0.2,1.4l0.6-1.6l1.7,1.6
						l-1.5-1.8l1.4-0.8l-1.7,0.5l-1.3-2.2l1,2.5L83,35.7L85.1,36z M88,24.9l0,1.2l0.2-0.8l2.3,0.6L88.4,25l1.1-1.7l-1.1,1.3
						l-0.8-2.1l0.5,1.9l-1.6-1l0,0l0,0l1.5,1.2l-2.2,0L88,24.9z M87.7,41.5l-0.9,1.4l1.2-1.5l1.1,0.7l-1.1-1.2l0-0.6l-0.2,0.6
						l-0.7-0.4l0.5,0.4l-1.2,0.1l1.2,0.2l-2.3,1.6L87.7,41.5z M104.9,35.6l-1-0.6l0.3-0.7l-0.6,0.6l-0.7-0.6l0.4,0.5l-1.5-0.6l1.4,1
						l-0.8,1.1l1.1-1l1.3,1.1l-0.9-1.1L104.9,35.6L104.9,35.6z M111.3,32.4l0,0.2l0,0L111.3,32.4L111.3,32.4z M87.6,56.3L87.6,56.3
						L87.6,56.3L87.6,56.3L87.6,56.3z M114.7,45.8L114.7,45.8L114.7,45.8L114.7,45.8z M85.1,61.9L85.1,61.9L85.1,61.9L85.1,61.9z
						 M91.6,60.2L91.6,60.2L91.6,60.2L91.6,60.2z M77.1,39.5L77.1,39.5L77.1,39.5L77.1,39.5z M100.5,24.4L100.5,24.4L100.5,24.4
						L100.5,24.4z M116,33.6L116,33.6L116,33.6L116,33.6z M100.6,24.4L100.6,24.4L100.6,24.4L100.6,24.4L100.6,24.4z M114.8,45.8
						L114.8,45.8L114.8,45.8L114.8,45.8z M114.7,45.8L114.7,45.8L114.7,45.8L114.7,45.8z M101.7,26.3L101.7,26.3L101.7,26.3
						L101.7,26.3L101.7,26.3L101.7,26.3L101.7,26.3z M101.7,26.3L101.7,26.3L101.7,26.3L101.7,26.3z M101.7,26.3L101.7,26.3
						L101.7,26.3L101.7,26.3z M91.6,60.1L91.6,60.1L91.6,60.1L91.6,60.1L91.6,60.1L91.6,60.1z M114.6,45.8L114.6,45.8L114.6,45.8
						L114.6,45.8L114.6,45.8L114.6,45.8z M97.3,47L97.3,47L97.3,47L97.3,47z M109.4,37.5L109.4,37.5L109.4,37.5L109.4,37.5z
						 M114,36.4L114,36.4L114,36.4L114,36.4z M99.4,44.5l5.3,9.2l-5.8-9.1l6.4,13.1l-7.6-13.4l0.6,1.5l-0.1-0.2l-0.4,1.1l0,0.3
						l0.3-0.2l-0.2,0.4l0.3,1.7l-0.5-1.6l0.1,1.4l-0.3-1.3l-1,2.3l0.8-2.4l-0.9-0.2l1,0l0.1-0.3l-1-3.2l0.8,3.3l-1.1-2.5l0.1,1.3
						L96,44.4L96,49.5l-0.4-2.3l0,0l0.4,6.4l-0.8-7l-0.9,11.1l0.4-9.5l-0.2-1.9l0-0.7L93.3,49l1.4-5.4l-1.1,1.8l0.5-2.1l-2.4,3.4
						l1.6-3.1l-4.8,6l3.8-5.8l-8.2,8.1l-0.2-0.4l8.3-8.6l-8.4,5.6l6.5-5.4L86.9,45l3.6-2.2l-13.1,5.6L92.8,41l-2.7,0.6l0,0L92,41
						l-3.4,0l3.4-0.7l-10.4-0.2l9.5-0.1l-13.3-1.3l0,0l0,0l-0.6,0.9l-0.1,0l0,0l0.1-0.1l0.4-0.8l-0.3-0.1l0.3,0l0.9-1.7l-2.8-0.6
						l2.9,0l-1-3.7l1.4,3.5l1.8-1.1l-1.5,1.4l-1.5,2.1l-0.1,0.1l14.5,0.6l-12-2.4l12.9,2.2L86.7,36l6.1,2.1L87,33l5.2,3.9L81.7,25.9
						l0-0.1L93,35.9l-4.5-10.2l3.5,6.9l0.2-0.1l-0.7-1.7l0.9,1.7l0.9-0.4l-1.2-2.3l1.4,2l0.2-0.9l0.1,0.9l0.7-0.6l-0.3,0.7l0.3,0.1
						l-0.3,0.1l0.3,0.5L94.1,32l0.6,2.2l-0.9-2l-1.2,0.4l2.1,4l-1-4.1l1.5,4.2l-1.4-17.7l2,15.6l0.2-3l0.3,3.9l0.3-2.8l0,2.6
						l0.9-3.6l-1,4.7l5-9.8l-4.4,10.2l0,0l3.3-5.3l0,0l-1.8,3.5l6.4-8L98.8,37l2.6-2.1l-1.9,2.2l3.5-1.9l-3.6,3.1L111,35l0.2-2.2
						l0-0.1l0,0l-0.1,2.3l4.7-1.3l-4.7,1.6l0,1.7l3.2-0.9l-3.2,1.2l0.2,5.2l-0.7-4.9l-1.2,1.2l1-1.6l-1.5-0.9l2,0.6l0.1-1.5
						l-11.4,3.9l9.8-1.8l-10.3,2.3l6.8,0.5l-7,0l5,1.7l1-1l-0.6,1.1l1.3,0.4l0.5-0.1l-0.4,0.1l8.9,3.1l0.1,0.1l-9.8-2.8l-0.8,0.3
						l1,2.6l-1.6-2.1l-0.3,1.8l0.1-1.8l-1.2,0.7l1.3-1.2l-3.2-0.7l1.7,1.4l-1.2-0.4l5.7,5.5l0,0l0,0l-6.6-5.7l8,7.7l-1.5-0.6
						L99.4,44.5z M93.7,35.7l-1.4-3.2l-0.2,0.1L93.7,35.7z M96.9,43.2l0.8,3.2l0.4-1L96.9,43.2z M99.3,41.3l4,1.7l-0.1-0.6
						L99.3,41.3z M101.6,26.4L101.6,26.4L101.6,26.4L101.6,26.4z"/>
				</defs>
				<use xlink:href="#SVGID_1_"  style="overflow:visible;fill:#FFFFFF;"/>
				<clipPath id="SVGID_00000135676384005470021300000016582022961527426488_">
					<use xlink:href="#SVGID_1_"  style="overflow:visible;"/>
				</clipPath>
				
					<rect x="71" y="13.9" style="clip-path:url(#SVGID_00000135676384005470021300000016582022961527426488_);fill:#FFFFFF;" width="49.8" height="52.2"/>
			</g>
		</g>
		<g class="st6">
			<defs>
				<filter id="Adobe_OpacityMaskFilter" filterUnits="userSpaceOnUse" x="91.1" y="35.7" width="8.7" height="8.7">
					<feFlood  style="flood-color:white;flood-opacity:1" result="back"/>
					<feBlend  in="SourceGraphic" in2="back" mode="normal"/>
				</filter>
			</defs>
			
				<mask maskUnits="userSpaceOnUse" x="91.1" y="35.7" width="8.7" height="8.7" id="SVGID_00000136386445492292013610000004410594556002633146_">
				<g class="st7">
					
						<image style="overflow:visible;" width="13" height="14" xlink:href="1ED3EA3E60860599.jpg"  transform="matrix(1 0 0 1 89 33)">
					</image>
				</g>
			</mask>
			<g style="mask:url(#SVGID_00000136386445492292013610000004410594556002633146_);">
				<polygon class="st4" points="95.5,38.6 99.8,35.7 96.9,40 99.8,44.3 95.5,41.4 91.2,44.4 94.1,40 91.1,35.7 				"/>
			</g>
		</g>
	</g>
	<g>
		<path class="st4" d="M202.7,40.5c-1.5,0-2.8,1.3-2.8,2.9c0,1.6,1.3,2.8,2.8,2.8c1.6,0,2.9-1.3,2.9-2.8
			C205.6,41.8,204.3,40.5,202.7,40.5z"/>
		<path class="st4" d="M200.4,48.3v21.5c0,0,0,0.1,0,0.1c0,1.3,1,2.3,2.3,2.3c1.3,0,2.3-1,2.3-2.3l0-21.6H200.4z"/>
		<path class="st4" d="M165.7,52.7l-0.1,0c-3.7-1-6.9-1.9-6.9-4.5c0-2.6,2.4-4.3,5.8-4.3c3.4,0,6.4,1.2,8.5,3.5l0.4,0.5l3-3.7
			l-0.3-0.3c-2.8-3-6.6-4.5-11.3-4.5c-6.4,0-11.1,3.8-11.1,9.1c0,6.4,5.7,7.9,10.7,9.2l0.1,0c4,1.1,7.4,2,7.4,5.3
			c0,0.8-0.3,4.7-6.7,4.7c-3.9,0-6.6-1.7-8.2-3.2l-0.1-0.1c0,0,0,0,0,0c-0.1-0.1-0.1-0.1-0.2-0.2l-0.1-0.1l0,0
			c-0.4-0.2-0.8-0.4-1.3-0.4c-0.7,0-1.3,0.3-1.8,0.8c-0.8,0.9-0.8,2.1-0.1,3l0,0l0.2,0.1c0,0.1,0.1,0.1,0.2,0.2c0,0,0,0,0.1,0.1l0,0
			c2.9,2.7,6.8,4.2,11.3,4.2c8.8,0,11.9-4.9,11.9-9.6C176.8,55.7,170.7,54.1,165.7,52.7z"/>
		<path class="st4" d="M190,51.9c2.2,0,3.9,0.9,5.2,2.7l0.4,0.5l3.1-2.9l-0.3-0.4c-2.1-2.8-4.9-4.1-8.6-4.1
			c-6.7,0-11.6,5.1-11.6,12.2c0,7.1,4.9,12.2,11.6,12.2c3.5,0,6.1-1.2,8.2-3.6l0,0c0,0,0.1-0.1,0.1-0.1l0.3-0.3l0,0
			c0.2-0.3,0.2-0.7,0.2-1.1c0-0.6-0.3-1.1-0.7-1.4c-0.4-0.3-0.9-0.5-1.4-0.5c-0.6,0-1.2,0.3-1.6,0.7l0,0.1c-1.3,1.5-2.9,2.2-4.8,2.2
			c-4.3,0-7.1-3.2-7.1-8.1C182.9,55.1,185.7,51.9,190,51.9z"/>
		<path class="st4" d="M244.9,47.7c-2.9,0-5.6,1.4-7.4,3v-2.4H233l0,21.6c0,1.3,1,2.3,2.3,2.3c1.3,0,2.3-1,2.3-2.3c0,0,0-0.1,0-0.1
			V55c1.2-1.5,3.5-3.1,6-3.1c3.1,0,4.4,1.4,4.4,4.6l0,13.2c0,0.1,0,0.1,0,0.2c0,1.3,1,2.3,2.3,2.3c1.1,0,2-0.7,2.2-1.7h0.1v-15
			C252.6,50.4,249.9,47.7,244.9,47.7z"/>
		<path class="st4" d="M219.2,47.7c-6.6,0-11.5,5.2-11.5,12.2c0,7.2,4.9,12.2,11.9,12.2c3.5,0,6.4-1.1,8.8-3.2
			c0.1-0.1,0.3-0.2,0.4-0.3c0.3-0.4,0.5-0.9,0.5-1.4c0-0.5-0.3-1-0.7-1.3c-0.6-0.5-1.6-0.6-2.3-0.2l0,0l-0.4,0.3
			c-1.6,1.4-3.8,2.2-5.9,2.2c-4.6,0-7-3.2-7.4-6.6h17.9v-1.4C230.4,52.9,225.8,47.7,219.2,47.7z M212.4,58c0.5-4.6,4.2-6.3,6.7-6.3
			c2.6,0,6.4,1.7,6.8,6.3H212.4z"/>
		<path class="st4" d="M298.9,60.2c0-7.3-4.6-12.5-11.2-12.5c-6.6,0-11.5,5.2-11.5,12.2c0,7.2,4.9,12.2,11.9,12.2
			c3.5,0,6.4-1.1,8.8-3.2c0,0,0.1-0.1,0.1-0.1c0.8-0.7,0.9-1.9,0.3-2.7c-0.4-0.4-0.9-0.7-1.5-0.7c-0.3,0-0.7,0.1-1,0.3l0,0l-0.1,0.1
			c0,0-0.1,0.1-0.1,0.1c0,0-0.1,0.1-0.1,0.1l0,0c-1.6,1.4-3.8,2.2-5.9,2.2c-4.6,0-7-3.2-7.4-6.6h17.9V60.2z M281,58
			c0.5-4.6,4.2-6.3,6.7-6.3c2.6,0,6.4,1.7,6.8,6.3H281z"/>
		<path class="st4" d="M267.1,51.9c2.2,0,3.9,0.9,5.2,2.7l0.4,0.5l3.1-2.9l-0.3-0.4c-2.1-2.8-4.9-4.1-8.6-4.1
			c-6.7,0-11.6,5.1-11.6,12.2c0,7.1,4.9,12.2,11.6,12.2c3.5,0,6.1-1.2,8.2-3.6l0,0c0,0,0.1-0.1,0.1-0.1l0.3-0.3l0,0
			c0.4-0.8,0.2-1.9-0.5-2.5c-0.7-0.6-1.7-0.7-2.5-0.2l-0.1-0.1l-0.4,0.4l-0.1,0.1l0,0c-1.3,1.5-2.9,2.2-4.8,2.2
			c-4.3,0-7.1-3.2-7.1-8.1C259.9,55.1,262.8,51.9,267.1,51.9z"/>
	</g>
	<g>
		<path class="st4" d="M51.8,56.3l-0.4-0.1C49,55.8,48,55.6,48,54.8c0-0.8,1.2-1.5,2.8-1.5c2.9,0,5.5,1.3,6.7,2.5c0,0,0.1,0.1,0.1,0
			c0.1,0,0.1,0,0.1-0.1l2.9-4.9c0-0.1,0-0.2,0-0.2c-2-1.4-5.2-3.1-9.9-3.1c-3.1,0-5.7,0.8-7.5,2.3c-1.7,1.4-2.6,3.4-2.6,5.5
			c0,6.2,5.8,7.1,9.7,7.8c2,0.3,3.9,0.7,3.9,1.7c0,1.3-1.6,1.6-3,1.6c-1.8,0-4.1-0.7-6.2-1.8c-0.5-0.3-1.1-0.5-1.7-0.5
			c-1.8,0-3.2,1.4-3.2,3.2c0,1.1,0.6,2.2,1.6,2.7c0,0,0,0,0.1,0c2.5,1.4,5.8,2.2,9,2.2c6.6,0,10.8-3.1,10.8-7.9
			C61.6,58.1,55.7,57,51.8,56.3z"/>
		<path class="st4" d="M9.5,39.3c0-0.1-0.1-0.2-0.2-0.2H1c-0.1,0-0.2,0.1-0.2,0.2v29.4c0,2.4,1.9,4.3,4.3,4.3c2.4,0,4.3-1.9,4.3-4.3
			c0-0.1,0-0.1,0-0.2L9.5,39.3z"/>
		<path class="st4" d="M29.4,47.5c-4.3,0-6.9,2.1-7.9,3.2v-2.4c0-0.1-0.1-0.2-0.2-0.2h-7.4c-0.1,0-0.2,0.1-0.2,0.2l0,20.6
			c0,0.1,0,0.3,0,0.4c0,2.2,1.8,3.9,3.9,3.9c2.2,0,3.9-1.8,3.9-3.9c0,0,0,0,0-0.1V56.6c1.2-1.4,2.7-2.2,4.4-2.2
			c2.5,0,3.7,1.2,3.7,3.7l0,10.7c0,0.1,0,0.3,0,0.4c0,2.2,1.8,3.9,3.9,3.9c2.2,0,3.9-1.8,3.9-3.9V55C37.3,50.2,34.4,47.5,29.4,47.5z
			"/>
		<path class="st4" d="M133.7,47.5c-7.2,0-12.6,5.3-12.6,12.4c0,7.3,5.3,12.5,12.9,12.5c2.8,0,5.6-0.6,7.7-1.7c0,0,0,0,0.1,0
			c1.5-0.7,2.3-2.4,1.6-4c-0.5-1.1-1.6-1.8-2.8-1.8c-0.4,0-0.8,0.1-1.2,0.2c0,0,0,0,0,0c0,0,0,0,0,0c-1.4,0.8-3.4,1.2-4.5,1.2
			c-3.3,0-5.2-1.9-5.6-3.8h16.4c0.1,0,0.2-0.1,0.2-0.2v-1.6C145.8,52.8,140.9,47.5,133.7,47.5z M129.1,57.2c0.4-1.8,1.8-3.7,4.6-3.7
			c3.7,0,4.5,2.7,4.6,3.7H129.1z"/>
		<path class="st4" d="M78.5,47.5c-2.6,0-5,1-6.7,3v-2.3c0-0.1-0.1-0.2-0.2-0.2h-7.4c-0.1,0-0.2,0.1-0.2,0.2l0,28.9l0,0.1
			c0,0.1,0,0.1,0,0.2c0,2.2,1.8,3.9,3.9,3.9c2.2,0,3.9-1.8,3.9-3.9c0-0.1,0-0.1,0-0.2l0-7.9c1.8,2,4.1,3.1,6.7,3.1
			c6.3,0,10.4-4.9,10.4-12.5C89,52.3,84.9,47.5,78.5,47.5z M81,59.9c0,3.3-2,5.5-5,5.5c-1.5,0-3.4-0.9-4.3-2v-7c0.9-1.2,2.7-2,4.3-2
			C79,54.4,81,56.6,81,59.9z"/>
		<path class="st4" d="M122.1,50.6c-0.3-1.8-1.8-3.1-3.6-3.1c-0.2,0-0.4,0-0.6,0c-0.2,0-0.3,0.1-0.5,0.1c-1.9,0.5-3.9,1.6-5.1,2.9
			v-2.4c0-0.1-0.1-0.2-0.2-0.2h-7.4c-0.1,0-0.2,0.1-0.2,0.2l0,20.7c0,0.1,0,0.2,0,0.3c0,2.2,1.8,3.9,3.9,3.9c2.2,0,3.9-1.8,3.9-3.9
			c0,0,0-0.1,0-0.1l0-12.4c1-1.2,3.5-2,5.3-2c0.1,0,0.3,0,0.4,0c0.2,0,0.3,0,0.5,0h0c0.2,0,0.4,0,0.6,0c1-0.2,1.8-0.7,2.4-1.5
			C122.1,52.5,122.3,51.5,122.1,50.6z"/>
		<path class="st4" d="M99.6,69l0-20.8c0,0,0-0.1,0-0.1c0,0-0.1,0-0.1,0H92c-0.1,0-0.2,0.1-0.2,0.2l0,20.7l0,0c0,0.1,0,0.2,0,0.2
			c0,2.2,1.8,3.9,3.9,3.9c2.2,0,3.9-1.8,3.9-3.9C99.6,69.2,99.6,69.1,99.6,69L99.6,69z"/>
	</g>
</g>
</svg>
