<?xml version="1.0" encoding="UTF-8"?><svg id="Layer_2" xmlns="http://www.w3.org/2000/svg" viewBox="0 0 47.5 22.23"><defs><style>.cls-1{fill:#fff;}</style></defs><g id="Detailed_-_HE"><path class="cls-1" d="m44.18,3.09c-2.11-2.05-4.88-3.09-8.23-3.09-4.3,0-6.9,1.7-8.32,3.12-1.99,1.99-3.28,5.16-3.28,8.07,0,3.05,1.21,5.93,3.31,7.9,1.22,1.17,3.91,3.13,8.3,3.13,3.32,0,6.09-1.05,8.23-3.12,2.14-2.08,3.31-4.91,3.31-7.97s-1.18-5.96-3.31-8.03h0Zm-1.56,8.03c0,2.52-1.03,4.04-1.9,4.87-.85.85-2.38,1.87-4.84,1.87-1.9,0-3.39-.57-4.67-1.8-1.34-1.31-1.99-2.92-1.99-4.9,0-2.67,1.21-4.24,1.93-4.93,1.2-1.2,2.9-1.86,4.77-1.86s3.6.7,4.8,1.86c1.21,1.21,1.9,2.99,1.9,4.9h0Z"/><path class="cls-1" d="m10.37,14.01h5.35v.1c-.46,1.7-1.62,3.73-4.59,3.81-1.83.04-3.26-.51-4.43-1.7-.68-.68-1.83-2.24-1.83-4.99,0-2.06.66-3.89,1.86-5.16,1.11-1.18,2.62-1.77,4.52-1.77,1.29,0,2.38.34,3.34,1.05.7.52,1.35,1.28,1.82,2.15l.06.11,4.28-2.31-.06-.11c-.86-1.43-2.1-2.78-3.32-3.59C15.78.55,13.77,0,11.41,0,8.91,0,5.7.36,3.06,3.1,1.08,5.11,0,7.97,0,11.17c0,4.05,1.7,6.64,3.12,8.1,2.55,2.61,5.36,2.96,7.78,2.96,3.41,0,6.49-1.7,7.73-4.21v4.21h3.78v-11.99h-12.04v3.78h0Z"/></g></svg>