<?xml version="1.0" encoding="utf-8"?>
<!-- Generator: Adobe Illustrator 27.7.0, SVG Export Plug-In . SVG Version: 6.00 Build 0)  -->
<svg version="1.1" xmlns="http://www.w3.org/2000/svg" xmlns:xlink="http://www.w3.org/1999/xlink" x="0px" y="0px"
	 viewBox="0 0 394 268.7" style="enable-background:new 0 0 394 268.7;" xml:space="preserve">
<style type="text/css">
	
		.st0{clip-path:url(#SVGID_00000157282806072193877720000007329530776869864638_);fill:url(#SVGID_00000047779321003596640370000012437662575639299211_);}
	.st1{opacity:0.85;}
	.st2{filter:url(#Adobe_OpacityMaskFilter);}
	.st3{mask:url(#SVGID_00000036956968346384093280000015605383837134897292_);}
	.st4{fill:#FFFFFF;}
	.st5{fill:#66B245;}
	.st6{fill:#17479E;}
</style>
<g id="Spark">
	<g>
		<g>
			<g>
				<defs>
					<path id="SVGID_1_" d="M214.6,33.7l-6.8,8.6l7.8-7.8l0.3,8.1l0.8-8.8l8.4-3.1l-8.9,2.3l2.7-11L215,32.4l-3.2-3l2.2,3.3
						l-7.3-1.2L214.6,33.7z M319.3,56.1l-8-0.6L312,35l-1.6,20.2l-8.1-6.1l7.7,7.2l-0.2,8.3l1.1-7.7l2.9,5.1l-2.1-5.3L319.3,56.1z
						 M249.1,15.5l-8.2,2.4l0,0l8.5-1.4l-1.8,3.7l2.7-3.5l8.6,6.9l-8.3-7.6l4.2-0.5l-3.9-0.1l4.1-2.8l-4.8,2.7L253,8l-3.6,6.3
						l-1.6-1.6l1.1,1.9l-8.2-4.7L249.1,15.5z M279,37.5l-4.6,0.5l6.1,0.3l5.4,7.1l-4.5-7.1l9.4-1.8l-9.7,0.5l-1.2-2.8l0,0.5l0.2,2.6
						l-12-4.6l0.2,0.2L279,37.5z M268.2,32.6L268.2,32.6L268.2,32.6L268.2,32.6z M260.9,111.6L260.9,111.6L260.9,111.6L260.9,111.6z
						 M227.2,62.9l-0.5,3.8l1.6-4.3l4.5,4.2l-3.9-4.7l3.6-2l-4.4,1.4l-3.3-5.8l2.5,6.5l-5.8,0.3L227.2,62.9z M235,33.7l0,3.2
						l0.4-2.2l6.1,1.5L236,34l2.9-4.5l-2.9,3.4l-2.2-5.4l1.2,5.1l-4.1-2.7l-0.1,0l0,0l3.9,3.2l-5.8,0.1L235,33.7z M234.2,77.4
						l-2.3,3.8l3.3-4l2.8,1.8l-2.8-3.1l0-1.5l-0.6,1.5l-1.9-0.9l1.2,1.1l-3.2,0.3l3.1,0.5l-6.1,4.3L234.2,77.4z M279.3,61.8
						l-2.6-1.6l0.9-1.9l-1.5,1.5l-1.8-1.6l1,1.3l-3.9-1.7l3.6,2.6l-2.2,2.9l2.8-2.6l3.5,3l-2.4-2.9L279.3,61.8L279.3,61.8z
						 M296.2,53.6l0,0.7l0,0L296.2,53.6L296.2,53.6z M233.9,116.5l0.2,0.2l0,0l0,0L233.9,116.5z M305.4,88.8l-0.2-0.1L305.4,88.8
						L305.4,88.8z M227.3,131.4l0.1,0L227.3,131.4L227.3,131.4z M244.5,126.7l0-0.1L244.5,126.7L244.5,126.7z M206.2,72.3
						L206.2,72.3L206.2,72.3L206.2,72.3z M267.9,32.5L267.9,32.5L267.9,32.5L267.9,32.5z M308.7,56.7L308.7,56.7L308.7,56.7
						L308.7,56.7z M268.1,32.6L268.1,32.6l-0.2-0.1l0,0L268.1,32.6z M305.4,88.7L305.4,88.7L305.4,88.7L305.4,88.7z M305.4,88.8
						L305.4,88.8L305.4,88.8L305.4,88.8z M271,37.5L271,37.5L271,37.5L271,37.5l-0.1,0.1l0,0L271,37.5z M271.1,37.4L271.1,37.4
						L271.1,37.4L271.1,37.4z M271.1,37.4L271.1,37.4L271.1,37.4L271.1,37.4z M244.5,126.5L244.5,126.5L244.5,126.5L244.5,126.5
						L244.5,126.5L244.5,126.5z M305.1,88.7L305.1,88.7L305.1,88.7L305.1,88.7L305.1,88.7L305.1,88.7z M259.5,91.9L259.5,91.9
						L259.5,91.9L259.5,91.9z M291.3,66.9L291.3,66.9L291.3,66.9L291.3,66.9z M303.4,64L303.4,64L303.4,64L303.4,64z M264.9,85.5
						l14.1,24.2l-15.2-24.1l17,34.5l-19.9-35.3l1.5,3.9l-0.4-0.5l-1,2.9l0.1,0.8l0.8-0.4l-0.6,1.1l0.8,4.6l-1.4-4.1l0.2,3.7
						l-0.8-3.4l-2.8,6.1l2.2-6.4l-2.3-0.6l2.7,0.1l0.4-0.9l-2.7-8.4l2,8.6l-2.8-6.6l0.4,3.5l-0.9-3.5L256,98.7l-0.9-6.2l0,0
						l1.1,16.9L254,91l-2.3,29.2l0.9-25.1l-0.4-5.1l-0.1-1.8l-3.3,8.9l3.8-14.3l-3,4.7l1.4-5.5l-6.3,9L249,83l-12.6,15.9l9.9-15.3
						L224.6,105l-0.5-1l21.8-22.7l-22,14.8L241.1,82l-9,4.7l9.4-5.8l-34.6,14.8l40.7-19.5l-7.1,1.5l0,0l4.9-1.5l-8.9,0l9-1.8
						l-27.4-0.5l24.9-0.2L208,70l0,0l-0.1,0l-1.6,2.2l-0.1,0l0,0l0.1-0.2l1.2-2.1l-0.7-0.2l0.8,0l2.4-4.5l-7.5-1.6l7.7,0.1l-2.7-9.7
						l3.7,9.1l4.8-2.9l-3.9,3.6l-3.9,5.6l-0.1,0.3l38.3,1.6L214.8,65l34,5.7l-17.2-7.7l16.2,5.6L232.3,55l13.8,10.3l-27.7-28.8
						l0-0.2l29.9,26.6L236.5,36l9.3,18.1l0.5-0.3l-2-4.6l2.4,4.4l2.4-1.1l-3.1-6.1l3.6,5.2l0.6-2.5l0.3,2.5l1.8-1.5l-0.9,1.7
						l0.8,0.2l-0.7,0.2l0.9,1.4l-1.5-1.2l1.7,5.8l-2.4-5.3l-3.3,1l5.6,10.6l-2.6-10.8l3.9,10.9l-3.6-46.8l5.4,41l0.5-7.9l0.8,10.3
						l0.9-7.3l0,6.8l2.4-9.4l-2.5,12.5l13.1-25.9l-11.7,26.8l0,0l8.8-14l0,0l-4.7,9.1l16.8-21l-16.5,26.9l6.7-5.6L265,66l9.1-4.9
						l-9.4,8.2l30.9-8.9l0.5-5.9l0.1-0.2l0,0l-0.1,6l12.4-3.5L296,61.1l-0.1,4.4l8.4-2.3l-8.4,3.1l0.5,13.8l-1.8-12.8l-3.1,3.1
						l2.6-4.3l-4.1-2.5l5.3,1.6l0.3-4l-30.1,10.3l25.8-4.7L264.2,73l17.8,1.3l-18.6-0.1l13.3,4.6l2.5-2.6l-1.6,2.9l3.5,1.2l1.4-0.1
						l-1,0.3l23.4,8.1l0.3,0.2l-25.8-7.5l-2.2,0.8l2.6,6.7l-4.3-5.6l-0.8,4.6l0.3-4.7l-3.2,1.8l3.5-3.2l-8.4-2l4.4,3.6l-3.3-1.1
						l15,14.6l0,0l0,0.1l-17.5-14.9l21,20.4l-3.9-1.6L264.9,85.5z M250,62.3l-3.6-8.3l-0.6,0.2L250,62.3z M258.5,82.1l2.2,8.6
						l1.1-2.6L258.5,82.1z M264.8,77.1l10.4,4.4l-0.3-1.5L264.8,77.1z M270.9,37.7l-0.1,0.2L270.9,37.7L270.9,37.7z"/>
				</defs>
				<clipPath id="SVGID_00000083782999065783489630000004787374915109176761_">
					<use xlink:href="#SVGID_1_"  style="overflow:visible;"/>
				</clipPath>
				
					<radialGradient id="SVGID_00000153691882667113284750000014528969312349837708_" cx="237.8868" cy="113.6502" r="102.4169" gradientTransform="matrix(0.6486 0 0 0.6631 101.4285 -1.7152)" gradientUnits="userSpaceOnUse">
					<stop  offset="0" style="stop-color:#FCF8C3"/>
					<stop  offset="0.1124" style="stop-color:#FCE650"/>
					<stop  offset="0.2754" style="stop-color:#F9A71C"/>
					<stop  offset="1" style="stop-color:#F15C27"/>
				</radialGradient>
				
					<rect x="190.1" y="4.9" style="clip-path:url(#SVGID_00000083782999065783489630000004787374915109176761_);fill:url(#SVGID_00000153691882667113284750000014528969312349837708_);" width="131.2" height="137.4"/>
			</g>
		</g>
		<g class="st1">
			<defs>
				<filter id="Adobe_OpacityMaskFilter" filterUnits="userSpaceOnUse" x="243.2" y="62.1" width="22.9" height="22.9">
					<feFlood  style="flood-color:white;flood-opacity:1" result="back"/>
					<feBlend  in="SourceGraphic" in2="back" mode="normal"/>
				</filter>
			</defs>
			
				<mask maskUnits="userSpaceOnUse" x="243.2" y="62.1" width="22.9" height="22.9" id="SVGID_00000140728141074604376980000012237643540631092915_">
				<g class="st2">
					
						<image style="overflow:visible;" width="113" height="113" xlink:href="F995F7FE5BBEA7CC.jpg"  transform="matrix(0.24 0 0 0.24 241.1889 60.1213)">
					</image>
				</g>
			</mask>
			<g style="mask:url(#SVGID_00000140728141074604376980000012237643540631092915_);">
				<polygon class="st4" points="254.6,69.9 266.1,62.1 258.4,73.6 266.1,85 254.7,77.3 243.2,85 251,73.6 243.2,62.2 				"/>
			</g>
		</g>
	</g>
</g>
<g id="Science">
	<g>
		<path class="st5" d="M133.5,178.1c-4.1,0-7.5,3.5-7.5,7.6c0,4.1,3.4,7.5,7.5,7.5c4.2,0,7.6-3.4,7.6-7.5
			C141.1,181.5,137.7,178.1,133.5,178.1z"/>
		<path class="st5" d="M127.5,198.7v56.6c0,0.1,0,0.2,0,0.3c0,3.3,2.7,6,6,6c3.3,0,6-2.7,6-6l0-56.9H127.5z"/>
		<path class="st5" d="M36.1,210.4l-0.4-0.1c-9.8-2.6-18.2-4.9-18.2-11.9c0-6.7,6.2-11.4,15.2-11.4c9,0,16.9,3.3,22.4,9.2l1.1,1.2
			l7.9-9.7l-0.9-0.9c-7.4-7.8-17.4-11.7-29.8-11.7c-16.9,0-29.2,10-29.2,23.9c0,16.9,15,20.8,28.2,24.2l0.4,0.1
			c10.4,2.8,19.4,5.3,19.4,13.9c0,2.1-0.8,12.5-17.6,12.5c-10.2,0-17.4-4.6-21.7-8.4l-0.2-0.2c0,0,0,0,0,0c-0.2-0.2-0.3-0.3-0.5-0.4
			l-0.3-0.3l0,0c-1-0.6-2.2-1-3.4-1c-1.8,0-3.4,0.7-4.6,2c-2.1,2.3-2.2,5.7-0.4,8l0,0l0.4,0.4c0.1,0.1,0.3,0.3,0.4,0.4
			c0.1,0.1,0.1,0.1,0.2,0.2l0.1,0.1c7.6,7.2,17.9,11,29.8,11c23.1,0,31.3-13,31.3-25.2C65.4,218.2,49.1,213.9,36.1,210.4z"/>
		<path class="st5" d="M100.1,208.2c5.8,0,10.3,2.3,13.8,7.1l1,1.3l8.2-7.6l-0.8-1c-5.7-7.3-12.8-10.8-22.6-10.8
			c-17.8,0-30.7,13.5-30.7,32.1c0,18.7,12.9,32.3,30.7,32.3c9.1,0,16.2-3.1,21.6-9.5l0.1-0.1c0.1-0.1,0.1-0.2,0.2-0.2l0.7-0.8
			l-0.1-0.1c0.4-0.9,0.7-1.9,0.6-2.9c-0.1-1.5-0.8-2.8-1.9-3.8c-1-0.9-2.3-1.4-3.7-1.4c-1.6,0-3.1,0.7-4.2,1.9l-0.1,0.1
			c-3.4,3.9-7.5,5.8-12.7,5.8c-11.3,0-18.8-8.5-18.8-21.2C81.3,216.7,88.8,208.2,100.1,208.2z"/>
		<path class="st5" d="M244.8,197.2c-7.5,0-14.7,3.6-19.4,7.9v-6.4h-12l0,56.9c0,3.3,2.7,6,6,6c3.3,0,6-2.7,6-6c0-0.1,0-0.2,0-0.3
			v-38.9c3-4,9.2-8.1,15.9-8.1c8.2,0,11.7,3.6,11.7,12.1l0,34.8c0,0.1,0,0.3,0,0.4c0,3.3,2.7,6,6,6c2.8,0,5.2-1.9,5.8-4.6h0.2v-39.5
			C265,204.3,258,197.2,244.8,197.2z"/>
		<path class="st5" d="M176.9,197.2c-17.3,0-30.3,13.8-30.3,32.1c0,19,12.9,32.3,31.3,32.3c9.2,0,17-2.8,23.1-8.3
			c0.4-0.3,0.7-0.5,0.9-0.8c0.9-1,1.3-2.3,1.2-3.7c-0.1-1.4-0.7-2.6-1.7-3.5c-1.6-1.4-4.1-1.6-6-0.5l-0.1-0.1l-1,0.8
			c-4.2,3.6-9.9,5.7-15.7,5.7c-12,0-18.3-8.5-19.5-17.4h47.3v-3.7C206.5,210.7,194.3,197.2,176.9,197.2z M159.2,224.3
			c1.4-12.2,11.1-16.7,17.6-16.7c6.8,0,16.9,4.5,17.8,16.7H159.2z"/>
		<path class="st5" d="M387.1,230.1c0-19.4-12.2-32.9-29.6-32.9c-17.3,0-30.3,13.8-30.3,32.1c0,19,12.9,32.3,31.3,32.3
			c9.2,0,17-2.8,23.1-8.3c0.1-0.1,0.2-0.2,0.3-0.2c2.2-1.8,2.5-5,0.7-7.2c-1-1.2-2.4-1.9-3.9-1.9c-0.9,0-1.8,0.2-2.6,0.7l0,0
			l-0.3,0.3c-0.1,0.1-0.2,0.2-0.4,0.3c-0.1,0.1-0.2,0.2-0.3,0.3l0,0c-4.2,3.6-9.9,5.7-15.7,5.7c-12,0-18.3-8.5-19.5-17.4h47.3V230.1
			z M339.8,224.3c1.4-12.2,11.1-16.7,17.6-16.7c6.8,0,16.9,4.5,17.8,16.7H339.8z"/>
		<path class="st5" d="M303.2,208.2c5.8,0,10.3,2.3,13.8,7.1l1,1.3l8.2-7.6l-0.8-1c-5.7-7.3-12.8-10.8-22.6-10.8
			c-17.8,0-30.7,13.5-30.7,32.1c0,18.7,12.9,32.3,30.7,32.3c9.1,0,16.2-3.1,21.6-9.5l0.1-0.1c0.1-0.1,0.2-0.2,0.2-0.3l0.7-0.8
			l-0.1-0.1c1.1-2.2,0.6-5-1.4-6.7c-1.8-1.6-4.6-1.8-6.6-0.5l-0.2-0.2l-1,1.2l-0.2,0.2l0,0c-3.4,3.9-7.5,5.7-12.6,5.7
			c-11.3,0-18.8-8.5-18.8-21.2C284.4,216.7,291.9,208.2,303.2,208.2z"/>
	</g>
</g>
<g id="Inspire">
	<g>
		<path class="st6" d="M139.6,116.4l-1.1-0.2c-6.3-1.1-8.9-1.7-8.9-3.8c0-2.2,3.1-3.9,7.3-3.9c7.5,0,14.4,3.3,17.8,6.6
			c0.1,0.1,0.2,0.1,0.4,0.1c0.1,0,0.3-0.1,0.3-0.2l7.5-13c0.1-0.2,0.1-0.4-0.1-0.6c-5.1-3.8-13.8-8.2-26-8.2c-8.2,0-15,2.1-19.9,6.2
			c-4.5,3.7-6.9,8.9-6.9,14.5c0,16.4,15.4,18.8,25.6,20.4c5.2,0.9,10.2,1.8,10.2,4.4c0,3.5-4.3,4.3-7.8,4.3
			c-4.7,0-10.9-1.8-16.2-4.6c-1.4-0.9-2.9-1.4-4.5-1.4c-4.6,0-8.4,3.8-8.4,8.4c0,3,1.6,5.7,4.2,7.2c0,0,0.1,0.1,0.1,0.1
			c6.7,3.7,15.4,5.9,23.8,5.9c17.3,0,28.5-8.2,28.5-20.8C165.4,121.1,149.9,118.3,139.6,116.4z"/>
		<path class="st6" d="M28.1,71.8c0-0.2-0.2-0.4-0.4-0.4H5.7c-0.2,0-0.4,0.2-0.4,0.4v77.5c0,6.3,5.1,11.4,11.4,11.4
			c6.3,0,11.4-5.1,11.4-11.4c0-0.2,0-0.3,0-0.5L28.1,71.8z"/>
		<path class="st6" d="M80.4,93.3c-11.4,0-18.2,5.6-20.8,8.3v-6.4c0-0.2-0.2-0.4-0.4-0.4H39.5c-0.2,0-0.4,0.2-0.4,0.4l0,54.3
			c0,0.3-0.1,0.7-0.1,1c0,5.7,4.6,10.3,10.3,10.3c5.7,0,10.3-4.6,10.3-10.3c0-0.1,0-0.1,0-0.2v-33.1c3.1-3.8,7-5.7,11.5-5.7
			c6.6,0,9.6,3.1,9.6,9.7l0,28.2c0,0.4-0.1,0.7-0.1,1.1c0,5.7,4.6,10.3,10.3,10.3c5.7,0,10.3-4.6,10.3-10.3v-37.3
			C101.2,100.5,93.6,93.3,80.4,93.3z"/>
		<path class="st6" d="M355.2,93.3c-18.9,0-33.2,14-33.2,32.7c0,19.3,14,32.8,34.1,32.8c7.3,0,14.7-1.6,20.3-4.4
			c0.1,0,0.1,0,0.2-0.1c4-1.7,5.9-6.4,4.2-10.4c-1.3-2.9-4.1-4.8-7.3-4.8c-1.1,0-2.1,0.2-3.1,0.6c0,0,0,0,0,0c0,0,0,0-0.1,0
			c-3.8,2-8.9,3-12,3c-8.6,0-13.6-5-14.9-10.1h43.3c0.2,0,0.4-0.2,0.4-0.4V128C387.1,107.2,374.3,93.3,355.2,93.3z M343.1,119
			c1-4.8,4.7-9.7,12.1-9.7c9.8,0,11.8,7.2,12.2,9.7H343.1z"/>
		<path class="st6" d="M210,93.3c-7,0-13.1,2.7-17.8,7.9v-5.9c0-0.2-0.2-0.4-0.4-0.4h-19.6c-0.2,0-0.4,0.2-0.4,0.4l0,76.2l0,0.1
			c0,0.2,0,0.3,0,0.5c0,5.7,4.6,10.3,10.3,10.3c5.7,0,10.3-4.6,10.3-10.3c0-0.2,0-0.3,0-0.5l0-20.9c4.8,5.3,10.8,8,17.8,8
			c16.7,0,27.5-12.9,27.5-32.8C237.4,106.1,226.6,93.3,210,93.3z M216.5,125.9c0,8.7-5.2,14.6-13.1,14.6c-4,0-8.9-2.3-11.3-5.3
			v-18.4c2.3-3,7.1-5.3,11.3-5.3C211.2,111.5,216.5,117.4,216.5,125.9z"/>
		<path class="st6" d="M324.9,101.4c-0.7-4.7-4.7-8.1-9.4-8.1c-0.5,0-1,0-1.5,0.1c-0.4,0.1-0.9,0.2-1.4,0.3
			c-5.1,1.2-10.2,4.2-13.5,7.7v-6.3c0-0.2-0.2-0.4-0.4-0.4H279c-0.2,0-0.4,0.2-0.4,0.4l0,54.5c0,0.3,0,0.6,0,0.9
			c0,5.7,4.6,10.3,10.3,10.3c5.7,0,10.3-4.6,10.3-10.3c0-0.1,0-0.2,0-0.3l0-32.6c2.5-3.3,9.2-5.3,14-5.3c0.4,0,0.7,0,1,0
			c0.4,0.1,0.9,0.1,1.3,0.1h0c0.5,0,1,0,1.5-0.1c2.5-0.4,4.7-1.8,6.2-3.8C324.7,106.5,325.3,104,324.9,101.4z"/>
		<path class="st6" d="M265.6,150l0-54.8c0-0.1,0-0.2-0.1-0.3c-0.1-0.1-0.2-0.1-0.3-0.1h-19.6c-0.2,0-0.4,0.2-0.4,0.4l0,54.6l0,0.1
			c0,0.2,0,0.4,0,0.6c0,5.7,4.6,10.3,10.3,10.3c5.7,0,10.3-4.6,10.3-10.3c0-0.1,0-0.2,0-0.4L265.6,150z"/>
	</g>
</g>
</svg>
