<?xml version="1.0" encoding="utf-8"?>
<!-- Generator: Adobe Illustrator 27.7.0, SVG Export Plug-In . SVG Version: 6.00 Build 0)  -->
<svg version="1.1" id="Layer_1" xmlns="http://www.w3.org/2000/svg" xmlns:xlink="http://www.w3.org/1999/xlink" x="0px" y="0px"
	 viewBox="0 0 534.1 555.7" style="enable-background:new 0 0 534.1 555.7;" xml:space="preserve">
<style type="text/css">
	.st0{fill:#1C3E58;}
	.st1{fill:#18B8FF;}
	.st2{fill:#06235B;}
	.st3{clip-path:url(#SVGID_00000067952978231151329700000010533805627725625277_);}
	.st4{clip-path:url(#SVGID_00000088844955555681372310000009314638581072886411_);}
	.st5{clip-path:url(#SVGID_00000052810228623438300940000004389830658492431511_);}
	.st6{clip-path:url(#SVGID_00000036954650148014507050000002510839157805914012_);}
	.st7{clip-path:url(#SVGID_00000093867338725325868260000011461083151540934292_);}
	.st8{clip-path:url(#SVGID_00000164499314668241665650000018417824067183332791_);}
	.st9{clip-path:url(#SVGID_00000158714483327483272990000016586304641970038695_);}
	.st10{fill-rule:evenodd;clip-rule:evenodd;fill:#D5D4D9;}
	.st11{fill:#FF4D55;}
	.st12{fill:#5F14C1;}
	.st13{fill:#DEDDE2;}
	.st14{fill-rule:evenodd;clip-rule:evenodd;fill:#E21A23;}
	.st15{fill-rule:evenodd;clip-rule:evenodd;fill:#18B8FF;}
	.st16{fill-rule:evenodd;clip-rule:evenodd;fill:#FF4D55;}
</style>
<g>
	<g>
		<g>
			<path class="st0" d="M310.3,234l-1.5-0.4c2.4-8,5.8-16.4,10.1-24.9l1.4,0.7C316,217.8,312.7,226.1,310.3,234z"/>
		</g>
		<g>
			<path class="st0" d="M331.1,290.6c-5.8,0-10.9-1.5-15.1-4.5c-10.1-7.2-13.6-22.2-9.8-42c0.3-1.6,0.7-3.2,1.1-4.8l1.5,0.4
				c-0.4,1.6-0.7,3.2-1,4.8c-3.7,19.2-0.5,33.6,9.1,40.4c3.9,2.8,8.7,4.2,14.2,4.2c8.1,0,17.3-3,27.5-8.8c4-2.3,8.2-5.1,12.3-8.2
				l1,1.3c-4.2,3.2-8.4,6-12.5,8.3C349,287.6,339.4,290.6,331.1,290.6z"/>
		</g>
		<g>
			<path class="st0" d="M375.5,270.4l-1-1.2c7.2-5.9,14.3-12.8,21-20.6l1.2,1C389.9,257.5,382.8,264.5,375.5,270.4z"/>
		</g>
		<g>
			<path class="st1" d="M312.5,178.3l-0.4-0.9c0.6-0.3,1.2-0.5,1.7-0.7l0.4,0.9C313.6,177.8,313.1,178.1,312.5,178.3z M316,176.9
				l-0.3-0.9c0.6-0.2,1.2-0.5,1.8-0.7l0.3,0.9C317.1,176.4,316.5,176.6,316,176.9z M319.5,175.6l-0.3-0.9c0.6-0.2,1.2-0.4,1.8-0.6
				l0.3,0.9C320.7,175.1,320.1,175.3,319.5,175.6z M323,174.4l-0.3-0.9c0.6-0.2,1.2-0.4,1.8-0.6l0.3,0.9
				C324.2,174,323.6,174.2,323,174.4z M326.7,173.3l-0.3-0.9c0.6-0.2,1.2-0.3,1.8-0.5l0.2,0.9C327.9,172.9,327.3,173.1,326.7,173.3z
				 M330.3,172.3l-0.2-0.9c0.6-0.2,1.2-0.3,1.8-0.5l0.2,0.9C331.5,172,330.9,172.1,330.3,172.3z M333.9,171.4l-0.2-0.9
				c0.6-0.1,1.2-0.3,1.9-0.4l0.2,0.9C335.2,171.1,334.6,171.3,333.9,171.4z M337.6,170.6l-0.2-0.9c0.6-0.1,1.2-0.2,1.9-0.4l0.2,0.9
				C338.9,170.4,338.2,170.5,337.6,170.6z M341.3,169.9l-0.2-0.9c0.6-0.1,1.2-0.2,1.9-0.3l0.2,0.9
				C342.6,169.7,341.9,169.8,341.3,169.9z M345.1,169.3l-0.1-0.9c0.6-0.1,1.2-0.2,1.9-0.3l0.1,0.9
				C346.3,169.2,345.7,169.2,345.1,169.3z"/>
		</g>
		<g>
			<path class="st1" d="M313.7,182.3l-0.4-0.9c8.5-3.8,18.4-6.7,29.4-8.5l0.2,0.9C332,175.7,322.1,178.5,313.7,182.3z"/>
		</g>
		<g>
			<path class="st1" d="M346.4,249.4c-0.6-0.1-1.3-0.2-1.9-0.3l0.1-0.9c0.6,0.1,1.2,0.2,1.9,0.3L346.4,249.4z M342.7,248.8
				c-0.6-0.1-1.2-0.2-1.9-0.3l0.2-0.9c0.6,0.1,1.2,0.2,1.9,0.3L342.7,248.8z M338.9,248.2c-0.6-0.1-1.2-0.2-1.9-0.4l0.2-0.9
				c0.6,0.1,1.2,0.2,1.9,0.4L338.9,248.2z M335.2,247.4c-0.6-0.1-1.2-0.3-1.9-0.4l0.2-0.9c0.6,0.1,1.2,0.3,1.8,0.4L335.2,247.4z
				 M331.5,246.6c-0.6-0.1-1.2-0.3-1.8-0.5l0.2-0.9c0.6,0.2,1.2,0.3,1.8,0.5L331.5,246.6z M327.8,245.6c-0.6-0.2-1.2-0.3-1.8-0.5
				l0.3-0.9c0.6,0.2,1.2,0.3,1.8,0.5L327.8,245.6z M324.2,244.6c-0.6-0.2-1.2-0.4-1.8-0.6l0.3-0.9c0.6,0.2,1.2,0.4,1.8,0.6
				L324.2,244.6z M320.6,243.4c-0.6-0.2-1.2-0.4-1.8-0.6l0.3-0.9c0.6,0.2,1.2,0.4,1.8,0.6L320.6,243.4z M317,242.1
				c-0.6-0.2-1.2-0.5-1.8-0.7l0.4-0.9c0.6,0.2,1.2,0.5,1.8,0.7L317,242.1z M313.5,240.7c-0.6-0.2-1.2-0.5-1.7-0.8l0.4-0.9
				c0.6,0.3,1.1,0.5,1.7,0.7L313.5,240.7z M310,239.1c-0.6-0.3-1.1-0.5-1.7-0.8l0.4-0.8c0.6,0.3,1.1,0.5,1.7,0.8L310,239.1z
				 M306.6,237.5c-0.6-0.3-1.1-0.6-1.7-0.9l0.5-0.8c0.5,0.3,1.1,0.6,1.7,0.9L306.6,237.5z M303.3,235.6c-0.6-0.3-1.1-0.7-1.6-1
				l0.5-0.8c0.5,0.3,1.1,0.7,1.6,1L303.3,235.6z M300.1,233.6c-0.5-0.4-1.1-0.7-1.6-1.1l0.6-0.8c0.5,0.4,1,0.7,1.5,1.1L300.1,233.6z
				 M297,231.3c-0.5-0.4-1-0.8-1.5-1.2l0.6-0.7c0.5,0.4,1,0.8,1.5,1.2L297,231.3z M294,228.9c-0.5-0.4-0.9-0.9-1.4-1.3l0.7-0.7
				c0.4,0.4,0.9,0.9,1.4,1.3L294,228.9z M291.3,226.2c-0.4-0.5-0.9-1-1.3-1.4l0.7-0.6c0.4,0.5,0.8,0.9,1.2,1.4L291.3,226.2z
				 M288.9,223.3c-0.4-0.5-0.7-1.1-1.1-1.6l0.8-0.5c0.3,0.5,0.7,1,1.1,1.5L288.9,223.3z M286.8,220c-0.3-0.6-0.6-1.1-0.9-1.7
				l0.9-0.4c0.3,0.6,0.5,1.1,0.8,1.7L286.8,220z M285.2,216.5c-0.2-0.6-0.4-1.2-0.6-1.8l0.9-0.3c0.2,0.6,0.4,1.2,0.6,1.8
				L285.2,216.5z M284.2,212.8c-0.1-0.6-0.2-1.3-0.3-1.9l0.9-0.1c0.1,0.6,0.1,1.2,0.3,1.8L284.2,212.8z M283.8,209l0-0.2
				c0-0.6,0-1.2,0.1-1.7l0.9,0.1c0,0.5-0.1,1.1-0.1,1.7l0,0.2L283.8,209z M285,205.3l-0.9-0.2c0.1-0.6,0.2-1.3,0.4-1.9l0.9,0.2
				C285.3,204.1,285.1,204.7,285,205.3z M286,201.7l-0.9-0.3c0.2-0.6,0.4-1.2,0.7-1.8l0.9,0.4C286.4,200.6,286.2,201.1,286,201.7z
				 M287.5,198.3l-0.8-0.4c0.3-0.6,0.6-1.1,1-1.7l0.8,0.5C288.1,197.3,287.7,197.8,287.5,198.3z M289.4,195.2l-0.8-0.6
				c0.4-0.5,0.8-1,1.2-1.5l0.7,0.6C290.2,194.2,289.8,194.7,289.4,195.2z M291.8,192.3l-0.7-0.6c0.4-0.5,0.9-0.9,1.3-1.4l0.7,0.7
				C292.6,191.4,292.2,191.8,291.8,192.3z M294.4,189.6l-0.6-0.7c0.5-0.4,0.9-0.8,1.4-1.3l0.6,0.7
				C295.3,188.8,294.8,189.2,294.4,189.6z M297.2,187.2l-0.6-0.7c0.5-0.4,1-0.8,1.5-1.2l0.6,0.8
				C298.2,186.4,297.7,186.8,297.2,187.2z M300.3,185l-0.5-0.8c0.5-0.4,1-0.7,1.6-1l0.5,0.8C301.3,184.3,300.8,184.6,300.3,185z
				 M303.4,183l-0.5-0.8c0.5-0.3,1.1-0.6,1.6-1l0.5,0.8C304.5,182.3,304,182.7,303.4,183z M306.7,181.1l-0.4-0.8
				c0.6-0.3,1.1-0.6,1.7-0.9l0.4,0.8C307.8,180.5,307.2,180.8,306.7,181.1z"/>
		</g>
		<g>
			<path class="st1" d="M371.5,251.1c-0.4,0-0.7,0-1.1,0l0-0.9c0.4,0,0.7,0,1.1,0l0.8,0l0,0.9L371.5,251.1z M374.2,251.1l0-0.9
				c0.6,0,1.3,0,1.9,0l0,0.9C375.5,251.1,374.8,251.1,374.2,251.1z M368.5,251.1c-0.6,0-1.3,0-1.9,0l0-0.9c0.6,0,1.3,0,1.9,0
				L368.5,251.1z M378,251l0-0.9c0.6,0,1.3,0,1.9-0.1l0,0.9C379.3,250.9,378.6,251,378,251z M364.7,251c-0.6,0-1.3,0-1.9-0.1l0-0.9
				c0.6,0,1.3,0.1,1.9,0.1L364.7,251z M381.8,250.8l-0.1-0.9c0.6,0,1.3-0.1,1.9-0.1l0.1,0.9C383,250.8,382.4,250.8,381.8,250.8z
				 M361,250.8c-0.6,0-1.3-0.1-1.9-0.1l0.1-0.9c0.6,0,1.3,0.1,1.9,0.1L361,250.8z M385.6,250.6l-0.1-0.9c0.6,0,1.3-0.1,1.9-0.2
				l0.1,0.9C386.8,250.5,386.2,250.5,385.6,250.6z M357.2,250.6c-0.6,0-1.3-0.1-1.9-0.2l0.1-0.9c0.6,0.1,1.3,0.1,1.9,0.2
				L357.2,250.6z M389.3,250.2l-0.1-0.9c0.6-0.1,1.2-0.1,1.9-0.2l0.1,0.9C390.6,250.1,390,250.2,389.3,250.2z M353.4,250.2l-0.4,0
				l0.1-0.9l0.4,0L353.4,250.2z M393.1,249.8l-0.1-0.9c0.6-0.1,1.2-0.2,1.9-0.2l0.1,0.9C394.4,249.7,393.7,249.8,393.1,249.8z
				 M396.8,249.4l-0.1-0.9c0.6-0.1,1.2-0.2,1.9-0.3l0.1,0.9C398.1,249.2,397.5,249.3,396.8,249.4z M400.6,248.8l-0.2-0.9
				c0.6-0.1,1.2-0.2,1.9-0.3l0.2,0.9C401.8,248.6,401.2,248.7,400.6,248.8z M404.3,248.1l-0.2-0.9c0.6-0.1,1.2-0.2,1.8-0.4l0.2,0.9
				C405.6,247.9,404.9,248,404.3,248.1z M408,247.4l-0.2-0.9c0.6-0.1,1.2-0.3,1.8-0.4l0.2,0.9C409.3,247.1,408.7,247.2,408,247.4z
				 M411.7,246.5l-0.2-0.9c0.6-0.1,1.2-0.3,1.8-0.5l0.2,0.9C413,246.2,412.3,246.4,411.7,246.5z M415.4,245.6l-0.2-0.9
				c0.6-0.2,1.2-0.3,1.8-0.5l0.3,0.9C416.6,245.2,416,245.4,415.4,245.6z M419,244.5l-0.3-0.9c0.6-0.2,1.2-0.4,1.8-0.6l0.3,0.9
				C420.3,244.1,419.7,244.3,419,244.5z M422.7,243.3l-0.3-0.9c0.6-0.2,1.2-0.4,1.8-0.6l0.3,0.9
				C423.9,242.9,423.3,243.1,422.7,243.3z M426.2,242l-0.3-0.9c0.6-0.2,1.2-0.5,1.8-0.7l0.4,0.9C427.4,241.6,426.8,241.8,426.2,242z
				 M429.8,240.6l-0.4-0.9c0.6-0.2,1.2-0.5,1.7-0.8l0.4,0.9C430.9,240.1,430.3,240.4,429.8,240.6z M433.2,239.1l-0.4-0.9
				c0.6-0.3,1.1-0.5,1.7-0.8l0.4,0.8C434.4,238.5,433.8,238.8,433.2,239.1z M436.6,237.4l-0.4-0.8c0.6-0.3,1.1-0.6,1.6-0.9l0.5,0.8
				C437.7,236.8,437.2,237.1,436.6,237.4z M439.9,235.5l-0.5-0.8c0.5-0.3,1.1-0.7,1.6-1l0.5,0.8C441,234.8,440.5,235.2,439.9,235.5z
				 M443.2,233.5l-0.5-0.8c0.5-0.4,1-0.7,1.5-1.1l0.6,0.8C444.2,232.7,443.7,233.1,443.2,233.5z M446.2,231.2l-0.6-0.7
				c0.5-0.4,1-0.8,1.5-1.2l0.6,0.7C447.2,230.4,446.7,230.8,446.2,231.2z M449.2,228.8l-0.6-0.7c0.5-0.4,0.9-0.9,1.4-1.3l0.7,0.7
				C450.1,227.9,449.6,228.3,449.2,228.8z M451.9,226.1l-0.7-0.6c0.4-0.5,0.8-0.9,1.2-1.4l0.7,0.6
				C452.7,225.1,452.3,225.6,451.9,226.1z M454.3,223.1l-0.8-0.6c0.4-0.5,0.7-1,1-1.5l0.8,0.5C455,222.1,454.7,222.6,454.3,223.1z
				 M456.3,219.9l-0.8-0.5c0.3-0.5,0.6-1.1,0.8-1.7l0.9,0.4C456.9,218.7,456.6,219.3,456.3,219.9z M457.9,216.4L457,216
				c0.2-0.6,0.4-1.2,0.6-1.8l0.9,0.2C458.3,215.1,458.1,215.8,457.9,216.4z M458.9,212.6l-0.9-0.2c0.1-0.6,0.2-1.2,0.2-1.8l0.9,0.1
				C459.1,211.4,459,212,458.9,212.6z M458.3,208.8c0-0.6,0-1.2-0.1-1.8l0.9-0.1c0.1,0.6,0.1,1.3,0.1,1.9L458.3,208.8z M458,205.1
				c-0.1-0.6-0.2-1.2-0.4-1.8l0.9-0.2c0.2,0.6,0.3,1.3,0.4,1.9L458,205.1z M457,201.6c-0.2-0.6-0.4-1.2-0.7-1.7l0.9-0.4
				c0.3,0.6,0.5,1.2,0.7,1.8L457,201.6z M455.5,198.2c-0.3-0.5-0.6-1.1-0.9-1.6l0.8-0.5c0.3,0.5,0.7,1.1,1,1.7L455.5,198.2z
				 M453.5,195c-0.4-0.5-0.7-1-1.1-1.5l0.7-0.6c0.4,0.5,0.8,1,1.2,1.5L453.5,195z M451.2,192.2c-0.4-0.5-0.8-0.9-1.3-1.4l0.7-0.7
				c0.5,0.5,0.9,0.9,1.3,1.4L451.2,192.2z M448.5,189.5c-0.5-0.4-0.9-0.8-1.4-1.2l0.6-0.7c0.5,0.4,1,0.8,1.4,1.3L448.5,189.5z
				 M445.7,187.1c-0.5-0.4-1-0.8-1.5-1.1l0.6-0.8c0.5,0.4,1,0.8,1.5,1.1L445.7,187.1z M442.7,184.9c-0.5-0.3-1-0.7-1.6-1l0.5-0.8
				c0.5,0.3,1.1,0.7,1.6,1L442.7,184.9z M439.5,182.9c-0.5-0.3-1.1-0.6-1.6-0.9l0.5-0.8c0.6,0.3,1.1,0.6,1.6,1L439.5,182.9z
				 M436.2,181c-0.5-0.3-1.1-0.6-1.7-0.9l0.4-0.8c0.6,0.3,1.1,0.6,1.7,0.9L436.2,181z"/>
		</g>
		<g>
			<path class="st1" d="M429.9,178c-0.6-0.2-1.2-0.5-1.7-0.7l0.4-0.9c0.6,0.2,1.2,0.5,1.8,0.7L429.9,178z M426.5,176.6
				c-0.6-0.2-1.2-0.4-1.8-0.7l0.3-0.9c0.6,0.2,1.2,0.4,1.8,0.7L426.5,176.6z M422.9,175.3c-0.6-0.2-1.2-0.4-1.8-0.6l0.3-0.9
				c0.6,0.2,1.2,0.4,1.8,0.6L422.9,175.3z M419.4,174.1c-0.6-0.2-1.2-0.4-1.8-0.5l0.3-0.9c0.6,0.2,1.2,0.4,1.8,0.6L419.4,174.1z
				 M415.7,173.1c-0.6-0.2-1.2-0.3-1.8-0.5l0.2-0.9c0.6,0.2,1.2,0.3,1.8,0.5L415.7,173.1z M412.1,172.1c-0.6-0.2-1.2-0.3-1.8-0.4
				l0.2-0.9c0.6,0.1,1.2,0.3,1.8,0.4L412.1,172.1z M408.4,171.3c-0.6-0.1-1.2-0.3-1.8-0.4l0.2-0.9c0.6,0.1,1.2,0.3,1.9,0.4
				L408.4,171.3z M404.7,170.5c-0.6-0.1-1.2-0.2-1.9-0.3l0.2-0.9c0.6,0.1,1.2,0.2,1.9,0.4L404.7,170.5z M401,169.8
				c-0.6-0.1-1.2-0.2-1.9-0.3l0.1-0.9c0.6,0.1,1.3,0.2,1.9,0.3L401,169.8z M397.3,169.2c-0.6-0.1-1.2-0.2-1.9-0.3l0.1-0.9
				c0.6,0.1,1.3,0.2,1.9,0.3L397.3,169.2z M393.6,168.7c-0.6-0.1-1.2-0.1-1.9-0.2l0.1-0.9c0.6,0.1,1.3,0.1,1.9,0.2L393.6,168.7z
				 M350.3,168.6l-0.1-0.9l1.9-0.2l0.1,0.9L350.3,168.6z M389.8,168.3c-0.6-0.1-1.3-0.1-1.9-0.2l0.1-0.9c0.6,0.1,1.3,0.1,1.9,0.2
				L389.8,168.3z M354,168.2l-0.1-0.9c0.6-0.1,1.3-0.1,1.9-0.2l0.1,0.9C355.3,168.1,354.6,168.2,354,168.2z M386,168
				c-0.6,0-1.3-0.1-1.9-0.1l0.1-0.9c0.6,0,1.3,0.1,1.9,0.1L386,168z M357.8,167.9l-0.1-0.9c0.6,0,1.3-0.1,1.9-0.1l0.1,0.9
				C359,167.8,358.4,167.9,357.8,167.9z M382.3,167.7c-0.6,0-1.3-0.1-1.9-0.1l0-0.9c0.6,0,1.3,0.1,1.9,0.1L382.3,167.7z
				 M361.5,167.7l-0.1-0.9c0.6,0,1.3-0.1,1.9-0.1l0,0.9C362.8,167.6,362.2,167.6,361.5,167.7z M378.5,167.5c-0.6,0-1.3,0-1.9-0.1
				l0-0.9c0.6,0,1.3,0,1.9,0.1L378.5,167.5z M365.3,167.5l0-0.9c0.6,0,1.3,0,1.9-0.1l0,0.9C366.6,167.5,365.9,167.5,365.3,167.5z
				 M374.7,167.4c-0.6,0-1.3,0-1.9,0l0-0.9c0.6,0,1.3,0,1.9,0L374.7,167.4z M369.1,167.4l0-0.9c0.6,0,1.3,0,1.9,0l0,0.9
				C370.3,167.4,369.7,167.4,369.1,167.4z"/>
		</g>
		<g>
			<path class="st1" d="M371.4,247c-7.5,0-15-0.5-22.4-1.4l0.1-0.9c29.1,3.7,60.3-0.1,81.6-10c15.1-7.1,23.5-16.3,23.5-25.9
				c0-9-7.4-17.7-20.9-24.6l0.4-0.8c13.8,7,21.4,16.1,21.4,25.4c0,10-8.5,19.5-24,26.7C415.1,243,393.5,247,371.4,247z"/>
		</g>
		<g>
			<path class="st1" d="M342.6,244.7c-11.6-2-21.9-5-30.7-9.1c-15.5-7.2-24-16.7-24-26.7c0-9.3,7.6-18.3,21.3-25.4l0.4,0.8
				c-13.4,6.9-20.8,15.6-20.8,24.5c0,9.6,8.3,18.8,23.5,25.9c8.7,4.1,18.9,7.1,30.4,9.1L342.6,244.7z"/>
		</g>
		<g>
			<path class="st2" d="M372,181c-15,0-27.2,12.2-27.2,27.2c0,15,12.2,27.2,27.2,27.2c15,0,27.2-12.2,27.2-27.2
				C399.2,193.1,387,181,372,181z M362.9,206.5c-4.2,0-7.6-3.4-7.6-7.6c0-4.2,3.4-7.6,7.6-7.6c4.2,0,7.6,3.4,7.6,7.6
				C370.6,203.1,367.1,206.5,362.9,206.5z"/>
		</g>
		<g>
			<g>
				<path class="st1" d="M311,165.2c-0.3,0-0.6,0-0.9,0l0.1-0.9c0.3,0,0.6,0,0.9,0c8.7,0,15.8-7.1,15.8-15.8s-7.1-15.8-15.8-15.8
					c-8.7,0-15.8,7.1-15.8,15.8c0,6.6,4.2,12.6,10.4,14.8l-0.3,0.9c-6.6-2.4-11-8.7-11-15.7c0-9.2,7.5-16.7,16.7-16.7
					c9.2,0,16.7,7.5,16.7,16.7C327.7,157.7,320.2,165.2,311,165.2z"/>
			</g>
		</g>
		<g>
			<g>
				<path class="st1" d="M434,282c-1,0-2.1-0.1-3.1-0.3l0.2-0.9c1,0.2,1.9,0.3,2.9,0.3c8.7,0,15.8-7.1,15.8-15.8
					c0-8.7-7.1-15.8-15.8-15.8c-8.7,0-15.8,7.1-15.8,15.8c0,6,3.3,11.3,8.6,14.1l-0.4,0.8c-5.6-2.9-9.1-8.6-9.1-14.9
					c0-9.2,7.5-16.7,16.7-16.7c9.2,0,16.7,7.5,16.7,16.7C450.7,274.5,443.2,282,434,282z"/>
			</g>
		</g>
		<g>
			<g>
				<path class="st0" d="M306.5,173.4c-1.1-5.8-1.6-11.3-1.5-16.2c0-1.4,1.1-2.5,2.5-2.5c0,0,0.1,0,0.1,0c1.4,0,2.5,1.2,2.5,2.6
					c-0.1,4.6,0.3,9.7,1.4,15.1l-0.9,0.2c-1.1-5.5-1.5-10.7-1.4-15.3c0-0.9-0.7-1.6-1.5-1.6c-0.9,0-1.6,0.7-1.6,1.5
					c-0.1,4.9,0.4,10.3,1.5,16L306.5,173.4z"/>
			</g>
		</g>
		<g>
			<g>
				<path class="st0" d="M412.1,286.2c-1.3,0-2.6-0.1-3.9-0.2l0.1-0.9c7.2,0.9,13-0.7,17.2-4.5l0.6,0.7
					C422.5,284.5,417.8,286.2,412.1,286.2z"/>
			</g>
			<g>
				<path class="st0" d="M412,290.3c-1.4,0-2.8-0.1-4.3-0.3l0.1-0.9c1.4,0.2,2.8,0.3,4.2,0.3c7,0,12.7-2.2,17-6.4l0.7,0.7
					C425.2,287.9,419.1,290.3,412,290.3z"/>
			</g>
			<g>
				<path class="st0" d="M429.7,283.6l-0.7-0.7c1.9-1.9,3.6-4.3,4.8-7c0.4-0.8,0-1.7-0.8-2.1c-0.4-0.2-0.8-0.2-1.2-0.1
					c-0.4,0.1-0.7,0.4-0.9,0.8c-1.2,2.6-2.8,4.9-4.8,6.6l-0.6-0.7c1.8-1.7,3.4-3.8,4.6-6.3c0.3-0.6,0.8-1.1,1.4-1.3
					c0.6-0.2,1.3-0.2,1.9,0.1c0.6,0.3,1.1,0.8,1.3,1.4c0.2,0.6,0.2,1.3-0.1,1.9C433.4,279.1,431.7,281.5,429.7,283.6z"/>
			</g>
		</g>
		<g>
			<g>
				<path class="st0" d="M412,290.3c-8.3,0-17.8-3-28.1-9c-35-20.1-69.7-68.5-77.3-107.9c-0.8-4.1-1.3-8.1-1.4-11.8l0.9,0
					c0.2,3.7,0.6,7.6,1.4,11.7c7.6,39.2,42,87.3,76.8,107.2c10.2,5.9,19.6,8.9,27.7,8.9c5.6,0,10.4-1.4,14.4-4.3l0.5,0.8
					C422.8,288.8,417.8,290.3,412,290.3C412,290.3,412,290.3,412,290.3z M411.9,286.2c-7.4,0-16.3-2.8-26.1-8.4
					c-34.1-19.6-67.9-66.7-75.3-105.1c-0.7-3.7-1.2-7.3-1.4-10.6l0.9-0.1c0.2,3.3,0.6,6.8,1.3,10.5c7.4,38.2,40.9,85,74.8,104.5
					c15.9,9.1,29.2,10.8,37.6,4.8l0.5,0.8C421.1,285,416.8,286.2,411.9,286.2z M436.3,248.2c-0.2-1.3-0.4-2.6-0.7-3.9
					c-0.4-2-0.9-4.1-1.4-6.2l0.9-0.2c0.5,2.1,1,4.2,1.4,6.3c0.3,1.3,0.5,2.6,0.7,3.9L436.3,248.2z M432.1,248
					c-0.1-0.9-0.3-1.9-0.5-2.9c-0.3-1.7-0.7-3.5-1.2-5.2l0.9-0.2c0.4,1.8,0.8,3.6,1.2,5.3c0.2,1,0.4,2,0.5,2.9L432.1,248z
					 M429.3,235.7c-2.1-7.1-4.9-14.5-8.6-22l0.9-0.4c3.6,7.6,6.6,15,8.6,22.2L429.3,235.7z M433,233.8c-2.4-7.9-5.7-16.1-9.9-24.5
					l0.8-0.4c4.2,8.4,7.6,16.7,10,24.6L433,233.8z M418.3,209c-6.5-12.5-15-25-24.4-36.1l0.7-0.6c9.5,11.1,17.9,23.6,24.5,36.2
					L418.3,209z M420.5,204.3c-5.8-10.6-12.7-20.9-20.5-30.6l0.7-0.6c7.9,9.7,14.8,20,20.6,30.7L420.5,204.3z M388.3,166.5
					c-5.5-5.9-11.2-11.2-16.9-15.8l0.6-0.7c5.8,4.6,11.5,9.9,17,15.9L388.3,166.5z M393.6,166.3c-6.1-6.8-12.5-12.9-19-18.2l0.6-0.7
					c6.5,5.3,12.9,11.4,19.1,18.3L393.6,166.3z M367.8,148c-3.7-2.8-7.5-5.2-11.1-7.4c-9.5-5.4-18.3-8.3-25.6-8.3
					c-3.9,0-7.3,0.8-10.2,2.4l-0.5-0.8c3.1-1.7,6.7-2.5,10.7-2.5c7.5,0,16.3,2.8,26.1,8.4c3.7,2.1,7.5,4.6,11.2,7.4L367.8,148z
					 M371.1,145.3c-4.1-3.1-8.3-5.9-12.4-8.3c-17.3-9.9-32.3-11.6-42-4.6l-0.5-0.8c10.1-7.2,25.4-5.6,43.1,4.5
					c4.1,2.4,8.3,5.2,12.5,8.3L371.1,145.3z"/>
			</g>
		</g>
		<g>
			<path class="st0" d="M401,244.6l-1.2-1c18.3-22.6,31.3-48.3,35.6-70.4c3.7-19.2,0.5-33.6-9.1-40.4c-9.7-6.9-24.5-5.3-41.7,4.6
				c-22.5,12.9-46.1,38.6-61.6,67.1l-1.4-0.8c15.6-28.7,39.5-54.7,62.2-67.7c17.8-10.2,33.2-11.8,43.4-4.5
				c10.1,7.2,13.6,22.2,9.8,42C432.5,195.9,419.4,221.8,401,244.6z"/>
		</g>
		<g>
			<path class="st1" d="M429.4,182.3c-15.6-7-36.2-10.8-57.9-10.8c-7.7,0-15.3,0.5-22.6,1.4l-2.6,0.3l-0.1-0.9l2.6-0.3
				c7.4-1,15-1.5,22.7-1.5c21.8,0,42.5,3.9,58.3,10.9L429.4,182.3z"/>
		</g>
	</g>
	<g>
		<g>
			<g>
				<g>
					
						<rect x="463.2" y="268.5" transform="matrix(0.5011 -0.8654 0.8654 0.5011 -36.2097 555.5062)" class="st0" width="0.9" height="81.4"/>
				</g>
				<g>
					
						<rect x="401.2" y="255.4" transform="matrix(0.501 -0.8654 0.8654 0.501 -36.0776 483.9088)" class="st0" width="0.9" height="35.6"/>
				</g>
				<g>
					
						<rect x="373.7" y="249.7" transform="matrix(0.501 -0.8654 0.8654 0.501 -36.0205 452.18)" class="st0" width="0.9" height="15.3"/>
				</g>
				<g>
					
						<rect x="323.6" y="219" transform="matrix(0.501 -0.8654 0.8654 0.501 -35.9138 394.434)" class="st0" width="0.9" height="18.6"/>
				</g>
				<g>
					
						<rect x="300.8" y="203.9" transform="matrix(0.501 -0.8654 0.8654 0.501 -35.8674 368.0629)" class="st0" width="0.9" height="22.4"/>
				</g>
				<g>
					
						<rect x="271.8" y="187.9" transform="matrix(0.501 -0.8654 0.8654 0.501 -35.8061 334.6562)" class="st0" width="0.9" height="20.9"/>
				</g>
				<g>
					
						<rect x="330.8" y="6.2" transform="matrix(0.5021 -0.8648 0.8648 0.5021 91.5832 328.7788)" class="st0" width="0.9" height="157.3"/>
				</g>
				<g>
					<defs>
						
							<rect id="SVGID_1_" x="463.2" y="268.5" transform="matrix(0.5011 -0.8654 0.8654 0.5011 -36.2097 555.5062)" width="0.9" height="81.4"/>
					</defs>
					<defs>
						
							<rect id="SVGID_00000162331532397564260770000014395197798348839102_" x="401.2" y="255.4" transform="matrix(0.501 -0.8654 0.8654 0.501 -36.0776 483.9088)" width="0.9" height="35.6"/>
					</defs>
					<defs>
						
							<rect id="SVGID_00000042718083485228592780000016892348407544236195_" x="373.7" y="249.7" transform="matrix(0.501 -0.8654 0.8654 0.501 -36.0205 452.18)" width="0.9" height="15.3"/>
					</defs>
					<defs>
						
							<rect id="SVGID_00000065761121975091113190000013426559261275242679_" x="323.6" y="219" transform="matrix(0.501 -0.8654 0.8654 0.501 -35.9138 394.434)" width="0.9" height="18.6"/>
					</defs>
					<defs>
						
							<rect id="SVGID_00000063618512413943547020000012048322293362334108_" x="300.8" y="203.9" transform="matrix(0.501 -0.8654 0.8654 0.501 -35.8674 368.0629)" width="0.9" height="22.4"/>
					</defs>
					<defs>
						
							<rect id="SVGID_00000031174432179870234470000005763814424977591955_" x="271.8" y="187.9" transform="matrix(0.501 -0.8654 0.8654 0.501 -35.8061 334.6562)" width="0.9" height="20.9"/>
					</defs>
					<defs>
						
							<rect id="SVGID_00000107565961066791152140000015975430290538179969_" x="330.8" y="6.2" transform="matrix(0.5021 -0.8648 0.8648 0.5021 91.5832 328.7788)" width="0.9" height="157.3"/>
					</defs>
					<defs>
						
							<rect id="SVGID_00000018953499490181742230000008316799403372001419_" x="471.3" y="135.1" transform="matrix(0.5021 -0.8648 0.8648 0.5021 91.0048 490.8955)" width="0.9" height="62.6"/>
					</defs>
					<use xlink:href="#SVGID_00000018953499490181742230000008316799403372001419_"  style="overflow:visible;fill:#1C3E58;"/>
					<clipPath id="SVGID_00000036959273184354016930000008255215271828472491_">
						<use xlink:href="#SVGID_1_"  style="overflow:visible;"/>
					</clipPath>
					
						<clipPath id="SVGID_00000176723397341962940680000001469847570512930238_" style="clip-path:url(#SVGID_00000036959273184354016930000008255215271828472491_);">
						<use xlink:href="#SVGID_00000162331532397564260770000014395197798348839102_"  style="overflow:visible;"/>
					</clipPath>
					
						<clipPath id="SVGID_00000004542755162616900510000010527519115906983080_" style="clip-path:url(#SVGID_00000176723397341962940680000001469847570512930238_);">
						<use xlink:href="#SVGID_00000042718083485228592780000016892348407544236195_"  style="overflow:visible;"/>
					</clipPath>
					
						<clipPath id="SVGID_00000054250723666198945280000001392213376063434423_" style="clip-path:url(#SVGID_00000004542755162616900510000010527519115906983080_);">
						<use xlink:href="#SVGID_00000065761121975091113190000013426559261275242679_"  style="overflow:visible;"/>
					</clipPath>
					
						<clipPath id="SVGID_00000030472440715217947900000007129583099958211204_" style="clip-path:url(#SVGID_00000054250723666198945280000001392213376063434423_);">
						<use xlink:href="#SVGID_00000063618512413943547020000012048322293362334108_"  style="overflow:visible;"/>
					</clipPath>
					
						<clipPath id="SVGID_00000129203460904540509430000007644947869799185536_" style="clip-path:url(#SVGID_00000030472440715217947900000007129583099958211204_);">
						<use xlink:href="#SVGID_00000031174432179870234470000005763814424977591955_"  style="overflow:visible;"/>
					</clipPath>
					
						<clipPath id="SVGID_00000036938122724421791520000005761853486407137670_" style="clip-path:url(#SVGID_00000129203460904540509430000007644947869799185536_);">
						<use xlink:href="#SVGID_00000107565961066791152140000015975430290538179969_"  style="overflow:visible;"/>
					</clipPath>
					
						<clipPath id="SVGID_00000096041097350341153940000016288280207514799790_" style="clip-path:url(#SVGID_00000036938122724421791520000005761853486407137670_);">
						<use xlink:href="#SVGID_00000018953499490181742230000008316799403372001419_"  style="overflow:visible;"/>
					</clipPath>
				</g>
			</g>
			<g>
				<path class="st10" d="M294.6,284.3c0,0,0,0.3,0,0.3C294.6,284.5,294.6,284.4,294.6,284.3z"/>
			</g>
			<g>
				<path class="st0" d="M429.4,354.9l-0.8-1.4l13.5-8c0.7-0.4,1.4-1.3,1.4-2.4l0-9.9l1.6,0l0,9.9c0,1.8-1.1,3.2-2.2,3.8
					L429.4,354.9z"/>
			</g>
			<g>
				<path class="st0" d="M368.6,344.9l-73.7-42.8c-1.2-0.7-1.8-1.9-1.8-3.3l0.7-9.7l1.6,0.1l-0.7,9.7c0,0.8,0.3,1.4,1,1.8l73.7,42.8
					L368.6,344.9z"/>
			</g>
			<g>
				<path class="st0" d="M391.8,321.7c-0.1,0-0.3,0-0.4,0c-0.4,0-0.7-0.1-1-0.3l-35.9-20.7c-0.4-0.2-0.7-0.6-0.8-1
					c-0.1-0.3,0-0.6,0.2-0.9l1.3-11.6l1.6,0.2l-1.3,11.8c0,0.1,0,0.2-0.1,0.3l35.8,20.7c0,0,0.1,0.1,0.4,0.1c0.4,0,0.8,0,1.1-0.2
					c0.1-0.1,9.9-5.7,9.9-5.7c0,0,0.1-0.1,0.1-0.1c0-0.1,0-0.1,0-0.2l-0.2-14l1.6,0l0.2,13.9c0.2,0.6,0,1.3-0.9,1.8
					c-9.9,5.7-9.9,5.7-9.9,5.7C392.9,321.5,392.4,321.7,391.8,321.7z"/>
			</g>
			<g>
				<path class="st0" d="M429.4,344.4l-0.8-1.4l13.5-7.8c0.9-0.5,1.4-1.5,1.4-2.5c0-1-0.5-2-1.4-2.5l-32.7-19l0.8-1.4l32.7,19
					c1.4,0.8,2.2,2.3,2.2,3.9c0,1.6-0.8,3.1-2.2,3.9L429.4,344.4z"/>
			</g>
			<g>
				<path class="st0" d="M377.5,340.1l-81.9-47.6c-1.1-0.6-1.8-1.8-1.8-3.1c0-1.3,0.7-2.4,1.8-3.1l12-7l0.8,1.4l-12,7
					c-0.6,0.4-1,1-1,1.7c0,0.7,0.4,1.4,1,1.7l81.9,47.6L377.5,340.1z"/>
			</g>
			<g>
				<path class="st0" d="M356.7,280.7c-0.1,0-0.3,0-0.4-0.1l-20.3-12c-2.3-1.3-5.1-1.3-7.3,0l-15.3,9l-0.8-1.4l15.3-9
					c2.7-1.6,6.2-1.6,8.9,0l19.3,11.4l0.5-4.3l1.6,0.2l-0.6,5.6c0,0.3-0.2,0.5-0.4,0.6C357,280.7,356.9,280.7,356.7,280.7z"/>
			</g>
			<g>
				<g>
					<path class="st0" d="M493,347.7c-1.6,0-3.2-0.5-5-1.5l-117.2-67.7l0.8-1.4l117.2,67.7c2.5,1.4,4.8,1.7,6.5,0.7
						c1.7-1,2.6-3.1,2.6-6V167.8c0-6.3-4.5-14-9.9-17.2L273,26.5c-2.5-1.5-4.8-1.7-6.5-0.7c-1.7,1-2.6,3.1-2.6,6v171.7
						c0,6.3,4.5,14,9.9,17.2l30.9,17.8l-0.8,1.4L273,222.1c-5.9-3.4-10.7-11.7-10.7-18.6V31.8c0-3.5,1.2-6.1,3.4-7.4
						c2.2-1.3,5.1-1,8.1,0.7l215,124.1c5.9,3.4,10.7,11.7,10.7,18.6v171.7c0,3.5-1.2,6.1-3.4,7.4C495.1,347.4,494.1,347.7,493,347.7
						z"/>
				</g>
				<g>
					<rect x="337.2" y="228.6" transform="matrix(0.5 -0.866 0.866 0.5 -55.0301 422.09)" class="st0" width="1.6" height="60.2"/>
				</g>
				<g>
					<path class="st0" d="M495.9,347.2l-0.7-1.4c4.2-2.2,10.5-5.5,11.1-5.9c0,0,0.1-0.1,0.1-0.1c1.8-0.9,2.8-3.1,2.8-6.1V162
						c0-1.3-0.2-2.8-0.6-4.2c-1.1-4.2-3.6-8.3-6.7-11.1c-0.9-0.8-1.7-1.4-2.6-1.9L284.3,20.7c-2.4-1.4-4.7-1.7-6.4-0.8
						c-0.1,0-0.2,0.1-0.3,0.1l-9.6,5.3l-0.8-1.4l9.8-5.5c0.1-0.1,0.3-0.1,0.4-0.1c2.1-0.9,4.8-0.6,7.6,1L500,143.5
						c1,0.6,2,1.3,2.9,2.1c3.3,3,6,7.4,7.2,11.9c0.4,1.5,0.6,3.1,0.6,4.6v171.7c0,3.6-1.3,6.3-3.7,7.5c-0.1,0.1-0.3,0.2-0.4,0.3
						c-0.3,0.2-0.7,0.4-1.3,0.7c-1,0.6-2.4,1.3-3.8,2.1C498.7,345.7,495.9,347.2,495.9,347.2z"/>
				</g>
			</g>
		</g>
	</g>
	<g>
		<g>
			<g>
				<path class="st0" d="M169,388c-0.1,0-0.3,0-0.4-0.1l-22.1-12.7c-0.5-0.3-1.1-0.6-1.7-0.8l0.6-1.5c0.6,0.3,1.3,0.6,1.9,0.9
					l21.5,12.4c5.4-5.9,8.3-12.5,8.3-19.1c0-4.2,0-11.1,0-11.1h1.6c0,0,0,7,0,11.1c0,7.2-3.2,14.4-9.1,20.7
					C169.4,387.9,169.2,388,169,388z"/>
			</g>
			<g>
				
					<rect x="115.8" y="379.8" transform="matrix(0.8647 -0.5023 0.5023 0.8647 -174.7357 112.5043)" class="st0" width="11.4" height="1.6"/>
			</g>
			<g>
				<path class="st0" d="M105.8,409.7c-19.3,0-38.4-4.4-52.5-12.7c-17.1-10.1-20.9-22.3-21.1-30.7c-0.1-5-0.3-8.4-0.3-8.5l1.6-0.1
					c0,0,0.2,3.5,0.3,8.5c0.3,11.5,7.3,21.7,20.3,29.4c21,12.4,53.4,16,80.9,9v-9.7h1.6v10.3c0,0.4-0.2,0.7-0.6,0.8
					C126.3,408.5,116,409.7,105.8,409.7z"/>
			</g>
			<g>
				<path class="st0" d="M118.6,316.4c-1.8-0.2-3.7-0.4-5.6-0.5l0.1-1.6c1.9,0.1,3.8,0.3,5.7,0.5L118.6,316.4z"/>
			</g>
			<g>
				<path class="st0" d="M169,377.8c-0.1,0-0.3,0-0.4-0.1L151,367.5l0.8-1.4l17,9.8c6.4-6.9,9.2-14.7,8-22.6
					c-1.4-9.6-8.7-18.7-20.6-25.5c-7-4.1-15.3-7.2-24.5-9.3l0.3-1.5c9.3,2.1,17.7,5.3,24.9,9.4c12.3,7.1,19.9,16.6,21.4,26.7
					c1.2,8.5-1.8,16.9-8.9,24.3C169.4,377.7,169.2,377.8,169,377.8z"/>
			</g>
			<g>
				<path class="st0" d="M105.4,399.4c-19.4,0-38.4-4.4-52.4-12.7c-13.7-8.1-21.2-18.8-21.1-30c0.1-11.4,7.8-22.1,21.8-30.2
					c3.9-2.2,8.2-4.2,12.8-5.9l0.5,1.5c-4.5,1.6-8.8,3.6-12.6,5.8c-13.5,7.8-20.9,18-21,28.8c-0.1,10.7,7.2,20.9,20.4,28.7
					c20.7,12.2,52.5,15.8,79.9,9.2l-16.8-9.4c-1.8-1-3-2.7-3.5-4.6c-0.5-2-0.2-4.1,0.9-5.8l1.3,0.8c-0.8,1.3-1.1,3-0.7,4.6
					c0.4,1.5,1.4,2.8,2.8,3.6l18.5,10.4c0.3,0.2,0.4,0.5,0.4,0.8c0,0.3-0.3,0.6-0.6,0.7C126.2,398.2,115.7,399.4,105.4,399.4z"/>
			</g>
			<g>
				<g>
					<path class="st0" d="M113.5,216.3c-4.7-4.2-9.6-7.8-14.5-10.7c-15.6-9-30.6-10.3-42.1-3.6c-1,0.6-2,1.2-2.9,1.9l-0.9-1.3
						c1-0.7,2-1.4,3.1-2c12.1-7,27.6-5.7,43.7,3.6c5,2.9,10,6.5,14.8,10.8L113.5,216.3z"/>
				</g>
				<g>
					<path class="st0" d="M53.9,229.3l-1.5-0.3c1.2-5.1,3.2-9.3,6-12.4l1.2,1C56.8,220.5,55,224.4,53.9,229.3z"/>
				</g>
				<g>
					<polygon class="st0" points="51.6,247.3 51.6,247 53.1,246.8 53.2,247.2 					"/>
				</g>
				<g>
					<path class="st0" d="M75.3,301.5c-1-1.3-2-2.6-3-3.9c-11.4-15.5-19-33.8-20.7-50.3l1.6-0.2c1.7,16.2,9.2,34.3,20.4,49.5
						c1,1.3,2,2.6,3,3.8L75.3,301.5z"/>
				</g>
			</g>
			<g>
				<g>
					<path class="st0" d="M63.5,320.8c-3-3.2-5.9-6.7-8.5-10.4c-14.2-19.3-23.1-43-23.8-63.3l1.6-0.1c0.7,20,9.4,43.4,23.5,62.4
						c2.7,3.6,5.5,7.1,8.4,10.2L63.5,320.8z"/>
				</g>
				<g>
					<path class="st0" d="M106.8,220.5c-4.6-4-9.3-7.5-14.1-10.2c-15.6-9-30.6-10.3-42.1-3.6c-4,2.3-7.5,5.5-10.2,9.5l-1.3-0.9
						c2.9-4.1,6.5-7.5,10.7-9.9c12.1-7,27.6-5.7,43.7,3.6c4.9,2.8,9.7,6.3,14.3,10.4L106.8,220.5z"/>
				</g>
				<g>
					<path class="st0" d="M103.2,236.2c-5.6-5.8-11.5-10.5-17.4-14c-11.1-6.4-21.2-7.7-28.3-3.6c-2.6,1.5-4.7,3.7-6.4,6.5l-1.3-0.8
						c1.8-3,4.2-5.4,7-7c7.6-4.4,18.2-3.1,29.9,3.6c6.1,3.5,12.1,8.3,17.8,14.3L103.2,236.2z"/>
				</g>
				<g>
					<path class="st0" d="M69.7,306.9c-1.2-1.5-2.4-3-3.6-4.6c-11.7-15.9-19.3-34.7-20.8-51.5l1.6-0.1c1.5,16.6,9,35.1,20.5,50.7
						c1.1,1.6,2.3,3.1,3.5,4.6L69.7,306.9z"/>
				</g>
			</g>
			<g>
				<path class="st0" d="M74.6,305.3l-0.8-1.4c1.9-1.1,18.8-11.2,20.7-11.8c2.2-0.7,4.8-0.2,7.5,1.4c0.8,0.5,1.6,1,2.4,1.7l-1,1.2
					c-0.7-0.6-1.4-1.1-2.2-1.5c-2.3-1.3-4.5-1.8-6.3-1.2C93.6,294.1,82,300.8,74.6,305.3z"/>
			</g>
			<g>
				<path class="st0" d="M113.8,343.8l-1.6-30c0-1.3-0.2-2.6-0.5-4l1.5-0.4c0.3,1.5,0.5,2.9,0.5,4.3l1.6,30L113.8,343.8z"/>
			</g>
			<g>
				<path class="st0" d="M96.1,364.1c-0.1,0-0.3,0-0.4-0.1l-5.8-3.3l0.8-1.4l5.4,3.1l6.5-3.8l0.8,1.4l-6.9,4
					C96.4,364,96.2,364.1,96.1,364.1z"/>
			</g>
			<g>
				<path class="st0" d="M90.3,360.7c-0.1,0-0.3,0-0.4-0.1L59,342.8c-0.3-0.2-0.5-0.6-0.3-0.9l12-33.4c0.7-2.4,2-4.1,4-4.9
					c2.3-0.9,5.2-0.5,8.1,1.2c6.5,3.7,11.7,12.8,11.7,20.2c0,0,0,0,0,0.1L91.1,360c0,0.3-0.2,0.5-0.4,0.6
					C90.6,360.7,90.5,360.7,90.3,360.7z M60.4,341.8l29.3,16.9l3.2-33.8c0-6.9-4.9-15.3-10.9-18.8c-2.5-1.4-4.9-1.8-6.7-1.1
					c-1.5,0.6-2.6,2-3.1,3.9c0,0,0,0,0,0.1L60.4,341.8z"/>
			</g>
			<g>
				<path class="st0" d="M83.9,329.8c-0.9,0-1.8-0.3-2.7-0.9c-2.8-1.9-4.8-6-4.5-9.2c0.1-1.6,0.8-2.8,2-3.4c1.2-0.6,2.6-0.3,4.1,0.6
					c2.8,1.9,4.8,6,4.5,9.2c-0.1,1.6-0.8,2.8-2,3.4C84.9,329.7,84.4,329.8,83.9,329.8z M77.1,319.6l0.5,0c-0.3,2.9,1.6,6.7,4.1,8.4
					c1.2,0.8,2.3,1,3.1,0.6c0.8-0.4,1.3-1.3,1.4-2.6c0.3-2.9-1.6-6.7-4.1-8.4c-1.2-0.8-2.3-1-3.1-0.6c-0.8,0.4-1.3,1.3-1.4,2.6
					L77.1,319.6z"/>
			</g>
			<g>
				<g>
					<path class="st0" d="M125.5,322.6c-0.9,0-1.7-0.1-2.6-0.3c-2.7-0.7-4.3-2.2-4.3-3.9v-7.9h0.9v7.9c0,1.3,1.4,2.4,3.6,3
						c1.5,0.4,3.2,0.4,4.7,0c2.2-0.6,3.6-1.7,3.6-3v-7.9h0.9v7.9c0,1.7-1.6,3.2-4.3,3.9C127.3,322.5,126.4,322.6,125.5,322.6z"/>
				</g>
				<g>
					<g>
						<path class="st1" d="M125.1,310.9c-5.2,0-10.5-1.2-14.4-3.5c-4-2.3-6.1-5.5-6.1-9.3c0-0.1,0-0.2,0.1-0.2v-70.2h0.9v70.5
							c0,0.1,0,0.2-0.1,0.2c0.1,3.4,1.9,6.1,5.6,8.3c7.7,4.4,20.1,4.5,27.8,0c3.4-1.9,5.3-4.5,5.6-7.2c0-0.1-0.1-0.2-0.1-0.3v-71.6
							h0.9v71.3c0.1,0.1,0.1,0.2,0.1,0.3c-0.1,3.2-2.3,6.1-6.1,8.3C135.4,309.7,130.2,310.9,125.1,310.9z"/>
					</g>
					<g>
						<path class="st1" d="M125.2,239.8c-5.2,0-10.4-1.1-14.4-3.4c-3.9-2.3-6.1-5.3-6.1-8.6c0-3.3,2.2-6.3,6.1-8.5
							c1.4-0.8,2.9-1.4,4.5-2l0.3,0.9c-1.6,0.5-3.1,1.1-4.4,1.9c-3.6,2.1-5.6,4.8-5.6,7.7c0,2.9,2,5.6,5.6,7.7
							c7.6,4.4,20.1,4.4,27.7,0c3.6-2.1,5.6-4.8,5.6-7.7c0-2.9-2-5.6-5.6-7.7c-1.3-0.8-2.9-1.4-4.5-2l0.3-0.9c1.7,0.5,3.3,1.2,4.7,2
							c3.9,2.3,6.1,5.3,6.1,8.6c0,3.3-2.2,6.3-6.1,8.5C135.5,238.7,130.4,239.8,125.2,239.8z"/>
					</g>
					<g>
						<path class="st0" d="M125.2,233.2c-2.5,0-5-0.6-6.9-1.7c-1.9-1.1-3-2.7-3-4.4c0-0.1,0-0.2,0.1-0.2v-20.7h0.9v21
							c0,0.1,0,0.2-0.1,0.2c0.1,1.3,0.9,2.4,2.5,3.3c3.5,2,9.3,2.1,12.8,0c1.3-0.7,2-1.6,2.4-2.1c-0.1-0.1-0.2-0.2-0.2-0.4v-22.1
							h0.9v21.6c0.2,0,0.4,0.2,0.4,0.4c0,0.8-1.2,2.3-3,3.4C130.1,232.6,127.6,233.2,125.2,233.2z"/>
					</g>
					<g>
						<path class="st0" d="M125.2,209.1c-3.1,0-6.2-0.7-8.5-2c-2.2-1.3-3.5-3-3.6-4.9c-0.1-1.8,0-4.9,0-5.1l0.9,0c0,0-0.1,3.2,0,5
							c0.1,1.5,1.2,3,3.2,4.2c4.4,2.6,11.6,2.6,16.1,0c2-1.2,3.2-2.7,3.2-4.3c0-1.7,0-4.8,0-4.8l0.9,0c0,0,0,3.1,0,4.8
							c0,2-1.3,3.8-3.7,5.1C131.3,208.4,128.3,209.1,125.2,209.1z"/>
					</g>
					<g>
						<path class="st0" d="M125.2,205c-3.1,0-6.2-0.7-8.5-2.1c-2.4-1.4-3.7-3.3-3.6-5.4c0-2,1.3-3.9,3.7-5.3c4.7-2.8,12.3-2.8,17,0
							c2.4,1.4,3.7,3.3,3.6,5.4c0,2-1.3,3.9-3.7,5.3C131.4,204.3,128.3,205,125.2,205z M117.2,192.9c-2.1,1.2-3.2,2.8-3.2,4.5
							c0,1.7,1.1,3.3,3.2,4.5c4.4,2.7,11.6,2.7,16.1,0c2.1-1.2,3.2-2.8,3.2-4.5c0-1.7-1.1-3.3-3.2-4.5
							C128.8,190.3,121.6,190.3,117.2,192.9L117.2,192.9z"/>
					</g>
				</g>
			</g>
			<g>
				<path class="st0" d="M105.4,359.2c0,0-4.6-3.3-5.4-3.9c-1-0.6-1.6-1.9-1.6-3.5c0-3.2,2.3-7.2,5.1-8.8c1.3-0.7,2.5-0.9,3.5-0.5
					c0.2,0.1,2,1.3,5.5,3.6l-0.5,0.8c-1.9-1.3-5.1-3.4-5.4-3.5c-0.7-0.3-1.7-0.1-2.7,0.5c-2.5,1.5-4.6,5-4.6,8
					c0,1.3,0.4,2.2,1.1,2.7c0.9,0.5,5.3,3.8,5.5,3.9L105.4,359.2z"/>
			</g>
			<g>
				<path class="st1" d="M127.7,376.5c-3.4,0-6.7-0.5-10-1.5c-8.2-2.4-13.1-7-13.1-12.2v-7.1h0.9v7.1c0,4.8,4.6,9,12.4,11.3
					c6.4,1.9,13.1,1.9,19.5,0c7.8-2.3,12.4-6.5,12.4-11.3c0-3.3,0-7.1,0-7.1l0.9,0c0,0,0,3.8,0,7.1c0,5.2-4.9,9.8-13.1,12.2
					C134.4,376,131,376.5,127.7,376.5z"/>
			</g>
			<g>
				<path class="st1" d="M127.7,369.6c-5.9,0-11.7-1.3-16.2-3.8c-4.4-2.5-6.9-5.9-6.9-9.5c0-3.6,2.4-7,6.9-9.5
					c8.9-5.1,23.5-5.1,32.4,0c4.4,2.5,6.9,5.9,6.9,9.5c0,3.6-2.4,7-6.9,9.5C139.4,368.3,133.6,369.6,127.7,369.6z M111.9,347.5
					c-4.1,2.4-6.4,5.4-6.4,8.7c0,3.3,2.3,6.4,6.4,8.7c8.7,5,22.8,5,31.5,0c4.1-2.4,6.4-5.4,6.4-8.7c0-3.3-2.3-6.4-6.4-8.7
					C134.7,342.5,120.6,342.5,111.9,347.5L111.9,347.5z"/>
			</g>
			<g>
				<path class="st11" d="M139.8,356c0,2-3.3,2.6-5.9,3.7c-1.8,0.8-3.6,3.5-6.1,3.5c-2.5,0-4.3-2.7-6.1-3.5
					c-2.6-1.1-5.9-1.8-5.9-3.7s3.3-2.6,5.9-3.7c1.8-0.8,3.6-3.5,6.1-3.5c2.5,0,4.3,2.7,6.1,3.5C136.5,353.4,139.8,354,139.8,356z"/>
			</g>
		</g>
		<g>
			<g>
				<path class="st1" d="M44.5,250.5l-0.5-0.8l6.3-3.9c2-1.2,3.1-3.7,3.1-7.1c0-7.3-5.2-16.2-11.5-19.9c-3.2-1.8-6.2-2-8.3-0.6
					c-1.8,1.3-5.6,3.5-5.7,3.6l-0.5-0.8c0,0,3.8-2.3,5.6-3.6c2.4-1.7,5.8-1.5,9.3,0.5c6.6,3.8,12,13.1,12,20.7
					c0,3.7-1.2,6.5-3.5,7.9L44.5,250.5z"/>
			</g>
			<g>
				<path class="st1" d="M41.5,251.2c-1.7,0-3.6-0.6-5.5-1.7c-6.7-3.8-12.1-13.1-12.1-20.6c0-3.7,1.3-6.5,3.6-7.9
					c2.4-1.4,5.6-1.1,8.9,0.8c6.7,3.8,12.1,13.1,12.1,20.6c0,3.7-1.3,6.5-3.6,7.9C43.9,251,42.8,251.2,41.5,251.2z M30.9,221.1
					c-1.1,0-2,0.2-2.9,0.7c-2,1.2-3.2,3.7-3.2,7.1c0,7.3,5.2,16.2,11.6,19.8c3,1.7,5.9,2,8,0.8c2-1.2,3.2-3.7,3.2-7.1
					c0-7.3-5.2-16.2-11.6-19.8C34.2,221.6,32.5,221.1,30.9,221.1z"/>
			</g>
			<g>
				<path class="st0" d="M39,242.6c-0.8,0-1.8-0.3-2.8-0.9c-3.1-1.9-5.7-6.3-5.9-9.9c-0.1-1.8,0.5-3.1,1.6-3.8
					c1.1-0.7,2.6-0.5,4.3,0.5c3.1,1.9,5.7,6.3,5.9,9.9c0.1,1.8-0.5,3.1-1.6,3.8C40.1,242.5,39.6,242.6,39,242.6z M33.4,228.6
					c-0.4,0-0.7,0.1-1,0.3c-0.8,0.5-1.2,1.5-1.1,2.9c0.2,3.3,2.6,7.3,5.4,9.1c1.3,0.8,2.5,1,3.3,0.5c0.8-0.5,1.2-1.5,1.1-2.9
					c-0.2-3.3-2.6-7.3-5.4-9.1C34.9,228.9,34.1,228.6,33.4,228.6z"/>
			</g>
		</g>
	</g>
	<g>
		<g>
			<g>
				<path class="st0" d="M195,540.1c-0.1,0-0.3,0-0.4-0.1L78.1,472.7c-0.2-0.1-0.4-0.4-0.4-0.7v-10.9h1.6v10.4L195,538.4l72.2-41.7
					c0.3-0.2,0.7-0.1,1,0.1c0.1,0.1,2.3,2.2,5,0.8l12.5-7.2c4.5-2.8,5.2-6.8,5.2-7c0-0.2,0.2-0.4,0.4-0.6l44.9-25.9l0.8,1.4
					L292.4,484c-0.3,1.2-1.5,5-5.9,7.7l-12.5,7.2c-2.7,1.5-5.1,0.4-6.4-0.6L195.4,540C195.3,540.1,195.2,540.1,195,540.1z"/>
			</g>
			<g>
				<path class="st0" d="M195,529.2c-0.1,0-0.3,0-0.4-0.1l-24-13.8l0.8-1.4l23.6,13.6l73.3-42.9c0.2-0.1,0.5-0.1,0.8,0
					c0.2,0.1,0.4,0.4,0.4,0.7v0.5c0.4,0.9,0.9,1.4,1.4,1.6c0.4,0.1,0.9,0,1.4-0.3l13.2-7.6c1.5-0.9,2.7-3,2.8-4.7v-0.7
					c0-0.3,0.2-0.5,0.4-0.7l47.4-27.4l0.8,1.4l-47,27.1v0.2c0,2.3-1.6,5-3.6,6.1l-13.2,7.6c-0.9,0.5-1.8,0.7-2.7,0.4
					c-1-0.3-1.7-1.1-2.4-2.3l-72.7,42.5C195.3,529.2,195.2,529.2,195,529.2z"/>
			</g>
			<g>
				<path class="st0" d="M170.7,515.3l-1-0.6l0.8-1.4l1,0.6L170.7,515.3z M168,513.7l-1.6-0.9l0.8-1.4l1.6,0.9L168,513.7z
					 M164.7,511.8l-1.6-0.9l0.8-1.4l1.6,0.9L164.7,511.8z M161.5,509.9l-1.6-0.9l0.8-1.4l1.6,0.9L161.5,509.9z M158.2,508l-1.6-0.9
					l0.8-1.4l1.6,0.9L158.2,508z M154.9,506.1l-1.6-0.9l0.8-1.4l1.6,0.9L154.9,506.1z M151.6,504.3l-1.6-0.9l0.8-1.4l1.6,0.9
					L151.6,504.3z M148.4,502.4l-1.6-0.9l0.8-1.4l1.6,0.9L148.4,502.4z M145.1,500.5l-1.6-0.9l0.8-1.4l1.6,0.9L145.1,500.5z
					 M141.8,498.6l-1.6-0.9l0.8-1.4l1.6,0.9L141.8,498.6z M138.5,496.7l-1.6-0.9l0.8-1.4l1.6,0.9L138.5,496.7z"/>
			</g>
			<g>
				<path class="st0" d="M136.9,495.8l-58.8-34c-0.2-0.1-0.4-0.4-0.4-0.7c0-0.3,0.2-0.5,0.4-0.7l6.3-3.6l0.8,1.4l-5.1,2.9l57.6,33.3
					L136.9,495.8z"/>
			</g>
			<g>
				
					<rect x="299.9" y="448.7" transform="matrix(0.866 -0.5001 0.5001 0.866 -181.7696 220.1659)" class="st0" width="40" height="0.9"/>
			</g>
			<g>
				<path class="st0" d="M194.8,522L86.1,459.3c-0.1-0.1-0.2-0.2-0.2-0.4l0-7l0.9,0l0,6.7l108.5,62.6L194.8,522z"/>
			</g>
			<g>
				<path class="st0" d="M280.8,464.9l-0.8-0.6l7.6-10c3.7-4.8,8.5-8.6,14.1-11l34.7-14.9l0.4,0.9l-34.7,14.9
					c-5.4,2.3-10.1,6-13.7,10.7L280.8,464.9z"/>
			</g>
			<g>
				<rect x="331" y="391.9" transform="matrix(0.5 -0.866 0.866 0.5 -179.4207 486.3177)" class="st0" width="0.9" height="13.3"/>
			</g>
			<g>
				<path class="st0" d="M172.1,402.1l-0.8-0.6l7.6-10c3.7-4.8,8.5-8.6,14.1-11l61.9-26.6c0.1-0.1,0.3,0,0.4,0l49.5,28.6l-0.5,0.8
					L255.1,355l-61.7,26.5c-5.4,2.3-10.1,6-13.7,10.7L172.1,402.1z"/>
			</g>
			<g>
				<path class="st0" d="M192.1,399l-0.7-0.6c3.9-4.7,8.9-8.4,14.4-10.8l47.4-20.4l0.4,0.9l-47.4,20.4
					C200.8,390.8,195.9,394.4,192.1,399z"/>
			</g>
			<g>
				<path class="st1" d="M205.9,406.9l-0.7-0.6c3.8-4.4,8.6-8,14-10.3l48.2-20.7l0.4,0.9l-48.2,20.7
					C214.3,399.1,209.6,402.6,205.9,406.9z"/>
			</g>
			<g>
				
					<rect x="250.2" y="391.3" transform="matrix(0.9189 -0.3944 0.3944 0.9189 -132.8401 137.233)" class="st0" width="34.5" height="0.9"/>
			</g>
			<g>
				<path class="st0" d="M195,515.1c-0.1,0-0.2,0-0.2-0.1L86.1,452.3c-0.1-0.1-0.2-0.2-0.2-0.4s0.1-0.3,0.2-0.4l58.7-42.5
					c7.6-5.5,16.8-7.7,26.1-6.3c0.1,0,0.1,0,0.2,0.1c0.1,0.1,9.9,5.8,24.3,14.1l-0.5,0.8c-13.7-7.9-23.3-13.5-24.2-14
					c-9-1.4-17.9,0.8-25.3,6.1l-58.1,42.1L195,514.1l58.4-42.3c6.9-5,15.3-7.3,23.7-6.6c-3.1-1.8-9.8-5.6-18.6-10.7l0.5-0.8
					c12.4,7.2,20.6,11.9,20.6,11.9c0.2,0.1,0.3,0.4,0.2,0.6c-0.1,0.2-0.3,0.3-0.5,0.3c-9-1.4-18,0.8-25.4,6.1L195.3,515
					C195.2,515.1,195.1,515.1,195,515.1z"/>
			</g>
		</g>
		<g>
			<g>
				<g>
					<path class="st1" d="M123.3,461.7c-2.7,0-5.4-0.6-7.4-1.8c-2.1-1.2-3.3-2.8-3.3-4.6c0-1.7,1.1-3.4,3.2-4.6
						c4.1-2.4,10.8-2.4,14.9,0c0.9,0.5,1.7,1.1,2.2,1.8l-0.7,0.6c-0.5-0.6-1.1-1.1-1.9-1.6c-3.9-2.2-10.1-2.2-14,0
						c-1.8,1-2.7,2.4-2.7,3.8c0,1.4,1,2.7,2.8,3.8c3.9,2.2,10.1,2.2,14,0c0.9-0.5,1.5-1.1,2-1.7l0.8,0.6c-0.5,0.7-1.3,1.4-2.3,2
						C128.7,461.1,126,461.7,123.3,461.7z"/>
				</g>
			</g>
			<g>
				<g>
					<path class="st0" d="M194,470.1l-23-14.7c-1.2-0.8-1.6-2.4-0.8-3.7c0.8-1.2,2.4-1.6,3.7-0.8l24.9,15.9l-0.5,0.8l-24.9-15.9
						c-0.8-0.5-1.9-0.3-2.4,0.5c-0.5,0.8-0.3,1.9,0.5,2.4l23,14.7L194,470.1z"/>
				</g>
			</g>
			<g>
				<g>
					<path class="st0" d="M130.3,458c-1.4,0-2.6-1.1-2.7-2.5c-0.1-1.5,1.1-2.7,2.5-2.8l42.1-2.2c0.7,0,1.4,0.2,1.9,0.7
						c0.5,0.5,0.9,1.2,0.9,1.9c0.1,1.5-1.1,2.7-2.5,2.8l-42.1,2.2C130.4,458,130.4,458,130.3,458z M172.4,451.4c0,0-0.1,0-0.1,0
						l-42.1,2.2c-0.9,0-1.7,0.9-1.6,1.8c0,0.9,0.8,1.6,1.7,1.6l0.1,0l42.1-2.2c0.9,0,1.7-0.9,1.6-1.8c0-0.5-0.2-0.9-0.6-1.2
						C173.2,451.6,172.8,451.4,172.4,451.4z"/>
				</g>
			</g>
			<g>
				<g>
					<path class="st0" d="M170.2,453.9c-0.1,0-0.2,0-0.3-0.1c-0.1-0.1-0.2-0.2-0.2-0.3l-2.7-19.1l0.9-0.1l2.6,18.6l3.4-0.5l-2.6-18
						l0.9-0.1l2.6,18.5c0,0.3-0.1,0.5-0.4,0.5L170.2,453.9C170.2,453.9,170.2,453.9,170.2,453.9z"/>
				</g>
			</g>
			<g>
				<g>
					<ellipse class="st12" cx="172" cy="452.9" rx="22.5" ry="13"/>
				</g>
			</g>
			<g>
				<g>
					<path class="st1" d="M168.5,434.8c-4,0-8.1-0.9-11.1-2.7c-3.1-1.8-4.8-4.2-4.8-6.8c0-2.6,1.7-5,4.7-6.8
						c6.1-3.6,16.2-3.6,22.4-0.1c3.1,1.8,4.8,4.2,4.8,6.8c0,2.6-1.7,5-4.7,6.8C176.6,433.9,172.5,434.8,168.5,434.8z M168.5,416.9
						c-3.9,0-7.8,0.9-10.8,2.6c-2.7,1.6-4.3,3.7-4.3,5.9c0,2.2,1.6,4.3,4.3,6c5.9,3.4,15.5,3.4,21.4-0.1c2.7-1.6,4.3-3.7,4.3-5.9
						c0-2.2-1.6-4.3-4.3-6C176.2,417.7,172.3,416.9,168.5,416.9z"/>
				</g>
			</g>
			<g>
				<g>
					<path class="st1" d="M205.4,482.8c-3.5,0-7-0.8-9.7-2.4c-2.7-1.6-4.2-3.7-4.2-6.1c0-2.3,1.5-4.4,4.1-6.1
						c5.4-3.2,14.1-3.2,19.6-0.1c2.7,1.6,4.2,3.7,4.2,6.1c0,2.3-1.5,4.4-4.1,6C212.5,482,209,482.8,205.4,482.8z M205.4,466.8
						c-3.4,0-6.8,0.8-9.3,2.3c-2.4,1.4-3.7,3.3-3.7,5.2c0,2,1.3,3.8,3.8,5.3c5.1,3,13.5,3,18.6,0c2.4-1.4,3.7-3.3,3.7-5.2
						c0-2-1.3-3.8-3.8-5.3C212.1,467.6,208.8,466.8,205.4,466.8z"/>
				</g>
			</g>
		</g>
		<g>
			<g>
				<g>
					<path class="st1" d="M324.8,392.4l-0.5-0.8l1.7-1c0.7-0.4,1.1-1.3,1.1-2.5c0-2.8-2-6.1-4.3-7.5c-1-0.6-1.9-0.7-2.6-0.4
						c0,0-0.5,0.3-1.3,0.7l-0.5-0.8c1.3-0.7,1.3-0.7,1.4-0.8c1-0.4,2.2-0.3,3.5,0.5c2.7,1.5,4.8,5.3,4.8,8.3c0,1.6-0.6,2.8-1.6,3.4
						L324.8,392.4z"/>
				</g>
			</g>
			<g>
				<g>
					<path class="st1" d="M287.6,418l-0.5-0.8c0.3-0.2,33.9-19.9,35.1-20.6c1.2-0.7,1.9-2.2,1.9-4.2c0-4.4-3.1-9.7-6.9-11.9
						c-1.6-0.9-3.2-1.2-4.3-0.6c-0.5,0.3-35.2,20.7-35.6,20.9l-0.5-0.8c16.2-9.5,35.5-20.8,35.7-20.9c1.5-0.6,3.3-0.4,5.2,0.7
						c4.1,2.4,7.4,8.1,7.4,12.8c0,2.4-0.8,4.2-2.3,5C321.4,398.1,287.9,417.8,287.6,418z"/>
				</g>
				<g>
					<path class="st1" d="M285.4,418.6c-1.1,0-2.2-0.4-3.4-1l0.5-0.8c1.8,1,3.4,1.2,4.6,0.5c1.2-0.7,1.8-2.2,1.8-4.2
						c0-4.4-3.1-9.7-6.9-11.9c-1.8-1-3.4-1.2-4.6-0.5c-1.2,0.7-1.8,2.2-1.8,4.2h-0.9c0-2.4,0.8-4.1,2.3-5c1.5-0.9,3.5-0.7,5.5,0.5
						c4.1,2.4,7.4,8.1,7.4,12.8c0,2.4-0.8,4.1-2.3,5C286.9,418.4,286.2,418.6,285.4,418.6z"/>
				</g>
			</g>
			<g>
				<g>
					<path class="st0" d="M279.8,418.7l-0.5-0.8l5.2-3c0.7-0.4,1.1-1.3,1.1-2.5c0-2.8-1.9-6.1-4.3-7.5c-1-0.6-1.9-0.7-2.6-0.4
						c-0.1,0.1-2.8,1.6-7.4,4.2l-0.5-0.8c7.4-4.2,7.4-4.2,7.5-4.3c1-0.4,2.2-0.3,3.5,0.5c2.7,1.5,4.8,5.3,4.8,8.3
						c0,1.6-0.6,2.8-1.6,3.4L279.8,418.7z"/>
				</g>
			</g>
			<g>
				<path class="st0" d="M238.2,456c-20.1,0-38.1-8.4-42-20.3c-0.4-1.2-0.6-2.4-0.7-3.6c-0.3-3.7,0-8.8,0-9l1.6,0.1
					c0,0.1-0.3,5.2,0,8.8c0.1,1.1,0.3,2.1,0.6,3.2c4.1,12.7,25.6,21.2,47.9,18.8c19.1-2,33.1-11.5,33.3-22.6c0-1.5,0-7.3,0-7.4
					l1.6,0c0,0.2,0,5.9,0,7.4c-0.2,11.9-14.8,22-34.7,24.1C243.2,455.9,240.7,456,238.2,456z"/>
			</g>
			<g>
				<path class="st0" d="M267.6,426.2c-4.6-8.7-19.8-14.1-35.5-12.4c-11.2,1.2-20.4,5.8-23.8,12.1l-0.8-0.5
					c3.6-6.5,13-11.3,24.5-12.6c16-1.7,31.7,3.9,36.4,12.9L267.6,426.2z"/>
			</g>
			<g>
				<path class="st0" d="M238.2,449c-20.1,0-38.1-8.4-42-20.3c-1.5-4.5-0.8-9.2,2-13.5c5.3-8.2,17.3-14,32-15.6
					c23-2.4,45.2,6.5,49.5,19.9c1.5,4.5,0.8,9.2-2,13.5c-5.3,8.2-17.3,14-32,15.6C243.2,448.8,240.7,449,238.2,449z M237.8,400.8
					c-2.5,0-5,0.1-7.5,0.4c-14,1.5-25.8,7.2-30.8,14.8c-2.5,3.9-3.1,8.1-1.8,12.2c4.1,12.7,25.6,21.2,47.9,18.8
					c14-1.5,25.8-7.2,30.8-14.8c2.5-3.9,3.1-8.1,1.8-12.2C274.5,408.7,257.2,400.8,237.8,400.8z"/>
			</g>
			<g>
				<path class="st0" d="M238,442.8c-15,0-28.5-6.3-31.4-15.3c-1.1-3.4-0.6-6.9,1.5-10.1c4-6.1,13-10.5,24-11.7
					c17.3-1.8,34,4.9,37.2,14.9c1.1,3.4,0.6,6.8-1.5,10.1c-4,6.1-13.2,10.6-24.2,11.8C241.7,442.7,239.9,442.8,238,442.8z
					 M237.8,406.4c-1.9,0-3.8,0.1-5.7,0.3c-10.6,1.1-19.5,5.4-23.3,11.2c-1.9,3-2.4,6.2-1.4,9.3c3.2,9.7,19.3,16.1,36,14.4
					c10.7-1.1,19.7-5.5,23.5-11.4c1.9-3,2.4-6.2,1.4-9.2C265.6,412.4,252.5,406.4,237.8,406.4z"/>
			</g>
		</g>
	</g>
	<g>
		<g>
			<g>
				<path class="st0" d="M346.9,508.1l-6.8-3.2c-0.7-0.3-1.1-1-1.1-1.9V367.3c0-1.3,0.8-2.8,1.8-3.4l76.4-44.2
					c0.6-0.3,1.1-0.4,1.6-0.1c0.3,0.1,0.6,0.3,1.1,0.6l5.7,3.1l-0.8,1.4c-2.6-1.4-6.4-3.5-6.7-3.6c0,0-0.1,0-0.2,0.1l-76.4,44.2
					c-0.5,0.3-1,1.2-1,2V503c0,0.3,0.1,0.4,0.1,0.5l6.9,3.2L346.9,508.1z"/>
			</g>
			<g>
				<g>
					<path class="st0" d="M347.3,508.2c-0.3,0-0.5-0.1-0.7-0.2c-0.6-0.3-0.9-1-0.9-1.8V371.1c0-1.3,0.8-2.8,1.8-3.3l76.7-44.3
						c0.6-0.3,1.2-0.4,1.7-0.1c0.6,0.3,0.9,1,0.9,1.8V412h-1.6v-86.8c0-0.3-0.1-0.4-0.1-0.4c0,0-0.1,0-0.1,0.1l-76.7,44.3
						c-0.5,0.3-1,1.2-1,2v135.1c0,0.3,0.1,0.4,0.1,0.4c0,0,0.1,0,0.1-0.1l54-31.2l0.8,1.4l-54,31.2
						C347.9,508.1,347.6,508.2,347.3,508.2z"/>
				</g>
			</g>
			<g>
				<g>
					<path class="st0" d="M410.1,397.4c-0.2,0-0.4,0-0.5-0.1c-0.4-0.2-0.7-0.7-0.7-1.4v-8.7c0-1.1,0.6-2.3,1.5-2.7l7-4.1
						c0.4-0.3,0.9-0.3,1.3-0.1c0.4,0.2,0.7,0.7,0.7,1.4v8.7c0,1.1-0.6,2.3-1.5,2.7l-7,4.1C410.6,397.3,410.3,397.4,410.1,397.4z
						 M418.1,381.1c-0.1,0-0.2,0.1-0.2,0.1l-7,4.1c-0.5,0.3-1,1.2-1,1.9v8.7c0,0.3,0.1,0.5,0.2,0.6c0.1,0.1,0.3,0,0.3-0.1l7-4.1
						c0.5-0.3,1-1.2,1-1.9v-8.7C418.3,381.4,418.3,381.2,418.1,381.1C418.1,381.1,418.1,381.1,418.1,381.1z"/>
				</g>
			</g>
			<g>
				<g>
					<path class="st0" d="M388.3,409.7c-0.2,0-0.4,0-0.5-0.1c-0.4-0.2-0.7-0.7-0.7-1.4v-8.7c0-1.1,0.6-2.3,1.5-2.7l7-4.1
						c0.4-0.3,0.9-0.3,1.3-0.1c0.4,0.2,0.7,0.7,0.7,1.4v8.7c0,1.1-0.6,2.3-1.5,2.7l-7,4.1C388.8,409.7,388.6,409.7,388.3,409.7z
						 M396.3,393.4c-0.1,0-0.2,0.1-0.2,0.1l-7,4.1c-0.5,0.3-1,1.2-1,1.9v8.7c0,0.3,0.1,0.5,0.2,0.6c0.1,0.1,0.3,0,0.3-0.1l7-4.1
						c0.5-0.3,1-1.2,1-1.9V394C396.6,393.7,396.5,393.5,396.3,393.4C396.4,393.4,396.4,393.4,396.3,393.4z"/>
				</g>
			</g>
			<g>
				<g>
					<path class="st0" d="M372.3,419c-0.2,0-0.4,0-0.5-0.1c-0.4-0.2-0.7-0.7-0.7-1.4v-8.7c0-1.1,0.6-2.3,1.5-2.7l7-4.1
						c0.4-0.3,0.9-0.3,1.3-0.1c0.4,0.2,0.7,0.7,0.7,1.4v8.7c0,1.1-0.6,2.3-1.5,2.7l-7,4.1C372.7,418.9,372.5,419,372.3,419z
						 M380.3,402.7c-0.1,0-0.2,0.1-0.2,0.1l-7,4.1c-0.5,0.3-1,1.2-1,1.9v8.7c0,0.3,0.1,0.5,0.2,0.6c0.1,0.1,0.3,0,0.3-0.1l7-4.1
						c0.5-0.3,1-1.2,1-1.9v-8.7C380.5,402.9,380.4,402.7,380.3,402.7C380.3,402.7,380.3,402.7,380.3,402.7z"/>
				</g>
			</g>
			<g>
				<g>
					<path class="st1" d="M357.1,428.1c-0.2,0-0.4,0-0.5-0.1c-0.4-0.2-0.7-0.7-0.7-1.4v-8.7c0-1.1,0.6-2.3,1.4-2.7l7-4.1
						c0.4-0.3,0.9-0.3,1.3-0.1c0.4,0.2,0.7,0.7,0.7,1.4v8.7c0,1.1-0.6,2.3-1.4,2.7l-7,4.1C357.6,428,357.4,428.1,357.1,428.1z
						 M365.1,411.8c-0.1,0-0.2,0.1-0.2,0.1l-7,4.1c-0.5,0.3-1,1.2-1,1.9v8.7c0,0.3,0.1,0.5,0.2,0.6c0.1,0.1,0.3,0,0.3-0.1l7-4.1
						c0.5-0.3,1-1.2,1-1.9v-8.7C365.4,412,365.3,411.9,365.1,411.8C365.2,411.8,365.2,411.8,365.1,411.8z"/>
				</g>
			</g>
			<g>
				<g>
					<path class="st0" d="M409.8,413h-0.9v-5.7c0-1.1,0.6-2.3,1.5-2.7l7-4.1c0.4-0.3,0.9-0.3,1.3-0.1c0.4,0.2,0.7,0.7,0.7,1.4v8.3
						h-0.9v-8.3c0-0.3-0.1-0.5-0.2-0.6c-0.1-0.1-0.3,0-0.3,0.1l-7,4.1c-0.5,0.3-1,1.2-1,1.9V413z"/>
				</g>
			</g>
			<g>
				<g>
					<path class="st0" d="M388.3,429.9c-0.2,0-0.4,0-0.5-0.1c-0.4-0.2-0.7-0.7-0.7-1.4v-8.7c0-1.1,0.6-2.3,1.5-2.7l7-4.1
						c0.4-0.3,0.9-0.3,1.3-0.1c0.4,0.2,0.7,0.7,0.7,1.4v8.7c0,1.1-0.6,2.3-1.5,2.7l-7,4.1C388.8,429.8,388.6,429.9,388.3,429.9z
						 M396.3,413.6c-0.1,0-0.2,0.1-0.2,0.1l-7,4.1c-0.5,0.3-1,1.2-1,1.9v8.7c0,0.3,0.1,0.5,0.2,0.6c0.1,0.1,0.3,0,0.3-0.1l7-4.1
						c0.5-0.3,1-1.2,1-1.9v-8.7C396.6,413.9,396.5,413.7,396.3,413.6C396.4,413.6,396.4,413.6,396.3,413.6z"/>
				</g>
			</g>
			<g>
				<g>
					<path class="st0" d="M372.3,439.2c-0.2,0-0.4,0-0.5-0.1c-0.4-0.2-0.7-0.7-0.7-1.4v-8.7c0-1.1,0.6-2.3,1.5-2.7l7-4.1
						c0.4-0.3,0.9-0.3,1.3-0.1c0.4,0.2,0.7,0.7,0.7,1.4v8.7c0,1.1-0.6,2.3-1.5,2.7l-7,4.1C372.7,439.1,372.5,439.2,372.3,439.2z
						 M380.3,422.9c-0.1,0-0.2,0.1-0.2,0.1l-7,4.1c-0.5,0.3-1,1.2-1,1.9v8.7c0,0.3,0.1,0.5,0.2,0.6c0.1,0.1,0.3,0,0.3-0.1l7-4.1
						c0.5-0.3,1-1.2,1-1.9v-8.7C380.5,423.1,380.4,422.9,380.3,422.9C380.3,422.9,380.3,422.9,380.3,422.9z"/>
				</g>
			</g>
			<g>
				<g>
					<path class="st0" d="M357.1,448.4c-0.2,0-0.4,0-0.5-0.1c-0.4-0.2-0.7-0.7-0.7-1.4v-8.7c0-1.1,0.6-2.3,1.4-2.7l7-4.1
						c0.4-0.3,0.9-0.3,1.3-0.1c0.4,0.2,0.7,0.7,0.7,1.4v8.7c0,1.1-0.6,2.3-1.5,2.7l-7,4.1C357.6,448.4,357.4,448.4,357.1,448.4z
						 M365.1,432.1c-0.1,0-0.2,0.1-0.2,0.1l-7,4.1c-0.5,0.3-1,1.2-1,1.9v8.7c0,0.3,0.1,0.5,0.2,0.6c0.1,0.1,0.3,0,0.3-0.1l7-4.1
						c0.5-0.3,1-1.2,1-1.9v-8.7C365.4,432.4,365.3,432.2,365.1,432.1C365.2,432.1,365.2,432.1,365.1,432.1z"/>
				</g>
			</g>
			<g>
				<g>
					<path class="st0" d="M388.3,450.1c-0.2,0-0.4,0-0.5-0.1c-0.4-0.2-0.7-0.7-0.7-1.4v-8.7c0-1.1,0.6-2.3,1.5-2.7l7-4.1
						c0.4-0.3,0.9-0.3,1.3-0.1c0.4,0.2,0.7,0.7,0.7,1.4v8.7c0,1.1-0.6,2.3-1.5,2.7l-7,4.1C388.8,450,388.6,450.1,388.3,450.1z
						 M396.3,433.8c-0.1,0-0.2,0.1-0.2,0.1l-7,4.1c-0.5,0.3-1,1.2-1,1.9v8.7c0,0.3,0.1,0.5,0.2,0.6c0.1,0.1,0.3,0,0.3-0.1l7-4.1
						c0.5-0.3,1-1.2,1-1.9v-8.7C396.6,434.1,396.5,433.9,396.3,433.8C396.4,433.8,396.4,433.8,396.3,433.8z"/>
				</g>
			</g>
			<g>
				<g>
					<path class="st0" d="M388.3,470.3c-0.2,0-0.4,0-0.5-0.1c-0.4-0.2-0.7-0.7-0.7-1.4V460c0-1.1,0.6-2.3,1.5-2.7l7-4.1
						c0.4-0.3,0.9-0.3,1.3-0.1c0.4,0.2,0.7,0.7,0.7,1.4v8.7c0,1.1-0.6,2.3-1.5,2.7l-7,4.1C388.8,470.2,388.6,470.3,388.3,470.3z
						 M396.3,454c-0.1,0-0.2,0.1-0.2,0.1l-7,4.1c-0.5,0.3-1,1.2-1,1.9v8.7c0,0.3,0.1,0.5,0.2,0.6c0.1,0.1,0.3,0,0.3-0.1l7-4.1
						c0.5-0.3,1-1.2,1-1.9v-8.7C396.6,454.3,396.5,454.1,396.3,454C396.4,454,396.4,454,396.3,454z"/>
				</g>
			</g>
			<g>
				<path class="st1" d="M354.9,403.1c-0.2,0-0.4-0.1-0.6-0.2c-0.4-0.2-0.7-0.8-0.7-1.4v-24c0-1.1,0.8-2.5,1.7-3l61.3-35.4
					c0.5-0.3,1.1-0.4,1.5-0.1c0.4,0.2,0.7,0.8,0.7,1.4v24c0,1.1-0.8,2.5-1.7,3l-61.3,35.4C355.5,403,355.2,403.1,354.9,403.1z
					 M417.5,339.9c-0.1,0-0.3,0-0.4,0.1l-61.3,35.4c-0.7,0.4-1.3,1.4-1.3,2.2v24c0,0.3,0.1,0.5,0.2,0.6c0.1,0.1,0.3,0,0.6-0.1
					l61.3-35.4c0.7-0.4,1.3-1.4,1.3-2.2v-24c0-0.3-0.1-0.5-0.2-0.6C417.6,339.9,417.6,339.9,417.5,339.9z"/>
			</g>
			<g>
				<g>
					<path class="st13" d="M355.1,402.8c0.1,0,0.3-0.1,0.4-0.2C355.4,402.7,355.3,402.8,355.1,402.8z"/>
				</g>
				<g>
					<g>
						<path class="st13" d="M354.2,402.3c0.1,0.1,0.1,0.2,0.2,0.3C354.3,402.5,354.2,402.4,354.2,402.3z"/>
					</g>
				</g>
				<g>
					<path class="st13" d="M354.4,402.7c0.1,0.1,0.2,0.1,0.3,0.1C354.6,402.8,354.5,402.7,354.4,402.7z"/>
				</g>
				<g>
					<path class="st13" d="M355.1,402.8c-0.1,0-0.2,0-0.4,0C354.8,402.8,354.9,402.8,355.1,402.8z"/>
				</g>
			</g>
			<g>
				<g>
					<path class="st0" d="M372.3,479.4c-0.2,0-0.4,0-0.5-0.1c-0.4-0.2-0.7-0.7-0.7-1.4v-28.4c0-1.1,0.6-2.3,1.5-2.7l7-4.1
						c0.4-0.3,0.9-0.3,1.3-0.1c0.4,0.2,0.7,0.7,0.7,1.4v28.4c0,1.1-0.6,2.3-1.5,2.7l-7,4.1C372.7,479.3,372.5,479.4,372.3,479.4z
						 M380.3,443.4c-0.1,0-0.2,0.1-0.2,0.1l-7,4.1c-0.5,0.3-1,1.2-1,1.9v28.4c0,0.3,0.1,0.5,0.2,0.6c0.1,0.1,0.3,0,0.3-0.1l7-4.1
						c0.5-0.3,1-1.2,1-1.9V444C380.5,443.7,380.4,443.5,380.3,443.4C380.3,443.4,380.3,443.4,380.3,443.4z"/>
				</g>
			</g>
			<g>
				<g>
					<path class="st2" d="M357.6,488l7-4.1c0.7-0.4,1.2-1.4,1.2-2.3v-28.4c0-0.9-0.5-1.3-1.2-0.9l-7,4.1c-0.7,0.4-1.2,1.4-1.2,2.3
						V487C356.4,487.9,356.9,488.4,357.6,488z"/>
					<path class="st2" d="M357.1,488.6c-0.2,0-0.4,0-0.5-0.1c-0.4-0.2-0.7-0.7-0.7-1.4v-28.4c0-1.1,0.6-2.3,1.4-2.7l7-4.1
						c0.4-0.3,0.9-0.3,1.3-0.1c0.4,0.2,0.7,0.7,0.7,1.4v28.4c0,1.1-0.6,2.3-1.5,2.7l-7,4.1C357.6,488.5,357.4,488.6,357.1,488.6z
						 M365.1,452.6c-0.1,0-0.2,0.1-0.2,0.1l-7,4.1c-0.5,0.3-1,1.2-1,1.9V487c0,0.3,0.1,0.5,0.2,0.6c0.1,0.1,0.3,0,0.3-0.1l7-4.1
						c0.5-0.3,1-1.2,1-1.9v-28.4C365.4,452.9,365.3,452.7,365.1,452.6C365.2,452.6,365.2,452.6,365.1,452.6z"/>
				</g>
			</g>
			<g>
				<path class="st0" d="M365.6,383.9l-0.8-1.4l1.6-0.9l0.8,1.4L365.6,383.9z M368.9,382l-0.8-1.4l1.6-0.9l0.8,1.4L368.9,382z
					 M372.1,380.1l-0.8-1.4l1.6-0.9l0.8,1.4L372.1,380.1z M375.4,378.2l-0.8-1.4l1.6-0.9l0.8,1.4L375.4,378.2z M378.7,376.3
					l-0.8-1.4l1.6-0.9l0.8,1.4L378.7,376.3z M381.9,374.4l-0.8-1.4l1.6-0.9l0.8,1.4L381.9,374.4z M385.2,372.5l-0.8-1.4l1.6-0.9
					l0.8,1.4L385.2,372.5z M388.5,370.6l-0.8-1.4l1.6-0.9l0.8,1.4L388.5,370.6z M391.8,368.7l-0.8-1.4l1.6-0.9l0.8,1.4L391.8,368.7z
					 M395,366.8l-0.8-1.4l1.6-0.9l0.8,1.4L395,366.8z M398.3,364.9l-0.8-1.4l1.6-0.9l0.8,1.4L398.3,364.9z M401.6,363l-0.8-1.4
					l1.6-0.9l0.8,1.4L401.6,363z M404.8,361.1l-0.8-1.4l1.6-0.9l0.8,1.4L404.8,361.1z"/>
			</g>
		</g>
		<g>
			<path class="st0" d="M459.1,471.1c-4.6,0-9.2-1-12.2-2.7c-3-1.8-4.8-4.1-4.9-6.7c0-0.2,0-0.6,0-1.2l0-52l0-53.2h0.9
				c0,1.1,0,105.3,0,106.4c0.1,2.2,1.6,4.3,4.4,5.9c4.1,2.4,11.3,3.3,17.1,2.1l0.2,0.9C462.9,470.9,461,471.1,459.1,471.1z"/>
		</g>
		<g>
			<rect x="474.1" y="355.3" class="st0" width="0.9" height="86.1"/>
		</g>
		<g>
			<path class="st0" d="M458.5,364.7c-4.2,0-8.4-0.9-11.6-2.7c-3.2-1.8-5-4.2-5-6.8c0-2.6,1.8-5,5-6.8c6.4-3.6,16.8-3.6,23.2,0
				c3.2,1.8,5,4.2,5,6.8c0,2.6-1.8,5-5,6.8C466.9,363.8,462.7,364.7,458.5,364.7z M447.4,361.2c6.1,3.4,16.1,3.4,22.3,0
				c2.9-1.6,4.5-3.7,4.5-5.9c0-2.2-1.6-4.3-4.5-5.9c-6.1-3.4-16.1-3.4-22.3,0c-2.9,1.6-4.5,3.7-4.5,5.9
				C442.9,357.5,444.5,359.6,447.4,361.2L447.4,361.2z"/>
		</g>
		<g>
			<g>
				<path class="st1" d="M481.2,497.7c-2,0-4-0.2-6-0.7c-6.5-1.6-10.4-4.9-10.6-8.8c0-0.3,0-0.8,0-1.6l0-35.8h0.9
					c0,0.4,0,36.5,0,37.3c0.1,3.4,3.9,6.5,9.9,7.9c3.7,0.9,7.7,0.9,11.4,0c5.9-1.5,9.7-4.5,9.9-7.9l0-37.3h0.9v37.4
					c-0.2,4-4.2,7.3-10.6,8.8C485.2,497.5,483.2,497.7,481.2,497.7z"/>
			</g>
			<g>
				<path class="st1" d="M481.2,460.2c-4.2,0-8.4-0.9-11.6-2.7c-3.2-1.8-5-4.2-5-6.8c0-2.6,1.8-5,5-6.8c3.8-2.1,9.1-3.1,14.4-2.6
					l-0.1,0.9c-5-0.5-10.2,0.4-13.8,2.4c-2.9,1.6-4.5,3.7-4.5,5.9c0,2.2,1.6,4.3,4.5,5.9c6.1,3.4,16.1,3.4,22.3,0
					c2.9-1.6,4.5-3.7,4.5-5.9c0-2.2-1.6-4.3-4.5-5.9l0.5-0.8c3.2,1.8,5,4.2,5,6.8c0,2.6-1.8,5-5,6.8
					C489.6,459.3,485.4,460.2,481.2,460.2z"/>
			</g>
		</g>
		<g>
			<path class="st1" d="M419.8,497.7c-2,0-4-0.2-6-0.7c-6.5-1.6-10.4-4.9-10.6-8.8l0.1,0c-0.1-0.4-0.1-1.3-0.1-2.9l0-63.8h0.9
				c0,0.7,0,65.7,0,66.7c0.1,3.4,3.9,6.5,9.9,7.9c3.7,0.9,7.7,0.9,11.4,0c5.9-1.5,9.7-4.5,9.9-7.9l0-66.7h0.9v66.7
				c-0.2,4-4.2,7.3-10.6,8.8C423.8,497.5,421.8,497.7,419.8,497.7z"/>
		</g>
		<g>
			<path class="st1" d="M419.8,430.9c-4.2,0-8.4-0.9-11.6-2.7c-3.2-1.8-5-4.2-5-6.8c0-2.6,1.8-5,5-6.8c6.4-3.6,16.8-3.6,23.2,0
				c3.2,1.8,5,4.2,5,6.8c0,2.6-1.8,5-5,6.8C428.2,430,424,430.9,419.8,430.9z M419.8,413c-4,0-8.1,0.9-11.1,2.6
				c-2.9,1.6-4.5,3.7-4.5,5.9c0,2.2,1.6,4.3,4.5,5.9c6.1,3.4,16.1,3.4,22.3,0c2.9-1.6,4.5-3.7,4.5-5.9c0-2.2-1.6-4.3-4.5-5.9
				C427.8,413.8,423.8,413,419.8,413z"/>
		</g>
	</g>
	<g>
		<g>
			<g>
				<g>
					<g>
						<path class="st0" d="M149.5,238.8l-0.5-0.8l15.6-9l0.5,0.8L149.5,238.8z M150.5,232.9l-0.5-0.8l12.4-7.2l0.5,0.8L150.5,232.9z
							 M184.3,207.6l-0.9-0.3l9.6-24.6l0.9,0.3L184.3,207.6z M180.1,205.7l-0.9-0.3l9.4-24.1l0.9,0.3L180.1,205.7z M128.5,189.1
							l-0.9-0.3l4.7-12l0.9,0.3L128.5,189.1z M124.5,186.6l-0.9-0.3l4.4-11.2l0.9,0.3L124.5,186.6z M186.6,158.2l-3.7-5.3l0.8-0.5
							l3.7,5.3L186.6,158.2z M149.2,158l-0.5-0.8l15.3-8.9l0.5,0.8L149.2,158z M190.6,155.8l-4.5-6.3l0.8-0.5l4.5,6.3L190.6,155.8z
							 M147,154l-0.5-0.8l15.4-8.9l0.5,0.8L147,154z"/>
					</g>
				</g>
				<g>
					<g>
						
							<rect x="116.6" y="148.8" transform="matrix(0.4966 -0.868 0.868 0.4966 -75.1514 179.3362)" class="st0" width="0.9" height="11.3"/>
					</g>
					<g>
						
							<rect x="118.7" y="144.8" transform="matrix(0.4966 -0.868 0.868 0.4966 -70.5376 179.1727)" class="st0" width="0.9" height="11.1"/>
					</g>
				</g>
				<g>
					<g>
						
							<rect x="179" y="117.4" transform="matrix(0.494 -0.8695 0.8695 0.494 -5.9527 225.5656)" class="st0" width="23.7" height="0.9"/>
					</g>
					<g>
						
							<rect x="175.2" y="115.2" transform="matrix(0.494 -0.8695 0.8695 0.494 -6.0859 220.9408)" class="st0" width="23.2" height="0.9"/>
					</g>
				</g>
				<g>
					<g>
						
							<rect x="208.8" y="158.6" transform="matrix(0.866 -0.5001 0.5001 0.866 -50.5241 129.6131)" class="st0" width="15.6" height="0.9"/>
					</g>
					<g>
						
							<rect x="206.3" y="154.8" transform="matrix(0.866 -0.5001 0.5001 0.866 -48.9796 127.7907)" class="st0" width="15.3" height="0.9"/>
					</g>
				</g>
				<g>
					<g>
						
							<rect x="192.3" y="223.9" transform="matrix(0.4966 -0.868 0.868 0.4966 -100.2419 281.718)" class="st0" width="0.9" height="6.7"/>
					</g>
					<g>
						
							<rect x="189.9" y="227.8" transform="matrix(0.4965 -0.868 0.868 0.4965 -104.8548 281.6407)" class="st0" width="0.9" height="6.9"/>
					</g>
				</g>
			</g>
			<g>
				<g>
					<path class="st0" d="M135.2,178.2c-8.5,0-15.4-6.9-15.4-15.4c0-8.5,6.9-15.4,15.4-15.4s15.4,6.9,15.4,15.4
						C150.6,171.3,143.7,178.2,135.2,178.2z M135.2,149c-7.6,0-13.8,6.2-13.8,13.8c0,7.6,6.2,13.8,13.8,13.8
						c7.6,0,13.8-6.2,13.8-13.8C149,155.2,142.8,149,135.2,149z"/>
				</g>
			</g>
			<g>
				<g>
					<path class="st1" d="M176.5,154.7c-8.5,0-15.4-6.9-15.4-15.4s6.9-15.4,15.4-15.4c8.5,0,15.4,6.9,15.4,15.4
						S185,154.7,176.5,154.7z M176.5,125.4c-7.6,0-13.8,6.2-13.8,13.8c0,7.6,6.2,13.8,13.8,13.8c7.6,0,13.8-6.2,13.8-13.8
						C190.3,131.7,184.1,125.4,176.5,125.4z"/>
				</g>
			</g>
			<g>
				<g>
					<path class="st0" d="M198.9,108.9c-6,0-10.9-4.9-10.9-10.9c0-6,4.9-10.9,10.9-10.9c6,0,10.9,4.9,10.9,10.9
						C209.8,104,204.9,108.9,198.9,108.9z M198.9,88c-5.5,0-10,4.5-10,10c0,5.5,4.5,10,10,10c5.5,0,10-4.5,10-10
						C208.9,92.5,204.4,88,198.9,88z"/>
				</g>
			</g>
			<g>
				<g>
					<path class="st0" d="M104.9,156c-6,0-10.9-4.9-10.9-10.9c0-6,4.9-10.9,10.9-10.9c6,0,10.9,4.9,10.9,10.9
						C115.8,151.1,110.9,156,104.9,156z M104.9,135.1c-5.5,0-10,4.5-10,10c0,5.5,4.5,10,10,10c5.5,0,10-4.5,10-10
						C114.9,139.5,110.4,135.1,104.9,135.1z"/>
				</g>
			</g>
			<g>
				<g>
					<path class="st0" d="M229.8,158.6c-6,0-10.9-4.9-10.9-10.9c0-6,4.9-10.9,10.9-10.9c6,0,10.9,4.9,10.9,10.9
						C240.7,153.7,235.8,158.6,229.8,158.6z M229.8,137.7c-5.5,0-10,4.5-10,10c0,5.5,4.5,10,10,10c5.5,0,10-4.5,10-10
						C239.7,142.1,235.3,137.7,229.8,137.7z"/>
				</g>
			</g>
			<g>
				<g>
					<path class="st0" d="M196.8,184.5c-8.5,0-15.4-6.9-15.4-15.4s6.9-15.4,15.4-15.4c8.5,0,15.4,6.9,15.4,15.4
						S205.3,184.5,196.8,184.5z M196.8,155.2c-7.6,0-13.8,6.2-13.8,13.8c0,7.6,6.2,13.8,13.8,13.8c7.6,0,13.8-6.2,13.8-13.8
						C210.7,161.4,204.5,155.2,196.8,155.2z"/>
				</g>
			</g>
			<g>
				<g>
					<path class="st1" d="M176.5,234.9c-8.3,0-15.1-6.8-15.1-15.1c0-8.3,6.8-15.1,15.1-15.1s15.1,6.8,15.1,15.1
						C191.6,228.1,184.8,234.9,176.5,234.9z M176.5,205.6c-7.8,0-14.2,6.4-14.2,14.2c0,7.8,6.4,14.2,14.2,14.2
						c7.8,0,14.2-6.4,14.2-14.2C190.6,211.9,184.3,205.6,176.5,205.6z"/>
				</g>
			</g>
		</g>
		<g>
			<g>
				<path class="st0" d="M222.3,315.1c-13,0-26-2.9-35.8-8.6c-9.7-5.6-15.1-13.1-15.1-21.1c0-7.5,32-67.1,33.3-69.6l1.4,0.7
					c-11.5,21.3-33.1,63.1-33.1,68.8c0,7.4,5.1,14.5,14.3,19.8c19.3,11.2,50.8,11.2,70.1,0c9.2-5.3,14.3-12.3,14.3-19.8
					c0-5.7-21.7-47.6-33.1-69l1.4-0.7c1.4,2.5,33.3,62.2,33.3,69.7c0,8-5.4,15.5-15.1,21.1C248.2,312.3,235.2,315.1,222.3,315.1z"/>
			</g>
			<g>
				<path class="st0" d="M222.3,226.2c-4.5,0-9-1-12.4-3c-3.2-1.8-11-17.2-11.9-18.9l1.4-0.7c3.4,6.7,9.2,17.1,11.3,18.3
					c6.4,3.7,16.8,3.7,23.2,0c2.1-1.2,8.1-12.8,11.4-19.9l1.4,0.7c-0.9,1.9-8.8,18.7-12,20.6C231.2,225.2,226.7,226.2,222.3,226.2z"
					/>
			</g>
			<g>
				<path class="st0" d="M221.9,214.3c-6.4,0-12.9-1.4-17.8-4.2c-4.9-2.8-7.6-6.6-7.6-10.7c0-4.1,2.7-7.8,7.6-10.7
					c9.8-5.6,25.7-5.6,35.5,0c4.9,2.8,7.6,6.6,7.6,10.7c0,4.1-2.7,7.8-7.6,10.7C234.8,212.8,228.3,214.3,221.9,214.3z M221.9,186.1
					c-6.1,0-12.3,1.3-17,4c-4.4,2.5-6.8,5.8-6.8,9.3c0,3.5,2.4,6.8,6.8,9.3c9.4,5.4,24.6,5.4,33.9,0c4.4-2.5,6.8-5.8,6.8-9.3
					c0-3.5-2.4-6.8-6.8-9.3C234.2,187.4,228.1,186.1,221.9,186.1z"/>
			</g>
			<g>
				<path class="st0" d="M222.4,209.2c-5,0-10.1-1-13.9-2.9c-3.8-2-5.9-4.6-5.9-7.4c0-2.8,2.1-5.5,5.9-7.4c7.7-3.9,20.1-3.9,27.8,0
					c3.8,2,5.9,4.6,5.9,7.4c0,2.8-2.1,5.5-5.9,7.4C232.5,208.3,227.5,209.2,222.4,209.2z M222.4,189.4c-4.9,0-9.7,1-13.5,2.9
					c-3.5,1.8-5.4,4.1-5.4,6.6c0,2.5,1.9,4.8,5.4,6.6c7.4,3.8,19.5,3.8,26.9,0c3.5-1.8,5.4-4.1,5.4-6.6c0-2.5-1.9-4.8-5.4-6.6
					C232.2,190.3,227.3,189.4,222.4,189.4z"/>
			</g>
			<g>
				<path class="st1" d="M222.3,309c-12.5,0-24.1-2.8-32.7-7.8c-7.6-4.4-11.9-9.9-12-15.6c0,0,0-0.1,0-0.1
					c0.8-4.7,11.7-26.6,16.4-35.8l0.8,0.4c-9.8,19.3-15.7,32.2-16.3,35.5c0.1,5.3,4.2,10.5,11.5,14.7c8.5,4.9,20,7.6,32.3,7.6
					c12.3,0,23.8-2.7,32.3-7.6c7.3-4.2,11.4-9.5,11.5-14.7c-0.6-3.3-6.5-16.2-16.2-35.5l0.8-0.4c4.7,9.2,15.6,31.1,16.3,35.8
					c0,0,0,0.1,0,0.1c-0.1,5.6-4.3,11.2-12,15.6C246.4,306.2,234.7,309,222.3,309z"/>
			</g>
			<g>
				<path class="st1" d="M244.4,288.7c-4,0-7.3-3.3-7.3-7.3c0-4,3.3-7.3,7.3-7.3s7.3,3.3,7.3,7.3
					C251.6,285.4,248.4,288.7,244.4,288.7z M244.4,275.1c-3.5,0-6.3,2.8-6.3,6.3c0,3.5,2.8,6.3,6.3,6.3s6.3-2.8,6.3-6.3
					C250.7,277.9,247.9,275.1,244.4,275.1z"/>
			</g>
			<g>
				<path class="st1" d="M217.7,296c-2.6,0-4.7-2.1-4.7-4.7s2.1-4.7,4.7-4.7s4.7,2.1,4.7,4.7S220.3,296,217.7,296z M217.7,287.6
					c-2,0-3.7,1.7-3.7,3.7c0,2,1.7,3.7,3.7,3.7c2,0,3.7-1.7,3.7-3.7C221.4,289.3,219.8,287.6,217.7,287.6z"/>
			</g>
		</g>
		<g>
			<path class="st14" d="M242.8,241.9c-11.2-6.5-29.4-6.5-40.6,0c-11.2,6.5-11.2,17.1,0,23.6c11.2,6.5,29.4,6.5,40.6,0
				C254,259,254,248.4,242.8,241.9z M226.3,255.2c-3.9,2.2-10.2,2.2-14,0c-3.9-2.2-3.9-5.9,0-8.1c3.9-2.2,10.2-2.2,14,0
				C230.2,249.3,230.2,252.9,226.3,255.2z"/>
			<path class="st1" d="M222.4,270.9c-7.4,0-14.9-1.6-20.6-4.9c-5.6-3.2-8.7-7.6-8.7-12.2c0-4.6,3.1-9,8.7-12.2
				c11.3-6.6,29.8-6.6,41.1,0c5.6,3.2,8.7,7.6,8.7,12.2c0,4.6-3.1,9-8.7,12.2C237.3,269.2,229.9,270.9,222.4,270.9z M222.4,237.5
				c-7.3,0-14.5,1.6-20.1,4.8c-5.3,3.1-8.2,7.1-8.2,11.4c0,4.3,2.9,8.3,8.2,11.4c11.1,6.4,29.1,6.4,40.2,0c5.3-3.1,8.2-7.1,8.2-11.4
				c0-4.3-2.9-8.3-8.2-11.4C237,239.1,229.7,237.5,222.4,237.5z M219.3,257.3c-2.6,0-5.3-0.6-7.3-1.7c-2-1.2-3.1-2.8-3.1-4.5
				c0-1.7,1.1-3.3,3.1-4.5c4-2.3,10.5-2.3,14.5,0c2,1.2,3.1,2.8,3.1,4.5c0,1.7-1.1,3.3-3.1,4.5C224.6,256.7,221.9,257.3,219.3,257.3
				z M219.3,245.8c-2.5,0-4.9,0.5-6.8,1.6c-1.7,1-2.7,2.3-2.7,3.7c0,1.4,0.9,2.7,2.7,3.7c3.7,2.2,9.8,2.2,13.6,0
				c1.7-1,2.7-2.3,2.7-3.7c0-1.4-0.9-2.7-2.7-3.7C224.2,246.4,221.8,245.8,219.3,245.8z"/>
		</g>
	</g>
	<g>
		<path class="st1" d="M332.9,346l-1.6-0.9l0.5-0.8l1.6,0.9L332.9,346z M329.6,344.1l-1.6-0.9l0.5-0.8l1.6,0.9L329.6,344.1z
			 M326.4,342.2l-1.6-0.9l0.5-0.8l1.6,0.9L326.4,342.2z M323.1,340.3l-1.6-0.9l0.5-0.8l1.6,0.9L323.1,340.3z M319.8,338.4l-1.6-0.9
			l0.5-0.8l1.6,0.9L319.8,338.4z M316.5,336.5l-1.6-0.9l0.5-0.8l1.6,0.9L316.5,336.5z M313.3,334.6l-1.6-0.9l0.5-0.8l1.6,0.9
			L313.3,334.6z M310,332.7l-1.6-0.9l0.5-0.8l1.6,0.9L310,332.7z M306.7,330.9l-1.6-0.9l0.5-0.8l1.6,0.9L306.7,330.9z M303.4,329
			l-1.6-0.9l0.5-0.8l1.6,0.9L303.4,329z M300.2,327.1l-1.6-0.9l0.5-0.8l1.6,0.9L300.2,327.1z M296.9,325.2l-1.6-0.9l0.5-0.8l1.6,0.9
			L296.9,325.2z M293.6,323.3l-1.6-0.9l0.5-0.8l1.6,0.9L293.6,323.3z M290.3,321.4l-1.6-0.9l0.5-0.8l1.6,0.9L290.3,321.4z
			 M287.1,319.5l-1.6-0.9l0.5-0.8l1.6,0.9L287.1,319.5z M283.8,317.6l-1.6-0.9l0.5-0.8l1.6,0.9L283.8,317.6z M280.5,315.7l-1.6-0.9
			l0.5-0.8l1.6,0.9L280.5,315.7z M277.2,313.8l-1.6-0.9l0.5-0.8l1.6,0.9L277.2,313.8z M274,312l-1.6-0.9l0.5-0.8l1.6,0.9L274,312z
			 M270.7,310.1l-1.6-0.9l0.5-0.8l1.6,0.9L270.7,310.1z M267.4,308.2l-1.6-0.9l0.5-0.8l1.6,0.9L267.4,308.2z"/>
	</g>
	<g>
		<polygon class="st15" points="328.7,348.3 336.9,343.6 338.3,349.1 		"/>
	</g>
	<g>
		<path class="st1" d="M187.6,342.8l0-0.9c0.6,0,1.3,0,1.9,0l0,0.9C188.9,342.7,188.3,342.8,187.6,342.8z M185.7,342.7
			c-0.6,0-1.3,0-1.9-0.1l0.1-0.9c0.6,0,1.2,0.1,1.9,0.1L185.7,342.7z M191.4,342.6l-0.1-0.9c0.6,0,1.2-0.1,1.9-0.2l0.1,0.9
			C192.7,342.5,192.1,342.6,191.4,342.6z M181.9,342.5c-0.6-0.1-1.3-0.1-1.9-0.2l0.1-0.9c0.6,0.1,1.2,0.1,1.9,0.2L181.9,342.5z
			 M195.2,342.3l-0.1-0.9c0.6-0.1,1.2-0.2,1.9-0.3l0.2,0.9C196.5,342.1,195.9,342.2,195.2,342.3z M178.1,342
			c-0.6-0.1-1.3-0.2-1.9-0.3l0.2-0.9c0.6,0.1,1.2,0.2,1.8,0.3L178.1,342z M199,341.7l-0.2-0.9c0.6-0.1,1.2-0.3,1.8-0.4l0.2,0.9
			C200.2,341.4,199.6,341.5,199,341.7z M202.7,340.8l-0.2-0.9c0.6-0.2,1.2-0.3,1.8-0.5l0.3,0.9C203.9,340.4,203.3,340.6,202.7,340.8
			z M206.3,339.6l-0.3-0.9c0.6-0.2,1.2-0.4,1.7-0.7l0.4,0.9C207.5,339.2,206.9,339.4,206.3,339.6z M209.9,338.2l-0.4-0.9
			c0.6-0.3,1.1-0.5,1.7-0.8l0.4,0.8C211,337.6,210.5,337.9,209.9,338.2z M213.3,336.4l-0.5-0.8l1.6-0.9l0.3,0.4l0.2,0.4L213.3,336.4
			z M264.6,335.5c-0.3-0.2-0.6-0.3-0.9-0.5l0.4-0.8c0.3,0.2,0.6,0.3,0.9,0.5L264.6,335.5z M216.5,334.6l-0.4-0.8
			c0.6-0.3,1.1-0.6,1.7-0.8l0.4,0.9C217.6,334,217.1,334.3,216.5,334.6z M262,334.1c-0.6-0.3-1.1-0.5-1.7-0.8l0.4-0.9
			c0.6,0.2,1.2,0.5,1.7,0.8L262,334.1z M219.9,333l-0.3-0.9c0.6-0.2,1.2-0.5,1.8-0.7l0.3,0.9C221.1,332.6,220.5,332.8,219.9,333z
			 M258.5,332.7c-0.6-0.2-1.2-0.4-1.8-0.6l0.3-0.9c0.6,0.2,1.2,0.4,1.8,0.6L258.5,332.7z M223.5,331.8l-0.3-0.9
			c0.6-0.2,1.2-0.4,1.8-0.5l0.2,0.9C224.7,331.5,224.1,331.6,223.5,331.8z M255,331.5c-0.6-0.2-1.2-0.3-1.8-0.5l0.2-0.9
			c0.6,0.1,1.2,0.3,1.8,0.5L255,331.5z M227.1,330.9l-0.2-0.9c0.6-0.1,1.2-0.3,1.9-0.4l0.2,0.9C228.3,330.6,227.7,330.7,227.1,330.9
			z M251.3,330.7c-0.6-0.1-1.2-0.2-1.8-0.3l0.2-0.9c0.6,0.1,1.3,0.2,1.9,0.3L251.3,330.7z M230.8,330.2l-0.1-0.9
			c0.6-0.1,1.3-0.2,1.9-0.3l0.1,0.9C232,330,231.4,330.1,230.8,330.2z M247.6,330.1c-0.6-0.1-1.2-0.2-1.9-0.2l0.1-0.9
			c0.6,0.1,1.3,0.1,1.9,0.2L247.6,330.1z M234.5,329.8l-0.1-0.9c0.6-0.1,1.3-0.1,1.9-0.1l0.1,0.9
			C235.8,329.7,235.1,329.7,234.5,329.8z M243.9,329.7c-0.6,0-1.2-0.1-1.9-0.1l0-0.9c0.6,0,1.3,0.1,1.9,0.1L243.9,329.7z
			 M238.3,329.6l0-0.9c0.5,0,1,0,1.5,0l0.4,0l0,0.9l-0.4,0C239.2,329.5,238.7,329.5,238.3,329.6z"/>
	</g>
	<g>
		<path class="st1" d="M282.7,345.7l-1.6-0.9l0.5-0.8l1.6,0.9L282.7,345.7z M279.4,343.8l-1.6-0.9l0.5-0.8l1.6,0.9L279.4,343.8z
			 M276.1,342l-1.6-0.9l0.5-0.8l1.6,0.9L276.1,342z M272.8,340.1l-1.6-0.9l0.5-0.8l1.6,0.9L272.8,340.1z M269.5,338.3l-1.6-0.9
			l0.5-0.8l1.6,0.9L269.5,338.3z M266.2,336.4l-1.6-0.9l0.5-0.8l1.6,0.9L266.2,336.4z"/>
	</g>
	<g>
		<path class="st1" d="M286.1,350.4c-1.1,0-2.1-0.2-3-0.7c-0.9-0.5-1.4-1.2-1.4-2c0-0.8,0.5-1.5,1.4-2c1.7-1,4.3-1,5.9,0
			c0.9,0.5,1.4,1.2,1.4,2c0,0.8-0.5,1.5-1.4,2C288.3,350.2,287.2,350.4,286.1,350.4z M283.6,348.9c1.3,0.8,3.6,0.8,5,0
			c0.6-0.3,0.9-0.7,0.9-1.2c0-0.4-0.3-0.8-0.9-1.2c-1.3-0.8-3.6-0.8-5,0c-0.6,0.3-0.9,0.7-0.9,1.2
			C282.7,348.1,283.1,348.5,283.6,348.9L283.6,348.9z"/>
	</g>
	<g>
		<path class="st0" d="M487.9,409.2c-0.2,0-0.4-0.1-0.6-0.2l-5.4-5.4c-0.1-0.1-0.2-0.3-0.2-0.6c0-0.2,0.1-0.4,0.2-0.6l5.4-5.4
			c0.1-0.1,0.3-0.2,0.6-0.2c0.2,0,0.4,0.1,0.6,0.2l5.4,5.4c0.3,0.3,0.3,0.8,0,1.1l-5.4,5.4C488.3,409.1,488.1,409.2,487.9,409.2z
			 M483.7,403l4.3,4.3l4.3-4.3l-4.3-4.3L483.7,403z"/>
	</g>
	<g>
		
			<rect x="481.5" y="102.8" transform="matrix(0.7071 0.7071 -0.7071 0.7071 220.1623 -313.0041)" class="st16" width="12.8" height="12.8"/>
	</g>
	<g>
		<path class="st0" d="M289.8,104.7c-0.2,0-0.4-0.1-0.6-0.2l-5.9-5.9c-0.3-0.3-0.3-0.8,0-1.1l5.9-5.9c0.3-0.3,0.8-0.3,1.1,0l5.9,5.9
			c0.1,0.1,0.2,0.3,0.2,0.6c0,0.2-0.1,0.4-0.2,0.6l-5.9,5.9C290.2,104.7,290,104.7,289.8,104.7z M285,98l4.8,4.8l4.8-4.8l-4.8-4.8
			L285,98z"/>
	</g>
	<g>
		<g>
			<rect x="141.1" y="93.8" class="st0" width="1.6" height="6.1"/>
		</g>
		<g>
			<rect x="141.1" y="106.3" class="st0" width="1.6" height="6.1"/>
		</g>
		<g>
			<rect x="132.6" y="102.3" class="st0" width="6.1" height="1.6"/>
		</g>
		<g>
			<rect x="145.1" y="102.3" class="st0" width="6.1" height="1.6"/>
		</g>
	</g>
	<g>
		<g>
			<rect x="452.6" y="65.5" class="st0" width="1.6" height="6.1"/>
		</g>
		<g>
			<rect x="452.6" y="78" class="st0" width="1.6" height="6.1"/>
		</g>
		<g>
			<rect x="444.1" y="74" class="st0" width="6.1" height="1.6"/>
		</g>
		<g>
			<rect x="456.6" y="74" class="st0" width="6.1" height="1.6"/>
		</g>
	</g>
	<g>
		<path class="st0" d="M488.4,447.1h-0.9v-1.4h0.9V447.1z M488.4,443.9h-0.9V442h0.9V443.9z M488.4,440.1h-0.9v-1.9h0.9V440.1z
			 M488.4,436.3h-0.9v-1.9h0.9V436.3z M488.4,432.5h-0.9v-1.9h0.9V432.5z M488.4,428.7h-0.9v-1.9h0.9V428.7z M488.4,424.9h-0.9v-1.9
			h0.9V424.9z M488.4,421.2h-0.9v-1.9h0.9V421.2z M488.4,417.4h-0.9v-1.9h0.9V417.4z M488.4,413.6h-0.9v-1.9h0.9V413.6z"/>
	</g>
</g>
</svg>
