<?xml version="1.0" encoding="UTF-8"?><svg xmlns="http://www.w3.org/2000/svg" viewBox="0 0 611.43 549.54"><defs><style>.cls-1{fill:#6897b8;}.cls-2{fill:#688ad1;}.cls-3{fill:#eececa;}.cls-4,.cls-5{fill:#fff;}.cls-6{fill:#ffe7e7;}.cls-7{fill:#e6d3f4;}.cls-8{fill:#ff4d55;}.cls-9{fill:#e3b9fc;}.cls-10{fill:#bb3d49;}.cls-11{fill:#a6b7e5;}.cls-12{fill:#a4bee8;}.cls-13{fill:#d9e5fc;}.cls-14,.cls-15{fill:#d8958b;}.cls-16,.cls-17{fill:#d98394;}.cls-18{fill:#e1f0f5;}.cls-19{fill:#e2b2ab;}.cls-20,.cls-21{fill:#e21a23;}.cls-22,.cls-23{fill:#161c39;}.cls-24{fill:#440b7f;}.cls-25{fill:#06235b;}.cls-26{fill:#1d3576;}.cls-27{fill:#6f27cc;}.cls-28{fill:#4668b8;}.cls-29{fill:#3450a4;}.cls-30{fill:#2e4479;}.cls-31{fill:#5873b8;}.cls-32{fill:#496cbe;}.cls-33{mix-blend-mode:color-dodge;}.cls-34{opacity:.81;}.cls-35{opacity:.8;}.cls-36{fill:#390711;}.cls-36,.cls-37,.cls-38,.cls-23,.cls-15,.cls-17,.cls-21,.cls-39,.cls-5,.cls-40{fill-rule:evenodd;}.cls-37{fill:#581322;}.cls-38{fill:#24020c;}.cls-39{fill:#be685e;}.cls-40{fill:#e3e0e0;}.cls-41{isolation:isolate;}.cls-42{mix-blend-mode:multiply;opacity:.4;}</style></defs><g class="cls-41"><g id="Layer_2"><g id="Articles"><path class="cls-13" d="m149.53,525.76h373.2c54.54-50.31,88.71-122.37,88.71-202.42,0-152.05-123.26-275.31-275.31-275.31S60.81,171.29,60.81,323.34c0,80.05,34.17,152.12,88.71,202.42Z"/><circle class="cls-32" cx="526.09" cy="271.84" r="4.64"/><circle class="cls-32" cx="526.09" cy="288.91" r="4.64"/><circle class="cls-32" cx="526.09" cy="305.98" r="4.64"/><circle class="cls-32" cx="526.09" cy="323.06" r="4.64"/><circle class="cls-32" cx="526.09" cy="340.13" r="4.64"/><circle class="cls-32" cx="541.33" cy="271.84" r="4.64"/><circle class="cls-32" cx="541.33" cy="288.91" r="4.64"/><circle class="cls-32" cx="541.33" cy="305.98" r="4.64"/><circle class="cls-32" cx="541.33" cy="323.06" r="4.64"/><circle class="cls-32" cx="541.33" cy="340.13" r="4.64"/><circle class="cls-32" cx="556.58" cy="271.84" r="4.64"/><circle class="cls-32" cx="556.58" cy="288.91" r="4.64"/><circle class="cls-32" cx="556.58" cy="305.98" r="4.64"/><circle class="cls-32" cx="556.58" cy="323.06" r="4.64"/><circle class="cls-32" cx="556.58" cy="340.13" r="4.64"/><circle class="cls-32" cx="571.83" cy="271.84" r="4.64"/><circle class="cls-32" cx="571.83" cy="288.91" r="4.64"/><circle class="cls-32" cx="571.83" cy="305.98" r="4.64"/><circle class="cls-32" cx="571.83" cy="323.06" r="4.64"/><circle class="cls-32" cx="571.83" cy="340.13" r="4.64"/><circle class="cls-32" cx="587.07" cy="271.84" r="4.64"/><circle class="cls-32" cx="587.07" cy="288.91" r="4.64"/><circle class="cls-32" cx="587.07" cy="305.98" r="4.64"/><circle class="cls-32" cx="587.07" cy="323.06" r="4.64"/><circle class="cls-32" cx="587.07" cy="340.13" r="4.64"/><circle class="cls-32" cx="602.32" cy="271.84" r="4.64"/><circle class="cls-32" cx="602.32" cy="288.91" r="4.64"/><circle class="cls-32" cx="602.32" cy="305.98" r="4.64"/><circle class="cls-32" cx="602.32" cy="323.06" r="4.64"/><circle class="cls-32" cx="602.32" cy="340.13" r="4.64"/><ellipse class="cls-11" cx="336.12" cy="531.48" rx="216.15" ry="18.06"/><circle class="cls-32" cx="44.2" cy="393.55" r="4.64"/><circle class="cls-32" cx="44.2" cy="410.62" r="4.64"/><circle class="cls-32" cx="44.2" cy="427.69" r="4.64"/><circle class="cls-32" cx="44.2" cy="444.77" r="4.64"/><circle class="cls-32" cx="44.2" cy="461.84" r="4.64"/><circle class="cls-32" cx="59.45" cy="393.55" r="4.64"/><circle class="cls-32" cx="59.45" cy="410.62" r="4.64"/><circle class="cls-32" cx="59.45" cy="427.69" r="4.64"/><circle class="cls-32" cx="59.45" cy="444.77" r="4.64"/><circle class="cls-32" cx="59.45" cy="461.84" r="4.64"/><circle class="cls-32" cx="74.7" cy="393.55" r="4.64"/><circle class="cls-32" cx="74.7" cy="410.62" r="4.64"/><circle class="cls-32" cx="74.7" cy="427.69" r="4.64"/><circle class="cls-32" cx="74.7" cy="444.77" r="4.64"/><circle class="cls-32" cx="74.7" cy="461.84" r="4.64"/><circle class="cls-32" cx="89.94" cy="393.55" r="4.64"/><circle class="cls-32" cx="89.94" cy="410.62" r="4.64"/><circle class="cls-32" cx="89.94" cy="427.69" r="4.64"/><circle class="cls-32" cx="89.94" cy="444.77" r="4.64"/><circle class="cls-32" cx="89.94" cy="461.84" r="4.64"/><circle class="cls-32" cx="105.19" cy="393.55" r="4.64"/><circle class="cls-32" cx="105.19" cy="410.62" r="4.64"/><circle class="cls-32" cx="105.19" cy="427.69" r="4.64"/><circle class="cls-32" cx="105.19" cy="444.77" r="4.64"/><circle class="cls-32" cx="105.19" cy="461.84" r="4.64"/><circle class="cls-32" cx="120.44" cy="393.55" r="4.64"/><circle class="cls-32" cx="120.44" cy="410.62" r="4.64"/><circle class="cls-32" cx="120.44" cy="427.69" r="4.64"/><circle class="cls-32" cx="120.44" cy="444.77" r="4.64"/><circle class="cls-32" cx="120.44" cy="461.84" r="4.64"/><path class="cls-16" d="m219.92,210.6l-32.41-7.54-7.06-35.6,32.41,7.54,7.06,35.6Zm-30.92-8.99l28.67,6.67-6.31-31.83-28.67-6.67,6.31,31.83Z"/><path class="cls-16" d="m218.21,210.94l-7.06-35.6,27.08-19.34,7.06,35.6-27.08,19.34Zm-5.12-34.83l6.31,31.83,23.96-17.11-6.31-31.83-23.96,17.11Z"/><path class="cls-16" d="m212.3,176.67l-32.9-7.66,27.74-18.38,32.66,6.4-27.49,19.63Zm-28.56-8.44l28.18,6.56,23.55-16.82-27.97-5.48-23.76,15.74Z"/><circle class="cls-20" cx="207.32" cy="151.57" r="2.46"/><circle class="cls-20" cx="237.63" cy="157.51" r="2.46"/><circle class="cls-20" cx="244.39" cy="191.55" r="2.46"/><circle class="cls-20" cx="218.8" cy="209.44" r="2.46"/><circle class="cls-20" cx="212.12" cy="175.73" r="2.46"/><circle class="cls-10" cx="181.57" cy="168.62" r="2.46"/><circle class="cls-20" cx="188.24" cy="202.27" r="2.46"/><path class="cls-16" d="m420.08,132.46l-22.31-24.69,14.52-33.26,22.31,24.69-14.52,33.26Zm-20.25-25.03l19.74,21.85,12.99-29.74-19.74-21.85-12.99,29.74Z"/><path class="cls-16" d="m418.48,131.76l14.52-33.26,33.28-.42-14.52,33.26-33.28.42Zm15.67-31.52l-12.99,29.74,29.44-.37,12.99-29.74-29.44.37Z"/><path class="cls-16" d="m433.19,100.25l-22.65-25.07,33.27.75,23.16,23.89-33.78.43Zm-18.63-23.23l19.4,21.47,28.93-.37-19.84-20.47-28.49-.64Z"/><circle class="cls-10" cx="443.43" cy="76.79" r="2.46"/><circle class="cls-10" cx="464.93" cy="98.97" r="2.46"/><circle class="cls-10" cx="451.04" cy="130.78" r="2.46"/><circle class="cls-10" cx="419.82" cy="130.87" r="2.46"/><circle class="cls-10" cx="433.57" cy="99.37" r="2.46"/><circle class="cls-10" cx="412.55" cy="76.1" r="2.46"/><circle class="cls-10" cx="398.82" cy="107.54" r="2.46"/><g class="cls-34"><path class="cls-2" d="m82.37,295.38s0,.06.01.09l1.18,39.24c-.35-11.82,18.75-23.13,50.16-32.01l-1.18-39.34c-31.42,8.87-50.53,20.19-50.17,32.01Z"/><g class="cls-35"><path class="cls-4" d="m120.05,280.13c-20.47,6.95-33.81,15.07-37.24,23.6.07,1.76.12,3.53.16,5.29,3.81-8.61,17.7-16.79,38.8-23.76,1.14-.38,1.91-1.46,1.88-2.66h0c-.06-1.82-1.87-3.07-3.6-2.48Z"/></g><g class="cls-35"><path class="cls-4" d="m120.05,290.74c-19.98,6.79-33.14,14.69-36.95,23,.01,1.86,0,3.72,0,5.58,4.02-8.49,17.83-16.56,38.67-23.43,1.14-.38,1.91-1.46,1.88-2.66h0c-.06-1.83-1.87-3.07-3.6-2.48Z"/></g><path class="cls-6" d="m241.22,238.94v68.43c0,4.21-2.71,8.21-6.11,8.94l-105.04,22.48c-5.5,1.18-10.05-2.31-10.05-7.81v-89.3c0-5.5,4.55-9.97,10.05-9.99l105.04-.36c3.4-.01,6.11,3.4,6.11,7.61Z"/><path class="cls-8" d="m241.22,238.94v.95l-121.2,3.04v-1.24c0-5.5,4.55-9.97,10.05-9.99l105.04-.36c3.4-.01,6.11,3.4,6.11,7.61Z"/><path class="cls-3" d="m135.9,237.1c0,1.62-1.31,2.96-2.95,2.99-1.64.03-2.98-1.27-2.98-2.91s1.34-2.98,2.98-3c1.63-.01,2.95,1.29,2.95,2.91Z"/><path class="cls-3" d="m145.98,236.96c0,1.59-1.26,2.9-2.83,2.93-1.58.03-2.86-1.25-2.86-2.85s1.29-2.92,2.86-2.93c1.57-.01,2.83,1.26,2.83,2.85Z"/><path class="cls-3" d="m155.67,236.82c0,1.56-1.21,2.84-2.72,2.87-1.51.03-2.75-1.22-2.75-2.8s1.23-2.86,2.75-2.88c1.5-.01,2.72,1.24,2.72,2.8Z"/><path class="cls-8" d="m181.73,263.8l18.6,9.8c1.74.92,1.74,3.8,0,5.08l-18.6,13.72c-1.83,1.35-4.08.19-4.08-2.11v-23.51c0-2.31,2.25-3.94,4.08-2.97Z"/><path class="cls-8" d="m234.66,317.56l-103.87,22.23c-5.89,1.26-10.76-2.48-10.76-8.38v-7.6l121.2-21.67v5.83c0,4.52-2.91,8.81-6.56,9.59Z"/><path class="cls-4" d="m236.87,308.85c-.17-.84-.98-1.38-1.82-1.22l-31.31,6.15s0-.02,0-.02l-59.56,11.72c-.84.16-1.39.98-1.22,1.82.15.74.79,1.25,1.52,1.25.1,0,.2,0,.3-.03l57.22-11.26s0,.01,0,.02l33.65-6.61c.84-.16,1.39-.98,1.22-1.82Z"/><path class="cls-3" d="m129.48,331.49c-.73,0-1.37-.51-1.52-1.25-.16-.84.38-1.65,1.22-1.82l27.8-5.46c.84-.17,1.65.38,1.82,1.22.16.84-.38,1.65-1.22,1.82l-27.8,5.46c-.1.02-.2.03-.3.03Z"/><path class="cls-3" d="m228.74,310.08c0,3.04-2.34,6-5.27,6.61-2.96.62-5.38-1.4-5.38-4.52s2.43-6.08,5.38-6.63c2.92-.54,5.27,1.5,5.27,4.54Z"/><path class="cls-1" d="m226.08,310.6c0,1.51-1.16,2.97-2.61,3.26-1.45.29-2.64-.7-2.64-2.23s1.18-2.99,2.64-3.26c1.44-.28,2.61.73,2.61,2.23Z"/><path class="cls-25" d="m82.32,293.39l1.18,39.34c.6,20.1,57.37,35.37,134.59,38.45l-1.18-39.35c-77.22-3.07-133.99-18.35-134.59-38.44Z"/></g><path class="cls-9" d="m84.26,155.54l-10.62-6.35c-1.77-1.06-4.06-.48-5.12,1.29l-4,6.7c-.83,1.39-2.45,2.06-4.03,1.72-1.75-.38-3.5-.63-5.27-.77-1.6-.12-2.94-1.28-3.33-2.84l-1.9-7.54c-.5-2-2.53-3.21-4.53-2.71l-12,3.02c-2,.5-3.21,2.53-2.71,4.53l1.9,7.54c.39,1.56-.23,3.21-1.59,4.08-1.49.95-2.91,2.01-4.27,3.17-1.23,1.05-2.98,1.22-4.37.39l-6.7-4c-1.77-1.06-4.06-.48-5.12,1.29l-6.35,10.62c-1.06,1.77-.48,4.06,1.29,5.12l6.7,4c1.39.83,2.06,2.45,1.72,4.03-.38,1.75-.63,3.5-.77,5.26-.12,1.6-1.28,2.94-2.84,3.33l-7.54,1.9c-2,.5-3.21,2.53-2.71,4.53l3.02,12c.5,2,2.53,3.21,4.53,2.71l7.54-1.9c1.56-.39,3.21.23,4.08,1.59.95,1.49,2.01,2.91,3.17,4.27,1.05,1.23,1.22,2.98.39,4.37l-4,6.7c-1.06,1.77-.48,4.06,1.29,5.12l10.62,6.35c1.77,1.06,4.06.48,5.12-1.29l4-6.7c.83-1.39,2.45-2.06,4.03-1.72,1.75.38,3.5.63,5.27.77,1.6.12,2.94,1.28,3.33,2.84l1.9,7.53c.5,2,2.53,3.21,4.53,2.71l12-3.02c2-.5,3.21-2.53,2.71-4.53l-1.9-7.54c-.39-1.56.23-3.21,1.59-4.08,1.49-.95,2.91-2.01,4.27-3.17,1.23-1.05,2.98-1.22,4.37-.39l6.7,4c1.77,1.06,4.06.48,5.12-1.29l6.35-10.62c1.06-1.77.48-4.06-1.29-5.12l-6.7-4c-1.39-.83-2.06-2.45-1.72-4.03.38-1.75.63-3.5.77-5.27.12-1.6,1.28-2.94,2.84-3.33l7.54-1.9c2-.5,3.21-2.53,2.71-4.53l-3.02-12c-.5-2-2.53-3.21-4.53-2.71l-7.53,1.9c-1.56.39-3.21-.23-4.08-1.59-.95-1.49-2.01-2.91-3.17-4.27-1.05-1.23-1.22-2.98-.39-4.37l4-6.7c1.06-1.77.48-4.06-1.29-5.12Zm-24.15,28.34c7.31,4.37,9.7,13.86,5.33,21.17-4.37,7.31-13.86,9.7-21.17,5.33-7.31-4.37-9.7-13.86-5.33-21.17,4.37-7.31,13.86-9.7,21.17-5.33Z"/><path class="cls-9" d="m420.13,1.13L411.93.02c-1.26-.17-2.42.71-2.59,1.97l-.7,5.23c-.13.98-.87,1.77-1.84,1.95-1.2.23-2.38.54-3.52.93-.94.32-1.97,0-2.57-.78l-3.2-4.2c-.77-1.01-2.21-1.21-3.22-.43l-6.59,5.02c-1.01.77-1.2,2.21-.43,3.22l3.2,4.2c.6.79.63,1.87.07,2.69-.68,1-1.3,2.05-1.83,3.15-.43.89-1.39,1.39-2.37,1.26l-5.23-.7c-1.26-.17-2.42.71-2.59,1.97l-1.11,8.21c-.17,1.26.71,2.42,1.97,2.59l5.23.7c.98.13,1.77.87,1.95,1.84.23,1.2.54,2.38.93,3.52.32.94,0,1.97-.78,2.57l-4.2,3.2c-1.01.77-1.2,2.21-.43,3.22l5.02,6.59c.77,1.01,2.21,1.2,3.22.43l4.2-3.2c.79-.6,1.87-.63,2.69-.07,1,.68,2.05,1.3,3.15,1.83.89.43,1.39,1.39,1.26,2.37l-.7,5.23c-.17,1.26.71,2.42,1.97,2.59l8.21,1.11c1.26.17,2.42-.71,2.59-1.97l.7-5.23c.13-.98.87-1.77,1.84-1.95,1.2-.23,2.38-.54,3.52-.93.94-.32,1.97,0,2.57.78l3.2,4.2c.77,1.01,2.21,1.2,3.22.43l6.58-5.02c1.01-.77,1.2-2.21.43-3.22l-3.2-4.2c-.6-.79-.63-1.87-.07-2.69.68-1,1.3-2.05,1.83-3.15.43-.89,1.39-1.39,2.37-1.26l5.23.7c1.26.17,2.42-.71,2.59-1.97l1.11-8.21c.17-1.26-.71-2.42-1.97-2.59l-5.23-.7c-.98-.13-1.77-.87-1.95-1.84-.23-1.2-.54-2.38-.93-3.52-.32-.94,0-1.97.78-2.57l4.2-3.2c1.01-.77,1.2-2.21.43-3.22l-5.02-6.58c-.77-1.01-2.21-1.2-3.22-.43l-4.2,3.2c-.79.6-1.87.63-2.69.07-1-.68-2.05-1.3-3.15-1.83-.89-.43-1.39-1.39-1.26-2.37l.7-5.23c.17-1.26-.71-2.42-1.97-2.59Zm-6.89,20.11c7.11.96,12.11,7.52,11.15,14.63-.96,7.11-7.52,12.11-14.63,11.15-7.11-.96-12.11-7.52-11.15-14.63.96-7.11,7.52-12.11,14.63-11.15Z"/><g class="cls-35"><path class="cls-25" d="m225.85,30.06v105.26c23.63-3.09,49.27-4.78,76.05-4.78,40.04,0,77.51,3.76,109.61,10.34V35.6c-32.09-6.56-69.57-10.32-109.61-10.32-26.78,0-52.42,1.69-76.05,4.78Z"/><path class="cls-12" d="m305.54,36.71c-22.52.13-44.54,1.51-65.57,4.09-1.13.14-1.96,1.1-1.95,2.24,0,.02,0,.03,0,.05,0,1.34,1.16,2.36,2.49,2.2,20.86-2.56,42.71-3.93,65.07-4.06,1.22,0,2.21-.99,2.22-2.2,0-.02,0-.03,0-.05.01-1.25-1.01-2.27-2.26-2.27Z"/><path class="cls-12" d="m305.45,46.72c-22.48.13-44.47,1.51-65.46,4.09-1.12.14-1.96,1.1-1.96,2.23v.05c0,1.34,1.17,2.37,2.5,2.21,20.83-2.56,42.65-3.92,64.96-4.05,1.22,0,2.21-.99,2.22-2.2,0-.02,0-.03,0-.05.01-1.25-1.01-2.27-2.26-2.27Z"/><path class="cls-12" d="m305.38,56.72c-22.46.14-44.41,1.51-65.38,4.09-1.12.14-1.96,1.1-1.96,2.23v.05c0,1.34,1.17,2.37,2.5,2.21,20.81-2.56,42.6-3.92,64.89-4.05,1.22,0,2.22-.99,2.22-2.22,0-.02,0-.03,0-.05,0-1.24-1.01-2.26-2.26-2.25Z"/><path class="cls-12" d="m262.32,68.55c-7.54.6-14.99,1.35-22.32,2.25-1.12.14-1.96,1.1-1.96,2.23v.05c0,1.34,1.17,2.37,2.5,2.21,7.27-.89,14.66-1.63,22.15-2.23,1.15-.09,2.05-1.04,2.06-2.2,0-.02,0-.03,0-.05.01-1.31-1.11-2.36-2.43-2.26Z"/><path class="cls-12" d="m330.98,83.78c22.52.13,44.54,1.51,65.57,4.09,1.13.14,1.96,1.1,1.95,2.24,0,.02,0,.03,0,.05,0,1.34-1.16,2.36-2.49,2.2-20.86-2.56-42.71-3.93-65.07-4.06-1.22,0-2.21-.99-2.22-2.2,0-.02,0-.03,0-.05-.01-1.25,1.01-2.27,2.26-2.27Z"/><path class="cls-12" d="m331.07,93.78c22.48.13,44.47,1.51,65.46,4.09,1.12.14,1.96,1.1,1.96,2.23v.05c0,1.34-1.17,2.37-2.5,2.21-20.83-2.56-42.65-3.92-64.96-4.05-1.22,0-2.21-.99-2.22-2.2,0-.02,0-.03,0-.05-.01-1.25,1.01-2.27,2.26-2.27Z"/><path class="cls-12" d="m331.14,103.78c22.46.14,44.41,1.51,65.38,4.09,1.12.14,1.96,1.1,1.96,2.23v.05c0,1.34-1.17,2.37-2.5,2.21-20.81-2.56-42.6-3.92-64.89-4.05-1.22,0-2.22-.99-2.22-2.22,0-.02,0-.03,0-.05,0-1.24,1.01-2.26,2.26-2.25Z"/><path class="cls-12" d="m374.2,115.62c7.54.6,14.99,1.35,22.32,2.25,1.12.14,1.96,1.1,1.96,2.23v.05c0,1.34-1.17,2.37-2.5,2.21-7.27-.89-14.66-1.63-22.15-2.23-1.15-.09-2.05-1.04-2.06-2.2,0-.01,0-.03,0-.05-.01-1.31,1.11-2.36,2.43-2.26Z"/></g><g class="cls-35"><path class="cls-6" d="m431.56,115.4v103.64c2.2.21,4.36.44,6.5.67,8.74.91,16.93,1.89,24.59,2.96,4.81.65,9.4,1.33,13.81,2.05,12.55,2.02,23.45,4.24,32.88,6.62,37.94,9.59,51.89,21.92,51.89,35.37v-103.66c0-20.28-31.73-38.03-129.66-47.66Z"/><path class="cls-4" d="m446.2,137.33h0c0,1.64,1.25,3.01,2.88,3.17,84.62,8.62,112.14,24.21,112.14,42v-6.42c0-17.74-27.39-33.31-111.51-41.93-1.88-.19-3.51,1.29-3.51,3.17Z"/><path class="cls-4" d="m446.2,150.26h0c0,1.64,1.25,3.01,2.88,3.17,84.62,8.62,112.14,24.21,112.14,42v-6.42c0-17.74-27.39-33.31-111.51-41.93-1.88-.19-3.51,1.29-3.51,3.17Z"/><path class="cls-4" d="m446.2,163.2h0c0,1.64,1.25,3.01,2.88,3.17,84.62,8.62,112.14,24.21,112.14,42v-6.42c0-17.74-27.39-33.31-111.51-41.93-1.88-.19-3.51,1.29-3.51,3.17Z"/><path class="cls-4" d="m446.2,176.14h0c0,1.64,1.25,3.01,2.88,3.17,84.62,8.62,112.14,24.21,112.14,42v-6.42c0-17.74-27.39-33.31-111.51-41.93-1.88-.19-3.51,1.29-3.51,3.17Z"/><path class="cls-4" d="m446.2,189.07h0c0,1.64,1.25,3.01,2.88,3.17,84.62,8.62,112.14,24.21,112.14,42v-6.42c0-17.74-27.39-33.31-111.51-41.93-1.88-.19-3.51,1.29-3.51,3.17Z"/><path class="cls-4" d="m509.95,212.07c-.02-2.02,1.88-3.52,3.84-3.03,34.71,8.56,47.42,19.63,47.42,31.72v6.42c0-12.26-13.07-23.48-48.88-32.09-1.38-.33-2.37-1.55-2.38-2.96,0-.02,0-.04,0-.06Z"/><g class="cls-35"><path class="cls-3" d="m533.02,194.63v103.66c17.78-8.9,28.2-19.68,28.2-31.31v-103.66c0,11.61-10.42,22.4-28.2,31.31Z"/></g></g><path class="cls-9" d="m552.28,392.89c-.4,1.51-.89,3.04-1.48,4.6-5.4,14.21-16.66,21.63-28.81,23.45-22.53,3.41-48.13-12.36-45.18-39.63.28-2.62.86-5.2,1.72-7.67,3.43-10.06,11.21-18.65,21.06-22.72,5.09-2.1,10.42-3.1,15.66-3.11,22.9-.05,44.12,18.58,37.03,45.09Z"/><path class="cls-24" d="m515.26,347.8c-1.41,4.1-.82,8.86,1.38,12.57,1.42,2.41,4.81,5.03,5,9.11.09,1.82-2.2,2.74-3.71,3.77-3.4,2.31-5.33,6.56-5.02,10.67.3,4.1,2.74,7.95,6.22,10.15,4.44,2.81,10.1,2.93,15.28,2.02,5.74-1,12.01-4.18,17.88-3.2,7.1-26.51-14.12-45.14-37.03-45.09Zm-7.89,54.56c-2.3-.94-4.64-2.83-4.83-5.31-.42-5.42,4.95-10.2,3.89-18.53-.32-2.52-2.18-4.62-4.22-6.15-8.72-6.51-23.43.55-23.67,1.25-.86,2.47-1.44,5.05-1.72,7.67-2.95,27.27,22.65,43.05,45.18,39.63.82-6.07-3.43-14.02-14.62-18.57Z"/><path class="cls-27" d="m572.94,358.11c-.48,2.27-1.98,4.22-3.37,6.04-4.53,5.96-10.02,11.05-16.01,15.53-5.86,4.38-12.17,8.15-18.56,11.57-14.65,7.84-29.97,14.49-45.65,19.95-.29.1-.58.21-.86.3-3.52,1.22-7.06,2.38-10.62,3.47-4.06,1.24-8.41,3.01-12.7,2.69-3.71-.28-7.34-2.76-8.03-6.57-.71-3.89,1.86-7.18,4.44-9.75,4.7-4.66,9.73-8.99,15.13-12.87.14,1.77.42,3.48.79,5.13-4.55,3.81-8.97,7.91-12.78,12.41-1.43,1.69-3.17,4.44-.17,5.51,2.92,1.06,6.78-.79,9.57-1.63,3.27-1.01,6.54-2.05,9.78-3.15,3.83-1.29,7.63-2.67,11.4-4.1,13.44-5.14,26.69-11.05,39.23-18.15,6.16-3.49,12.16-7.39,17.61-11.91,4.48-3.71,8.59-7.85,12.14-12.52.8-1.06,1.54-2.1,2.04-3.28t-.03,0c-.34-.04-.59-.17-1.09-.23-3.1-.29-6.93.56-10.11,1.11-3.53.59-7.06,1.34-10.53,2.25-1.74-1.87-3.72-3.53-5.86-4.98,6.67-2.37,13.56-3.99,20.65-4.78,3.75-.43,8.36-1.12,11.5,1.52,1.86,1.57,2.6,4.09,2.1,6.45Z"/><path class="cls-8" d="m454.72,449.37c3.67,2.77,9.05,3.04,12.98.65,9.53-5.78,5.06-20.58-5.58-21.39-11.06-.84-16.09,14.17-7.4,20.74Z"/><g class="cls-35"><path class="cls-2" d="m461.61,270.65v-37.91c17.78,8.9,28.2,19.68,28.2,31.31v37.91c0-11.61-10.42-22.4-28.2-31.31Z"/><path class="cls-25" d="m437.93,299.67c-6.98,1.77-14.77,3.44-23.44,5.01.04,12.63.08,25.26.11,37.89,55.68-10.1,75.21-24.45,75.21-40.36v-37.91c0,13.45-13.95,25.78-51.89,35.37Z"/><g class="cls-35"><path class="cls-4" d="m469.78,251.54v.08c.02,1,.54,1.93,1.39,2.48,11.89,7.72,18.65,16.52,18.65,25.87v-7.36c0-8.42-5.48-16.39-15.25-23.53-2-1.46-4.82-.01-4.79,2.47Z"/></g><g class="cls-35"><path class="cls-4" d="m469.89,264.1s0,.05,0,.07c0,1.01.54,1.95,1.39,2.5,11.83,7.71,18.54,16.48,18.54,25.8v-7.36c0-8.39-5.44-16.33-15.13-23.45-1.99-1.46-4.81-.03-4.8,2.44Z"/></g></g><g class="cls-33"><path class="cls-4" d="m392.84,209.31c1.23,1.27,2.18,2.47,2.84,3.4l-2.84-3.4Z"/><path d="m395.39,212.95l-2.84-3.4.56-.5c1.03,1.06,2,2.22,2.87,3.44l-.59.46Z"/></g><path class="cls-29" d="m432.97,485.6c0,3.1-.76,7.71-2.39,12.85-3.44,10.92-10.76,24.18-22.87,30.25-12.12,6.06-38.37,3.82-53.95,1.77-1.59-.21-3.07-.42-4.41-.61h-.02c-4.85-.72-7.9-1.28-7.9-1.28l-1.31.08-25.75,1.47-36.27,2.07-15.23.87-.76.05s-2.09-.72-5.63-2.02c-.29-.11-.44-.17-.44-.17-1.74-.65-3.8-1.43-6.12-2.33-2.06-.81-4.33-1.7-6.75-2.68-.03-.02-.06-.02-.09-.04h0c-4.34-1.77-9.17-3.81-14.21-6.07-.06-.02-.13-.05-.19-.08-17.28-7.75-36.95-18.05-47.73-28.65,0,0,0,0,0,0-6.16-6.07-9.4-12.24-7.61-18.08,8.17-26.75,22.29-28.25,22.29-28.25l56.4,8.8c.17.02.3.05.38.05l.1.02,62.32,9.72,2.52-8.82,24.07,8.36,6.68.89,4.65.62,23.42,1.51.64-.17.2-.05,41.46-11.1c1.36,3.14,14.49,21.82,14.49,31.06Z"/><path class="cls-25" d="m335.38,524.04c3.63,2.62,8.6,4.49,13.94,5.82-4.85-.72-7.9-1.28-7.9-1.28l-63.33,3.62-38.26-55.14-2.86-3.14c-7.73-6.53-15.82-13-18.68-14.07-6.04-2.27-13.6-1.51-13.6-1.51l9.82-2.27c3.94-.32,8.03,1.02,12,3.34l37.85,11.01,67.23-5.29,9.16,5.86-15.21,25.11s-3.78,18.13,9.82,27.95Z"/><path class="cls-25" d="m401.86,471.92l-.02.08-5.43,20.05-4.37,16.13-30.31-5.85s-.02,0-.04,0l-1.73-.34-33.37-6.44-1.03-.2s5.66-13.05,12.68-22.65c.02-.02.02-.04.04-.05,2.08-2.83,4.27-5.36,6.47-7.15.15-.12.31-.24.46-.36.76-.58,1.75-1.03,2.91-1.37,5.2-1.52,14.07-.75,23.11.81,0,0,.02,0,.04,0,1.93.33,3.86.69,5.76,1.09,12.36,2.52,23.64,5.91,24.75,6.25.03,0,.05,0,.07.02.02,0,.02,0,.02,0Z"/><path class="cls-31" d="m401.77,471.89c-1.98-.44-37.31-8.2-50.52-5.26-5.01,1.11-9.42,3.42-13.01,6.06,2.09-2.85,4.29-5.39,6.5-7.21.15-.12.31-.24.46-.36,9.57-7.36,54.3,6.08,56.56,6.78Z"/><path class="cls-25" d="m430.58,498.45c-3.44,10.92-10.76,24.18-22.87,30.25-12.12,6.06-38.37,3.82-53.95,1.77,23.93,2.64,27.71-26.82,27.71-26.82l6.8,13.6s11.33,6.8,21.15,4.53c7.38-1.71,16.91-16.22,21.17-23.32Z"/><path class="cls-31" d="m228.69,519.72c-27.16-12.18-60.26-30.66-55.34-46.74,8.17-26.75,22.29-28.25,22.29-28.25l56.4,8.8c-5.14-.74-50.78-7.21-57.91-5.78-7.55,1.51-19.64,25.68-18.13,32.48,1.31,5.89,22.81,25.28,52.69,39.49Z"/><path class="cls-4" d="m340.67,538.39c-2.17,1.24-12.07,1.59-23.38,1.52-.08,0-.18,0-.32,0-4.57-.03-9.36-.13-13.95-.26-11.68-.35-22.07-.93-24.29-1.25-4.79-.69-19.53-6.27-22.25-7.31-.29-.11-.44-.17-.44-.17l4.23-12.42h0s2.73-8.04,2.73-8.04c0,0,16.47,9.81,22.52,10.57,2.18.27,7.09-.92,12.95-2.28h0c10.42-2.42,23.82-5.36,30.1-1.5,4.79,2.95,9.04,7.33,11.53,11.41,2.61,4.28,3.26,8.2.56,9.74Z"/><g class="cls-33"><path class="cls-4" d="m316.98,539.9c-16.2-.11-35.15-1.07-38.25-1.51-5.29-.76-22.68-7.48-22.68-7.48l4.23-12.42-1.19,10.08s17.37,7.55,23.42,9.06c5.57,1.39,30.59,2.15,34.47,2.27Z"/><path d="m316.97,540.28c-16.42-.11-35.17-1.07-38.3-1.51-5.27-.75-22.05-7.22-22.77-7.5l-.34-.13,5.49-16.11-1.57,13.31c2.17.94,17.56,7.55,23.1,8.93,5.39,1.34,29.59,2.11,34.39,2.26v.75Zm-60.46-9.58c2.44.94,17.48,6.65,22.27,7.33.97.14,3.45.32,6.89.52-1.37-.17-2.49-.35-3.26-.54-6-1.5-22.77-8.78-23.48-9.08l-.26-.11.81-6.84-2.97,8.73Z"/></g><path class="cls-26" d="m390.27,468.14l31.98,12.09s-10.58-17.37-22.66-18.13c-12.09-.76-21.91,3.02-21.91,3.02l12.58,3.02Z"/><path class="cls-30" d="m401.53,265.55s-21.6,35.76-14.44,56.26c7.16,20.49,17.86,40.9,18.13,64.4,0,0-8.38,19.42-28.74,26.28,0,0,5.26-8.99,1.06-21.56-4.2-12.57-18.13-33.34-20.32-53.83-2.19-20.49,7.65-49.82,7.65-49.82l36.66-21.73Z"/><path class="cls-5" d="m267.25,280.36s-4.84.25-8.76,5.53c-3.91,5.29-3.66,25.74-3.66,25.74,0,0,9.82-4.56,12.42-14.13,2.61-9.56,0-17.15,0-17.15Z"/><path d="m254.46,312.22v-.58c0-.05-.06-5.2.36-10.92.57-7.73,1.71-12.8,3.37-15.05,3.97-5.37,8.83-5.67,9.04-5.68h.28s.09.25.09.25c.03.08,2.61,7.8,0,17.37-2.62,9.62-12.53,14.32-12.63,14.37l-.53.24Zm12.52-31.45c-.45.06-1.38.24-2.53.74-1.5.64-3.7,1.96-5.66,4.61-3.42,4.62-3.59,21.48-3.59,24.91,2.06-1.11,9.51-5.6,11.69-13.61,2.26-8.31.52-15.18.09-16.64Z"/><path class="cls-19" d="m225.05,238.68s.17,1.73.89,3.26c0,0,2.97,8.57,10.5,15.49,7.5,6.92,17.31,13.76,18.83,17.59l.61,1.64c1.99,6.32,6.46,24,6.46,24,0,0,.81.17,2.11-.06,1.87-.29,4.76-1.44,7.47-5.28,0,0-5.39-13.9-5.1-19.01.26-5.08,7.04-12.6,6.23-16.99-.81-4.36-5.65-6.69-10.21-10.33-4.56-3.63-6.84-11.19-7.79-11.48-.95-.26-3.03,3.61-2.37,7.33.69,3.75,5.71,5.16,7.33,6.6,1.64,1.47,2.11,2.68,2.11,2.68,0,0-.84.2-2.13.23-1.87,0-4.67-.32-7.41-2.08-2.31-1.47-3.84-4.15-5.13-6.81-1.36-2.83-2.45-5.68-3.81-7.1-2.65-2.77-7.64-4.15-8.28-3.46-.14.17.4,1.18,1.36,2.68l.06.12c3.17,4.96,10.41,14.74,10.41,14.74l-1.67-.26s-1.15-.78-2.77-2.45l-.03-.03c-.98-.98-2.13-2.34-3.26-4.01-3-4.41-4.47-7.15-8.39-8.91-3.92-1.79-6.84-1.24-7.18-.84-.37.43,1.18,2.71,1.18,2.71Z"/><path class="cls-15" d="m225.05,238.68s6.69,2.13,11.05,11.34c0,0,2.94,4.15,9.2,6.4,6.29,2.25,15.23,3.35,16.32,8.57,1.1,5.25-6.35,10.04-6.35,10.04l.61,1.64,6.46,24c1.87-.29,6.86-1.5,9.58-5.34,0,0-5.39-13.9-5.1-19.01.26-5.08,7.04-12.6,6.23-16.99,0,0-4.33,3.4-8.71,2.6-4.36-.81-4.36-7.56-4.36-7.56-1.87,0-4.67-.32-7.41-2.08-2.31-1.47-3.84-4.15-5.13-6.81-.29.89-.95,2.11-2.22,1.87-2.02-.35-8.51-9.75-8.51-9.75l.06.12c3.17,4.96,10.41,14.74,10.41,14.74l-1.67-.26s-1.15-.78-2.77-2.45l-.03-.03c-.98-.98-2.13-2.34-3.26-4.01-3-4.41-4.47-7.15-8.39-8.91-3.92-1.79-6.84-1.24-7.18-.84-.37.43,1.18,2.71,1.18,2.71Z"/><path class="cls-39" d="m260.68,269.55s2.26-2.63.94-7.62c-1.32-4.99-11.47-4.37-18.83-6.6,0,0,5.08,1.97,13.07,3.7,7.99,1.73,4.83,10.52,4.83,10.52Z"/><path class="cls-15" d="m267.25,280.36s-2.06,11.55-6.51,14.35l1.6,5.95s4.01-9.44,4.91-20.3Z"/><path class="cls-5" d="m251.82,313.15s4.1,6.09,9.72,7.04c0,0,8.59,20.65,10.79,26.3,2.19,5.65,22.12,8.54,31.15,9.35,9,.84,29.71,0,29.71,0l.06-.09.2-.26c2.62-3.43,24.37-31.55,35.97-43.03,0,0-4.79-.81-9.84-.12-.09.03-.14.03-.23.03-.17.03-.37.06-.55.09-.32.06-.72.17-1.18.32-.23.06-.43.14-.61.2-7.64,2.62-28.64,13.93-35.65,13.58-7.64-.37-9.98-1.33-11.59-.95-1.41.29-1.62,3.14-5.19,3.61-.52.09-1.12.12-1.79.06-5.34-.35-9.29-6.23-11.48-6.09-2.19.14-2.45,1.79-3.55,1.79s-14.88-29.25-16.07-34.84c-.35-1.62-.4-3.03-.35-4.21v-.03c.14-2.91.98-4.61.35-5.54-.55-.81-2.11-.61-3.23-.35-.69.14-1.21.35-1.21.35,0,0-2.45,21.57-10.5,28.58,0,0-1.96-13.9,1.73-23.04l-.84-3.06s-8.02,17.97-5.83,30.31Z"/><path class="cls-21" d="m311.34,460.13s12.85,3.73,37.39,0c24.54-3.73,64.44-2.09,64.44-2.09,0,0-20.44-106.85-17.89-130.83,2.55-23.98-18.23-14.05-18.23-14.05,0,0-30.55,21.37-43.94,50.6-13.39,29.24-21.77,96.36-21.77,96.36Z"/><path class="cls-30" d="m432.34,262.16s-21.6,35.76-14.44,56.26c7.16,20.49,28.03,41.79,28.3,65.29,0,0-18.55,18.53-38.91,25.39,0,0,5.26-8.99,1.06-21.56-4.2-12.57-18.13-33.34-20.32-53.83-2.19-20.49,7.65-49.82,7.65-49.82l36.66-21.73Z"/><path class="cls-19" d="m397.7,289.06s-5.84,20.74-5.84,30.72c0,0-16.21,9.38-21.13,6.1-4.92-3.28,5.45-9.71,5.45-9.71,0,0,1.43-4.14,2.56-11.21l18.96-15.89Z"/><path class="cls-23" d="m408.35,297.94s-6.39,3.88-13.36,1.79l2.7-10.67,1.78-2.87s2.89,2.98,7.81,3.3l1.06,8.45Z"/><g class="cls-42"><path class="cls-40" d="m356.15,323.84s-41.76,28.02-57.18,31.52c0,0,14.53,2.1,34.46.14,0,0,21.44-27.31,22.71-31.66Z"/></g><path class="cls-17" d="m386.7,324.15s-16.39,7-20.62,4.09c-4.24-2.9,10.97-15.08,10.97-15.08l-.86,2.99s-5.77,4.86-4.48,6.97c1.07,1.74,17.7-2.82,17.7-2.82l-2.7,3.85Z"/><path class="cls-5" d="m364.96,440.38c.23,2.13.49,4.15.75,6.06l.06.46c.61,4.21,1.24,7.84,1.82,10.67l.03.09c.69,3.29,1.33,5.45,1.79,6.11,2.31,3.29,15.72,3.66,30.28,2.02,14.57-1.64,26.19-5.42,26.19-7.47,0-1.73-2.77-6.43-5.77-17.88v-.03c-.43-1.62-.87-3.32-1.3-5.22-.12-.46-.2-.98-.32-1.47-3.55-16.38-12.03-73.35-12.03-73.35-.4-7.15-1.59-26.74-2.94-30.95-1.38-4.18-7.01-9.63-7.01-10.47,0-.81,1.62-1.9,1.18-4.1-.43-2.19-5.08-3.23-5.08-3.23l-.66,5.85c-7.38,6.55-24.86,40.64-28.15,71.24-1.79,16.7-.66,36.54,1.15,51.66Z"/><path class="cls-5" d="m377.96,309.23s-2.7-.86-5.02.41c-2.32,1.26-4.1,3.68-4.51,3.53-.41-.15-25.21,25.47-34.5,41.31-9.29,15.85-16.76,67.58-22.59,79.42-5.83,11.84-6.01,22.22,0,26.23,0,0,14.1-64.1,22.41-91.63,8.68-28.78,43.3-55.34,43.3-55.34l.91-3.94Z"/><path class="cls-40" d="m403.52,329.43c2.41,2.12,7.88,17.26,11.84,36.52,3.96,19.26,17.58,35.6,18.76,43.14l-30.6,4.83s-4.96-19.56-13.98-33.91c-9.02-14.35-8.47-22.95-8.47-25s13.75-27.96,22.45-25.59Z"/><path class="cls-15" d="m396.44,293.82s-9.29,19.8-20.25,22.34c0,0,1.81-6.59,2.42-10.38,0,0,11.09-4.53,19.09-16.71l-1.26,4.75Z"/><g class="cls-42"><path class="cls-40" d="m364.68,440.4l1.04,6.03.06.46,1.82,10.67.03.09c.69,3.29,1.33,5.45,1.79,6.11,2.31,3.29,15.72,3.66,30.28,2.02,14.57-1.64,26.19-5.42,26.19-7.47-7.33,4.36-50.13,8.74-53.1,5.83-2.97-2.91-3.49-11.71-3.49-11.71,0,0,20.56,6.26,33.69,1.87,12.66-4.24,16.84-13.3,17.13-13.87v-.03c-.43-1.62-.87-3.32-1.3-5.22l-53.85,5.19-.29.03Z"/></g><polygon class="cls-38" points="420 380.13 412.94 380.95 337.75 368.5 336.85 369.31 326.41 459.21 399.52 468.72 420 380.13"/><path class="cls-36" d="m346.19,363.23l-12.19,97.48,63.74,10.06.84.13,3.93.62,17.49-91.39-4.57-1.05c-1.41.58-2.23-.51-2.23-.51l-67.01-15.35Z"/><path class="cls-5" d="m344.72,366.21s-3.37,5.08-5.25,5.55l-10.14,87.81,3.63.98,11.75-94.34Z"/><path class="cls-38" d="m397.75,470.77l.84.13,16.85-91.81c-1.41.58-2.23-.51-2.23-.51l-15.45,92.19Z"/><polygon class="cls-37" points="346.19 363.23 344.95 364.39 332.96 460.55 334.01 460.71 346.19 363.23"/><path class="cls-40" d="m369.24,416.83s6.94,20.08,3.17,30.01c0,0-5.82-6.92-6.43-17.9-.62-10.97,1.6-13.53,1.6-13.53l1.67,1.42Z"/><path class="cls-19" d="m326.92,408.59c.49,1.18,2.11,2.37,2.37,3.26.26.92,1.24,3.89,1.67,4.79.46.92-.14,3.03.52,4.44.63,1.44,1.12,3.86,2.68,4.82.23.14.61.2,1.1.26,1.38.09,3.78-.12,6.75-.29h.12c2.19-.14,4.7-.26,7.38-.17.14,0,.26,0,.4.03,1.07,0,2.13.06,3.23.17,9.2.81,18.81,5.22,18.81,5.22l-2.71-14.28s-8.45-1.36-10.59-3.35c-.98-.92-1.38-3.43-1.67-5.97-.32-2.8-.58-5.68-1.47-6.6-1.18-1.21-4.96-2.86-8.51-4.82-1.53-.89-3.03-1.82-4.24-2.83-3.98-3.29-5.02-10.12-6.17-10.44-.63-.2-1.38,1.41-1.87,3.55t-.03.06c0,.06,0,.12-.03.2-.03.09-.03.17-.06.32-.06.32-.12.66-.14,1.01-.03.14-.03.29-.06.43-.14,1.13-.23,2.25-.17,3.29.26,3.92,6.14,5.02,7.84,6.92,1.7,1.9,1.5,3.75,1.24,4.04-.29.26-6.17,1.62-10.27.06l.4-3.86s-6.11,2.13-6.89,3.06c-.78.89-.11,5.51.37,6.69Z"/><path class="cls-5" d="m364.68,428.46c.89,13.79,6.6,21.66,6.6,21.66,30.37-1.38,58.84-16.96,60.11-20.59.69-1.99,3.84-9.84,2.74-20.42-1.1-10.61-20.97,0-20.97,0-1.99,1.79-22.58,8-30.5,7.21-9.13-.91-12.1-2.08-12.73-2.19-.61-.14-3.52,2.16-3.52,2.16l2.08.84c2.74,7.5,5.54,28.01,3.29,27.92-2.25-.06-5.8-16.12-5.8-16.12l-1.3-.46Z"/><path class="cls-40" d="m371.28,450.12c30.37-1.38,58.84-16.96,60.11-20.59,0,0-30.05,17.31-60.11,20.59Z"/><path class="cls-15" d="m326.92,408.59c.49,1.18,2.11,2.37,2.37,3.26.26.92,1.24,3.89,1.67,4.79.46.92-.14,3.03.52,4.44.63,1.44,1.12,3.86,2.68,4.82.23.14.61.2,1.1.26-.32-.32-.72-.87-1.04-1.79-.78-2.13-.98-5.05-1.76-6.75-.78-1.73-1.93-5.34-1.93-5.34l-3.61-3.69Z"/><path class="cls-15" d="m369.3,430.02s1.02-5.71-.81-12.89c0,0,1.5,2.95,3.1,13.84l-2.29-.95Z"/><g class="cls-42"><path class="cls-40" d="m261.54,320.19s6.97-17.37,8.63-27.69c0,0,3.9,39.99,2.15,53.99,0,0-9.18-21.12-10.79-26.3Z"/></g><path class="cls-19" d="m346.37,267.92c-2.18,4.18-5.78,6.95-6.76,13.07-1.17,7.14,11.2,17.78,12.52,20.25,1.17,2.21,5.68,5.51,15.48,6.56.03.01.06,0,.13,0,1.04.14,2.17.22,3.37.28,1.94.09,3.94.06,5.93-.17.66-.06,1.32-.14,2-.26.83-.11,1.73-.28,2.64-.48,1.41-.31,2.89-.71,4.41-1.22,5.61-1.79,11.11-4.66,16.01-8.6,6.68-5.42,13.63-18.56,15.35-31.47.68-4.86.62-9.68-.49-14.07-2.06-8.24-10.21-17.16-19.5-23.65-8.85-6.17-18.75-10.1-25.31-8.94-1.57.29-3.05.71-4.43,1.34-6.94,2.91-11.91,9.58-15.69,17.72-4.6,9.79-2.95,23.08-4.97,28.18-.21.54-.45,1.03-.71,1.48Z"/><path class="cls-19" d="m407.37,283.83s6.78-5.89,13.35-5.36c0,0,4.21,2.51,5.02,6.33,1.61,7.62-5.1,17.47-11.47,20.47-6.42,3.03-13.61-4.32-13.88-7.18-.27-2.86,6.99-14.26,6.99-14.26Z"/><path class="cls-15" d="m403.77,292.83s14.29-10.41,17.52-8.52c3.23,1.89.49,8.83-1.62,12.44-2.11,3.62-6.91,6.87-6.91,6.87,0,0,4.44-3.96,6.32-7.5,1.88-3.53,1.76-7.31,1.1-8.08-.67-.78-5.25-.25-5.63.5-.38.75.07,4.32-1.44,7-1.51,2.68-6.8,2.95-7.32,2.29-.52-.66,1.82-4.29,1.43-4.86-.39-.57-3.45-.14-3.45-.14Z"/><path class="cls-15" d="m413.27,286.75s1.21,5.37-.43,8.35c-1.64,2.99-5.65,2.98-6.33,2.42-.68-.56,1.29-4.03,1.07-4.75-.21-.72-2.61-.79-2.61-.79,0,0,6.32-4.2,8.3-5.23Z"/><path class="cls-22" d="m350.91,241.12s3.42-.35,5.69,10.38c0,0,1.26-11.33-3.75-15.07,0,0-2.05,1.85-1.93,4.68Z"/><path class="cls-22" d="m374.64,236.9s6.85,3.74,13.88,6.6c7.03,2.85,8.76,10.32,8.76,10.32,0,0-1.83-4.16-7.76-6.64-5.92-2.48-10.7-3.47-12.26-4.36-2.27-1.29-2.63-5.92-2.63-5.92Z"/><path class="cls-30" d="m395.65,271.97s-4.19-11-16.09-14.63l-1.3,1.02s-.93-3.43-.21-3.71c.72-.28,15.13,5.36,17.6,17.32Z"/><path class="cls-30" d="m356.18,261.42s-.82-5.9-3.13-8.52c-2.31-2.61-4.05,1.8-4.05,1.8,0,0,.65-4.76,1.51-5.47.86-.72,5.62,4.58,5.66,12.19Z"/><path class="cls-30" d="m387.58,261.54s-7.59,11.1-13.66,6.87c0,0-.33-6.55,5.65-11.06,0,0,3.25.08,8.02,4.2Z"/><path class="cls-30" d="m353.53,253.54s-.45,9.05-5.61,10.11c0,0,.24-7,1.26-9.99,1.02-2.99,3.38-1.91,4.36-.12Z"/><path class="cls-4" d="m382.09,265.59c-.33.75.01,1.63.77,1.96.75.33,1.63-.01,1.96-.77.33-.75-.01-1.63-.77-1.96s-1.63.01-1.96.77Z"/><path class="cls-4" d="m351.25,259.27c-.21.48,0,1.04.49,1.25.48.21,1.04,0,1.25-.49.21-.48,0-1.04-.49-1.25-.48-.21-1.04,0-1.25.49Z"/><path class="cls-14" d="m355.4,268.64s-6.21,3.98-6.98,4.91c-.76.93,2.53,6.36,4.86,7.06,2.33.69,4.38-.61,5.39-.64,1.01-.03,1.69.46,2,.47.31,0,4.24-1.61,3.35-4.56,0,0-.2,1.79-1.51,2.18-1.31.39-4.51-2.07-8.09-2.61-3.58-.54-5.53-.48-5.77-1.19-.24-.71,6.74-5.62,6.74-5.62Z"/><path class="cls-14" d="m371.32,285.48s-7.87,5.95-13.54,5.37c-4.71-.49-7.7-4.92-7.7-4.92l2.59,3.22s2.15,3.52,4.93,3.65c4.33.21,13.72-7.32,13.72-7.32Z"/><path class="cls-30" d="m350.67,241.41c.9-4.08,6.26-12.22,10.48-15.66,4.24-3.43,9.37-2.07,9.37-2.07,4.91-.87,9.55-.17,13.71,1.62l.13.06c13.95,6.11,22.7,24.61,21.06,37.77-1.68,13.69,1.94,20.68,1.94,20.68,6.14-5.62,12.61-5.66,12.61-5.66,8.65-5.81,19.32-23.63,14.28-38.02-.08-.25-.16-.51-.24-.74-.1-.27-.19-.49-.31-.73-.02-.1-.06-.15-.06-.15-.86-1.98-2.08-3.87-3.63-5.65-12.12-13.81-32.43-24.02-44.54-20.53-8.64,2.48-15.56,5.56-15.56,5.56-8.25,2.88-16.01-.9-18.25,4.01-2.23,4.88-.98,19.5-.98,19.5Z"/><path class="cls-25" d="m370.51,223.68s9.59-7.04,13.97-4.32c4.38,2.71,16.96,11.5,19.59,28.15,4.44,28.04,11.16,31.6,11.16,31.6,0,0,3.64-.97,5.48-.64,0,0-10.15-15.58-14.96-31.61-4.82-16.03-10.02-30.93-13.88-33.71-3.85-2.78-18.97,4.84-24.34,5.4-5.37.57-13.28-.1-15.51,2.5-2.23,2.6-10.1,10.4-11.02,18.82-2.52,23.09-3.3,28.23-.5,51.23,0,0-10.18-29.34-.3-45.1,9.88-15.76,16.35-21.68,20.03-22.35,3.68-.68,10.28.03,10.28.03Z"/><path class="cls-22" d="m425.85,272.66s-16.46-21.29-24.51-39.65c0,0,10.99,23.7,26.93,36.45l-2.42,3.21Z"/><path class="cls-22" d="m432.34,262.16s-19.96-14.15-31.94-31.86l-1.8-4.85s6.15,15.45,34.15,35.77l-.42.94Z"/><path class="cls-24" d="m358.7,192.46s21.26-15.43,49.74-27.92l-43.89-65.3-39.48,35.25s-33.53,17.36-61.32,7.3l-3.12,9.94,42.03,60.93s33.74-.47,56.04-20.21Z"/><path class="cls-9" d="m323.14,131.1l32.3,57.24s-25.05,20.71-51.33,15.27l-39.43-64.81c35.83,7.84,36.25-19.49,58.46-7.7Z"/><path class="cls-7" d="m323.14,131.1c-1.54-18.39,32.3-37.05,32.3-37.05l43.79,66.44s-26.38,1.21-43.79,27.85l-32.3-57.24Z"/><path class="cls-18" d="m277.44,147.04c-2.34,0-3.88-.12-4.08-.13l.11-1.33c.17.01,16.77,1.27,27.13-4.96,10.72-6.45,22.06-5.87,22.54-5.84l-.08,1.33c-.11,0-11.41-.58-21.77,5.65-7.61,4.58-18.13,5.28-23.85,5.28Z"/><path class="cls-18" d="m280.16,151.01c-2.34,0-3.88-.12-4.08-.13l.11-1.33c.17.01,16.77,1.27,27.13-4.96,10.72-6.45,22.06-5.87,22.54-5.84l-.08,1.33c-.11,0-11.41-.58-21.77,5.65-7.61,4.58-18.13,5.28-23.85,5.28Z"/><path class="cls-18" d="m282.88,154.97c-2.34,0-3.88-.12-4.08-.13l.11-1.33c.17.01,16.77,1.27,27.13-4.96,10.72-6.45,22.06-5.87,22.54-5.84l-.08,1.33c-.11,0-11.41-.58-21.77,5.65-7.61,4.58-18.13,5.28-23.85,5.28Z"/><path class="cls-18" d="m285.6,158.94c-2.34,0-3.88-.12-4.08-.13l.11-1.33c.17.01,16.77,1.27,27.13-4.96,10.72-6.45,21.05-5.5,21.53-5.47l-.08,1.33c-.11,0-10.41-.95-20.76,5.28-7.61,4.58-18.13,5.28-23.85,5.28Z"/><path class="cls-18" d="m288.32,162.9c-2.34,0-3.88-.12-4.08-.13l.11-1.33c.17.01,16.77,1.27,27.13-4.96,10.72-6.45,20.51-5.5,20.98-5.47l-.08,1.33c-.11,0-9.86-.95-20.22,5.28-7.61,4.58-18.13,5.28-23.85,5.28Z"/><path class="cls-18" d="m290.09,173.14l15.81,27.75s26.06.23,45.41-11.78c-15.04-26.94-16.79-29.62-16.79-29.62,0,0-8.86.98-13.82,3.41-4.96,2.42-14.05,10-30.61,10.24Z"/><path class="cls-18" d="m327.18,130.81s.93-15.74,25.65-30.09l1.28,1.28s-22.03,11.1-25.54,28.8h-1.4Z"/><path class="cls-18" d="m329.39,136.06s1.02-16.9,27.99-32.3l1.4,1.38s-24.04,11.92-27.86,30.92h-1.52Z"/><path class="cls-18" d="m331.78,140.89s1.02-16.9,27.99-32.3l1.4,1.38s-24.04,11.92-27.86,30.92h-1.52Z"/><path class="cls-18" d="m334.16,145.73s1.02-16.9,27.99-32.3l1.4,1.38s-24.04,11.92-27.86,30.92h-1.52Z"/><path class="cls-18" d="m336.55,150.57s1.1-16.9,30.17-32.3l1.51,1.38s-25.91,11.92-30.04,30.92h-1.64Z"/><path class="cls-18" d="m338.93,155.41s1.12-16.9,30.82-32.3l1.54,1.38s-26.47,11.92-30.69,30.92h-1.68Z"/><path class="cls-18" d="m341.32,160.25s1.15-16.9,31.65-32.3l1.58,1.38s-27.18,11.92-31.51,30.92h-1.72Z"/><path class="cls-18" d="m343.7,165.08s1.19-16.9,32.69-32.3l1.63,1.38s-28.07,11.92-32.54,30.92h-1.78Z"/><path class="cls-18" d="m346.09,169.92s1.17-16.9,32.13-32.3l1.61,1.38s-27.59,11.92-31.98,30.92h-1.75Z"/><path class="cls-18" d="m348.47,174.76s1.21-16.9,33.15-32.3l1.66,1.38s-28.47,11.92-33.01,30.92h-1.8Z"/><path class="cls-18" d="m385.76,148.08c-33.61,15.18-34.9,31.52-34.9,31.52h1.99c4.12-15.6,26.06-26.42,33.8-29.8-.3-.57-.6-1.14-.9-1.72Z"/><path class="cls-18" d="m388.41,153.14c-33.14,15.12-34.43,31.3-34.43,31.3h1.99c4.04-15.29,25.22-26,33.33-29.6-.3-.57-.6-1.13-.9-1.7Z"/><g class="cls-35"><path class="cls-6" d="m200.61,71.41v103.65c-2.2.21-4.36.43-6.5.67-8.74.91-16.93,1.89-24.59,2.96-4.81.65-9.4,1.33-13.81,2.05-12.55,2.02-23.45,4.24-32.88,6.62-37.94,9.59-51.89,21.92-51.89,35.37v-103.66c0-20.28,31.73-38.03,129.66-47.66Z"/></g><g class="cls-35"><path class="cls-4" d="m185.96,93.56h0c0,1.64-1.25,3.01-2.88,3.17-84.62,8.62-112.14,24.21-112.14,42v-6.42c0-17.74,27.39-33.31,111.51-41.93,1.88-.19,3.51,1.29,3.51,3.17Z"/><path class="cls-4" d="m185.96,106.5h0c0,1.64-1.25,3.01-2.88,3.17-84.62,8.62-112.14,24.21-112.14,42v-6.42c0-17.74,27.39-33.31,111.51-41.93,1.88-.19,3.51,1.29,3.51,3.17Z"/><path class="cls-4" d="m185.96,119.43h0c0,1.64-1.25,3.01-2.88,3.17-84.62,8.62-112.14,24.21-112.14,42v-6.42c0-17.74,27.39-33.31,111.51-41.93,1.88-.19,3.51,1.29,3.51,3.17Z"/><path class="cls-4" d="m185.96,132.37h0c0,1.64-1.25,3.01-2.88,3.17-84.62,8.62-112.14,24.21-112.14,42v-6.42c0-17.74,27.39-33.31,111.51-41.93,1.88-.19,3.51,1.29,3.51,3.17Z"/><path class="cls-4" d="m185.96,145.3h0c0,1.64-1.25,3.01-2.88,3.17-84.62,8.62-112.14,24.21-112.14,42v-6.42c0-17.74,27.39-33.31,111.51-41.93,1.88-.19,3.51,1.29,3.51,3.17Z"/><path class="cls-4" d="m122.21,168.3c.02-2.02-1.88-3.52-3.84-3.03-34.71,8.56-47.42,19.63-47.42,31.72v6.42c0-12.26,13.07-23.48,48.88-32.09,1.38-.33,2.37-1.55,2.38-2.96,0-.02,0-.04,0-.06Z"/></g><g class="cls-35"><path class="cls-3" d="m99.14,150.86v103.66c-17.78-8.9-28.2-19.68-28.2-31.31v-103.66c0,11.61,10.42,22.4,28.2,31.31Z"/></g><g class="cls-35"><polygon class="cls-28" points="392.96 281.38 411.11 281.83 420.24 275.81 399.47 261.18 392.96 281.38"/><path class="cls-22" d="m380.35,281.27c2.46-.89,12.61-28.15,11.63-30.2-.97-2.06-44.06-17.27-46.02-16.44-1.95.83-9.63,28.74-9.3,30.81.34,2.07,40.43,17.01,43.68,15.84Z"/><path class="cls-30" d="m346.93,236.31c1.15-.47,15.67,4.23,26.58,8.27-4.29,6.26-13.83,10.25-24.64,9.56-2.77-.18-5.41-.65-7.88-1.38,2.12-7.54,4.89-16.02,5.93-16.45Z"/><path class="cls-29" d="m380.47,280.51c2.46-.86,12.13-27.01,11.15-29.02-.18-.36-1.15-1.52-3.29-2.46,7.56,2.77,13.86,5.34,14.25,6.14.98,2.01-9.11,28.59-11.56,29.45-2.35.83-21.66-5.81-32.22-10.29,9.63,3.53,20,6.76,21.68,6.17Z"/></g></g></g></g></svg>