<?xml version="1.0" encoding="utf-8"?>
<!-- Generator: Adobe Illustrator 27.7.0, SVG Export Plug-In . SVG Version: 6.00 Build 0)  -->
<svg version="1.1" id="Layer_1" xmlns="http://www.w3.org/2000/svg" xmlns:xlink="http://www.w3.org/1999/xlink" x="0px" y="0px"
	 viewBox="0 0 784 611.7" style="enable-background:new 0 0 784 611.7;" xml:space="preserve">
<style type="text/css">
	.st0{display:none;}
	.st1{display:inline;}
	.st2{fill:#06235B;}
	.st3{clip-path:url(#SVGID_00000002374060183230897210000011361565402113272711_);}
	.st4{opacity:0.37;}
	.st5{clip-path:url(#SVGID_00000062910809409778300180000002582632669021479099_);}
	.st6{clip-path:url(#SVGID_00000164500462051157708050000010044369793976122527_);}
	.st7{clip-path:url(#SVGID_00000115479768511925883050000002276972273487097759_);}
	.st8{opacity:0.3;}
	.st9{clip-path:url(#SVGID_00000139291116178424203190000002249311993918623165_);}
	.st10{fill:#E0812F;}
	.st11{opacity:0.39;}
	.st12{clip-path:url(#SVGID_00000043443962358412260890000016048416079186668934_);}
	.st13{fill:#0092D4;}
	.st14{clip-path:url(#SVGID_00000059275083895343014940000013463483785807009192_);}
	.st15{fill:#66B8E6;}
	.st16{fill:#446AAB;}
	.st17{fill:#009BDC;}
	.st18{clip-path:url(#SVGID_00000108289647809169086850000012958845008455526818_);}
	.st19{fill:#01374F;}
	.st20{fill:#FDB426;}
	.st21{opacity:0.8;}
	.st22{fill:#FFFFFF;}
	.st23{fill:#EF941B;}
	.st24{fill:#E85E36;}
	.st25{clip-path:url(#SVGID_00000036253014973411644250000013474598405790683047_);fill:#FFBB0A;}
	.st26{clip-path:url(#SVGID_00000036253014973411644250000013474598405790683047_);fill:#FFBC0B;}
	.st27{clip-path:url(#SVGID_00000036253014973411644250000013474598405790683047_);fill:#FFBD0C;}
	.st28{fill:#FDC131;}
	.st29{fill:#FD921B;}
	.st30{fill:#FD721B;}
	.st31{fill:#BA2222;}
	.st32{fill:#E83636;}
	.st33{fill:#E8E8E8;}
	.st34{fill:#F9EBB1;}
	.st35{fill:#D34F23;}
	.st36{fill:#FD761B;}
	.st37{fill:#E95D24;}
	.st38{fill:#FFC274;}
	.st39{fill:#FFEAB6;}
	.st40{fill:#1960BB;}
	.st41{fill:#FFBE51;}
</style>
<g id="Layer_1_00000146478050086146111110000005384841240395138435_" class="st0">
	<g class="st1">
		<g id="Layer_2_00000031902545989619093650000007572443739244143009_">
			<g id="Hero">
				<path class="st2" d="M118,195.6c-27.2,86.9-48.5,181.6,20.6,257.3C239.1,562.8,358.9,607.7,480,584
					c126.8-24.8,271.3-133,183.3-235c-87.9-101.8-131.1-74.7-223.2-230.7C320.2-85,151.5,88.6,118,195.6L118,195.6z"/>
				<g>
					<g>
						<defs>
							<rect id="SVGID_1_" y="0" width="784" height="611.7"/>
						</defs>
						<clipPath id="SVGID_00000054979868163347883000000006646987370960485017_">
							<use xlink:href="#SVGID_1_"  style="overflow:visible;"/>
						</clipPath>
						<g style="clip-path:url(#SVGID_00000054979868163347883000000006646987370960485017_);">
							<g class="st4">
								<g>
									<g>
										<defs>
											
												<rect id="SVGID_00000089532724055950754340000011301266768154714039_" x="-10.7" y="-1.4" width="653.8" height="620.6"/>
										</defs>
										<clipPath id="SVGID_00000014620107011307625260000003963325636703013794_">
											<use xlink:href="#SVGID_00000089532724055950754340000011301266768154714039_"  style="overflow:visible;"/>
										</clipPath>
										<g style="clip-path:url(#SVGID_00000014620107011307625260000003963325636703013794_);">
											<g>
												<g>
													<defs>
														<rect id="SVGID_00000127001960871063321630000007838933082031797678_" x="-8.4" y="0.9" width="649.2" height="616"/>
													</defs>
													<clipPath id="SVGID_00000091715465753184292990000014619365640238283938_">
														<use xlink:href="#SVGID_00000127001960871063321630000007838933082031797678_"  style="overflow:visible;"/>
													</clipPath>
													<g style="clip-path:url(#SVGID_00000091715465753184292990000014619365640238283938_);">
														<g>
															<g>
																<defs>
																	
																		<rect id="SVGID_00000119090661418446625180000009384797687878393477_" x="-11.2" y="-1.9" width="654.7" height="621.6"/>
																</defs>
																<clipPath id="SVGID_00000056391325704313179580000000623483372120711316_">
																	<use xlink:href="#SVGID_00000119090661418446625180000009384797687878393477_"  style="overflow:visible;"/>
																</clipPath>
																<g style="clip-path:url(#SVGID_00000056391325704313179580000000623483372120711316_);">
																</g>
															</g>
														</g>
													</g>
												</g>
											</g>
										</g>
									</g>
								</g>
							</g>
							<g class="st8">
								<g>
									<g>
										<defs>
											<rect id="SVGID_00000160171724042304413640000001343780241889841313_" x="106.4" y="245.2" width="69.1" height="69.1"/>
										</defs>
										<clipPath id="SVGID_00000116236801042502617340000013588591981833551746_">
											<use xlink:href="#SVGID_00000160171724042304413640000001343780241889841313_"  style="overflow:visible;"/>
										</clipPath>
										<g style="clip-path:url(#SVGID_00000116236801042502617340000013588591981833551746_);">
											<rect x="108.7" y="247.5" class="st10" width="64.5" height="64.5"/>
										</g>
									</g>
								</g>
							</g>
							<g class="st11">
								<g>
									<g>
										<defs>
											
												<rect id="SVGID_00000170242917719649036860000009962552235650425533_" x="106.5" y="117.3" width="135.3" height="135.3"/>
										</defs>
										<clipPath id="SVGID_00000080916416515556162810000006830918622841963949_">
											<use xlink:href="#SVGID_00000170242917719649036860000009962552235650425533_"  style="overflow:visible;"/>
										</clipPath>
										<g style="clip-path:url(#SVGID_00000080916416515556162810000006830918622841963949_);">
											<rect x="108.8" y="119.6" class="st13" width="130.7" height="130.7"/>
										</g>
									</g>
								</g>
							</g>
							<g>
								<g>
									<g>
										<defs>
											<rect id="SVGID_00000163056978353586021170000004804286868826956187_" x="102.2" y="150.4" width="651" height="391"/>
										</defs>
										<clipPath id="SVGID_00000049915604233853544850000017956364606160951742_">
											<use xlink:href="#SVGID_00000163056978353586021170000004804286868826956187_"  style="overflow:visible;"/>
										</clipPath>
										<g style="clip-path:url(#SVGID_00000049915604233853544850000017956364606160951742_);">
											<polygon class="st13" points="598.9,420.9 627.7,408 624.5,382.9 595.7,395.8 											"/>
											<polygon class="st13" points="221.8,486.8 250.6,474 247.4,448.9 218.6,461.7 											"/>
											<polygon class="st15" points="353,531.4 328,520.2 330.7,498.4 355.8,509.6 											"/>
											<polygon class="st10" points="447.2,193.9 472.3,182.7 469.5,160.9 444.5,172.1 											"/>
											<polygon class="st16" points="172.9,177.8 161.7,152.7 139.9,155.5 151.1,180.6 											"/>
											<polygon class="st10" points="556.4,481.6 538.3,473.5 540.3,457.8 558.3,465.9 											"/>
											<polygon class="st10" points="665.2,285.2 680.7,278.3 682.5,270.2 667,277 											"/>
											<polygon class="st16" points="188.7,536.7 214.5,525.2 217.5,511.6 191.7,523.1 											"/>
											<polygon class="st10" points="526.1,177.2 541,182.6 550.2,176.5 535.3,171.1 											"/>
											<polygon class="st10" points="133.3,245.2 107.5,233.7 104.5,220.2 130.3,231.7 											"/>
											<polygon class="st10" points="624.6,400.8 652.2,406.7 662.6,397.4 635,391.6 											"/>
											<polygon class="st10" points="497.4,259.4 512.2,252.8 520,233.6 505.2,240.2 											"/>
											<polygon class="st15" points="714.7,350.3 722.8,368.3 750.9,379.7 742.8,361.7 											"/>
											<polygon class="st16" points="599.5,514.4 590.2,502.5 570.8,502.7 580,514.6 											"/>
											<polygon class="st13" points="516.5,202.3 535.8,202.3 538.2,182.7 518.8,182.7 											"/>
											<polygon class="st10" points="205.3,190.4 224.6,190.4 226.9,170.8 207.6,170.8 											"/>
											<polygon class="st16" points="662.6,340.5 681.9,340.5 684.2,320.9 664.9,320.9 											"/>
											<polygon class="st17" points="521.9,539.2 532,539.2 533.2,528.9 523.1,528.9 											"/>
											<polygon class="st10" points="166.8,185.1 180.7,185.1 182.4,170.8 168.5,170.8 											"/>
											<polygon class="st10" points="326.3,503.1 340.3,503.1 342,488.7 328,488.7 											"/>
											<polygon class="st10" points="286.1,485.2 300.1,485.2 301.8,471.1 287.8,471.1 											"/>
										</g>
									</g>
								</g>
							</g>
							<g>
								<g>
									<defs>
										
											<rect id="SVGID_00000042727193559197614410000008852022137914259349_" x="94.3" y="-14.3" transform="matrix(0.9205 -0.3907 0.3907 0.9205 -78.618 174.217)" width="589.2" height="589.2"/>
									</defs>
									<clipPath id="SVGID_00000005255734172538274990000010383703675781382788_">
										<use xlink:href="#SVGID_00000042727193559197614410000008852022137914259349_"  style="overflow:visible;"/>
									</clipPath>
									<g style="clip-path:url(#SVGID_00000005255734172538274990000010383703675781382788_);">
									</g>
								</g>
							</g>
						</g>
					</g>
				</g>
			</g>
		</g>
	</g>
</g>
<g>
	<g>
		<g>
			<g>
				<path class="st19" d="M259.7,236.8c0-30.4,0-60.7,0-91.1c0-30.2,0-60.4,0-90.5c0-16.9,0-33.8,0-50.7c0-1.7-2.7-1.7-2.7,0
					c0,30.2,0,60.4,0,90.6c0,30.2,0,60.4,0,90.5c0,17,0,34.1,0,51.1C257.1,238.5,259.7,238.5,259.7,236.8L259.7,236.8z"/>
			</g>
		</g>
		<g>
			<g>
				<path class="st19" d="M214.2,105.5c31.2,0,62.4,0,93.6,0c31,0,62,0,93.1,0c17.4,0,34.9,0,52.3,0c1.7,0,1.7-2.7,0-2.7
					c-31.1,0-62.2,0-93.3,0c-31,0-62,0-93.1,0c-17.5,0-35.1,0-52.6,0C212.5,102.8,212.5,105.5,214.2,105.5L214.2,105.5z"/>
			</g>
		</g>
		<g>
			<g>
				<path class="st19" d="M453.8,102.6c-3.6-2.7-7.2-5.3-10.8-8c-1.4-1-2.7,1.3-1.4,2.3c3.6,2.7,7.2,5.3,10.8,8
					C453.9,105.9,455.2,103.6,453.8,102.6L453.8,102.6z"/>
			</g>
		</g>
		<g>
			<g>
				<path class="st19" d="M452.5,102.6c-3.9,2.1-7.9,4.3-11.7,6.7c-1.5,0.9-0.1,3.3,1.4,2.3c3.8-2.4,7.7-4.5,11.7-6.7
					C455.3,104.1,454,101.8,452.5,102.6L452.5,102.6z"/>
			</g>
		</g>
		<g>
			<g>
				<path class="st19" d="M367.6,147c0,3.5,0,7,0,10.4c0,1.7,2.7,1.7,2.7,0c0-3.5,0-7,0-10.4C370.3,145.3,367.6,145.3,367.6,147
					L367.6,147z"/>
			</g>
		</g>
		<g>
			<g>
				<path class="st19" d="M367.6,164.8c0,3.5,0,7,0,10.4c0,1.7,2.7,1.7,2.7,0c0-3.5,0-7,0-10.4C370.3,163.1,367.6,163.1,367.6,164.8
					L367.6,164.8z"/>
			</g>
		</g>
		<g>
			<g>
				<path class="st19" d="M367.6,129.8c0,3.5,0,7,0,10.4c0,1.7,2.7,1.7,2.7,0c0-3.5,0-7,0-10.4C370.3,128.1,367.6,128.1,367.6,129.8
					L367.6,129.8z"/>
			</g>
		</g>
		<g>
			<g>
				<path class="st19" d="M367.6,113c0,3.5,0,7,0,10.4c0,1.7,2.7,1.7,2.7,0c0-3.5,0-7,0-10.4C370.3,111.3,367.6,111.3,367.6,113
					L367.6,113z"/>
			</g>
		</g>
		<g>
			<g>
				<path class="st19" d="M259.8,170.6c11.1-9.2,26.2-12.9,40.4-11.5c14.7,1.4,27.3,10,41.1,14.6c15.4,5.1,31.4,8.4,47.5,9.7
					c8.2,0.6,16.4,0.7,24.5,0.3c7.9-0.5,16-1.3,23.8-3c7.4-1.6,14.7-4.3,21.1-8.4c3.5-2.2,6.9-4.6,10.5-6.8c2.2-1.4,4.1-3,6.1-4.7
					c0.4-0.3,0.8-0.7,1.3-1c0.2-0.2,1-0.4,0.5-0.4c1.7-0.1,1.7-2.8,0-2.7c-0.9,0.1-1.6,0.6-2.3,1.1c-1,0.8-2,1.6-3,2.5
					c-2.4,2.1-5.1,3.6-7.7,5.3c-3.5,2.3-6.8,4.7-10.5,6.6c-3.4,1.8-7.1,3.2-10.8,4.4c-7.7,2.3-15.7,3.4-23.7,4.1
					c-8.2,0.7-16.5,0.8-24.8,0.4c-16.4-0.8-32.7-3.9-48.4-8.8c-7.2-2.3-14.1-5.4-21-8.4c-6.6-2.9-13.4-5.7-20.6-6.9
					c-14.1-2.3-29.7,0.6-41.6,8.6c-1.5,1-2.9,2.1-4.3,3.2C256.5,169.8,258.5,171.7,259.8,170.6L259.8,170.6z"/>
			</g>
		</g>
		<g>
			<g>
				<path class="st19" d="M260.2,141.8c9.6-9.6,19.2-19.2,28.8-28.8c1.2-1.2-0.7-3.1-1.9-1.9c-9.6,9.6-19.2,19.2-28.8,28.8
					C257.1,141.1,259,143,260.2,141.8L260.2,141.8z"/>
			</g>
		</g>
		<g>
			<g>
				<path class="st19" d="M260.8,164.3c13.8-13.8,27.6-27.6,41.4-41.4c3.5-3.5,6.9-6.9,10.4-10.4c1.2-1.2-0.7-3.1-1.9-1.9
					c-13.8,13.8-27.6,27.6-41.4,41.4c-3.5,3.5-6.9,6.9-10.4,10.4C257.7,163.7,259.5,165.6,260.8,164.3L260.8,164.3z"/>
			</g>
		</g>
		<g>
			<g>
				<path class="st19" d="M293.3,157.2c11.6-11.6,23.2-23.2,34.8-34.8c3-3,6-6,9-9c1.2-1.2-0.7-3.1-1.9-1.9
					c-11.6,11.6-23.2,23.2-34.8,34.8c-3,3-6,6-9,9C290.1,156.5,292,158.4,293.3,157.2L293.3,157.2z"/>
			</g>
		</g>
		<g>
			<g>
				<path class="st19" d="M313.3,161.4c12-12,23.9-23.9,35.9-35.9c3.5-3.5,7-7,10.4-10.4c1.2-1.2-0.7-3.1-1.9-1.9
					c-0.5,0.5-1,1-1.5,1.5c-1.2,1.2,0.7,3.1,1.9,1.9c0.5-0.5,1-1,1.5-1.5c-0.6-0.6-1.3-1.3-1.9-1.9c-12,12-23.9,23.9-35.9,35.9
					c-3.5,3.5-7,7-10.4,10.4C310.2,160.7,312.1,162.6,313.3,161.4L313.3,161.4z"/>
			</g>
		</g>
		<g>
			<g>
				<path class="st19" d="M335.5,169.6c8.9-8.9,17.8-17.8,26.7-26.7c1.2-1.2-0.7-3.1-1.9-1.9c-8.9,8.9-17.8,17.8-26.7,26.7
					C332.4,168.9,334.3,170.8,335.5,169.6L335.5,169.6z"/>
			</g>
		</g>
		<g>
			<g>
				<path class="st19" d="M258.3,12.6c11.9,11.9,23.8,23.8,35.7,35.7c12,12,23.9,23.9,35.9,35.9c6.7,6.7,13.4,13.4,20.2,20.2
					c1.2,1.2,3.1-0.7,1.9-1.9c-11.9-11.9-23.8-23.8-35.7-35.7c-12-12-23.9-23.9-35.9-35.9c-6.7-6.7-13.4-13.4-20.2-20.2
					C259,9.4,257.1,11.3,258.3,12.6L258.3,12.6z"/>
			</g>
		</g>
		<g>
			<g>
				<path class="st19" d="M304.3,55.9c16.9,0,33.9,0.7,50.8,1.1c4.6,0.1,9.2,0.2,13.9,0.2c1.7,0,1.7-2.7,0-2.7
					c-16.7,0-33.5-0.8-50.2-1.1c-4.8-0.1-9.6-0.2-14.4-0.2C302.5,53.2,302.5,55.9,304.3,55.9L304.3,55.9z"/>
			</g>
		</g>
		<g>
			<g>
				<path class="st19" d="M361.1,50.3c3.3,1.8,6.7,3.6,10,5.4c1.5,0.8,2.9-1.5,1.4-2.3c-3.3-1.8-6.7-3.6-10-5.4
					C361,47.2,359.6,49.5,361.1,50.3L361.1,50.3z"/>
			</g>
		</g>
		<g>
			<g>
				<path class="st19" d="M370.9,53.6c-2.9,2.4-5.7,4.8-8.6,7.2c-1.3,1.1,0.6,3,1.9,1.9c2.9-2.4,5.7-4.8,8.6-7.2
					C374.1,54.4,372.2,52.5,370.9,53.6L370.9,53.6z"/>
			</g>
		</g>
		<g>
			<g>
				<path class="st19" d="M369.9,190.2c0.8-0.7,1.3-1.8,0.7-2.7c-0.5-0.9-1.6-1.2-2.5-1.3c-2.3-0.4-5-0.3-6.9,1.2
					c-5,4,0,11,1.5,15.6c0.6,1.9,2.1,5.9-0.2,7.2c-1.5,0.8-0.2,3.2,1.4,2.3c5.5-3.1,1-11.8-0.8-15.9c-1-2.3-2.5-6.4,0.5-7.6
					c1-0.4,2.2-0.4,3.3-0.3c0.4,0,1.2,0.4,1.5,0.3c0.2-0.1-0.1,0.3-0.1-0.3c0-0.7,0.3-0.7-0.2-0.3
					C366.7,189.5,368.6,191.3,369.9,190.2L369.9,190.2z"/>
			</g>
		</g>
		<g>
			<g>
				<path class="st19" d="M352.6,201.4c4.3-0.1,8.6-0.8,12.9-1.3c1.7-0.2,1.7-2.9,0-2.7c-4.3,0.4-8.6,1.2-12.9,1.3
					C350.9,198.8,350.9,201.5,352.6,201.4L352.6,201.4z"/>
			</g>
		</g>
		<g>
			<g>
				<path class="st19" d="M372.6,192.6c-1.2,3.5-2.5,7.2-2.6,11c-0.1,3.9,1.4,7.3,4.2,9.9c1.3,1.2,3.2-0.7,1.9-1.9
					c-2.6-2.4-3.7-5.3-3.4-8.7c0.2-3.3,1.4-6.5,2.5-9.6C375.8,191.7,373.2,191,372.6,192.6L372.6,192.6z"/>
			</g>
		</g>
		<g>
			<g>
				<path class="st19" d="M375.7,204.2c2.8,2.1,5.6,4.3,8.8,5.8c1.6,0.7,2.9-1.6,1.4-2.3c-3.2-1.5-5.9-3.8-8.8-5.8
					C375.7,200.8,374.4,203.2,375.7,204.2L375.7,204.2z"/>
			</g>
		</g>
		<g>
			<g>
				<path class="st19" d="M378.5,210.5c1-2.9,2.9-5.4,4.5-8c0.9-1.5-1.4-2.9-2.3-1.4c-1.7,2.9-3.6,5.5-4.7,8.7
					C375.4,211.4,378,212.1,378.5,210.5L378.5,210.5z"/>
			</g>
		</g>
		<g>
			<g>
				<path class="st19" d="M382,190c4.1,3,6.9,7.9,8.4,12.7c1.5,4.6,2.2,10.2-0.1,14.7c-0.8,1.5,1.5,2.9,2.3,1.4
					c2.6-5.2,2.1-11.4,0.4-16.8c-1.8-5.5-4.9-10.8-9.6-14.3C382,186.6,380.6,189,382,190L382,190z"/>
			</g>
		</g>
		<g>
			<g>
				<path class="st19" d="M213.5,239.7c0-0.1,0-0.1,0-0.2c0,0.1,0,0.2,0,0.4c0,0,0-0.1,0-0.1c0,0.1-0.1,0.2-0.1,0.3c0,0,0,0,0-0.1
					c-0.1,0.1-0.1,0.2-0.2,0.3c0,0,0,0,0,0c-0.1,0.1-0.2,0.1-0.3,0.2c0,0,0,0,0.1,0c-0.1,0-0.2,0.1-0.3,0.1c0,0,0.1,0,0.1,0
					c-0.1,0-0.2,0-0.4,0c0.1,0,0.1,0,0.2,0c0.3,0,0.7-0.2,0.9-0.4c0.2-0.2,0.4-0.6,0.4-0.9c0-0.3-0.1-0.7-0.4-0.9
					c-0.1-0.1-0.2-0.1-0.3-0.2c-0.2-0.1-0.4-0.2-0.7-0.2c-0.2,0-0.4,0-0.6,0.1c-0.1,0-0.3,0.1-0.4,0.2c-0.1,0.1-0.2,0.2-0.3,0.3
					c-0.2,0.2-0.3,0.5-0.4,0.7c0,0.2-0.1,0.4-0.1,0.6c0,0.4,0.1,0.7,0.4,0.9c0.2,0.2,0.6,0.4,0.9,0.4c0.3,0,0.7-0.1,0.9-0.4
					C213.3,240.4,213.5,240.1,213.5,239.7L213.5,239.7z"/>
			</g>
		</g>
		<g>
			<g>
				<path class="st19" d="M217.5,241c2.4,0,4.7,0,7.1,0c1.7,0,1.7-2.7,0-2.7c-2.4,0-4.7,0-7.1,0C215.8,238.4,215.8,241,217.5,241
					L217.5,241z"/>
			</g>
		</g>
		<g>
			<g>
				<path class="st19" d="M230.5,240.2c2.5,0,5,0,7.5,0c1.7,0,1.7-2.7,0-2.7c-2.5,0-5,0-7.5,0C228.7,237.5,228.7,240.2,230.5,240.2
					L230.5,240.2z"/>
			</g>
		</g>
		<g>
			<g>
				<path class="st19" d="M243.8,240.6c2.2,0,4.4,0,6.7,0c1.7,0,1.7-2.7,0-2.7c-2.2,0-4.4,0-6.7,0
					C242.1,237.9,242.1,240.6,243.8,240.6L243.8,240.6z"/>
			</g>
		</g>
		<g>
			<g>
				<path class="st19" d="M215.5,230.5c0-3.8,0-7.5,0-11.3c0-1.7-2.7-1.7-2.7,0c0,3.8,0,7.5,0,11.3
					C212.9,232.3,215.5,232.3,215.5,230.5L215.5,230.5z"/>
			</g>
		</g>
		<g>
			<g>
				<path class="st19" d="M215.1,207.2c0-4.3,0-8.6,0-12.9c0-1.7-2.7-1.7-2.7,0c0,4.3,0,8.6,0,12.9
					C212.4,208.9,215.1,208.9,215.1,207.2L215.1,207.2z"/>
			</g>
		</g>
		<g>
			<g>
				<path class="st19" d="M216,185.5c0-3.1,0-6.1,0-9.2c0-1.7-2.7-1.7-2.7,0c0,3.1,0,6.1,0,9.2C213.3,187.2,216,187.2,216,185.5
					L216,185.5z"/>
			</g>
		</g>
		<g>
			<g>
				<path class="st19" d="M217.2,168c0-3.3,0-6.7,0-10c0-1.7-2.7-1.7-2.7,0c0,3.3,0,6.7,0,10C214.5,169.7,217.2,169.7,217.2,168
					L217.2,168z"/>
			</g>
		</g>
		<g>
			<g>
				<path class="st19" d="M217.6,145.5c0-2.6,0-5.3,0-7.9c0-1.7-2.7-1.7-2.7,0c0,2.6,0,5.3,0,7.9
					C214.9,147.2,217.6,147.2,217.6,145.5L217.6,145.5z"/>
			</g>
		</g>
		<g>
			<g>
				<path class="st19" d="M217.6,130.4c0-2.4,0-4.7,0-7.1c0-1.7-2.7-1.7-2.7,0c0,2.4,0,4.7,0,7.1
					C214.9,132.2,217.6,132.2,217.6,130.4L217.6,130.4z"/>
			</g>
		</g>
		<g>
			<g>
				<path class="st19" d="M217.2,119.2c0-2.6,0-5.3,0-7.9c0-1.7-2.7-1.7-2.7,0c0,2.6,0,5.3,0,7.9
					C214.5,120.9,217.2,120.9,217.2,119.2L217.2,119.2z"/>
			</g>
		</g>
		<g>
			<g>
				<path class="st19" d="M210.8,254.8c4.4,4.9,7.4,10.8,11.3,16c0.4-0.7,0.8-1.3,1.2-2c-6.6,0.6-13.2,0.8-19.7,2.1
					c0.6,0.6,1.1,1.1,1.7,1.7c2.1-6.4,7-11.7,10.2-17.6c0.8-1.5-1.5-2.9-2.3-1.4c-3.3,6.1-8.2,11.5-10.4,18.2
					c-0.3,1,0.7,1.8,1.7,1.7c6.3-1.2,12.6-1.4,19-2c0.9-0.1,1.8-1.1,1.2-2c-4-5.4-7.2-11.5-11.7-16.6
					C211.5,251.6,209.6,253.5,210.8,254.8L210.8,254.8z"/>
			</g>
		</g>
		<g>
			<g>
				<path class="st19" d="M222.8,258.2c3.5,4.1,5.8,9.1,8.5,13.7c0.6,1,2.2,0.8,2.5-0.3c1.3-6.4,2.4-12.9,3.4-19.4
					c0.3-1.7-2.3-2.4-2.6-0.7c-1,6.5-2.1,13-3.4,19.4c0.8-0.1,1.6-0.2,2.5-0.3c-2.8-4.8-5.2-10-8.9-14.3
					C223.6,255,221.7,256.9,222.8,258.2L222.8,258.2z"/>
			</g>
		</g>
		<g>
			<g>
				<path class="st19" d="M240,267.2c0,2.5,0,4.9,0,7.4c0,1.7,2.7,1.7,2.7,0c0-0.4,0-0.8,0-1.1c0-1.7-2.7-1.7-2.7,0
					c0,0.4,0,0.8,0,1.1c0,1.7,2.7,1.7,2.7,0c0-2.5,0-4.9,0-7.4C242.7,265.5,240,265.5,240,267.2L240,267.2z"/>
			</g>
		</g>
		<g>
			<g>
				<path class="st19" d="M240.1,258.6c1.7,0,1.7-2.7,0-2.7C238.3,255.9,238.3,258.6,240.1,258.6L240.1,258.6z"/>
			</g>
		</g>
	</g>
	<g>
		<g>
			<path class="st20" d="M50.8,409.2h66.8c3,0,5.4,2.4,5.4,5.4v35.3c0,3-2.4,5.4-5.4,5.4H69c-2.7,3.8-7.7,10.6-8.1,10.6
				c-0.4,0,0.4-6.4,0.9-10.6h-11c-3,0-5.4-2.4-5.4-5.4v-35.3C45.4,411.6,47.8,409.2,50.8,409.2z"/>
		</g>
		<g class="st21">
			
				<rect x="49.2" y="419.7" transform="matrix(-1 -1.224647e-16 1.224647e-16 -1 165.9459 843.0069)" class="st22" width="67.6" height="3.6"/>
		</g>
		<g class="st21">
			
				<rect x="58.2" y="429.7" transform="matrix(-1 -1.224647e-16 1.224647e-16 -1 165.9459 863.0315)" class="st22" width="49.5" height="3.6"/>
		</g>
		<g class="st21">
			
				<rect x="54.7" y="439.8" transform="matrix(-1 -1.224647e-16 1.224647e-16 -1 165.9459 883.1831)" class="st22" width="56.6" height="3.6"/>
		</g>
	</g>
	<g>
		<g>
			<g>
				<path class="st20" d="M167.8,196.2l293.6,210.1L460,234L167.8,196.2z M405.3,327l-128.9-85.1l132.5,16.5L405.3,327z"/>
			</g>
		</g>
		<g>
			<polygon class="st23" points="408.1,266.4 408.9,258.4 276.4,241.9 290.9,251.9 			"/>
		</g>
		<g>
			<g>
				<polygon class="st24" points="207.8,211.2 207.8,211.2 205.6,209.7 205.6,209.7 205.6,209.7 				"/>
			</g>
			<g>
				<rect x="208" y="214.1" class="st24" width="0" height="2.7"/>
			</g>
			<g>
				<polygon class="st24" points="207.8,211.2 205.6,209.7 205.6,209.7 194,215 196.2,216.5 196.2,216.5 196.2,216.5 				"/>
			</g>
			<g>
				<polygon class="st24" points="206.9,214.7 206.9,214.7 206.9,214.7 198.8,218.4 198.8,218.4 				"/>
			</g>
			<g>
				<polygon class="st24" points="212,218.4 214.2,220 214.2,220 212,218.4 212,218.4 				"/>
			</g>
			<g>
				<polygon class="st24" points="209.1,216.3 206.9,214.7 206.9,214.7 198.8,218.4 198.8,218.4 201,220 201,220 				"/>
			</g>
			<g>
				<polygon class="st24" points="212,218.4 212,218.4 204,222.1 				"/>
			</g>
			<g>
				<polygon class="st24" points="217.2,222.1 219.4,223.6 219.4,223.6 217.2,222.1 217.2,222.1 				"/>
			</g>
			<g>
				<polygon class="st24" points="214.2,220 212,218.4 212,218.4 204,222.1 206.2,223.7 206.2,223.7 				"/>
			</g>
			<g>
				
					<rect x="213.1" y="219.5" transform="matrix(0.1476 -0.989 0.989 0.1476 -39.782 401.6427)" class="st24" width="0" height="8.9"/>
			</g>
			<g>
				<polygon class="st24" points="224.5,227.3 222.3,225.7 222.3,225.7 222.3,225.7 				"/>
			</g>
			<g>
				<polygon class="st24" points="219.4,223.6 217.2,222.1 217.2,222.1 209.1,225.7 209.1,225.7 211.3,227.3 211.3,227.3 
					211.3,227.3 				"/>
			</g>
			<g>
				
					<rect x="206.8" y="231.4" transform="matrix(0.1476 -0.989 0.989 0.1476 -49.0713 405.7934)" class="st24" width="8.1" height="0"/>
			</g>
			<g>
				<polygon class="st24" points="233.4,229.6 231.2,228 231.2,228 231.2,228 				"/>
			</g>
			<g>
				<polygon class="st24" points="224.5,227.3 222.3,225.7 222.3,225.7 214.2,229.4 216.4,231 				"/>
			</g>
			<g>
				<polygon class="st24" points="219.6,233.3 231.2,228 231.2,228 219.6,233.3 218.8,241.4 218.8,241.4 				"/>
			</g>
			<g>
				<polygon class="st24" points="235.5,235.2 233.3,233.6 235.5,235.2 				"/>
			</g>
			<g>
				<polygon class="st24" points="233.4,229.6 231.2,228 231.2,228 219.6,233.3 221.9,234.9 221.9,234.9 221.9,234.9 				"/>
			</g>
			<g>
				<polygon class="st24" points="233.3,233.6 225.2,237.3 225.2,237.3 				"/>
			</g>
			<g>
				<polygon class="st24" points="238.5,237.3 240.7,238.9 240.7,238.9 238.5,237.3 238.5,237.3 				"/>
			</g>
			<g>
				<polygon class="st24" points="235.5,235.2 233.3,233.6 225.2,237.3 225.2,237.3 227.4,238.9 227.4,238.9 				"/>
			</g>
			<g>
				
					<rect x="234.4" y="234.7" transform="matrix(0.1476 -0.989 0.989 0.1476 -36.7038 435.6781)" class="st24" width="0" height="8.9"/>
			</g>
			<g>
				<polygon class="st24" points="245.8,242.5 245.8,242.5 243.6,241 243.6,241 243.6,241 				"/>
			</g>
			<g>
				<polygon class="st24" points="231.8,250.6 231.8,250.6 231.8,250.6 				"/>
			</g>
			<g>
				<polygon class="st24" points="240.7,238.9 238.5,237.3 238.5,237.3 230.4,241 230.4,241 232.6,242.6 232.6,242.6 				"/>
			</g>
			<g>
				<polygon class="st24" points="250.9,246.2 250.9,246.2 248.7,244.6 248.7,244.6 248.7,244.6 				"/>
			</g>
			<g>
				<polygon class="st24" points="245.8,242.5 243.6,241 243.6,241 235.5,244.7 237.7,246.2 237.7,246.2 237.7,246.2 				"/>
			</g>
			<g>
				
					<rect x="257.4" y="247.7" transform="matrix(0.1476 -0.989 0.989 0.1476 -24.4648 467.0423)" class="st24" width="2.7" height="0"/>
			</g>
			<g>
				<polygon class="st24" points="250.9,246.2 248.7,244.6 248.7,244.6 240.7,248.3 242.9,249.9 242.9,249.9 242.9,249.9 				"/>
			</g>
			<g>
				<polygon class="st24" points="257.6,246.9 257.6,246.9 257.6,246.9 246.1,252.2 246.1,252.2 				"/>
			</g>
			<g>
				<polygon class="st24" points="261.9,254.1 259.7,252.5 261.9,254.1 				"/>
			</g>
			<g>
				<polygon class="st24" points="259.8,248.5 257.6,246.9 257.6,246.9 246.1,252.2 246.1,252.2 248.3,253.8 248.3,253.8 				"/>
			</g>
			<g>
				<polygon class="st24" points="259.7,252.5 251.7,256.2 251.6,256.2 251.7,256.2 				"/>
			</g>
			<g>
				<polygon class="st24" points="264.9,256.2 267.1,257.8 267.1,257.8 264.9,256.2 264.9,256.2 				"/>
			</g>
			<g>
				<polygon class="st24" points="261.9,254.1 259.7,252.5 251.7,256.2 253.9,257.8 253.9,257.8 253.9,257.8 				"/>
			</g>
			<g>
				<polygon class="st24" points="264.9,256.2 264.9,256.2 256.8,259.9 256.8,259.9 256.8,259.9 				"/>
			</g>
			<g>
				<polygon class="st24" points="272.2,261.4 270,259.9 270,259.9 270,259.9 				"/>
			</g>
			<g>
				<polygon class="st24" points="267.1,257.8 264.9,256.2 264.9,256.2 256.8,259.9 259,261.5 263.7,259.3 				"/>
			</g>
			<g>
				<polygon class="st24" points="277.4,265.1 277.4,265.1 275.2,263.5 275.2,263.5 275.2,263.5 				"/>
			</g>
			<g>
				<polygon class="st24" points="272.2,261.4 270,259.9 270,259.9 261.9,263.6 264.1,265.1 264.1,265.1 				"/>
			</g>
			<g>
				<rect x="285.2" y="265.3" class="st24" width="0" height="2.7"/>
			</g>
			<g>
				<polygon class="st24" points="277.4,265.1 275.2,263.5 275.2,263.5 267.1,267.2 269.3,268.8 269.3,268.8 				"/>
			</g>
			<g>
				<polygon class="st24" points="284,265.8 284,265.8 284,265.8 272.5,271.1 272.5,271.1 				"/>
			</g>
			<g>
				<polygon class="st24" points="288.4,273 288.4,273 286.1,271.4 286.1,271.4 286.1,271.4 				"/>
			</g>
			<g>
				<polygon class="st24" points="286.3,267.4 284,265.8 284,265.8 272.5,271.1 272.5,271.1 274.7,272.7 274.7,272.7 				"/>
			</g>
			<g>
				<polygon class="st24" points="293.5,276.7 293.5,276.7 291.3,275.1 291.3,275.1 291.3,275.1 				"/>
			</g>
			<g>
				<polygon class="st24" points="288.4,273 286.1,271.4 286.1,271.4 278.1,275.1 280.3,276.7 280.3,276.7 280.3,276.7 				"/>
			</g>
			<g>
				<polygon class="st24" points="298.6,280.4 296.4,278.8 298.6,280.4 				"/>
			</g>
			<g>
				<polygon class="st24" points="293.5,276.7 291.3,275.1 291.3,275.1 283.2,278.8 285.4,280.4 285.4,280.4 				"/>
			</g>
			<g>
				<polygon class="st24" points="303.8,284 301.6,282.5 303.8,284 				"/>
			</g>
			<g>
				<polygon class="st24" points="298.6,280.4 296.4,278.8 288.3,282.5 288.3,282.5 288.3,282.5 290.6,284 290.6,284 				"/>
			</g>
			<g>
				<polygon class="st24" points="310.5,284.7 312.7,286.3 312.7,286.3 310.5,284.7 310.5,284.7 				"/>
			</g>
			<g>
				<polygon class="st24" points="301.6,282.5 293.5,286.1 293.5,286.2 293.5,286.1 				"/>
			</g>
			<g>
				<polygon class="st24" points="303.8,284 301.6,282.5 293.5,286.1 295.7,287.7 295.7,287.7 				"/>
			</g>
			<g>
				<rect x="304.7" y="281" class="st24" width="0" height="12.7"/>
			</g>
			<g>
				<polygon class="st24" points="314.8,291.9 312.6,290.3 312.6,290.3 312.6,290.3 				"/>
			</g>
			<g>
				<polygon class="st24" points="312.7,286.3 310.5,284.7 310.5,284.7 298.9,290 298.9,290 301.1,291.6 301.1,291.6 				"/>
			</g>
			<g>
				
					<rect x="317.4" y="294.8" transform="matrix(0.1476 -0.989 0.989 0.1476 -19.8151 566.5857)" class="st24" width="2.7" height="0"/>
			</g>
			<g>
				<polygon class="st24" points="314.8,291.9 312.6,290.3 312.6,290.3 304.5,294 306.7,295.6 306.7,295.6 				"/>
			</g>
			<g>
				<polygon class="st24" points="317.7,294 317.7,294 317.7,294 309.6,297.7 309.6,297.7 				"/>
			</g>
			<g>
				<polygon class="st24" points="322.8,297.7 325.1,299.3 325.1,299.3 322.8,297.7 322.8,297.7 				"/>
			</g>
			<g>
				<polygon class="st24" points="319.9,295.6 317.7,294 317.7,294 309.6,297.7 309.6,297.7 311.8,299.3 311.8,299.3 311.8,299.3 
									"/>
			</g>
			<g>
				
					<rect x="318.8" y="295.1" transform="matrix(0.1476 -0.989 0.989 0.1476 -24.5004 570.6177)" class="st24" width="0" height="8.9"/>
			</g>
			<g>
				<polygon class="st24" points="328,301.4 330.2,302.9 330.2,302.9 328,301.4 328,301.4 				"/>
			</g>
			<g>
				<polygon class="st24" points="325.1,299.3 322.8,297.7 322.8,297.7 314.8,301.4 314.8,301.4 317,303 317,303 				"/>
			</g>
			<g>
				<polygon class="st24" points="339.1,305.2 339.1,305.2 336.9,303.6 336.9,303.6 336.9,303.6 				"/>
			</g>
			<g>
				<polygon class="st24" points="328,301.4 328,301.4 319.9,305.1 				"/>
			</g>
			<g>
				<polygon class="st24" points="321.3,314.7 321.3,314.7 321.3,314.7 				"/>
			</g>
			<g>
				<polygon class="st24" points="330.2,302.9 328,301.4 328,301.4 319.9,305.1 322.1,306.6 322.1,306.6 				"/>
			</g>
			<g>
				
					<rect x="340.1" y="308.7" transform="matrix(0.8038 -0.595 0.595 0.8038 -117.707 263.1828)" class="st24" width="0" height="2.7"/>
			</g>
			<g>
				<polygon class="st24" points="339.1,305.2 336.9,303.6 336.9,303.6 325.3,308.9 327.5,310.5 327.5,310.5 				"/>
			</g>
			<g>
				<polygon class="st24" points="339,309.2 339,309.2 339,309.2 335.6,310.8 				"/>
			</g>
			<g>
				<polygon class="st24" points="346.3,314.5 344.1,312.9 346.3,314.5 				"/>
			</g>
			<g>
				<polygon class="st24" points="341.2,310.8 339,309.2 339,309.2 335.6,310.8 330.9,312.9 330.9,312.9 330.9,312.9 333.1,314.5 
					333.1,314.5 				"/>
			</g>
			<g>
				<polygon class="st24" points="344.1,312.9 336,316.6 336,316.6 336,316.6 				"/>
			</g>
			<g>
				<polygon class="st24" points="349.3,316.6 349.3,316.6 351.5,318.2 349.3,316.6 				"/>
			</g>
			<g>
				<polygon class="st24" points="346.3,314.5 344.1,312.9 336,316.6 338.3,318.2 338.3,318.2 				"/>
			</g>
			<g>
				<rect x="345.2" y="314" transform="matrix(0.1476 -0.989 0.989 0.1476 -20.68 612.8613)" class="st24" width="0" height="8.9"/>
			</g>
			<g>
				<polygon class="st24" points="356.6,321.8 356.6,321.8 356.6,321.8 354.4,320.3 354.4,320.3 354.4,320.3 				"/>
			</g>
			<g>
				<polygon class="st24" points="349.3,316.6 341.2,320.3 341.2,320.3 343.4,321.9 351.5,318.2 349.3,316.6 				"/>
			</g>
			<g>
				<polygon class="st24" points="365.5,324.1 365.5,324.1 363.3,322.5 363.3,322.5 363.3,322.5 				"/>
			</g>
			<g>
				<polygon class="st24" points="351.9,324 356.6,321.8 354.4,320.3 354.4,320.3 346.3,324 348.5,325.5 348.5,325.5 348.5,325.5 
									"/>
			</g>
			<g>
				<polygon class="st24" points="351.9,324 356.6,321.8 356.6,321.8 				"/>
			</g>
			<g>
				<polygon class="st24" points="365.4,328.1 367.6,329.7 367.6,329.7 365.4,328.1 365.4,328.1 				"/>
			</g>
			<g>
				<polygon class="st24" points="365.5,324.1 363.3,322.5 363.3,322.5 351.7,327.8 353.9,329.4 353.9,329.4 353.9,329.4 				"/>
			</g>
			<g>
				<polygon class="st24" points="365.4,328.1 365.4,328.1 357.3,331.8 357.3,331.8 357.3,331.8 				"/>
			</g>
			<g>
				<polygon class="st24" points="372.8,333.4 372.8,333.4 370.5,331.8 370.5,331.8 370.5,331.8 				"/>
			</g>
			<g>
				<polygon class="st24" points="367.6,329.7 365.4,328.1 365.4,328.1 357.3,331.8 359.5,333.4 359.5,333.4 				"/>
			</g>
			<g>
				<polygon class="st24" points="377.9,337.1 375.7,335.5 377.9,337.1 				"/>
			</g>
			<g>
				<polygon class="st24" points="372.8,333.4 370.5,331.8 370.5,331.8 362.5,335.5 364.7,337.1 364.7,337.1 				"/>
			</g>
			<g>
				<polygon class="st24" points="383,340.7 383,340.7 380.8,339.2 380.8,339.2 380.8,339.2 				"/>
			</g>
			<g>
				<polygon class="st24" points="377.9,337.1 375.7,335.5 367.6,339.2 369.8,340.8 369.8,340.8 369.8,340.8 				"/>
			</g>
			<g>
				<polygon class="st24" points="369,348.8 369,348.8 369,348.8 				"/>
			</g>
			<g>
				<polygon class="st24" points="369,348.8 369.8,340.8 369.8,340.8 				"/>
			</g>
			<g>
				
					<rect x="389.5" y="342.2" transform="matrix(0.1476 -0.989 0.989 0.1476 -5.3639 678.2512)" class="st24" width="2.7" height="0"/>
			</g>
			<g>
				<polygon class="st24" points="383,340.7 380.8,339.2 380.8,339.2 372.7,342.9 375,344.4 				"/>
			</g>
			<g>
				<polygon class="st24" points="389.7,341.4 389.7,341.4 389.7,341.4 				"/>
			</g>
			<g>
				<polygon class="st24" points="383,344.5 378.2,346.7 378.2,346.7 				"/>
			</g>
			<g>
				<polygon class="st24" points="394,348.6 394,348.6 391.8,347 391.8,347 391.8,347 				"/>
			</g>
			<g>
				<polygon class="st24" points="391.9,343 389.7,341.4 389.7,341.4 383,344.5 378.2,346.7 378.2,346.7 380.4,348.3 380.4,348.3 
									"/>
			</g>
			<g>
				<polygon class="st24" points="397,350.7 397,350.7 397,350.7 399.2,352.3 399.2,352.3 399.2,352.3 				"/>
			</g>
			<g>
				<polygon class="st24" points="394,348.6 391.8,347 391.8,347 383.7,350.7 386,352.3 386,352.3 				"/>
			</g>
			<g>
				<polygon class="st24" points="404.3,356 404.3,356 402.1,354.4 402.1,354.4 402.1,354.4 				"/>
			</g>
			<g>
				<polygon class="st24" points="397,350.7 388.9,354.4 391.1,356 399.2,352.3 397,350.7 				"/>
			</g>
			<g>
				<polygon class="st24" points="391.1,356 399.2,352.3 399.2,352.3 391.1,356 390.3,364.1 390.3,364.1 390.3,364.1 				"/>
			</g>
			<g>
				<polygon class="st24" points="407.2,358.1 409.5,359.7 409.5,359.7 407.2,358.1 407.2,358.1 				"/>
			</g>
			<g>
				<polygon class="st24" points="404.3,356 402.1,354.4 402.1,354.4 394,358.1 396.2,359.7 396.2,359.7 				"/>
			</g>
			<g>
				<polygon class="st24" points="416.1,360.4 418.3,361.9 418.3,361.9 416.1,360.4 416.1,360.4 				"/>
			</g>
			<g>
				
					<rect x="403.2" y="355.5" transform="matrix(0.1476 -0.989 0.989 0.1476 -12.297 705.5568)" class="st24" width="0" height="8.9"/>
			</g>
			<g>
				<polygon class="st24" points="409.5,359.7 407.2,358.1 407.2,358.1 399.2,361.8 399.2,361.8 401.4,363.3 401.4,363.3 				"/>
			</g>
			<g>
				<polygon class="st24" points="416.1,360.4 416.1,360.4 404.6,365.6 404.6,365.7 404.6,365.6 				"/>
			</g>
			<g>
				<polygon class="st24" points="420.5,367.5 420.5,367.5 418.2,365.9 418.2,365.9 418.2,365.9 				"/>
			</g>
			<g>
				<polygon class="st24" points="418.3,361.9 416.1,360.4 416.1,360.4 404.6,365.6 406.8,367.2 406.8,367.2 				"/>
			</g>
			<g>
				<polygon class="st24" points="425.6,371.2 425.6,371.2 423.4,369.6 423.4,369.6 423.4,369.6 				"/>
			</g>
			<g>
				<polygon class="st24" points="420.5,367.5 418.2,365.9 418.2,365.9 410.2,369.6 412.4,371.2 412.4,371.2 412.4,371.2 				"/>
			</g>
			<g>
				
					<rect x="429.6" y="372.7" transform="matrix(0.1476 -0.989 0.989 0.1476 -3.7905 743.7781)" class="st24" width="0" height="2.7"/>
			</g>
			<g>
				<polygon class="st24" points="425.6,371.2 423.4,369.6 423.4,369.6 415.3,373.3 417.5,374.9 417.5,374.9 				"/>
			</g>
			<g>
				<polygon class="st24" points="428.5,373.3 428.5,373.3 428.5,373.3 				"/>
			</g>
			<g>
				<polygon class="st24" points="433.7,377 435.9,378.6 435.9,378.6 433.7,377 433.7,377 				"/>
			</g>
			<g>
				<polygon class="st24" points="430.7,374.9 428.5,373.3 428.5,373.3 420.4,377 420.4,377 420.4,377 422.7,378.6 422.7,378.6 				
					"/>
			</g>
			<g>
				<polygon class="st24" points="444.8,380.8 444.8,380.8 442.6,379.3 442.6,379.3 442.6,379.3 				"/>
			</g>
			<g>
				<polygon class="st24" points="433.7,377 433.7,377 425.6,380.7 425.6,380.7 425.6,380.7 				"/>
			</g>
			<g>
				<polygon class="st24" points="435.9,378.6 433.7,377 433.7,377 425.6,380.7 427.8,382.3 427.8,382.3 				"/>
			</g>
			<g>
				<polygon class="st24" points="432.4,394.2 432.4,394.2 432.4,394.2 				"/>
			</g>
			<g>
				<polygon class="st24" points="444.8,380.8 442.6,379.3 442.6,379.3 431,384.5 433.2,386.1 433.2,386.1 				"/>
			</g>
		</g>
		<g>
			<g>
				<path class="st23" d="M166.5,195.3c9.2,6.6,284.8,203.8,294.9,211c-0.3,2.7-0.5,5.4-0.8,8.1C362.3,344,264,273.7,165.7,203.3
					C165.9,200.6,166.2,197.9,166.5,195.3z"/>
			</g>
			<g>
				<g>
					<defs>
						<polygon id="SVGID_00000022527471871398313760000013620434485203829378_" points="418.2,365.9 410.2,369.6 418.2,365.9 						
							"/>
					</defs>
					<clipPath id="SVGID_00000043429689604533828690000000678741143671929784_">
						<use xlink:href="#SVGID_00000022527471871398313760000013620434485203829378_"  style="overflow:visible;"/>
					</clipPath>
					<polygon style="clip-path:url(#SVGID_00000043429689604533828690000000678741143671929784_);fill:#FFBB0A;" points="
						410.2,368.7 410.6,368.2 412.3,369.6 410.2,369.6 					"/>
					<polygon style="clip-path:url(#SVGID_00000043429689604533828690000000678741143671929784_);fill:#FFBB0A;" points="
						410.6,368.2 412.6,365.9 413,365.9 416.4,369 415.8,369.6 412.3,369.6 					"/>
					<polygon style="clip-path:url(#SVGID_00000043429689604533828690000000678741143671929784_);fill:#FFBC0B;" points="
						417.9,365.9 418.2,366.2 418.2,366.9 416.4,369 413,365.9 					"/>
					<polygon style="clip-path:url(#SVGID_00000043429689604533828690000000678741143671929784_);fill:#FFBD0C;" points="
						418.2,366.2 417.9,365.9 418.2,365.9 					"/>
				</g>
			</g>
		</g>
	</g>
	<g>
		<g>
			<g>
				<polygon class="st28" points="565.2,495 340.1,547.7 341.2,485.2 566.1,437.9 				"/>
			</g>
			<g>
				<polygon class="st29" points="341.2,485.2 202.5,450.4 427.4,403.1 566.1,437.9 				"/>
			</g>
			<g>
				<path class="st22" d="M206.4,452.8l-1,58.6c0,0,132.4,34.1,134.8,34.4l1-60.3L206.4,452.8z"/>
			</g>
			<g>
				<polygon class="st30" points="337.1,484.2 337.1,484.2 202.5,450.4 202.4,452.4 337,487.4 336.1,543.5 201.5,509.7 201.5,511.7 
					340.1,547.7 340.2,544.5 341.1,488.5 341.2,485.2 				"/>
			</g>
			<g>
				<polygon class="st22" points="201.5,509.7 205.5,507.8 205.4,510.7 				"/>
				<path d="M206.3,511.9l-7.5-1.9l7.6-3.7L206.3,511.9z M204.2,509.4l0.4,0.1l0-0.3L204.2,509.4z"/>
			</g>
		</g>
		<g>
			<g>
				<path class="st31" d="M226.9,367.2c-0.2-1-0.3-2-0.5-3l209.9,45.7l0.5,29.9l-0.5-27.4L226.9,367.2z"/>
			</g>
			<g>
				<path class="st32" d="M437.3,475.4l-210.9-45.5c0.1-0.8,0.2-1.7,0.3-2.6l210.5,45.1L437.3,475.4z"/>
			</g>
			<g>
				<polygon class="st22" points="366.6,391 575.5,439.7 575.5,375 365.6,329.3 				"/>
				<path d="M576.5,440.9l-210.8-49.1l-1-63.6l211.8,46.1V440.9z M367.5,390.3l207.1,48.2v-62.8l-208.1-45.3L367.5,390.3z"/>
			</g>
			<g>
				<polygon class="st32" points="436.3,409.8 575,375 365.1,329.3 226.4,364.1 				"/>
			</g>
			<g>
				<path class="st33" d="M571.1,379.6l1,58.5c0,0-132.4,34-134.8,34.3l-1-60.2L571.1,379.6z"/>
			</g>
			<g>
				<path class="st22" d="M230.2,427.9c2.8-20.9,3.3-41.1,0.2-60.2l206,44.5l0.5,27.4l0.5,32.8L230.2,427.9z"/>
			</g>
			<g>
				<polygon class="st32" points="436.3,409.8 575,375 575,439.7 437.3,475.4 437.3,472.4 572.1,438.1 572.1,379.6 436.3,412.3 				
					"/>
			</g>
		</g>
	</g>
	<g>
		<g>
			<polygon class="st33" points="603.7,478.2 615.3,511.8 611.7,474.2 			"/>
		</g>
		<g>
			<path class="st19" d="M570,353.3l27.8,116.9c0.8,3.4,2.9,6.2,5.9,8l0,0l7.9-2l0.6-10.7c0.5-8.7-0.7-17.4-3.5-25.7l-30.5-91.6
				L570,353.3z"/>
		</g>
		<g>
			<g>
				
					<rect x="461.4" y="457.6" transform="matrix(-4.214649e-02 0.9991 -0.9991 -4.214649e-02 989.8369 -23.2296)" class="st32" width="89.3" height="10.5"/>
			</g>
			<g>
				<g>
					<polygon class="st34" points="505.5,515.9 501.9,515.7 498.9,507.2 509.4,507.7 					"/>
				</g>
				<g>
					<polygon class="st19" points="503.4,520.3 501.9,515.7 505.5,515.9 					"/>
				</g>
			</g>
			<g>
				
					<rect x="505.9" y="410.9" transform="matrix(-4.216605e-02 0.9991 -0.9991 -4.216605e-02 945.222 -73.8806)" class="st22" width="4.3" height="10.5"/>
			</g>
			<g>
				<path class="st22" d="M503.2,404.7l-0.4,9.1l10.5,0.4l0.4-9.1c0-0.5-0.4-1-0.9-1l-8.5-0.4C503.7,403.8,503.3,404.2,503.2,404.7z
					"/>
			</g>
		</g>
		<g>
			<path class="st19" d="M570.8,327.2l1.4-34.1c0.2-4.8-3.7-8.7-8.4-8.6l0,0c-4.6,0.2-8.1,4.1-7.9,8.6l2.5,34.6L570.8,327.2z"/>
		</g>
		<g>
			<path class="st23" d="M518.2,489.7L518.2,489.7c3,0.1,5.6-2.2,5.9-5.2c4.6-48.5,8.6-100.8,18.5-118c2-3.4,5.6-5.6,9.5-6l21.9-1.9
				c13-0.6,14.4-28.7,1.4-31.3c0,0-30.1-15.5-46,34.4c-8.3,21.8-12,47.4-13.2,73.8c-0.1,1.5-1.3,2.7-2.7,2.8l-11.9,0.6
				c-1.4,0.1-2.6,1.2-2.7,2.6l-3.5,36c-0.2,1.8,1.3,3.3,3.1,3.2l14.7-1.3l-0.4,4C512.3,486.7,514.8,489.6,518.2,489.7z"/>
		</g>
		<g>
			<g>
				<path class="st34" d="M571.7,339.8c1,3.9-1.4,7.9-5.4,8.9c-3.9,1-7.9-1.4-8.9-5.4c-1-3.9,1.4-7.9,5.4-8.9
					C566.8,333.5,570.7,335.9,571.7,339.8z"/>
			</g>
			<g>
				<path class="st20" d="M567.9,340.8c0.5,1.9-0.7,3.7-2.5,4.2c-1.9,0.5-3.7-0.7-4.2-2.5c-0.5-1.9,0.7-3.7,2.5-4.2
					S567.5,338.9,567.9,340.8z"/>
			</g>
		</g>
		<g>
			<g>
				<path class="st34" d="M530.5,458.5c0.9,3.5-1.3,7.1-4.8,8c-3.5,0.9-7.1-1.3-8-4.8c-0.9-3.5,1.3-7.1,4.8-8
					C526,452.8,529.6,454.9,530.5,458.5z"/>
			</g>
			<g>
				<path class="st20" d="M527.1,459.3c0.4,1.7-0.6,3.4-2.3,3.8c-1.7,0.4-3.4-0.6-3.8-2.3c-0.4-1.7,0.6-3.4,2.3-3.8
					C525,456.6,526.7,457.6,527.1,459.3z"/>
			</g>
		</g>
	</g>
	<g>
		<g>
			<path class="st19" d="M613.6,533.2c-34.3,0-66.5-1-90.7-2.8c-11.8-0.9-21.1-1.9-27.6-3c-9.5-1.7-10.8-3.2-10.8-4.5
				s1.3-2.9,10.8-4.5c6.5-1.1,15.8-2.2,27.6-3c24.2-1.8,56.4-2.8,90.7-2.8s66.5,1,90.7,2.8c11.8,0.9,21.1,1.9,27.6,3
				c9.5,1.7,10.8,3.2,10.8,4.5s-1.3,2.9-10.8,4.5c-6.5,1.1-15.8,2.2-27.6,3C680.1,532.2,647.9,533.2,613.6,533.2z M486.3,522.8
				c0.2,0.4,2.8,3.4,37.8,6c24.1,1.7,55.9,2.7,89.5,2.7s65.5-1,89.5-2.7c35-2.5,37.6-5.5,37.8-6c-0.2-0.4-2.8-3.4-37.8-6
				c-24.1-1.7-55.9-2.7-89.5-2.7s-65.5,1-89.5,2.7C489.1,519.4,486.5,522.4,486.3,522.8z"/>
		</g>
		<g>
			<polygon class="st19" points="585.1,532.6 584.6,531 608.2,523.6 485.4,523.6 485.4,522 619.1,522 			"/>
		</g>
	</g>
	<g>
		<g>
			<path class="st34" d="M639.2,107.2c-42.5-10.8-77.1,36.1-54.3,73.8c4.1,6.8,5.4,14.9,4.1,22.7l-4.6,26.9
				c-1.3,7.4,3.4,14.5,10.6,16.4l16.1,4.1c7.3,1.9,14.8-2.2,17.2-9.3c8.9-25.9,10.2-36.1,23.3-43.7
				C689.7,175.8,681.8,118.1,639.2,107.2z"/>
		</g>
		<g>
			<g>
				<path class="st20" d="M597,214.9c6.8-22.6,13.1-46.8,14.6-53.7c-23.3-8.7-4.2-28.9,2.1-14.6c1.8,4.1,1.5,8.5,0.7,13
					c7.9,2.6,16.2,3.7,24.4,3.2c1.9-5.4,3.2-9.7,6.1-12.4c4.5-4.1,11.5-2.7,12,3.4c0.2,2.3-0.7,4.8-2.3,6.4
					c-3.4,3.6-9.2,4.3-14.1,4.8c-6.3,17.6-12.1,35.5-17.4,53.3l-2.3-0.7c5.2-17.5,11-35.1,17.1-52.4c-8.1,0.4-16.3-0.7-24.1-3.3
					c-2,8.9-8.2,32.4-14.6,53.6L597,214.9z M603,151.4c1.1,3.1,4,5.5,9.1,7.4c0.7-4,0.9-7.8-0.6-11.3
					C608.1,139.8,601.2,146.2,603,151.4z M646.5,152.1c-2.5,2.3-3.6,6.1-5.2,10.5c4.1-0.4,8.8-1.1,11.6-3.9c1.9-2,2.4-5.8,0.3-7.5
					C652.9,151,648.3,150.5,646.5,152.1z"/>
			</g>
		</g>
		<g>
			<path class="st20" d="M589.1,203.1c0,0.2,0,0.5-0.1,0.7l-4.6,26.9c-1.3,7.4,3.4,14.5,10.6,16.4l16.1,4.1
				c7.3,1.9,14.8-2.2,17.2-9.3c3.9-11.5,6.4-20,9.1-26.4L589.1,203.1z"/>
		</g>
		<g>
			<g>
				<path class="st20" d="M617.7,76.3l-2.4-26.9c-0.2-2.6,1.7-4.9,4.3-5.1c2.6-0.2,4.9,1.7,5.1,4.3l2.4,26.9
					c0.2,2.6-1.7,4.9-4.3,5.1C620.3,80.8,618,78.8,617.7,76.3z"/>
			</g>
		</g>
		<g>
			<g>
				<path class="st20" d="M568.9,117.3L544,103.7c-2.3-1.3-3.1-4.1-1.9-6.4c1.2-2.3,4.1-3.1,6.4-1.9l24.9,13.6
					c2.3,1.2,3.1,4.1,1.9,6.4C574,117.7,571.2,118.6,568.9,117.3z"/>
			</g>
		</g>
		<g>
			<g>
				<path class="st20" d="M682.2,103c-2-1.6-2.4-4.6-0.7-6.6c7.7-9.7,14.5-20.2,20-31.3c1.2-2.3,4-3.3,6.3-2.1
					c2.3,1.2,3.3,4,2.1,6.3c-5.9,11.7-13,22.7-21.1,32.9C687.2,104.4,684.2,104.7,682.2,103z"/>
			</g>
		</g>
		<g>
			<g>
				<path class="st20" d="M694.3,148c0.3-2.6,2.7-4.4,5.3-4.1l30.4,3.7c2.6,0.3,4.4,2.7,4.1,5.3c-0.3,2.6-2.7,4.4-5.3,4.1l-30.4-3.7
					C695.8,152.9,694,150.6,694.3,148z"/>
			</g>
		</g>
	</g>
	<g>
		<g>
			<g>
				<path class="st35" d="M412.3,546.3c-1.1-0.3-2.2-0.4-3.3-0.3c-0.7,0-1.4,0.1-2.1,0.3l-6.9,2c-0.6-0.5-1.2-0.9-1.8-1.4
					c-0.6-0.4-1.1-0.8-1.7-1.3c-0.5-0.4-1.1-0.7-1.6-1.1c-0.9-0.6-1.8-1.2-2.8-1.8c-0.7-0.4-1.3-0.8-1.9-1.1c-1.6-0.9-3.3-1.8-5-2.7
					c-0.7-0.4-1.4-0.7-2.2-1.1c-0.5-0.2-1-0.5-1.5-0.7c-1.3-0.6-2.7-1.2-4.1-1.8c-0.7-0.3-1.5-0.6-2.3-0.9c-2-0.8-4-1.5-6.1-2.2
					c-0.8-0.3-1.6-0.5-2.4-0.8c-2.1-0.7-4.3-1.3-6.4-1.8c-0.8-0.2-1.7-0.4-2.5-0.6c-2.2-0.6-4.5-1.1-6.8-1.5
					c-0.8-0.2-1.7-0.3-2.5-0.5c-2.3-0.4-4.6-0.8-6.9-1.1c-0.8-0.1-1.7-0.2-2.6-0.3c-0.7-0.1-1.3-0.2-2-0.2c-1.7-0.2-3.4-0.4-5-0.5
					c-0.8-0.1-1.7-0.1-2.5-0.2c-2.3-0.2-4.7-0.3-7-0.3c-0.8,0-1.7,0-2.5,0c-2.3,0-4.6,0-6.9,0.1c-0.6,0-1.3,0-1.9,0.1
					c-0.2,0-0.4,0-0.6,0c-10.7,0.6-21.1,2.3-30.4,5.2c-0.3,0.1-0.6,0.2-0.9,0.3c-0.7,0.2-1.3,0.4-1.9,0.6c-1.8,0.6-3.5,1.3-5.1,2
					c-0.6,0.2-1.2,0.5-1.7,0.8c-0.7,0.3-1.4,0.6-2,0.9c-0.9,0.4-1.7,0.9-2.5,1.3c-0.5,0.3-1,0.6-1.5,0.9c-1.4,0.8-2.7,1.6-3.9,2.5
					c-0.5,0.3-0.9,0.6-1.3,1c-1.2,0.9-2.3,1.8-3.3,2.8c-0.4,0.4-0.7,0.7-1.1,1.1c-1,1-1.9,2-2.6,2.9c-0.3,0.4-0.6,0.7-0.9,1.1
					c-0.7,1-1.4,2-1.9,3.1c-0.2,0.4-0.4,0.8-0.6,1.2c-0.5,1.1-0.9,2.1-1.3,3.2c-0.1,0.4-0.3,0.8-0.4,1.3c-0.3,1.1-0.5,2.2-0.6,3.3
					c0,0.4-0.1,0.9-0.1,1.3c0,1.1,0,2.2,0.1,3.3c0,0.4,0.1,0.9,0.2,1.3c0.1,1.1,0.4,2.2,0.7,3.3c0.1,0.4,0.3,0.9,0.4,1.3
					c0.4,1.1,0.8,2.2,1.4,3.2c0.2,0.4,0.4,0.9,0.7,1.3c0.6,1,1.2,2.1,1.9,3.1c0.3,0.4,0.6,0.9,1,1.3c0.7,1,1.5,2,2.4,3
					c0.4,0.4,0.8,0.8,1.2,1.3c0.3,0.3,0.6,0.6,0.8,0.8c0.7,0.7,1.3,1.3,2.1,2c0.5,0.4,0.9,0.8,1.4,1.2c0.2,0.2,0.4,0.4,0.6,0.5
					l-6.1,1.8c-1,0.3-1.7,0.8-1.9,1.4c-0.2,0.4-0.2,0.9,0,1.3c0.2,0.4,0.5,0.8,1,1.3l14,11l161.8-45.2l-0.4-1.4l-14-10.6
					C414.7,547.2,413.5,546.6,412.3,546.3z M288.7,580.3c-0.2-0.2-0.4-0.3-0.6-0.5c-14.6-11.6-9.1-26.4,12.9-33
					c3.4-1,7-1.8,10.7-2.3c8.3-1.2,17.1-1.1,25.5,0c12.5,1.7,24.1,5.9,31.6,12c0.2,0.2,0.4,0.3,0.6,0.5L288.7,580.3z"/>
			</g>
		</g>
		<g>
			<g>
				<path class="st36" d="M412.8,543.9c-1.1-0.3-2.2-0.4-3.3-0.3c-0.7,0-1.4,0.1-2.1,0.3l-6.9,2c-0.6-0.5-1.2-0.9-1.8-1.4
					c-0.6-0.4-1.1-0.8-1.7-1.2c-0.5-0.4-1.1-0.7-1.6-1.1c-0.9-0.6-1.8-1.2-2.8-1.7c-0.7-0.4-1.3-0.8-1.9-1.1c-1.6-0.9-3.3-1.8-5-2.6
					c-0.7-0.4-1.4-0.7-2.1-1c-0.5-0.2-1-0.4-1.5-0.7c-1.3-0.6-2.7-1.2-4.1-1.8c-0.7-0.3-1.5-0.6-2.3-0.9c-2-0.8-4-1.5-6.1-2.1
					c-0.8-0.3-1.6-0.5-2.4-0.8c-2.1-0.7-4.3-1.3-6.4-1.8c-0.8-0.2-1.7-0.4-2.5-0.6c-2.2-0.5-4.5-1-6.8-1.5c-0.8-0.2-1.7-0.3-2.5-0.5
					c-2.3-0.4-4.6-0.8-6.9-1.1c-0.8-0.1-1.7-0.2-2.6-0.3c-0.7-0.1-1.3-0.2-2-0.2c-1.7-0.2-3.4-0.4-5-0.5c-0.8-0.1-1.7-0.1-2.5-0.2
					c-2.3-0.2-4.7-0.3-7-0.3c-0.8,0-1.7,0-2.5,0c-2.3,0-4.6,0-6.9,0.1c-0.6,0-1.3,0-1.9,0.1c-0.2,0-0.4,0-0.6,0
					c-10.7,0.6-21.1,2.3-30.4,5.2c-0.3,0.1-0.6,0.2-0.9,0.3c-0.7,0.2-1.3,0.4-1.9,0.6c-1.8,0.6-3.5,1.3-5.1,1.9
					c-0.6,0.2-1.2,0.5-1.7,0.8c-0.7,0.3-1.4,0.6-2,0.9c-0.9,0.4-1.7,0.8-2.5,1.3c-0.5,0.3-1,0.6-1.5,0.9c-1.4,0.8-2.7,1.6-3.9,2.5
					c-0.5,0.3-0.9,0.6-1.3,1c-1.2,0.9-2.3,1.8-3.3,2.7c-0.4,0.3-0.7,0.7-1.1,1c-1,0.9-1.9,1.9-2.6,2.9c-0.3,0.4-0.6,0.7-0.9,1.1
					c-0.7,1-1.4,2-1.9,3.1c-0.2,0.4-0.4,0.8-0.6,1.2c-0.5,1-0.9,2.1-1.3,3.2c-0.1,0.4-0.3,0.8-0.4,1.2c-0.3,1.1-0.5,2.2-0.6,3.3
					c0,0.4-0.1,0.8-0.1,1.3c0,1.1,0,2.2,0.1,3.3c0,0.4,0.1,0.9,0.2,1.3c0.1,1.1,0.4,2.2,0.7,3.3c0.1,0.4,0.3,0.9,0.4,1.3
					c0.4,1.1,0.8,2.1,1.4,3.2c0.2,0.4,0.4,0.9,0.7,1.3c0.6,1,1.2,2,1.9,3.1c0.3,0.4,0.6,0.9,1,1.3c0.7,1,1.5,2,2.4,2.9
					c0.4,0.4,0.8,0.8,1.2,1.3c0.3,0.3,0.6,0.6,0.8,0.8c0.7,0.6,1.3,1.3,2.1,1.9c0.5,0.4,0.9,0.8,1.4,1.2c0.2,0.2,0.4,0.3,0.6,0.5
					l-6.1,1.7c-1,0.3-1.7,0.8-1.9,1.4c-0.2,0.4-0.2,0.9,0,1.3c0.2,0.4,0.5,0.8,1,1.2l14,10.9l161.9-44.9L416,545.4
					C415.2,544.7,414,544.2,412.8,543.9z M289.1,577.7c-0.2-0.2-0.4-0.3-0.6-0.5c-14.6-11.5-9-26.1,12.9-32.7c3.4-1,7-1.8,10.7-2.3
					c8.3-1.2,17.1-1.1,25.5,0c12.5,1.7,24.1,5.8,31.5,11.9c0.2,0.2,0.4,0.3,0.6,0.5L289.1,577.7z"/>
			</g>
		</g>
	</g>
	<g>
		<g>
			<g>
				<path class="st37" d="M132.9,356.2c-0.6,0-1.2,0.1-1.9,0.1c-0.8,0-1.7,0-2.6-0.1c-0.6,0-1.1-0.1-1.7-0.1
					c-1.2-0.1-2.4-0.3-3.5-0.5c-0.6-0.1-1.2-0.3-1.8-0.4c-0.5-0.1-1.1-0.3-1.6-0.4c-0.4-0.1-0.7-0.3-1.1-0.4
					c-0.6-0.2-1.2-0.4-1.8-0.7c-0.4-0.2-0.7-0.3-1-0.5c-0.7-0.3-1.3-0.7-1.9-1c-0.8-0.5-1.6-1.1-2.4-1.7c-0.7-0.5-1.3-1.1-1.9-1.8
					c-0.2-0.2-0.4-0.4-0.5-0.6c-0.4-0.5-0.9-1-1.3-1.5c-0.2-0.2-0.3-0.4-0.5-0.6c-0.5-0.7-1.1-1.4-1.6-2.2l-5.5,1.4
					c0.5,0.8,1,1.5,1.6,2.2c0.2,0.2,0.3,0.4,0.5,0.6c0.4,0.5,0.9,1,1.3,1.5c0.2,0.2,0.4,0.4,0.5,0.6c0.6,0.6,1.3,1.2,1.9,1.7
					c0,0,0,0,0,0c0.8,0.6,1.5,1.2,2.4,1.7c0.3,0.2,0.5,0.3,0.8,0.5c0.3,0.2,0.7,0.4,1.1,0.5c0.3,0.2,0.7,0.4,1,0.5
					c0.1,0.1,0.2,0.1,0.3,0.2c0.5,0.2,1,0.4,1.5,0.5c0.4,0.1,0.7,0.3,1.1,0.4c0.1,0,0.1,0.1,0.2,0.1c0.4,0.1,0.9,0.2,1.4,0.3
					c0.6,0.2,1.2,0.3,1.8,0.4c0.1,0,0.2,0,0.3,0.1c1,0.2,2.1,0.3,3.2,0.5c0.5,0.1,0.9,0.1,1.4,0.1c0.1,0,0.2,0,0.3,0
					c0.9,0.1,1.8,0.1,2.6,0.1c0.3,0,0.6,0,0.8,0c0.4,0,0.7-0.1,1.1-0.1c0.5,0,1.1-0.1,1.6-0.1c0.1,0,0.3,0,0.4,0
					c0.7-0.1,1.3-0.2,2-0.4l5.5-1.4c-0.7,0.2-1.5,0.3-2.4,0.4C134,356.1,133.5,356.2,132.9,356.2z"/>
			</g>
			<g>
				<path class="st37" d="M117.5,289.7c-3.8,1.6-7,4.1-9.6,7.5l5.5-1.4c2.6-3.4,5.8-5.9,9.6-7.5c1.1-0.5,2.2-0.8,3.4-1.1l-5.5,1.4
					C119.7,288.9,118.6,289.3,117.5,289.7z"/>
			</g>
			<g>
				<path class="st37" d="M134.2,312c-0.6,0-1.2,0.1-1.9,0.1c-0.8,0-1.6,0-2.4-0.1c-0.5,0-1-0.1-1.5-0.1l-4.5-0.5l-5.5,1.4l4.5,0.5
					c0.4,0,0.8,0.1,1.2,0.1c0.1,0,0.2,0,0.3,0c0.8,0.1,1.6,0.1,2.4,0.1c0.3,0,0.5,0,0.8,0c0.4,0,0.7-0.1,1.1-0.1
					c0.5,0,1-0.1,1.5-0.1c0.1,0,0.3,0,0.4,0c0.7-0.1,1.3-0.2,2-0.4l5.5-1.4c-0.8,0.2-1.6,0.3-2.4,0.4
					C135.2,311.9,134.7,312,134.2,312z"/>
			</g>
			<g>
				<path class="st37" d="M170,296c0-0.2,0-0.5,0-0.7c0-0.2-0.1-0.4-0.1-0.7c0-0.5-0.1-0.9-0.2-1.4c0-0.2,0-0.5-0.1-0.7
					c-0.1-0.3-0.1-0.7-0.2-1c0-0.1-0.1-0.3-0.1-0.4c-0.2-0.6-0.3-1.2-0.5-1.8c-0.1-0.2-0.1-0.4-0.2-0.6c-1.3-3.3-3.3-6.2-5.9-8.7
					c-0.5-0.5-1-0.9-1.5-1.3c-0.1-0.1-0.2-0.2-0.3-0.3c-0.3-0.2-0.6-0.4-0.9-0.6c-0.4-0.3-0.9-0.6-1.4-1c-0.3-0.2-0.6-0.4-1-0.6
					c-0.2-0.1-0.5-0.3-0.7-0.4c-0.3-0.2-0.6-0.3-0.9-0.5c-0.2-0.1-0.5-0.3-0.7-0.4c-0.8-0.4-1.7-0.8-2.6-1.2c-0.1,0-0.1-0.1-0.2-0.1
					c-0.1-0.1-0.3-0.1-0.4-0.1c-1.1-0.4-2.2-0.8-3.3-1.2c-0.2-0.1-0.3-0.1-0.5-0.2c-0.2-0.1-0.4-0.1-0.6-0.2
					c-1.2-0.3-2.4-0.6-3.6-0.9c-0.2,0-0.4-0.1-0.6-0.1c-0.1,0-0.1,0-0.2,0c-1.3-0.2-2.5-0.4-3.9-0.6c-0.6-0.1-1.3-0.1-1.9-0.2
					c-0.2,0-0.3,0-0.5,0c-1.4-0.1-2.8-0.2-4.2-0.2c-0.5,0-1,0-1.5,0c-1.1,0-2.1,0.1-3.1,0.2c-1.2,0.1-2.4,0.2-3.6,0.4
					c-0.2,0-0.4,0.1-0.5,0.1c-0.2,0-0.5,0.1-0.7,0.1c-1.3,0.2-2.5,0.5-3.8,0.8l-5.5,1.4c1.2-0.3,2.5-0.6,3.8-0.8
					c0.2,0,0.5-0.1,0.7-0.1c1.3-0.2,2.7-0.4,4.1-0.5c1.5-0.1,3.1-0.2,4.6-0.2c1.4,0,2.8,0.1,4.2,0.2c0.8,0.1,1.6,0.1,2.4,0.2
					c1.3,0.1,2.6,0.3,3.9,0.6c0.3,0,0.5,0.1,0.8,0.2c1.2,0.2,2.4,0.5,3.6,0.9c0.4,0.1,0.8,0.2,1.2,0.3c1.1,0.4,2.3,0.8,3.3,1.2
					c0.2,0.1,0.4,0.2,0.6,0.2c0.9,0.4,1.7,0.8,2.6,1.2c0.2,0.1,0.5,0.3,0.7,0.4c0.6,0.3,1.1,0.6,1.6,0.9c0.3,0.2,0.7,0.4,1,0.6
					c0.5,0.3,0.9,0.6,1.4,1c0.3,0.2,0.6,0.4,0.9,0.6c0.7,0.5,1.3,1,1.9,1.6c2.7,2.5,4.7,5.4,5.9,8.7c0.3,0.8,0.6,1.6,0.8,2.4
					c0,0.1,0.1,0.3,0.1,0.4c0.1,0.5,0.2,1.1,0.3,1.7c0.1,0.4,0.1,0.9,0.2,1.4c0,0.5,0.1,0.9,0.1,1.4c0,0.4,0,0.8,0,1.2
					c0,0.7,0,1.5-0.1,2.2c-0.1,0.5-0.1,1-0.2,1.6c-0.1,0.6-0.2,1.2-0.4,1.8c0,0.2-0.1,0.4-0.1,0.6c-0.2,0.8-0.4,1.5-0.7,2.3
					c-0.2,0.6-0.5,1.2-0.7,1.8c-0.2,0.4-0.4,0.8-0.6,1.2c-0.5,0.9-1,1.8-1.6,2.6c-0.2,0.3-0.5,0.6-0.7,1c-0.1,0.2-0.3,0.3-0.4,0.5
					c-0.4,0.5-0.8,1-1.3,1.4c-1.9,1.9-4,3.5-6.5,4.6c-0.6,0.3-1.3,0.6-1.9,0.8c-0.1,0-0.2-0.1-0.3-0.1c-0.1,0-0.1,0-0.2-0.1
					l-5.5,1.4c0.2,0.1,0.4,0.1,0.5,0.2c0.8,0.2,1.5,0.5,2.2,0.8c0.3,0.1,0.5,0.2,0.7,0.3c0.7,0.3,1.4,0.6,2,1
					c0.2,0.1,0.4,0.2,0.5,0.3c0.2,0.1,0.4,0.2,0.6,0.4c0.4,0.2,0.8,0.5,1.1,0.7c0.2,0.1,0.4,0.3,0.6,0.5c0.3,0.3,0.7,0.5,1,0.8
					c0.2,0.2,0.4,0.3,0.6,0.5c0.3,0.3,0.6,0.6,0.9,0.9c0.2,0.2,0.4,0.4,0.5,0.6c0.3,0.3,0.6,0.7,0.9,1.1c0.1,0.2,0.3,0.3,0.4,0.5
					c0.4,0.5,0.8,1.1,1.2,1.7c0.5,0.7,0.9,1.5,1.3,2.3c0.1,0.2,0.2,0.5,0.3,0.7c0.3,0.6,0.5,1.1,0.7,1.7c0.1,0.3,0.2,0.6,0.3,1
					c0.1,0.3,0.2,0.6,0.3,0.8c0.1,0.4,0.2,0.8,0.3,1.2c0.1,0.3,0.1,0.6,0.2,0.9c0.1,0.3,0.1,0.6,0.1,0.9c0.1,0.8,0.2,1.6,0.3,2.4
					c0,0.2,0,0.4,0.1,0.6c0.1,1,0.1,1.9,0,2.9c0,0.7-0.1,1.5-0.2,2.2c-0.1,0.8-0.2,1.6-0.4,2.4c-0.1,0.5-0.2,1-0.3,1.4
					c-0.1,0.6-0.3,1.1-0.5,1.7c-0.1,0.4-0.3,0.9-0.4,1.3c-0.2,0.5-0.4,1-0.6,1.5c-0.2,0.4-0.4,0.9-0.6,1.3c-0.4,0.8-0.8,1.6-1.3,2.3
					c-0.4,0.7-0.9,1.3-1.4,1.9c-0.2,0.3-0.5,0.6-0.7,0.9c-0.4,0.4-0.8,0.9-1.2,1.3c-0.3,0.3-0.5,0.5-0.8,0.8c-0.5,0.4-1,0.9-1.5,1.3
					c-0.2,0.2-0.5,0.4-0.7,0.6c-0.8,0.6-1.6,1.1-2.4,1.6c-2.8,1.7-6,3-9.5,3.9l5.5-1.4c0.9-0.2,1.7-0.5,2.6-0.7
					c2.5-0.8,4.8-1.9,6.9-3.1c0.8-0.5,1.6-1.1,2.4-1.6c0.2-0.2,0.5-0.4,0.7-0.6c0.5-0.4,1-0.8,1.5-1.3c0.3-0.3,0.5-0.5,0.8-0.8
					c0.4-0.4,0.8-0.8,1.2-1.3c0.2-0.3,0.5-0.6,0.7-0.9c0.2-0.2,0.4-0.5,0.6-0.7c0.3-0.4,0.5-0.8,0.8-1.2c0.4-0.6,0.8-1.3,1.1-2
					c0.1-0.1,0.1-0.3,0.2-0.4c0.2-0.4,0.4-0.9,0.6-1.3c0.2-0.4,0.3-0.7,0.5-1.1c0.1-0.1,0.1-0.3,0.1-0.4c0.1-0.4,0.3-0.8,0.4-1.3
					c0.1-0.4,0.2-0.7,0.3-1.1c0-0.2,0.1-0.4,0.1-0.6c0.1-0.5,0.2-1,0.3-1.4c0.1-0.3,0.2-0.7,0.2-1c0.1-0.4,0.1-0.9,0.2-1.3
					c0.1-0.7,0.1-1.4,0.2-2c0-0.1,0-0.1,0-0.2c0-1,0-2,0-2.9c0-0.1,0-0.1,0-0.2c0-0.1,0-0.3-0.1-0.4c-0.1-0.8-0.2-1.6-0.3-2.4
					c0-0.1,0-0.3-0.1-0.5c0-0.1-0.1-0.3-0.1-0.4c-0.1-0.3-0.1-0.6-0.2-0.9c-0.1-0.4-0.2-0.8-0.3-1.2c-0.1-0.3-0.2-0.6-0.3-0.8
					c-0.1-0.2-0.1-0.3-0.2-0.5c-0.1-0.1-0.1-0.3-0.2-0.4c-0.2-0.6-0.5-1.1-0.7-1.7c-0.1-0.2-0.2-0.5-0.3-0.7
					c-0.4-0.8-0.8-1.5-1.3-2.3c-0.4-0.6-0.8-1.2-1.2-1.7c-0.1-0.2-0.3-0.3-0.4-0.5c-0.3-0.4-0.6-0.7-0.9-1.1
					c-0.2-0.2-0.4-0.4-0.5-0.6c-0.3-0.3-0.6-0.6-0.9-0.9c-0.2-0.2-0.4-0.4-0.6-0.5c-0.1-0.1-0.3-0.2-0.4-0.4
					c-0.2-0.1-0.4-0.3-0.6-0.4c-0.2-0.2-0.4-0.3-0.6-0.5c-0.4-0.3-0.7-0.5-1.1-0.7c-0.2-0.1-0.4-0.2-0.6-0.4c-0.1,0-0.1-0.1-0.2-0.1
					c-0.1-0.1-0.3-0.1-0.4-0.2c-0.6-0.4-1.3-0.7-2-1c-0.1-0.1-0.2-0.1-0.4-0.2c-0.1,0-0.2-0.1-0.4-0.1c-0.7-0.3-1.4-0.5-2.1-0.7
					l3.2-0.8c1.4-0.3,2.7-0.8,3.9-1.4c2.4-1.2,4.6-2.7,6.5-4.6c0.4-0.5,0.9-0.9,1.3-1.4c0.1-0.2,0.3-0.3,0.4-0.5
					c0.2-0.3,0.4-0.5,0.6-0.8c0,0,0-0.1,0.1-0.1c0.6-0.8,1.1-1.7,1.6-2.6c0-0.1,0.1-0.2,0.2-0.2c0.2-0.3,0.3-0.6,0.5-0.9
					c0.3-0.6,0.5-1.1,0.7-1.7c0,0,0-0.1,0-0.1c0.3-0.7,0.5-1.5,0.7-2.3c0,0,0-0.1,0-0.1c0-0.2,0.1-0.3,0.1-0.5
					c0.1-0.6,0.3-1.2,0.4-1.8c0-0.1,0.1-0.2,0.1-0.4c0.1-0.4,0.1-0.8,0.2-1.2c0.1-0.5,0.1-1.1,0.1-1.6c0-0.2,0-0.4,0-0.6
					C170,296.8,170,296.4,170,296z"/>
			</g>
		</g>
		<g>
			<g>
				<path class="st36" d="M157.2,281.4c-2.7-2.5-6-4.6-10-6.3c-3.9-1.7-8.4-2.8-13.4-3.4c-2.2-0.2-4.4-0.4-6.6-0.4
					c-1.6,0-3.1,0.1-4.6,0.2c-3.7,0.3-7.1,0.9-10.3,1.9c-3.2,0.9-6.1,2.2-8.7,3.7c-2.6,1.5-4.8,3.2-6.5,5.3l10.8,14.9
					c2.6-3.4,5.8-5.9,9.6-7.5c2.9-1.2,5.9-1.8,9.2-1.8c1,0,2.1,0.1,3.2,0.2c4.4,0.5,7.8,1.8,10.3,4c2.5,2.2,3.5,5.3,3.1,9.2
					c-0.4,4.1-2.4,7.3-6,9.6c-2.8,1.7-6.2,2.6-10.4,2.6c-1.2,0-2.5-0.1-3.9-0.2l-4.5-0.5l-1.5,14.3l4.1,0.5
					c7.3,0.8,12.6,2.8,15.9,5.8c3.3,3.1,4.7,7.1,4.2,12.1c-0.5,4.8-2.5,8.1-5.9,10.1c-2.5,1.4-5.7,2.2-9.7,2.2
					c-1.4,0-2.8-0.1-4.3-0.3c-5.3-0.6-9.5-1.9-12.8-4c-3.3-2.1-6-4.9-8.2-8.3l-12.5,12.4c3.2,4.9,7.6,8.9,13,11.8
					c5.4,3,11.9,4.9,19.4,5.7c2.5,0.3,4.8,0.4,7.1,0.4c3.1,0,6-0.2,8.8-0.7c4.8-0.9,9-2.4,12.6-4.5c3.6-2.2,6.5-4.9,8.6-8.4
					c2.2-3.4,3.5-7.4,4-11.9c0.7-6.7-0.6-12.5-3.8-17.6c-3.3-5.1-7.9-8.4-13.9-10.2c2.8-0.2,5.4-0.8,7.8-2c2.4-1.2,4.6-2.7,6.5-4.6
					c1.9-1.9,3.4-4.1,4.6-6.6c1.1-2.5,1.9-5.1,2.2-8c0.4-3.8,0-7.4-1.3-10.7C161.8,286.9,159.9,283.9,157.2,281.4z"/>
			</g>
		</g>
	</g>
	<g>
		<g>
			<g>
				<polygon class="st38" points="214.1,530.9 221.6,529.1 225.9,499.9 218.3,501.8 				"/>
			</g>
			<g>
				<polygon class="st38" points="204.4,430.6 163.5,469.5 198,474.7 205.5,472.9 171,467.6 211.9,428.7 				"/>
			</g>
			<g>
				<polygon class="st38" points="241.4,392.6 223,389.8 215.5,391.7 233.8,394.5 221.7,478.3 239.3,481 235.9,504.5 243.4,502.6 
					246.8,479.1 229.2,476.5 				"/>
			</g>
		</g>
		<g>
			<g>
				<path class="st39" d="M233.8,394.5l-18.3-2.8l-78.7,74l-3.4,23.3l58.2,8.8l-4.2,29.1l26.7,4.1l4.2-29.1l17.5,2.7l3.4-23.5
					l-17.5-2.7L233.8,394.5z M198,474.7l-34.5-5.3l40.9-38.9L198,474.7z"/>
			</g>
		</g>
	</g>
	<g>
		<g>
			<g>
				<path class="st40" d="M472.4,318.8l6.1-1.5c2.1-1.6,4.4-2.7,7-3.3l-6.1,1.5C476.8,316.1,474.4,317.2,472.4,318.8z"/>
			</g>
			<g>
				<path class="st37" d="M494,351.3c-0.5,0-1,0.1-1.5,0.1c-0.6,0-1.2,0-1.8-0.1c-0.7-0.1-1.4-0.2-2.2-0.3c-0.1,0-0.2,0-0.2-0.1
					c-0.7-0.1-1.4-0.3-2.1-0.5c-0.5-0.2-1.1-0.3-1.7-0.5c-0.9-0.3-1.7-0.7-2.6-1.1c-0.5-0.2-1-0.5-1.5-0.8c-0.7-0.4-1.4-0.8-2.1-1.2
					c-0.1-0.1-0.3-0.2-0.4-0.3c-0.9-0.6-1.8-1.3-2.6-2c-0.2-0.2-0.4-0.3-0.5-0.5c-0.8-0.7-1.7-1.5-2.5-2.4c-0.8-0.9-1.6-1.9-2.4-2.9
					c-0.2-0.3-0.5-0.7-0.7-1c-0.5-0.7-0.9-1.4-1.4-2.1c-0.3-0.4-0.5-0.9-0.7-1.3c-0.4-0.7-0.7-1.3-1-2c-0.2-0.5-0.4-1-0.6-1.5
					c-0.3-0.8-0.7-1.6-1-2.5l-6.1,1.5c0.1,0.3,0.2,0.6,0.3,0.9c0.2,0.5,0.4,1,0.6,1.6c0.2,0.5,0.4,1,0.6,1.5c0.3,0.7,0.7,1.4,1,2
					c0.2,0.4,0.4,0.9,0.7,1.3c0.4,0.7,0.9,1.4,1.4,2.1c0.2,0.3,0.4,0.7,0.7,1c0.7,1,1.5,2,2.4,2.9c0.8,0.9,1.6,1.6,2.5,2.4
					c0.2,0.2,0.4,0.3,0.5,0.5c0.2,0.1,0.3,0.3,0.5,0.4c0.7,0.6,1.4,1.1,2.1,1.5c0.1,0.1,0.3,0.2,0.4,0.3c0.4,0.3,0.9,0.6,1.3,0.8
					c0.3,0.2,0.5,0.3,0.8,0.4c0.5,0.3,1,0.5,1.5,0.8c0.3,0.1,0.5,0.3,0.8,0.4c0.6,0.2,1.2,0.5,1.8,0.7c0.5,0.2,0.9,0.3,1.4,0.5
					c0.1,0,0.2,0,0.3,0.1c0.7,0.2,1.4,0.4,2.1,0.5c0.1,0,0.1,0,0.2,0.1c0,0,0,0,0,0c0.7,0.1,1.4,0.2,2.1,0.3c0,0,0.1,0,0.1,0
					c0.6,0,1.1,0.1,1.7,0.1c0.2,0,0.4,0,0.5,0c0.3,0,0.6-0.1,0.9-0.1c0.4,0,0.7,0,1.1-0.1c0.1,0,0.2,0,0.2,0
					c0.6-0.1,1.2-0.2,1.8-0.4l6.1-1.5c-0.7,0.2-1.4,0.3-2,0.4C494.7,351.3,494.4,351.3,494,351.3z"/>
			</g>
			<g>
				<path class="st37" d="M533.7,332.5c0-0.6,0-1.1,0-1.7c0-0.1,0-0.2,0-0.3c-0.1-1.3-0.3-2.6-0.5-3.8c0-0.1,0-0.1,0-0.2
					c-0.2-1-0.4-1.9-0.7-2.9c-0.1-0.2-0.2-0.5-0.2-0.7c-0.2-0.5-0.3-1-0.5-1.6c-0.1-0.3-0.2-0.6-0.3-0.8c-0.1-0.3-0.2-0.5-0.3-0.8
					c-0.4-1-0.8-1.9-1.3-2.9c-2.2-4.2-5.3-7.9-9.2-11.2c-0.1-0.1-0.3-0.2-0.4-0.4c-0.8-0.7-1.7-1.3-2.6-1.9c0,0-0.1-0.1-0.1-0.1
					c-0.8-0.6-1.7-1.1-2.6-1.6c-0.1-0.1-0.2-0.1-0.3-0.2c-0.2-0.1-0.5-0.3-0.7-0.4c-0.8-0.4-1.7-0.9-2.5-1.3
					c-0.3-0.1-0.6-0.3-0.9-0.4c-0.2-0.1-0.4-0.2-0.6-0.3c-0.9-0.4-1.9-0.8-2.9-1.1c-0.7-0.2-1.4-0.5-2.1-0.7c-0.1,0-0.1,0-0.2,0
					c-1-0.3-2-0.5-3-0.7c-0.1,0-0.1,0-0.2,0c-0.2,0-0.5-0.1-0.7-0.1c-0.5-0.1-1.1-0.2-1.6-0.2c-0.1,0-0.2,0-0.3,0
					c-0.5,0-1-0.1-1.5-0.1c-0.2,0-0.4,0-0.6,0c-0.3,0-0.5,0-0.7,0.1c-0.4,0-0.8,0-1.1,0.1c-0.1,0-0.2,0-0.3,0
					c-0.5,0.1-0.9,0.2-1.3,0.3l-2.1,0.5l12.4-22.4l-6.1,1.5L485,299l4.8-1.2c0.1,0,0.1,0,0.2,0c0.4,0,0.9-0.1,1.4-0.1
					c0.6,0,1.2,0.1,1.8,0.1c0.5,0,1,0.1,1.6,0.2c0.3,0,0.6,0.1,0.9,0.1c1,0.2,1.9,0.4,3,0.7c0.7,0.2,1.5,0.4,2.3,0.7
					c1.2,0.4,2.3,0.9,3.4,1.4c0.3,0.1,0.6,0.3,0.9,0.4c0.9,0.4,1.7,0.8,2.5,1.3c0.2,0.1,0.5,0.3,0.7,0.4c1,0.6,2,1.2,2.9,1.8
					c0,0,0.1,0.1,0.1,0.1c1,0.7,2.1,1.5,3,2.3c3.9,3.2,6.9,7,9.2,11.2c0.5,0.9,0.9,1.9,1.3,2.9c0.1,0.3,0.2,0.5,0.3,0.8
					c0.3,0.8,0.6,1.6,0.8,2.4c0.1,0.2,0.2,0.5,0.2,0.7c0.3,1,0.5,2,0.7,3.1c0.2,1.2,0.4,2.5,0.5,3.8c0,0.7,0,1.3,0,2
					c0,0.6,0,1.2,0,1.9c0,0.6-0.1,1.2-0.2,1.8c-0.1,0.7-0.1,1.3-0.2,2c-0.1,0.5-0.2,1.1-0.3,1.6c-0.1,0.8-0.3,1.5-0.5,2.3
					c-0.3,1.2-0.6,2.4-1.1,3.6c-0.3,0.8-0.6,1.6-0.9,2.3c-0.4,0.9-0.7,1.7-1.1,2.6c-0.4,0.8-0.8,1.6-1.2,2.3
					c-0.1,0.2-0.2,0.4-0.3,0.5c-0.6,0.9-1.2,1.8-1.8,2.7c-0.9,1.2-1.8,2.4-2.8,3.4c-3.6,3.7-7.8,6.6-12.5,8.5
					c-1.7,0.7-3.4,1.2-5.1,1.7l6.1-1.5c1.8-0.4,3.5-1,5.1-1.7c4.7-1.9,8.9-4.8,12.5-8.5c1-1.1,2-2.2,2.8-3.4
					c0.1-0.1,0.2-0.2,0.3-0.3c0.6-0.8,1.1-1.6,1.6-2.4c0.1-0.2,0.2-0.4,0.3-0.5c0.3-0.5,0.6-1,0.8-1.5c0.1-0.2,0.2-0.5,0.3-0.8
					c0.4-0.8,0.8-1.7,1.1-2.6c0.1-0.4,0.3-0.7,0.5-1.1c0.2-0.4,0.3-0.9,0.5-1.3c0.4-1.1,0.7-2.2,1-3.3c0-0.1,0-0.2,0.1-0.3
					c0.2-0.8,0.3-1.5,0.5-2.3c0.1-0.5,0.2-0.9,0.3-1.4c0-0.1,0-0.1,0-0.2c0.1-0.7,0.1-1.3,0.2-2c0-0.5,0.1-1.1,0.2-1.6
					c0-0.1,0-0.1,0-0.2C533.8,333.7,533.8,333.1,533.7,332.5z"/>
			</g>
			<g>
				<polygon class="st37" points="488.9,252.3 543.4,271.5 537,290.1 543.2,288.5 549.5,269.9 495,250.8 				"/>
			</g>
		</g>
		<g>
			<g>
				<path class="st36" d="M472,281.5c-2.2,3.7-4.3,7.3-6.3,10.9c-2,3.6-3.9,6.8-5.6,9.7c-1.7,2.9-3.1,5.2-4.2,7.1
					c-1.1,1.8-1.7,2.9-1.8,3.2l18.2,6.4c2.7-2,5.7-3.3,9.2-3.8c1-0.1,2-0.2,3-0.2c2.5,0,4.9,0.4,7.4,1.3c5.2,1.8,8.9,4.9,11.2,9.4
					c2.3,4.4,2.5,9.3,0.7,14.6c-1.9,5.5-5.2,9.3-9.9,11.3c-2.4,1-4.9,1.6-7.5,1.6c-2.5,0-5.2-0.5-7.9-1.5c-4.7-1.6-8.8-4.4-12.3-8.2
					c-3.5-3.9-6.1-8.3-7.7-13.3l-16.2,8c1.4,7,4.6,13.2,9.9,18.8c5.2,5.6,11.9,9.8,20,12.7c5.7,2,11.3,3,17.1,3
					c5.6,0,10.7-1,15.5-2.9c4.7-1.9,8.9-4.8,12.5-8.5c3.6-3.8,6.3-8.4,8.2-13.9c1.8-5.2,2.5-10.2,2.1-15.2
					c-0.4-4.9-1.7-9.5-3.9-13.7c-2.2-4.2-5.3-7.9-9.2-11.2c-3.9-3.3-8.4-5.8-13.6-7.6c-3.5-1.3-6.6-1.9-9.5-1.9
					c-2.6,0-4.7,0.4-6.4,1.3l12.6-22.7l39.4,13.8l6.3-18.6l-54.5-19.2C482.7,263.1,477,272.8,472,281.5z"/>
			</g>
		</g>
	</g>
	<g>
		<g>
			<g>
				<path class="st23" d="M685.1,486c-0.6,0.3-1.1,0.6-1.7,0.9c0,0,0,0,0,0c-0.7,0.3-1.4,0.6-2.2,0.9c-0.2,0.1-0.4,0.2-0.7,0.2
					c-0.6,0.2-1.2,0.4-1.8,0.6c-0.4,0.1-0.7,0.2-1.1,0.3c-0.8,0.2-1.6,0.3-2.4,0.4c-0.9,0.1-1.8,0.2-2.7,0.2c-0.1,0-0.1,0-0.2,0
					c-1.1,0-2.3-0.1-3.4-0.2c-0.6-0.1-1.2-0.2-1.8-0.3c-3.4-0.7-6.5-2-9.4-3.8c-1-0.6-1.9-1.3-2.8-2c-0.3-0.2-0.6-0.5-0.9-0.8
					c-0.2-0.2-0.4-0.4-0.6-0.5c-0.4-0.4-0.8-0.8-1.2-1.2c-0.1-0.2-0.3-0.3-0.4-0.5c-0.5-0.6-1.1-1.2-1.6-1.9c-0.4-0.5-0.7-1-1-1.5
					c-0.3-0.4-0.5-0.8-0.7-1.2c-0.2-0.4-0.4-0.8-0.6-1.1c-0.2-0.4-0.4-0.8-0.5-1.1c-0.2-0.4-0.3-0.8-0.5-1.2
					c-0.1-0.4-0.3-0.8-0.4-1.2c-0.2-0.6-0.4-1.3-0.6-2c-0.1-0.6-0.2-1.3-0.3-1.9c-0.1-0.6-0.1-1.1-0.2-1.7c0-0.4-0.1-0.7-0.1-1.1
					c0-1,0-1.9,0-2.9c0,0,0-0.1,0-0.1c0.1-0.8,0.2-1.7,0.4-2.5c0.7-3.3,1.9-6.4,3.7-9.2c1-1.6,2.2-3,3.5-4.4l-5.5,5.4
					c-1.4,1.3-2.5,2.8-3.5,4.4c-1.8,2.8-3,5.9-3.7,9.2c-0.2,0.8-0.3,1.7-0.4,2.5c0,0,0,0,0,0c0,0,0,0.1,0,0.1c-0.1,1-0.1,1.9,0,2.9
					c0,0.1,0,0.2,0,0.4c0,0.2,0.1,0.5,0.1,0.7c0,0.6,0.1,1.1,0.2,1.7c0,0.2,0,0.4,0.1,0.5c0.1,0.4,0.2,0.9,0.3,1.3
					c0.1,0.5,0.2,0.9,0.4,1.4c0.1,0.2,0.1,0.4,0.2,0.6c0.1,0.4,0.3,0.8,0.4,1.2c0.1,0.2,0.1,0.4,0.2,0.7c0.1,0.2,0.2,0.4,0.3,0.6
					c0.2,0.4,0.3,0.8,0.5,1.1c0.1,0.2,0.2,0.4,0.3,0.6c0.1,0.2,0.2,0.3,0.3,0.5c0.2,0.4,0.5,0.8,0.7,1.2c0.1,0.2,0.2,0.4,0.4,0.6
					c0.2,0.3,0.4,0.6,0.7,0.9c0.5,0.6,0.9,1.2,1.4,1.8c0,0,0.1,0.1,0.1,0.1c0.1,0.2,0.3,0.3,0.4,0.4c0.4,0.4,0.8,0.8,1.2,1.2
					c0.2,0.2,0.4,0.4,0.6,0.5c0.2,0.2,0.4,0.3,0.6,0.5c0.1,0.1,0.2,0.2,0.3,0.3c0.9,0.7,1.8,1.4,2.8,2c2.9,1.8,6,3,9.4,3.8
					c0.5,0.1,0.9,0.2,1.4,0.3c0.1,0,0.3,0,0.4,0c1.1,0.2,2.3,0.3,3.4,0.2c0,0,0,0,0,0c0,0,0.1,0,0.1,0c0.9,0,1.8-0.1,2.7-0.2
					c0.1,0,0.1,0,0.2,0c0.7-0.1,1.5-0.2,2.3-0.4c0.2,0,0.4-0.1,0.6-0.1c0.1,0,0.3-0.1,0.4-0.1c0.6-0.2,1.2-0.3,1.8-0.6
					c0.1,0,0.3-0.1,0.4-0.1c0.1,0,0.2-0.1,0.2-0.1c0.7-0.3,1.5-0.6,2.2-0.9c0,0,0,0,0,0c0,0,0,0,0,0c0.6-0.3,1.2-0.6,1.7-0.9
					c0.2-0.1,0.4-0.2,0.6-0.3c0.5-0.3,1-0.6,1.4-1c0.4-0.3,0.7-0.5,1.1-0.8c0.7-0.6,1.4-1.2,2-1.8l5.5-5.4c-0.9,0.9-2,1.8-3.1,2.6
					C686.5,485.2,685.8,485.6,685.1,486z"/>
			</g>
			<g>
				<path class="st23" d="M633.8,413.4c-0.4,0.9-0.8,1.9-1.1,2.9c-0.1,0.3-0.2,0.7-0.3,1c-0.2,0.7-0.4,1.4-0.6,2.1
					c-0.1,0.4-0.2,0.8-0.3,1.3c-0.1,0.7-0.3,1.3-0.4,2c-0.1,0.5-0.1,0.9-0.2,1.4c0,0.4-0.1,0.7-0.1,1.1c0,0.3,0,0.6,0,1
					c0,0.6-0.1,1.2-0.1,1.8c0,0.7,0,1.4,0,2c0,0.6,0,1.2,0,1.9c0,0.3,0,0.6,0,0.9c0,0.4,0.1,0.8,0.1,1.2c0,0.7,0.1,1.3,0.2,2
					c0.1,0.7,0.2,1.5,0.3,2.3c0.1,0.7,0.2,1.4,0.3,2.1c0,0.3,0.1,0.6,0.1,0.9c0.2,0.9,0.3,1.9,0.5,2.9l5.5-5.4
					c-0.3-1.3-0.5-2.5-0.7-3.7c-0.1-0.7-0.2-1.4-0.3-2.1c-0.1-0.8-0.2-1.5-0.3-2.3c-0.1-0.7-0.1-1.3-0.2-2c-0.1-0.7-0.1-1.4-0.1-2.2
					c0-0.6,0-1.2,0-1.9c0-0.7,0-1.4,0-2c0-0.6,0-1.2,0.1-1.8c0-0.7,0.1-1.4,0.2-2c0.1-0.5,0.1-0.9,0.2-1.4c0.1-0.7,0.2-1.4,0.4-2
					c0.1-0.4,0.2-0.8,0.3-1.3c0.2-0.7,0.4-1.4,0.6-2.1c0.1-0.3,0.2-0.7,0.3-1c0.3-1,0.7-2,1.1-2.9c1.4-3.1,3.3-5.8,5.5-8l-5.5,5.4
					C637.1,407.6,635.2,410.3,633.8,413.4z"/>
			</g>
			<g>
				<path class="st23" d="M723.9,460.2c0-0.5-0.1-0.9-0.2-1.4c-0.1-1-0.2-2-0.4-3.1c-0.1-0.3-0.1-0.7-0.1-1
					c-0.2-0.9-0.3-1.8-0.6-2.7c-0.2-0.9-0.4-1.8-0.7-2.7c-0.1-0.3-0.2-0.7-0.3-1c-0.2-0.7-0.5-1.5-0.8-2.2c-0.2-0.4-0.3-0.9-0.4-1.3
					c-0.1-0.3-0.3-0.7-0.5-1c-0.3-0.7-0.6-1.3-0.9-2c-0.2-0.4-0.3-0.8-0.5-1.1c-0.2-0.3-0.4-0.6-0.6-1c-0.4-0.7-0.8-1.4-1.2-2.1
					c-0.2-0.3-0.4-0.7-0.6-1.1c-0.4-0.6-0.8-1.2-1.3-1.8c-0.7-0.9-1.4-1.8-2.2-2.7c-0.1-0.2-0.3-0.3-0.5-0.5c-0.3-0.4-0.7-0.7-1-1
					c-0.7-0.7-1.3-1.4-2-2c-0.4-0.3-0.7-0.7-1.1-1c-0.3-0.2-0.5-0.5-0.7-0.7c-0.5-0.4-1-0.8-1.5-1.2c-0.3-0.3-0.7-0.5-1-0.8
					c-1.1-0.8-2.3-1.6-3.5-2.3c-1.3-0.8-2.7-1.5-4.1-2.2c-0.4-0.2-0.7-0.3-1.1-0.4c-1.1-0.5-2.1-0.9-3.2-1.3
					c-0.6-0.2-1.2-0.3-1.8-0.5c-0.9-0.3-1.8-0.6-2.8-0.8c-0.7-0.2-1.4-0.3-2.1-0.4c-0.9-0.2-1.7-0.4-2.7-0.5c0,0,0,0-0.1,0
					c-1.5-0.2-3-0.4-4.6-0.5c-0.5,0-1,0-1.5,0c-0.7,0-1.5-0.1-2.2-0.1c-0.4,0-0.7,0-1.1,0c-0.4,0-0.8,0-1.1,0
					c-1.4,0.1-2.9,0.2-4.3,0.4c-0.1,0-0.1,0-0.2,0c0,0,0,0-0.1,0c-1.7,0.2-3.3,0.5-5,0.9c-0.4,0.1-0.8,0.2-1.1,0.3
					c-0.2,0.1-0.4,0.1-0.6,0.2c-1.1,0.3-2.2,0.6-3.3,1c-0.2,0.1-0.4,0.1-0.6,0.2c-0.1,0-0.2,0.1-0.3,0.1c-1.2,0.4-2.3,0.9-3.4,1.4
					c0,0,0,0-0.1,0c-0.9,0.4-1.7,0.9-2.6,1.4c-0.3,0.2-0.5,0.3-0.8,0.5c-0.2,0.1-0.3,0.2-0.5,0.4c-0.8,0.5-1.5,1-2.2,1.6
					c-0.2,0.1-0.3,0.2-0.5,0.4c-0.2,0.2-0.5,0.4-0.7,0.6c-0.6,0.5-1.3,1.1-1.8,1.7l-5.5,5.4c0.6-0.6,1.2-1.1,1.8-1.7
					c0.4-0.3,0.8-0.6,1.2-0.9c0.7-0.6,1.5-1.1,2.2-1.6c0.4-0.3,0.9-0.6,1.3-0.8c0.9-0.5,1.7-1,2.7-1.4c1.1-0.5,2.3-1,3.4-1.4
					c0.3-0.1,0.6-0.2,0.9-0.3c1.1-0.4,2.2-0.7,3.3-1c0.6-0.2,1.2-0.3,1.8-0.5c1.7-0.4,3.4-0.7,5.1-0.9c0.1,0,0.1,0,0.2,0
					c1.4-0.2,2.9-0.3,4.3-0.4c0.4,0,0.8,0,1.1,0c1.1,0,2.2,0,3.3,0c0.5,0,1,0,1.5,0c1.5,0.1,3,0.2,4.6,0.5c0.9,0.1,1.8,0.3,2.7,0.5
					c0.7,0.1,1.4,0.3,2.1,0.4c0.9,0.2,1.8,0.5,2.7,0.8c0.6,0.2,1.2,0.3,1.8,0.6c1,0.3,1.9,0.7,2.8,1.1c0.5,0.2,1,0.4,1.5,0.6
					c1.4,0.7,2.8,1.4,4.1,2.2c1.2,0.7,2.4,1.5,3.5,2.3c0.4,0.3,0.7,0.5,1,0.8c0.8,0.6,1.5,1.2,2.3,1.8c0.4,0.3,0.7,0.7,1.1,1
					c0.7,0.6,1.4,1.3,2,2c0.3,0.3,0.7,0.7,1,1c0.9,1,1.8,2.1,2.7,3.2c0.7,0.9,1.3,1.9,1.9,2.8c0.4,0.7,0.9,1.4,1.2,2.1
					c0.4,0.7,0.8,1.4,1.1,2.1c0.3,0.7,0.6,1.3,0.9,2c0.3,0.7,0.6,1.5,0.9,2.2c0.3,0.7,0.5,1.5,0.8,2.2c0.4,1.2,0.7,2.4,1,3.7
					c0.3,1.3,0.5,2.5,0.7,3.7c0.2,1,0.3,2.1,0.4,3.1c0.1,0.8,0.2,1.7,0.2,2.5c0,0.4,0,0.7,0,1c0,1.4,0,2.9-0.2,4.3
					c-0.1,1.6-0.4,3.2-0.7,4.8c-1.3,6.3-3.7,12.2-7.3,17.4c-1.8,2.7-3.8,5.1-6.2,7.4l5.5-5.4c2.3-2.3,4.4-4.8,6.2-7.4
					c3.5-5.3,6-11.1,7.3-17.4c0.3-1.6,0.6-3.2,0.7-4.8c0,0,0,0,0-0.1c0.1-1.4,0.2-2.8,0.2-4.2c0-0.3,0-0.7,0-1.1
					C724,460.9,724,460.6,723.9,460.2z"/>
			</g>
			<g>
				<path class="st23" d="M700.4,382c-1.5-1.2-3-2.3-4.5-3.4c-0.2-0.1-0.3-0.2-0.5-0.3c-1.6-1-3.2-2-4.9-2.8
					c-0.1-0.1-0.3-0.1-0.4-0.2c-1.7-0.9-3.5-1.6-5.3-2.3c-0.1,0-0.2-0.1-0.2-0.1c-1.9-0.7-3.8-1.3-5.7-1.8c-1.6-0.4-3.2-0.7-4.9-1
					c-0.3,0-0.6-0.1-0.9-0.1c-0.4-0.1-0.9-0.1-1.4-0.2c-1.6-0.2-3.2-0.3-4.8-0.3c-0.4,0-0.7,0-1.1,0c-0.2,0-0.3,0-0.5,0
					c-1.7,0-3.4,0.1-5.2,0.3c-0.3,0-0.6,0.1-0.9,0.1c-0.3,0-0.6,0.1-1,0.1c-1.7,0.2-3.5,0.5-5.2,0.9c-0.5,0.1-1,0.2-1.5,0.3
					c-0.8,0.2-1.6,0.4-2.4,0.7c-0.1,0-0.2,0.1-0.4,0.1c-1,0.3-1.9,0.6-2.9,0.9c-0.1,0.1-0.3,0.1-0.4,0.2c-1.5,0.6-3,1.2-4.5,1.9
					c0,0,0,0-0.1,0c-1.2,0.6-2.3,1.2-3.5,1.8c-0.4,0.2-0.7,0.4-1.1,0.7c-0.4,0.3-0.9,0.6-1.3,0.9c-0.3,0.2-0.5,0.3-0.8,0.5
					c-0.8,0.6-1.7,1.2-2.5,1.8c0,0-0.1,0.1-0.1,0.1c-1.1,0.9-2.2,1.9-3.2,2.9l-5.5,5.4c1-1,2.1-2,3.2-2.9c0.8-0.7,1.7-1.3,2.6-1.9
					c0.2-0.2,0.5-0.3,0.8-0.5c0.8-0.5,1.6-1,2.4-1.5c1.1-0.7,2.3-1.3,3.5-1.9c1.4-0.7,2.9-1.3,4.5-1.9c1.1-0.4,2.2-0.8,3.3-1.1
					c0.1,0,0.2-0.1,0.4-0.1c1.3-0.4,2.6-0.7,3.9-1c2.1-0.5,4.1-0.8,6.2-1c0.3,0,0.6-0.1,0.9-0.1c1.9-0.2,3.8-0.3,5.6-0.3
					c0.4,0,0.7,0,1.1,0c1.6,0,3.2,0.1,4.8,0.3c0.5,0,0.9,0.1,1.4,0.2c1.9,0.3,3.9,0.6,5.8,1.1c1.9,0.5,3.8,1.1,5.7,1.8
					c0.1,0,0.2,0.1,0.2,0.1c1.8,0.7,3.5,1.4,5.3,2.3c0.1,0.1,0.3,0.1,0.4,0.2c1.7,0.9,3.3,1.8,4.9,2.8c0.2,0.1,0.3,0.2,0.5,0.3
					c1.5,1,3,2.2,4.5,3.4c0.4,0.3,0.7,0.6,1.1,0.9l-11.5,19.5l5.5-5.4l11.5-19.5c-0.2-0.2-0.5-0.4-0.7-0.6
					C700.7,382.1,700.6,382,700.4,382z"/>
			</g>
		</g>
		<g>
			<g>
				<path class="st20" d="M709.4,440.3c-3.8-5-8.3-9.1-13.6-12.2c-5.3-3.1-11.2-5.2-17.7-6.2c-6.5-1-13.2-0.7-20,0.8
					c-4.5,1-8.6,2.5-12.1,4.6c-1.7,1-3.3,2.1-4.7,3.3c-4.5,3.8-7.5,8.3-9.1,13.5c-2.6-12.5-2.1-22.7,1.6-30.6
					c2.3-5.1,5.7-8.9,10.2-11.6c2.5-1.5,5.3-2.5,8.5-3.2c5.9-1.3,11.7-1.2,17.3,0.4c5.6,1.6,10.5,4.5,14.8,8.6l11.5-19.5
					c-6.7-5.8-14.2-9.7-22.6-11.8c-8.3-2.1-16.9-2.1-25.7-0.2c-5.7,1.3-10.9,3.2-15.5,6c-2,1.2-3.9,2.5-5.7,4
					c-5.9,4.8-10.5,10.9-13.7,18.4c-3.2,7.5-4.9,16.3-5.3,26.4c-0.4,10.1,0.9,21.4,3.7,33.8c2.3,9.9,5.5,18.4,9.7,25.6
					c4.2,7.2,9.1,13,14.9,17.4c5.7,4.4,12,7.3,19.1,8.7c7,1.4,14.5,1.3,22.3-0.5c6.2-1.4,11.7-3.5,16.8-6.5c0.9-0.5,1.7-1,2.6-1.6
					c5.7-3.8,10.3-8.3,13.8-13.6c3.5-5.3,6-11.1,7.3-17.4c1.3-6.3,1.2-12.8-0.4-19.5C715.8,451,713.2,445.3,709.4,440.3z
					 M692.2,473.3c-0.7,3.4-1.9,6.6-3.7,9.5c-1.8,2.9-4.1,5.3-6.9,7.4c-0.6,0.5-1.3,0.9-2,1.3c-2.3,1.3-4.8,2.3-7.5,2.9
					c-3.6,0.8-7,0.8-10.4,0.1c-3.4-0.7-6.5-2-9.4-3.8c-2.9-1.8-5.4-4.1-7.5-6.9c-2.1-2.8-3.6-6-4.3-9.4c-0.8-3.4-0.8-6.8-0.2-10.1
					c0.7-3.3,1.9-6.4,3.7-9.2c1.8-2.8,4.1-5.2,6.9-7.2c0.5-0.4,1-0.7,1.6-1c2.5-1.4,5.1-2.5,8-3.1c3.5-0.8,7-0.9,10.5-0.3
					c3.5,0.6,6.6,1.8,9.4,3.6c2.8,1.8,5.3,4.1,7.3,6.8c2.1,2.7,3.5,5.8,4.3,9.3C692.8,466.4,692.9,469.8,692.2,473.3z"/>
			</g>
		</g>
	</g>
	<g>
		<g>
			<g>
				<path class="st41" d="M538.6,217.3c-12.4-9.8-25.3-19-38.6-27.4c-2.4-1.5-6-0.6-7.3,1.9c-1.4,2.6-0.6,5.7,1.9,7.3
					c12.5,8,25,16.7,36.4,25.8c2.2,1.7,5.4,2.3,7.5,0C540.4,222.9,541,219.1,538.6,217.3z"/>
			</g>
		</g>
		<g>
			<g>
				<path class="st41" d="M527.4,185.7c-2.4-1.3-5.9-0.7-7.3,1.9c-3.3,6.4-6.6,12.8-9.9,19.1c-1.5,2.8-2.9,5.5-4.6,8.2
					c-1.8,2.9-3.3,5.1-5.4,7.4c-1.8,2.1-2.2,5.5,0,7.5c2,1.8,5.6,2.2,7.5,0c4.6-5.2,8.1-11.1,11.3-17.2c3.4-6.5,6.8-13.1,10.2-19.6
					C530.6,190.5,530.1,187.1,527.4,185.7z"/>
			</g>
		</g>
	</g>
	<g>
		<g>
			<g>
				<path class="st41" d="M142.3,185c-15.2,2.2-30.2,5.1-45.1,8.8c-2.7,0.7-4.6,3.9-3.7,6.5c0.9,2.8,3.7,4.4,6.5,3.7
					c14.9-3.7,29.9-6.6,45.1-8.8c2.8-0.4,4.5-4,3.7-6.5C147.9,185.7,145.3,184.6,142.3,185z"/>
			</g>
		</g>
		<g>
			<circle class="st41" cx="117.1" cy="177.3" r="6.5"/>
		</g>
		<g>
			<circle class="st41" cx="125.1" cy="211.5" r="6.5"/>
		</g>
	</g>
</g>
</svg>
