<?xml version="1.0" encoding="utf-8"?>
<!-- Generator: Adobe Illustrator 27.7.0, SVG Export Plug-In . SVG Version: 6.00 Build 0)  -->
<svg version="1.1" id="Layer_1" xmlns="http://www.w3.org/2000/svg" xmlns:xlink="http://www.w3.org/1999/xlink" x="0px" y="0px"
	 viewBox="0 0 777.5 213.8" style="enable-background:new 0 0 777.5 213.8;" xml:space="preserve">
<style type="text/css">
	.st0{fill:#E21A23;}
</style>
<path class="st0" d="M63.1,89.2C72.2,85,79.4,76.3,79.4,65c0-13.2-7.6-20.9-18.1-25.4C50.5,35,20.5,24.1,12,21
	c8.7,28.9,13.8,24.2,40.1,29c10.9,1.9,14.4,8.9,14.4,15.1c0,8.3-6,14.1-14.9,14.1H34.5V62.3H21.1l0,73.3h13.4V91.8H47l32.4,43.8h18
	L63.1,89.2z"/>
<polygon class="st0" points="143.5,135.6 206.7,135.6 206.7,121.8 157.3,121.8 157.3,89.5 192.1,89.5 192.1,75.6 157.3,75.6 
	157.3,52.2 206.7,52.2 206.7,38.4 143.5,38.4 "/>
<path class="st0" d="M288,121.8h-21.4V52.2h20.5c19.3,0,35.8,15.3,35.8,34.6C323,106.1,307.3,121.8,288,121.8 M313.5,45.7
	c-7.5-4.7-14.9-7.4-26.2-7.4h-34.5v97.3h34.9c27,0,48.9-21.8,48.9-48.8C336.7,69.4,327.4,54.3,313.5,45.7"/>
<path class="st0" d="M418.8,121.9h-22.6V89.5h22.6c8.9,0,16.4,8.1,16.4,17.1C435.1,115.7,427.7,121.9,418.8,121.9 M396.2,50.9h13.4
	c8.9,0,14.5,5.5,14.5,13.4c0,7.9-5.6,11.5-14.5,11.5h-13.4V50.9z M429.6,80.8c4.8-3.6,7.8-8.8,7.8-15.9c0-15.7-10.6-26.5-27.5-26.5
	h-27v97.3h36.3c17,0,29.4-11.8,29.4-29C448.5,93.3,440.9,84.2,429.6,80.8"/>
<rect x="494.6" y="38.4" class="st0" width="13.9" height="97.3"/>
<path class="st0" d="M585,79.2h-17.1V51H585c8.9,0,14.5,5.8,14.5,14.1C599.5,73.4,593.9,79.2,585,79.2 M596.5,89.2
	c9.2-4.2,16.4-12.9,16.4-24.1c0-15.9-10.6-26.8-27.5-26.8h-30.8v97.3h13.4V91.9h12.4l32.4,43.8h18L596.5,89.2z"/>
<path class="st0" d="M712.1,121.8h-21.4V52.2h20.5c19.3,0,35.8,15.3,35.8,34.6C747,106.1,731.4,121.8,712.1,121.8 M737.6,45.7
	c-7.5-4.7-14.9-7.4-26.2-7.4h-34.5v97.3h34.9c27,0,48.9-21.8,48.9-48.8C760.8,69.4,751.5,54.3,737.6,45.7"/>
<path d="M60.8,188.5h10.9l-5.5-14.2L60.8,188.5z M73.3,192.8H59.2l-3.1,8.1h-5.2l12.5-32.4h5.9l12.5,32.4h-5.2L73.3,192.8z"/>
<path d="M215.3,188.5h10.9l-5.5-14.2L215.3,188.5z M227.8,192.8h-14.2l-3.1,8.1h-5.2l12.5-32.4h5.9l12.5,32.4h-5.1L227.8,192.8z"/>
<path d="M343.1,188.5H354l-5.5-14.2L343.1,188.5z M355.7,192.8h-14.2l-3.1,8.1h-5.2l12.5-32.4h5.9l12.5,32.4h-5.2L355.7,192.8z"/>
<polygon points="282.9,168.5 303.9,168.5 303.9,172.8 287.7,172.8 287.7,180.8 299.3,180.8 299.3,185.1 287.7,185.1 287.7,196.7 
	303.9,196.7 303.9,200.9 282.9,200.9 "/>
<path d="M439,193.8c1.7,2,4.5,3.6,7.7,3.6c3.8,0,5.6-2.3,5.6-4.8c0-3.3-2.9-4.7-6.2-6.2c-3.9-1.8-8.5-3.7-8.5-9.6
	c0-5,3.9-8.8,9.7-8.8c3.7,0,6.8,1.3,9,3.5l-2.3,3.5c-1.8-2-4.2-2.8-6.8-2.8c-2.8,0-4.9,1.8-4.9,4.4c0,2.8,2.8,4,5.8,5.5
	c4.1,1.9,8.8,4.1,8.8,10.3c0,5-3.4,9.3-10.2,9.3c-4.4,0-7.8-1.6-10.1-4.1L439,193.8z"/>
<polygon points="21.5,168.5 26.3,168.5 26.3,196.7 41.1,196.7 41.1,200.9 21.5,200.9 "/>
<polygon points="96.2,176 96.2,200.9 91.3,200.9 91.3,168.5 96.4,168.5 114,192.8 114,168.5 118.9,168.5 118.9,200.9 114.2,200.9 
	"/>
<path d="M145.4,167.9c6.1,0,10.1,2.8,12.8,6.4l-3.9,2.3c-1.9-2.5-5.1-4.4-8.9-4.4c-6.8,0-11.8,5.2-11.8,12.5
	c0,7.3,5.1,12.5,11.8,12.5c3.6,0,6.7-1.8,8.2-3.2v-7.3h-6.8v-4.3h11.6v13.4c-3.1,3.5-7.6,5.7-13.1,5.7c-9.3,0-16.8-6.7-16.8-16.8
	C128.6,174.6,136.1,167.9,145.4,167.9"/>
<path d="M260.1,167.9c6.1,0,10.1,2.8,12.8,6.4l-3.9,2.3c-1.8-2.5-5.1-4.4-8.9-4.4c-6.8,0-11.8,5.2-11.8,12.5
	c0,7.3,5.1,12.5,11.8,12.5c3.6,0,6.7-1.8,8.2-3.2v-7.3h-6.8v-4.3h11.6v13.4c-3.1,3.5-7.6,5.7-13.1,5.7c-9.3,0-16.8-6.7-16.8-16.8
	C243.2,174.6,250.8,167.9,260.1,167.9"/>
<path d="M747.7,167.9c6.1,0,10.1,2.8,12.8,6.4l-3.9,2.3c-1.8-2.5-5.1-4.4-8.9-4.4c-6.8,0-11.8,5.2-11.8,12.5
	c0,7.3,5.1,12.5,11.8,12.5c3.6,0,6.7-1.8,8.2-3.2v-7.3h-6.8v-4.3h11.6v13.4c-3.1,3.5-7.6,5.7-13.1,5.7c-9.3,0-16.8-6.7-16.8-16.8
	C730.8,174.6,738.4,167.9,747.7,167.9"/>
<path d="M168.3,168.2h4.9v19.6c0,5.5,3.1,9.1,8.8,9.1c5.7,0,8.7-3.6,8.7-9.1v-19.6h4.9v19.7c0,8.1-4.5,13.3-13.6,13.3
	c-9.1,0-13.7-5.3-13.7-13.3V168.2z"/>
<polygon points="413.3,172.8 403.3,172.8 403.3,168.5 428.2,168.5 428.2,172.8 418.2,172.8 418.2,200.9 413.3,200.9 "/>
<path d="M497,180.9c3.3-1.5,6-3.2,6-6.2c0-2.2-1.6-3.4-3.6-3.4c-2.3,0-4.2,1.8-4.2,4.4C495.2,177.2,496,179.1,497,180.9
	 M503.1,195.2c-1.7-1.8-3.4-3.6-4.3-4.7c-1.2-1.5-2.6-3.2-3.8-4.9c-2.4,1.5-4.2,3.4-4.2,6.4c0,3.8,2.9,5.9,6.1,5.9
	C499.2,197.9,501.3,196.8,503.1,195.2 M514.6,200.9h-5.8c-0.9-0.8-2-1.9-3.2-3.1c-2.4,2.2-5.5,3.7-9.2,3.7c-5.7,0-10.3-3.1-10.3-9.1
	c0-5,3.4-7.6,7.1-9.6c-1.4-2.4-2.4-4.9-2.4-7.2c0-4.3,3.7-7.6,8.5-7.6c4.3,0,7.7,2.4,7.7,6.5c0,4.9-4.1,7-8.2,9.1
	c1.2,1.6,2.5,3.2,3.5,4.3c1.2,1.4,2.4,2.7,3.5,4c1.7-2.5,2.8-5.3,3.4-7.1l3.6,1.7c-1.1,2.6-2.5,5.5-4.4,8.2
	C510.3,196.7,512.3,198.7,514.6,200.9"/>
<polygon points="565,175.9 558.3,200.9 553.1,200.9 543.8,168.5 549.3,168.5 556,194.5 563.1,168.5 567,168.5 574.1,194.5 
	580.8,168.5 586.2,168.5 577,200.9 571.8,200.9 "/>
<rect x="631" y="168.5" width="4.9" height="32.4"/>
<polygon points="655.7,172.8 645.6,172.8 645.6,168.5 670.6,168.5 670.6,172.8 660.5,172.8 660.5,200.9 655.7,200.9 "/>
<rect x="680.3" y="168.5" width="4.9" height="32.4"/>
<polygon points="699.7,176 699.7,200.9 694.9,200.9 694.9,168.5 699.9,168.5 717.5,192.8 717.5,168.5 722.4,168.5 722.4,200.9 
	717.7,200.9 "/>
<path d="M378.1,172.7h5.1c3,0,4.8,1.9,4.8,4.7c0,2.8-1.9,4.7-4.8,4.7h-5.1V172.7z M393.1,200.9h6l-11.4-15.5c3.1-1.4,4.9-4.3,4.9-8
	c0-5.3-3.5-8.9-9.2-8.9h-9.6v32.4h4.5v-14.6h4.2L393.1,200.9z"/>
<path d="M600.4,172.8h5c3,0,4.8,1.9,4.8,4.7c0,2.8-1.8,4.7-4.8,4.7h-5V172.8z M615.3,200.9l6,0l-11.4-15.4c3.1-1.4,4.8-4.3,4.8-8
	c0-5.3-3.5-8.9-9.1-8.9H596v32.3h4.4v-14.5h4.1L615.3,200.9z"/>
</svg>
