<?xml version="1.0" encoding="utf-8"?>
<!-- Generator: Adobe Illustrator 27.7.0, SVG Export Plug-In . SVG Version: 6.00 Build 0)  -->
<svg version="1.1" id="ART" xmlns="http://www.w3.org/2000/svg" xmlns:xlink="http://www.w3.org/1999/xlink" x="0px" y="0px"
	 viewBox="0 0 280.9 91.4" style="enable-background:new 0 0 280.9 91.4;" xml:space="preserve">
<style type="text/css">
	.st0{fill:#E31B22;}
</style>
<g>
	<path class="st0" d="M20,36.7c3.6-1.6,6.4-5,6.4-9.4c0-5.2-3-8.2-7.1-9.9c-4.2-1.8-16-6-19.3-7.3c3.4,11.3,5.4,9.5,15.6,11.3
		c4.2,0.8,5.6,3.5,5.6,5.9c0,3.2-2.3,5.5-5.8,5.5H8.8v-6.6H3.6l0,28.6h5.2V37.7h4.9l12.6,17.1h7L20,36.7z"/>
	<polygon class="st0" points="48.4,54.8 73.1,54.8 73.1,49.4 53.8,49.4 53.8,36.8 67.4,36.8 67.4,31.4 53.8,31.4 53.8,22.3 
		73.1,22.3 73.1,16.8 48.4,16.8 	"/>
	<path class="st0" d="M114.3,19.7c-2.9-1.8-5.8-2.9-10.2-2.9H90.6v38h13.6c10.5,0,19.1-8.5,19.1-19C123.3,29,119.7,23.1,114.3,19.7z
		 M104.3,49.4H96V22.3h8c7.5,0,14,6,14,13.5S111.8,49.4,104.3,49.4z"/>
	<path class="st0" d="M158.1,33.4c1.9-1.4,3-3.4,3-6.2c0-6.1-4.1-10.4-10.8-10.4h-10.6v38H154c6.6,0,11.5-4.6,11.5-11.3
		C165.5,38.3,162.5,34.7,158.1,33.4z M145,21.7h5.2c3.5,0,5.7,2.1,5.7,5.2c0,3.1-2.2,4.5-5.7,4.5H145V21.7z M153.9,49.5H145V36.8
		h8.8c3.5,0,6.4,3.2,6.4,6.7C160.2,47,157.3,49.5,153.9,49.5z"/>
	<rect x="181.5" y="16.9" class="st0" width="5.4" height="38"/>
	<path class="st0" d="M220.7,36.7c3.6-1.6,6.4-5,6.4-9.4c0-6.2-4.1-10.5-10.8-10.5h-12v38l5.2,0V37.7h4.9l12.6,17.1h7L220.7,36.7z
		 M216.2,32.8h-6.7v-11h6.7c3.5,0,5.7,2.2,5.7,5.5C221.9,30.5,219.7,32.8,216.2,32.8z"/>
	<path class="st0" d="M271.8,19.7c-2.9-1.8-5.8-2.9-10.2-2.9l-13.5,0v38h13.6c10.5,0,19.1-8.5,19.1-19
		C280.9,29,277.2,23.1,271.8,19.7z M261.9,49.4h-8.3V22.3h8c7.5,0,14,6,14,13.5S269.4,49.4,261.9,49.4z"/>
</g>
<g>
	<path d="M29.5,77.1h-5.6l-1.2,3.2h-2.1l5-12.9h2.3l5,12.9h-2L29.5,77.1z M24.5,75.4h4.3l-2.2-5.6L24.5,75.4z"/>
	<path d="M101.1,77.1h-5.6l-1.2,3.2h-2.1l5-12.9h2.3l5,12.9h-2L101.1,77.1z M96.1,75.4h4.3l-2.2-5.6L96.1,75.4z"/>
	<path d="M38.6,69.2h-4v-1.7h9.9v1.7h-4v11.2h-1.9V69.2z"/>
	<path d="M57.2,74.1h-6.9v6.3h-1.9V67.5h1.9v4.8h6.9v-4.8h1.9v12.9h-1.9V74.1z"/>
	<path d="M63,67.5h8.4v1.7h-6.4v3.2h4.6v1.7h-4.6v4.6h6.4v1.7H63V67.5z"/>
	<path d="M86.3,70.1L81.7,76l-4.6-5.9v10.2h-1.9V67.5h1.9l4.6,5.8l4.6-5.8h1.9v12.9h-1.9V70.1z"/>
	<path d="M14.7,70.1L10.1,76l-4.6-5.9v10.2H3.6V67.5h1.9l4.6,5.8l4.6-5.8h1.9v12.9h-1.9V70.1z"/>
	<path d="M110.2,69.2h-4v-1.7h9.9v1.7h-4v11.2h-1.9V69.2z"/>
	<path d="M120,67.5h1.9v12.9H120V67.5z"/>
	<path d="M141.6,77.5c0.7,0.8,1.8,1.4,3,1.4c1.5,0,2.2-0.9,2.2-1.9c0-1.3-1.1-1.8-2.4-2.4c-1.5-0.7-3.3-1.5-3.3-3.8
		c0-2,1.5-3.5,3.8-3.5c1.5,0,2.7,0.5,3.5,1.4l-0.9,1.4c-0.7-0.8-1.7-1.1-2.7-1.1c-1.1,0-1.9,0.7-1.9,1.7c0,1.1,1.1,1.6,2.3,2.2
		c1.6,0.7,3.4,1.6,3.4,4c0,2-1.3,3.6-4,3.6c-1.7,0-3.1-0.6-4-1.6L141.6,77.5z"/>
	<path d="M136.8,77.1c-1,1-2.4,1.7-4,1.7c-2.9,0-5.3-2.2-5.3-4.9c0-2.7,2.4-4.9,5.3-4.9c1.6,0,3,0.6,4,1.7v-2.2
		c-1.1-0.7-2.5-1.2-4-1.2c-3.9,0-7,3-7,6.6c0,3.6,3.2,6.6,7,6.6c1.5,0,2.8-0.4,4-1.2V77.1z"/>
</g>
</svg>
