<?xml version="1.0" encoding="UTF-8"?><svg xmlns="http://www.w3.org/2000/svg" xmlns:xlink="http://www.w3.org/1999/xlink" viewBox="0 0 363.6 154.82"><defs><style>.cls-1{fill:none;}.cls-2{clip-path:url(#clippath);}.cls-3{fill:#e59335;}.cls-4{fill:#e08030;}.cls-5{fill:#db6e2d;}.cls-6{fill:#d75a2b;}.cls-7{fill:#1d1d1b;}.cls-8{fill:#2a2523;}.cls-9{clip-path:url(#clippath-1);}.cls-10{clip-path:url(#clippath-3);}.cls-11{clip-path:url(#clippath-2);}.cls-12{isolation:isolate;}.cls-13{mix-blend-mode:multiply;opacity:.25;}</style><clipPath id="clippath"><rect class="cls-1" x="211.67" y="74.15" width="26.14" height="80.67"/></clipPath><clipPath id="clippath-1"><rect class="cls-1" x="99.2" y="74.15" width="57.18" height="80.66"/></clipPath><clipPath id="clippath-2"><rect class="cls-1" x="2.24" y="74.21" width="26.14" height="80.59"/></clipPath><clipPath id="clippath-3"><rect class="cls-1" x="272.2" y="74.15" width="26.14" height="80.67"/></clipPath></defs><g class="cls-12"><g id="Layer_2"><g id="Hero"><path class="cls-7" d="m174.34,39.45c.08-.77.13-1.55.13-2.34,0-12.29-9.96-22.26-22.26-22.26s-22.26,9.96-22.26,22.26,9.96,22.25,22.26,22.25c8.19,0,15.34-4.43,19.2-11.02l-4.01-2.34c-3.06,5.21-8.71,8.71-15.18,8.71-8.94,0-16.3-6.66-17.44-15.29h34.87s0,.01,0,.02h4.69Zm-22.12-19.95c8.99,0,16.39,6.74,17.46,15.44h-34.93c1.07-8.7,8.47-15.44,17.46-15.44"/><path class="cls-7" d="m87.73,39.45c.08-.77.13-1.55.13-2.34,0-12.29-9.97-22.26-22.26-22.26s-22.26,9.96-22.26,22.26,9.96,22.25,22.26,22.25c8.19,0,15.34-4.43,19.2-11.02l-4.01-2.34c-3.06,5.21-8.71,8.71-15.18,8.71-8.94,0-16.3-6.66-17.44-15.29h34.87s0,.01,0,.02h4.69Zm-22.12-19.95c8.99,0,16.39,6.74,17.46,15.44h-34.93c1.07-8.7,8.47-15.44,17.46-15.44"/><path class="cls-7" d="m219.22,14.85v8.96c-4.06-5.38-10.49-8.88-17.76-8.88-12.29,0-22.26,9.96-22.26,22.26s9.96,22.25,22.26,22.25c7.27,0,13.7-3.5,17.76-8.88v8.81h4.5V14.85h-4.5Zm-17.76,39.94c-9.73,0-17.61-7.89-17.61-17.61s7.88-17.61,17.61-17.61,17.61,7.89,17.61,17.61-7.88,17.61-17.61,17.61"/><rect class="cls-7" x="233.84" y="0" width="4.5" height="59.36"/><path class="cls-7" d="m40.68,17.47C40.68,8.02,33.16.34,23.78.03v-.03H0v59.37h4.5v-24.43h18.71c.6,0,1.19-.03,1.78-.09l10.39,24.59h4.99l-10.73-25.74c6.47-2.56,11.04-8.86,11.04-16.23M4.5,30.46V4.5h19.15c6.97.23,12.56,5.94,12.56,12.97s-5.82,12.99-12.99,12.99h0s-18.71,0-18.71,0Z"/><polygon class="cls-7" points="121.9 34.94 129.99 15.78 125.11 15.78 117.02 34.94 121.9 34.94"/><polygon class="cls-7" points="101.48 34.94 93.39 15.78 88.51 15.78 96.6 34.94 101.48 34.94"/><polygon class="cls-7" points="115.12 39.43 109.25 53.32 103.38 39.43 98.5 39.43 106.6 58.59 111.91 58.59 120 39.43 115.12 39.43"/><rect class="cls-6" x="269.82" y="100.29" width="78.52" height="26.14"/><rect class="cls-6" x="115" y="124.46" width="47.27" height="19.6"/><polygon class="cls-6" points="0 74.15 0 85.03 44.62 129.65 63.1 111.17 26.08 74.15 0 74.15"/><polygon class="cls-4" points="89.24 74.15 63.15 74.15 26.14 111.17 44.62 129.65 89.24 85.03 89.24 74.15"/><rect class="cls-4" x="183.27" y="74.15" width="78.41" height="26.14"/><rect class="cls-6" x="183.27" y="74.15" width="41.51" height="26.14"/><g class="cls-13"><g class="cls-2"><rect class="cls-7" x="211.67" y="74.15" width="26.14" height="80.67"/></g></g><rect class="cls-3" x="63.1" y="74.15" width="26.14" height="78.41"/><polygon class="cls-5" points="63.15 74.15 63.1 74.21 63.1 111.17 89.24 85.03 89.24 74.15 63.15 74.15"/><rect class="cls-3" x="209.4" y="74.15" width="26.14" height="78.41"/><rect class="cls-5" x="209.4" y="74.15" width="26.14" height="26.13"/><polygon class="cls-4" points="129.6 74.15 158.13 152.56 185.95 152.56 157.41 74.15 129.6 74.15"/><polygon class="cls-5" points="147.91 124.46 155.04 144.06 182.85 144.06 175.72 124.46 147.91 124.46"/><g class="cls-13"><g class="cls-9"><polygon class="cls-7" points="128.57 74.15 99.2 154.81 127.02 154.81 156.38 74.15 128.57 74.15"/></g></g><polygon class="cls-3" points="125.46 74.15 96.92 152.56 124.74 152.56 153.28 74.15 125.46 74.15"/><rect class="cls-4" x="322.2" y="74.15" width="26.14" height="78.41"/><rect class="cls-5" x="322.2" y="100.29" width="26.14" height="26.14"/><g class="cls-13"><g class="cls-11"><polygon class="cls-7" points="2.24 154.8 28.38 154.8 28.38 76.44 26.14 74.21 2.24 76.39 2.24 154.8"/></g></g><rect class="cls-3" x="0" y="74.15" width="26.14" height="78.41"/><g class="cls-13"><g class="cls-10"><rect class="cls-7" x="272.2" y="74.15" width="26.14" height="80.67"/></g></g><rect class="cls-3" x="269.82" y="74.15" width="26.14" height="78.41"/><path class="cls-8" d="m353.49,79.07c0-2.81,2.27-5.06,5.06-5.06s5.05,2.24,5.05,5.06-2.24,5.06-5.05,5.06-5.06-2.27-5.06-5.06m.72,0c0,2.38,1.93,4.34,4.34,4.34s4.32-1.96,4.32-4.34-1.93-4.32-4.32-4.32-4.34,1.91-4.34,4.32m4.22.62h-1.03v2.29h-.79v-5.79h2.36c.98,0,1.86.69,1.86,1.76,0,1.29-1.15,1.72-1.48,1.72l1.55,2.31h-.98l-1.5-2.29Zm-1.03-2.81v2.1h1.57c.5,0,1.05-.43,1.05-1.03,0-.64-.55-1.07-1.05-1.07h-1.57Z"/></g></g></g></svg>