<?xml version="1.0" encoding="utf-8"?>
<!-- Generator: Adobe Illustrator 27.5.0, SVG Export Plug-In . SVG Version: 6.00 Build 0)  -->
<svg version="1.1" id="Layer_1" xmlns="http://www.w3.org/2000/svg" xmlns:xlink="http://www.w3.org/1999/xlink" x="0px" y="0px"
	 viewBox="0 0 786 603.6" style="enable-background:new 0 0 786 603.6;" xml:space="preserve">
<style type="text/css">
	.st0{fill:#06235B;}
	.st1{opacity:0.37;}
	.st2{clip-path:url(#SVGID_00000021094318234779455020000004670483674858350236_);}
	.st3{clip-path:url(#SVGID_00000123437350595420168550000000483654770717670810_);}
	.st4{clip-path:url(#SVGID_00000180325939419314779450000013176146135194391937_);}
	.st5{opacity:0.3;}
	.st6{clip-path:url(#SVGID_00000081637547438549892660000010527219262442957725_);}
	.st7{fill:#E0812F;}
	.st8{opacity:0.39;}
	.st9{clip-path:url(#SVGID_00000071548800909945427620000004032487014684125366_);}
	.st10{fill:#0092D4;}
	.st11{clip-path:url(#SVGID_00000091722911852849841040000003921134739689929373_);}
	.st12{fill:#66B8E6;}
	.st13{fill:#446AAB;}
	.st14{fill:#009BDC;}
	.st15{clip-path:url(#SVGID_00000155836305677530182130000001882043375732865202_);}
</style>
<g>
	<g id="Layer_2_00000069367204779678017420000007092605122424741258_">
		<g id="Hero">
			<path class="st0" d="M128.7,205.6c-27.2,86.9-48.5,181.6,20.6,257.2C249.8,572.8,369.6,617.6,490.7,594
				C617.6,569.2,762.1,461,674,359c-87.9-101.8-131.1-74.7-223.2-230.7C330.9-75,162.2,98.5,128.7,205.6L128.7,205.6z"/>
			<g class="st1">
				<g>
					<defs>
						<rect id="SVGID_1_" y="8.6" width="653.8" height="620.6"/>
					</defs>
					<clipPath id="SVGID_00000053531286786079424060000015750939078241249410_">
						<use xlink:href="#SVGID_1_"  style="overflow:visible;"/>
					</clipPath>
					<g style="clip-path:url(#SVGID_00000053531286786079424060000015750939078241249410_);">
						<g>
							<defs>
								<rect id="SVGID_00000127761178490730182930000002985602765248079232_" x="2.3" y="10.8" width="649.2" height="616"/>
							</defs>
							<clipPath id="SVGID_00000074418986089458402130000002224672081999950244_">
								<use xlink:href="#SVGID_00000127761178490730182930000002985602765248079232_"  style="overflow:visible;"/>
							</clipPath>
							<g style="clip-path:url(#SVGID_00000074418986089458402130000002224672081999950244_);">
								<g>
									<defs>
										<rect id="SVGID_00000133530536015247880030000016831153774389376165_" x="-0.5" y="8.1" width="654.7" height="621.6"/>
									</defs>
									<clipPath id="SVGID_00000053541096160735307850000007763846750976685727_">
										<use xlink:href="#SVGID_00000133530536015247880030000016831153774389376165_"  style="overflow:visible;"/>
									</clipPath>
									<g style="clip-path:url(#SVGID_00000053541096160735307850000007763846750976685727_);">
										
											<image style="overflow:visible;enable-background:new    ;" width="1183" height="1122" xlink:href="B7BC5E4D59480666.png"  transform="matrix(0.5509 0 0 0.5509 -0.46 8.3934)">
										</image>
									</g>
								</g>
							</g>
						</g>
					</g>
				</g>
			</g>
			<g class="st5">
				<g>
					<defs>
						<rect id="SVGID_00000092427673835520757470000002304609153187783856_" x="117.1" y="255.2" width="69.1" height="69.1"/>
					</defs>
					<clipPath id="SVGID_00000142856047388995289140000016942146061021725622_">
						<use xlink:href="#SVGID_00000092427673835520757470000002304609153187783856_"  style="overflow:visible;"/>
					</clipPath>
					<g style="clip-path:url(#SVGID_00000142856047388995289140000016942146061021725622_);">
						<rect x="119.4" y="257.5" class="st7" width="64.5" height="64.5"/>
					</g>
				</g>
			</g>
			<g class="st8">
				<g>
					<defs>
						<rect id="SVGID_00000147192941578317483650000006674733242096116366_" x="117.2" y="127.3" width="135.3" height="135.3"/>
					</defs>
					<clipPath id="SVGID_00000169518839254290297270000002186242245177144731_">
						<use xlink:href="#SVGID_00000147192941578317483650000006674733242096116366_"  style="overflow:visible;"/>
					</clipPath>
					<g style="clip-path:url(#SVGID_00000169518839254290297270000002186242245177144731_);">
						<rect x="119.5" y="129.6" class="st10" width="130.7" height="130.7"/>
					</g>
				</g>
			</g>
			<g>
				<g>
					<defs>
						<rect id="SVGID_00000029046339360473094070000009669752068426959006_" x="112.9" y="160.4" width="651" height="391"/>
					</defs>
					<clipPath id="SVGID_00000116220639334861901700000006546671937197499784_">
						<use xlink:href="#SVGID_00000029046339360473094070000009669752068426959006_"  style="overflow:visible;"/>
					</clipPath>
					<g style="clip-path:url(#SVGID_00000116220639334861901700000006546671937197499784_);">
						<polygon class="st10" points="609.6,430.8 638.4,418 635.2,392.9 606.4,405.8 						"/>
						<polygon class="st10" points="232.5,496.8 261.3,483.9 258.1,458.8 229.3,471.7 						"/>
						<polygon class="st12" points="363.7,541.4 338.6,530.2 341.4,508.4 366.5,519.6 						"/>
						<polygon class="st7" points="457.9,203.9 483,192.6 480.2,170.8 455.1,182 						"/>
						<polygon class="st13" points="183.6,187.8 172.4,162.7 150.6,165.5 161.8,190.5 						"/>
						<polygon class="st7" points="567.1,491.5 549,483.5 551,467.8 569,475.8 						"/>
						<polygon class="st7" points="675.9,295.1 691.4,288.2 693.2,280.1 677.7,287 						"/>
						<polygon class="st13" points="199.4,546.6 225.2,535.1 228.2,521.6 202.4,533.1 						"/>
						<polygon class="st7" points="536.8,187.2 551.7,192.6 560.9,186.5 546,181.1 						"/>
						<polygon class="st7" points="144,255.2 118.2,243.7 115.2,230.1 141,241.6 						"/>
						<polygon class="st7" points="635.3,410.7 662.9,416.6 673.3,407.4 645.7,401.5 						"/>
						<polygon class="st7" points="508.1,269.3 523,262.7 530.7,243.5 515.9,250.1 						"/>
						<polygon class="st12" points="725.4,360.2 733.5,378.3 761.6,389.7 753.5,371.6 						"/>
						<polygon class="st13" points="610.2,524.4 601,512.5 581.5,512.7 590.7,524.6 						"/>
						<polygon class="st10" points="527.2,212.3 546.5,212.3 548.9,192.7 529.5,192.7 						"/>
						<polygon class="st7" points="216,200.3 235.3,200.4 237.6,180.8 218.3,180.7 						"/>
						<polygon class="st13" points="673.3,350.5 692.6,350.5 695,330.9 675.6,330.9 						"/>
						<polygon class="st14" points="532.6,549.1 542.7,549.1 543.9,538.8 533.8,538.8 						"/>
						<polygon class="st7" points="177.5,195.1 191.4,195.1 193.1,180.8 179.2,180.7 						"/>
						<polygon class="st7" points="337,513 351,513 352.7,498.7 338.7,498.7 						"/>
						<polygon class="st7" points="296.8,495.2 310.8,495.2 312.5,481.1 298.5,481.1 						"/>
					</g>
				</g>
			</g>
			<g>
				<defs>
					
						<rect id="SVGID_00000129899534411798440980000007554042728354366852_" x="105" y="-4.3" transform="matrix(0.9205 -0.3907 0.3907 0.9205 -81.6669 179.2298)" width="589.2" height="589.2"/>
				</defs>
				<clipPath id="SVGID_00000175309996245292801540000009821923203847941297_">
					<use xlink:href="#SVGID_00000129899534411798440980000007554042728354366852_"  style="overflow:visible;"/>
				</clipPath>
				<g style="clip-path:url(#SVGID_00000175309996245292801540000009821923203847941297_);">
					
						<image style="overflow:visible;enable-background:new    ;" width="1067" height="1067" xlink:href="B7BC5E4D5948066A.png"  transform="matrix(0.5063 -0.2149 0.2149 0.5063 13.32 134.23)">
					</image>
				</g>
			</g>
		</g>
	</g>
</g>
</svg>
