<?xml version="1.0" encoding="UTF-8"?><svg id="Layer_2" xmlns="http://www.w3.org/2000/svg" viewBox="0 0 134.25 30.67"><defs><style>.cls-1{fill:#fff;}</style></defs><g id="Detailed_-_HE"><path class="cls-1" d="m0,18.36h5.24c.07.63.37,1.21.85,1.62.5.35,1.09.56,1.71.59.61.03,1.22-.11,1.76-.41.18-.13.32-.3.42-.5.1-.2.15-.41.16-.63,0-.22-.05-.44-.14-.64-.1-.2-.24-.37-.41-.51-.41-.29-1.07-.5-2.12-.69-1.08-.17-2.15-.43-3.18-.78-.76-.25-1.48-.63-2.12-1.11-.52-.43-.92-.98-1.18-1.6-.28-.69-.41-1.44-.39-2.18,0-.75.16-1.49.5-2.16.33-.67.82-1.25,1.42-1.69,1.22-.95,2.97-1.48,5.06-1.48,2.21,0,3.94.49,5.18,1.44s1.98,2.36,2.21,4.21h-5.07c-.05-.58-.3-1.12-.7-1.54-.41-.36-.94-.55-1.48-.52-.52-.03-1.03.11-1.47.39-.17.13-.31.29-.4.48-.09.19-.14.4-.13.61-.02.23.03.47.14.67.11.21.27.38.47.5.44.28,1.13.48,2.16.66,2.49.38,4.18.95,5.25,1.84,1.07.9,1.53,2.09,1.53,3.72,0,.78-.18,1.54-.54,2.24-.35.69-.87,1.29-1.5,1.74-1.29.96-3.11,1.53-5.27,1.53s-4.07-.55-5.43-1.54c-.68-.5-1.26-1.14-1.69-1.87-.43-.73-.71-1.54-.82-2.38Z"/><path class="cls-1" d="m17.18,23.57V0h5.24v8.15c0,.14.02.27.09.39.02.04.06.08.1.1.04.02.09.03.14.03.09,0,.18-.04.26-.09.11-.08.21-.18.3-.29.51-.67,1.18-1.2,1.95-1.54.83-.36,1.72-.54,2.62-.52,1.82,0,3.29.63,4.32,1.77,1.02,1.14,1.58,2.84,1.58,5v10.56h-5.22v-9.6c0-.97-.22-1.75-.65-2.29-.24-.28-.54-.5-.87-.64-.34-.14-.7-.21-1.07-.19-.5,0-1,.1-1.45.32-.44.21-.82.53-1.11.92-.33.42-.58.9-.72,1.42-.17.61-.25,1.24-.24,1.87v8.2h-5.24Z"/><path class="cls-1" d="m35.73,18.71c0-1.62.56-2.86,1.68-3.74,1.12-.88,2.8-1.39,5.04-1.53.87-.06,1.73-.14,2.49-.23.63-.07,1.26-.18,1.88-.32v-.35c.02-.33-.03-.65-.14-.96s-.28-.59-.51-.82c-.49-.45-1.15-.68-1.81-.65-.67-.02-1.33.16-1.89.54-.48.33-.8.84-.91,1.41h-5.38c.3-1.67,1.21-3.16,2.55-4.19,1.36-1.04,3.22-1.66,5.52-1.66,2.46,0,4.36.59,5.66,1.74,1.29,1.15,1.97,2.87,1.97,5.13v10.47h-3.87c0-.17-.05-.43-.09-.69-.04-.26-.09-.54-.14-.76-.03-.13-.08-.26-.16-.37-.03-.04-.07-.07-.11-.09-.04-.02-.09-.03-.14-.03-.1,0-.2.04-.28.1-.12.09-.23.2-.32.32-.52.67-1.2,1.2-1.98,1.54-.88.35-1.82.52-2.76.49-1.82,0-3.39-.5-4.51-1.42-.57-.48-1.03-1.08-1.33-1.76-.31-.68-.45-1.42-.43-2.17Zm7.71,1.69c.58.02,1.15-.11,1.67-.36.49-.26.89-.66,1.15-1.15.2-.34.34-.72.42-1.11.09-.46.14-.93.13-1.39v-.44c-.47.14-.96.25-1.45.32-.57.09-1.21.18-1.93.28-.87.1-1.48.32-1.86.61-.19.15-.33.34-.43.56-.1.22-.14.45-.13.69,0,.27.05.55.16.79.11.25.28.47.49.64.5.39,1.13.58,1.76.55Z"/><path class="cls-1" d="m54.36,23.57V6.78h3.78c.02.21.05.41.09.61.04.21.09.41.15.61.04.16.12.31.22.43.04.05.09.08.14.11.05.03.11.04.17.04.13,0,.25-.05.35-.13.16-.11.31-.23.44-.37.44-.52.99-.94,1.61-1.23.69-.3,1.43-.44,2.18-.43.63-.03,1.26.1,1.83.37.57.27,1.07.67,1.46,1.17.77.99,1.17,2.44,1.16,4.26v.38c0,.12,0,.25-.03.38h-4.66c.01-.07.02-.14.03-.22v-.22c.02-.46-.12-.91-.41-1.28-.14-.16-.31-.28-.5-.36s-.4-.12-.61-.11c-.37-.01-.74.09-1.05.28-.31.21-.57.51-.73.85-.15.3-.26.62-.32.95-.07.42-.11.84-.1,1.26v9.43h-5.21Z"/><path class="cls-1" d="m88.86,15.13c.05,2.37-.82,4.67-2.41,6.41-.77.81-1.7,1.46-2.73,1.9-1.03.44-2.14.66-3.26.65-.87,0-1.73-.14-2.56-.42-.68-.23-1.31-.6-1.84-1.09-.09-.08-.18-.14-.28-.2-.06-.04-.14-.06-.21-.07-.05,0-.09.01-.14.03-.04.02-.08.06-.1.1-.06.11-.09.24-.08.37v7.86h-5.25V6.78h3.87c0,.26.04.51.08.75s.08.46.12.68c.03.16.1.31.2.44.04.05.09.08.14.11.05.03.11.04.17.04.13-.01.25-.06.36-.13.17-.12.34-.25.49-.39.59-.63,1.31-1.14,2.11-1.48.95-.38,1.96-.56,2.98-.53,1.11,0,2.21.22,3.23.65,1.02.44,1.94,1.08,2.7,1.89,1.58,1.73,2.45,3.99,2.41,6.34Zm-13.73.03c-.05,1.18.36,2.33,1.13,3.22.39.41.87.73,1.4.94.53.21,1.09.31,1.66.29.56.02,1.12-.09,1.63-.3.52-.21.99-.53,1.37-.93.75-.9,1.15-2.03,1.15-3.2s-.41-2.3-1.15-3.2c-.39-.41-.85-.73-1.37-.94-.52-.21-1.07-.32-1.64-.3-.57-.02-1.13.08-1.66.29-.53.21-1,.53-1.4.93-.78.89-1.19,2.04-1.13,3.22v-.02Z"/><path class="cls-1" d="m90.8,15.22c-.02-1.19.19-2.38.63-3.49.44-1.11,1.1-2.12,1.94-2.97.85-.82,1.86-1.47,2.97-1.9,1.11-.43,2.28-.64,3.47-.62,2.66,0,4.88.89,6.42,2.4,1.54,1.51,2.43,3.64,2.43,6.13,0,.32,0,.69-.04,1.06-.02.31-.06.62-.13.92h-12.37c.01.47.12.93.32,1.36.2.43.48.81.82,1.13.74.62,1.68.95,2.64.92.74.03,1.47-.13,2.12-.48.54-.31.95-.82,1.14-1.42h5.18c-.4,1.73-1.42,3.26-2.87,4.29-1.44,1.02-3.33,1.58-5.6,1.58-2.62,0-4.89-.9-6.5-2.46-1.61-1.56-2.58-3.79-2.58-6.45Zm5.32-1.66h7.39c0-.47-.1-.93-.28-1.35-.18-.43-.45-.81-.79-1.13-.34-.32-.74-.57-1.17-.73-.44-.16-.9-.23-1.37-.21-.96-.03-1.89.31-2.61.95-.68.65-1.1,1.54-1.17,2.48Z"/><path class="cls-1" d="m110.73,23.57V6.78h3.81c.02.22.05.5.09.78.04.28.09.55.14.73.04.18.12.35.24.5.04.05.09.1.15.12.06.03.13.05.19.05.12,0,.24-.05.34-.13.16-.11.29-.24.41-.39.57-.7,1.29-1.26,2.11-1.64.91-.4,1.9-.59,2.9-.57,1.96,0,3.51.63,4.57,1.77,1.06,1.14,1.63,2.84,1.63,4.98v10.59h-5.24v-9.6c0-.97-.22-1.75-.65-2.29-.24-.28-.54-.5-.87-.64-.34-.14-.7-.21-1.07-.19-.5,0-1,.1-1.46.32-.44.21-.82.53-1.11.92-.33.42-.58.9-.72,1.42-.17.61-.25,1.24-.24,1.87v8.2h-5.24Z"/><path class="cls-1" d="m134.25,23.57h-4.75v-4.76h4.75v4.76Z"/></g></svg>