<?xml version="1.0" encoding="UTF-8"?><svg id="Layer_2" xmlns="http://www.w3.org/2000/svg" viewBox="0 0 141.39 31.66"><defs><style>.cls-1{fill:#fff;}</style></defs><g id="Detailed_-_HE"><path class="cls-1" d="m3.58,21.82c2.16,2.25,5.51,4.14,9.74,4.14,3.58,0,5.33-1.7,5.33-3.45,0-2.3-2.66-3.08-6.2-3.91-5.01-1.15-11.44-2.53-11.44-9.37C1.01,4.14,5.42,0,12.64,0c4.87,0,8.91,1.47,11.95,4.27l-3.63,4.78c-2.48-2.3-5.79-3.35-8.78-3.35s-4.5,1.29-4.5,3.12c0,2.07,2.57,2.71,6.11,3.54,5.05,1.15,11.49,2.66,11.49,9.46,0,5.61-4,9.83-12.27,9.83-5.88,0-10.11-1.98-13-4.87l3.58-4.96Z"/><path class="cls-1" d="m28.38.46h6.52v30.65h-6.52V.46Z"/><path class="cls-1" d="m66.28,9.05l-8.64,22.05h-2.85l-8.64-22.05v22.05h-6.52V.46h9.14l7.44,19.11L63.66.46h9.19v30.65h-6.57V9.05Z"/><path class="cls-1" d="m92.56,16.08c0-4.27-2.16-5.56-5.37-5.56-2.85,0-5.79,1.79-7.21,3.81v16.77h-2.39V8.91h2.39v3.35c1.61-1.93,4.78-3.91,7.99-3.91,4.5,0,6.98,2.21,6.98,7.21v15.53h-2.39v-15.02Z"/><path class="cls-1" d="m110.9,8.36c6.75,0,10.48,5.38,10.48,11.76v.64h-18.56c.23,4.82,3.45,8.82,8.68,8.82,2.8,0,5.38-1.06,7.26-3.08l1.24,1.56c-2.2,2.3-5.01,3.58-8.68,3.58-6.48,0-11.12-4.82-11.12-11.67,0-6.43,4.55-11.62,10.71-11.62Zm-8.09,10.52h16.13c-.05-3.77-2.53-8.45-8.09-8.45-5.24,0-7.86,4.59-8.04,8.45Z"/><path class="cls-1" d="m127.07,26.83v-15.81h-3.68v-2.11h3.68V2.85h2.43v6.06h4.5v2.11h-4.5v15.44c0,1.79.74,3.03,2.3,3.03,1.06,0,1.98-.5,2.48-1.06l.92,1.84c-.87.83-1.93,1.38-3.77,1.38-2.94,0-4.37-1.79-4.37-4.82Z"/><path class="cls-1" d="m135.66,5.67c0-1.59,1.28-2.86,2.86-2.86s2.86,1.27,2.86,2.86-1.27,2.86-2.86,2.86-2.86-1.28-2.86-2.86Zm.37,0c0,1.36,1.12,2.5,2.5,2.5s2.5-1.13,2.5-2.5-1.12-2.5-2.5-2.5-2.5,1.11-2.5,2.5Zm2.44.35h-.62v1.3h-.41v-3.28h1.34c.57,0,1.01.39,1.01,1,0,.73-.65.97-.84.97l.88,1.31h-.51l-.85-1.3Zm-.62-1.61v1.22h.93c.35,0,.59-.26.59-.59,0-.36-.24-.62-.59-.62h-.93Z"/></g></svg>