<?xml version="1.0" encoding="utf-8"?>
<!-- Generator: Adobe Illustrator 27.7.0, SVG Export Plug-In . SVG Version: 6.00 Build 0)  -->
<svg version="1.1" id="Layer_1" xmlns="http://www.w3.org/2000/svg" xmlns:xlink="http://www.w3.org/1999/xlink" x="0px" y="0px"
	 viewBox="0 0 915 201.2" style="enable-background:new 0 0 915 201.2;" xml:space="preserve">
<style type="text/css">
	.st0{fill:#C4C2C2;}
	.st1{fill:#FAB900;}
</style>
<path class="st0" d="M133.2,124.5h21.6c0.5,8.5,0,15.6,18.3,15.6c8.7,0,16.7,0,16.7-10.7c0-8.2-6.6-7.1-23.5-10.9
	c-21.3-4.4-30.3-10.7-30.3-26c0-20.8,16.7-26.2,36.1-26.2c36.9,0,36.3,23.2,36.9,29.2h-21.6c-0.5-7.9-1.9-12.3-15.6-12.3
	c-6.6,0-13.7,1.1-13.7,7.9c0,6.8,5.2,7.1,26,11.5c18.6,4.1,28.4,10.9,28.4,27.1c0,18.9-13.9,27.6-39.6,27.6
	C134.8,157.3,133.2,134.1,133.2,124.5"/>
<path class="st0" d="M216.5,68.8H228V41.4h23v27.3h14.2v15h-14.2v44.5c0,4.4,0,6.3,1.4,7.7c1.4,1.4,3.3,1.4,5.2,1.4h7.4v17.5h-13.4
	c-6.3,0-14.8-0.3-19.1-4.4c-4.4-4.1-4.6-12.3-4.6-17.5V83.8h-11.5v-15H216.5z"/>
<path class="st0" d="M275.8,68.8h23v57.4c0,9,4.9,13.1,14.8,13.1c11.5,0,15.3-4.4,15.3-14.2V68.8h23v86.4h-22.7v-9.6
	c-3.3,6-5.5,11.7-25.1,11.7c-26.2,0-28.4-17.8-28.4-25.1V68.8H275.8z"/>
<path class="st0" d="M423.4,76.4v-35h23v113.7h-21.9v-10.7c-3,4.6-8.2,12.8-24,12.8c-24.3,0-36.3-17.5-36.3-46.2
	c0-27.1,9.6-44.8,35.8-44.8C414.6,66.6,419.5,71.8,423.4,76.4 M404.5,83.8c-13.9,0-17.8,6.6-17.8,26.2c0,18,3,29.8,17.2,29.8
	c19.1,0,19.7-15.8,19.7-27.6C423.9,92.3,418.2,83.8,404.5,83.8"/>
<path class="st0" d="M454.3,68.8h24l20.5,59l18.6-59h24.3l-32.2,83.6c-6,15.6-9.6,22.1-14.2,26.2c-5.5,4.6-13.1,4.9-15.9,4.9h-16.7
	v-19.1h10.7c4.9,0,6.3-0.3,7.7-1.1c1.1-0.6,2.5-3.3,3.6-6l3.5-8.5L454.3,68.8z"/>
<path class="st1" d="M526.1,145.6L526.1,145.6l8.2-21h7.1c0.5,8.5,0,15.6,18.3,15.6c8.7,0,16.7,0,16.7-10.7c0-8.2-6.6-7.1-23.5-10.9
	c-5.7-1.1-10.9-2.5-14.8-4.1l7.4-19.4c2.2,3.3,9,4.1,24.9,7.4c18.6,4.1,28.4,10.9,28.4,27.1c0,18.9-13.9,27.6-39.6,27.6
	C541.2,157.3,531.3,152.1,526.1,145.6"/>
<path class="st1" d="M556.7,66.6L556.7,66.6h1.9c36.9,0,36.3,23.2,36.9,29.2h-21.6c-0.5-7.9-1.9-12.3-15.6-12.3c-3,0-6,0.3-8.5,1.1
	L556.7,66.6z"/>
<path class="st1" d="M596.4,68.8h24l20.5,59l18.9-59h24.3l-32.5,83.6c-6,15.6-9.6,22.1-14.2,26.2c-5.5,4.6-13.1,4.9-15.9,4.9h-16.9
	v-19.1h10.7c4.9,0,6.3-0.3,7.7-1.1c1.1-0.6,2.5-3.3,3.6-6l3.6-8.5L596.4,68.8z"/>
<path class="st1" d="M693.1,68.8h22.1v11.7c1.6-5.2,3.5-13.9,23-13.9c19.9,0,30.6,6.8,30.6,27.6v61.2h-23V98c0-8.5-3.3-13.4-15-13.4
	c-9.6,0-14.8,3-14.8,15v55.7h-23V68.8z"/>
<path class="st1" d="M843.4,98.3c-1.1-6.6-1.1-14.5-18-14.5c-16.7,0-20.2,12.6-20.2,26.2c0,19.9,4.4,30.3,19.4,30.3
	c18.9,0,17.8-8.5,18.9-17.5h22.7c0,13.4-7.1,34.4-40.7,34.4c-27.3,0-42.4-15-42.4-45.6c0-26,11.2-45.1,44.3-45.1
	c28.7,0,38.3,15,38.3,32h-22.1V98.3z"/>
<path class="st1" d="M884.9,66c5.5,0,9.6,4.1,9.6,9.3c0,5.2-4.1,9.6-9.6,9.6c-5.5,0-9.6-4.1-9.6-9.6C875.1,70.1,879.5,66,884.9,66
	 M884.7,68c-4.1,0-7.1,3.3-7.1,7.4c0,4.1,3,7.4,7.4,7.4c4.1,0,7.1-3.3,7.1-7.4C892,71.2,889,68,884.7,68 M883.3,80.3h-2.2V71
	c0.8-0.3,2.2-0.3,3.6-0.3c1.9,0,2.5,0.3,3.3,0.8c0.5,0.3,0.8,1.1,0.8,1.9c0,1.1-0.8,1.9-1.9,2.2c0.8,0.3,1.4,1.1,1.6,2.2
	c0.3,1.4,0.5,1.9,0.8,2.2h-2.5c-0.3-0.3-0.5-1.1-0.8-2.2c-0.3-1.1-0.8-1.4-1.9-1.4H883v3.8H883.3z M883.3,75.1h1.1
	c1.1,0,2.2-0.3,2.2-1.4c0-0.8-0.5-1.4-1.9-1.4h-1.1v2.7H883.3z"/>
<path class="st0" d="M90.3,66.6c-11.7,0.3-21,9.8-20.8,21.3c0.3,11.7,9.8,21,21.3,20.8c11.7-0.3,21-9.8,20.8-21.3
	c-0.3-11.5-9.6-20.8-21-20.8H90.3z"/>
<path class="st0" d="M90.3,115.2c-11.7,0.3-21,9.8-20.8,21.3c0.3,11.8,9.8,21,21.3,20.8c11.7-0.3,21-9.8,20.8-21.3
	c-0.3-11.5-9.6-20.8-21-20.8H90.3z"/>
<path class="st0" d="M41.6,115.2c-11.7,0.3-21,9.8-20.8,21.3c0.3,11.8,9.8,21,21.3,20.8c11.7-0.3,21-9.8,20.8-21.3
	c-0.3-11.5-9.6-20.8-21-20.8H41.6z"/>
<path class="st1" d="M41.6,66.6c-11.7,0.3-21,9.8-20.8,21.3c0.3,11.7,9.8,21,21.3,20.8c11.7-0.3,21-9.8,20.8-21.3
	c-0.3-11.5-9.6-20.8-21-20.8H41.6z"/>
</svg>
