<?xml version="1.0" encoding="utf-8"?>
<!-- Generator: Adobe Illustrator 27.7.0, SVG Export Plug-In . SVG Version: 6.00 Build 0)  -->
<svg version="1.1" id="Layer_1" xmlns="http://www.w3.org/2000/svg" xmlns:xlink="http://www.w3.org/1999/xlink" x="0px" y="0px"
	 viewBox="0 0 300 100" style="enable-background:new 0 0 300 100;" xml:space="preserve">
<style type="text/css">
	.st0{display:none;fill:#E54BEA;}
	.st1{display:none;}
	.st2{display:inline;fill:#FFFFFF;}
	.st3{display:inline;}
	.st4{fill:#FFFFFF;}
	.st5{clip-path:url(#SVGID_00000090262720252264880270000007385572443700155799_);fill:#FFFFFF;}
	.st6{opacity:0.85;}
	.st7{filter:url(#Adobe_OpacityMaskFilter);}
	.st8{mask:url(#SVGID_00000133489683062712762280000010057932919070600074_);}
</style>
<rect x="-4.9" y="-4.6" class="st0" width="309.7" height="109.7"/>
<g id="ArriveMath" class="st1">
	<rect x="86.4" y="38.2" class="st2" width="35.2" height="11.7"/>
	<polygon class="st2" points="121.5,38.2 109.8,49.9 121.5,49.9 	"/>
	<polygon class="st2" points="86.4,38.2 86.4,49.9 98.1,49.9 98.1,73.4 109.8,73.4 109.8,38.2 	"/>
	<polygon class="st2" points="98.1,61.7 98.1,73.4 109.8,61.7 98.1,49.9 	"/>
	<polygon class="st2" points="86.4,38.2 86.4,49.9 98.1,49.9 86.4,38.2 	"/>
	<polygon class="st2" points="62.3,38.2 70.5,60.8 60.4,60.8 60.4,69.6 73.7,69.6 75.1,73.4 87.6,73.4 74.8,38.2 	"/>
	<polygon class="st2" points="70.5,60.8 70.4,60.8 73.7,69.6 83,60.8 83,60.8 	"/>
	<polygon class="st2" points="60.4,38.2 47.6,73.4 60.1,73.4 72.9,38.2 	"/>
	<polygon class="st2" points="62.3,38.2 67.6,52.8 72.9,38.2 	"/>
	<polygon class="st2" points="32.5,38.2 32.4,38.2 32.4,38.2 24.1,46.5 15.8,38.2 4.1,38.2 4.1,43.1 24.1,63.1 32.4,54.8 32.4,73.4 
		44.2,73.4 44.2,38.2 32.5,38.2 	"/>
	<polygon class="st2" points="32.4,73.4 44.2,73.4 44.2,61.7 	"/>
	<polygon class="st2" points="15.8,54.8 24.1,46.5 15.8,38.2 	"/>
	<rect x="4.1" y="38.2" class="st2" width="11.7" height="35.2"/>
	<polygon class="st2" points="4.2,73.4 15.8,73.4 15.8,61.7 	"/>
	<polygon class="st2" points="148.7,38.2 148.7,49.9 134.8,49.9 134.8,61.7 148.7,61.7 148.7,73.4 160.4,73.4 160.4,38.2 	"/>
	<polygon class="st2" points="137,49.9 137,61.7 148.7,61.7 	"/>
	<polygon class="st2" points="148.7,73.4 160.4,73.4 160.4,61.7 	"/>
	<rect x="125.2" y="38.2" class="st2" width="11.7" height="35.2"/>
	<polygon class="st2" points="125.2,38.2 125.2,49.9 136.9,38.3 136.9,38.2 	"/>
	<path class="st2" d="M33.5,34.1V20.9c0-2.1,0.8-4.1,2.2-5.4c1.3-1.3,3.5-1.9,5.9-1.7l0.4,0v-2.2l-0.4,0c-2.9-0.3-5.5,0.4-7.5,2.2
		c-0.3,0.2-0.5,0.5-0.7,0.8v-2.6h-2.4v22H33.5z M47,34.1V20.9c0-2.1,0.8-4.1,2.2-5.4c1.3-1.3,3.5-1.9,5.9-1.7l0.4,0v-2.2l-0.4,0
		c-2.9-0.3-5.5,0.4-7.5,2.2c-0.3,0.2-0.5,0.5-0.7,0.8v-2.6h-2.4v22H47z M60.7,34.1v-22h-2.3v22H60.7z M73.7,34.1l8.5-22h-2.5
		l-7.1,18.4l-7-18.4h-2.5l8.5,22H73.7z M6.7,34.1l3.8-9.8h12.2l3.8,9.8h2.5l-4.7-12.2H8.8L4.2,34.1H6.7z M93.2,13.9
		c4.1,0,7.6,3,8.4,7.2H84.7C85.6,16.9,89.1,13.9,93.2,13.9z M103.7,27.2l0.2-0.5h-2.4l-0.1,0.3c-1.3,3.5-3.9,5.3-7.9,5.3
		c-4.9,0-8.7-3.8-8.9-8.8h19.6l0-0.4c0-3-1.2-6.1-3.4-8.3c-2-2.1-4.7-3.2-7.6-3.2c-6.1,0-11,5.2-11,11.6c0,6.4,4.9,11.4,11.2,11.4
		C98.5,34.6,102.1,32,103.7,27.2z M58.4,4.7v4.6h2.3V4.7H58.4z"/>
	<polygon class="st2" points="15.4,4.7 9.7,19.6 12.2,19.6 16.5,8.3 20.9,19.6 23.4,19.6 17.7,4.7 	"/>
	<path class="st2" d="M33.5,34.1V20.9c0-2.1,0.8-4.1,2.2-5.4c1.3-1.3,3.5-1.9,5.9-1.7l0.4,0v-2.2l-0.4,0c-2.9-0.3-5.5,0.4-7.5,2.2
		c-0.3,0.2-0.5,0.5-0.7,0.8v-2.6h-2.4v22H33.5z M47,34.1V20.9c0-2.1,0.8-4.1,2.2-5.4c1.3-1.3,3.5-1.9,5.9-1.7l0.4,0v-2.2l-0.4,0
		c-2.9-0.3-5.5,0.4-7.5,2.2c-0.3,0.2-0.5,0.5-0.7,0.8v-2.6h-2.4v22H47z M60.7,34.1v-22h-2.3v22H60.7z M73.7,34.1l8.5-22h-2.5
		l-7.1,18.4l-7-18.4h-2.5l8.5,22H73.7z M6.7,34.1l3.8-9.8h12.2l3.8,9.8h2.5l-4.7-12.2H8.8L4.2,34.1H6.7z M93.2,13.9
		c4.1,0,7.6,3,8.4,7.2H84.7C85.6,16.9,89.1,13.9,93.2,13.9z M103.7,27.2l0.2-0.5h-2.4l-0.1,0.3c-1.3,3.5-3.9,5.3-7.9,5.3
		c-4.9,0-8.7-3.8-8.9-8.8h19.6l0-0.4c0-3-1.2-6.1-3.4-8.3c-2-2.1-4.7-3.2-7.6-3.2c-6.1,0-11,5.2-11,11.6c0,6.4,4.9,11.4,11.2,11.4
		C98.5,34.6,102.1,32,103.7,27.2z M58.4,4.7v4.6h2.3V4.7H58.4z"/>
	<polygon class="st2" points="15.4,4.7 9.7,19.6 12.2,19.6 16.5,8.3 20.9,19.6 23.4,19.6 17.7,4.7 	"/>
	<g class="st3">
		<path class="st4" d="M62.2,83.2c-1.3,0-1.7,0.8-1.7,3.5c0,2.7,0.4,3.5,1.7,3.5s1.7-0.8,1.7-3.5C63.9,84,63.5,83.2,62.2,83.2z"/>
		<path class="st4" d="M73.2,83.2c-1.3,0-1.7,0.8-1.7,3.5c0,2.7,0.4,3.5,1.7,3.5c1.3,0,1.7-0.8,1.7-3.5C74.9,84,74.5,83.2,73.2,83.2
			z"/>
		<path class="st4" d="M51.9,87.6h-1.4v2.5h1.4c0.8,0,1.1-0.5,1.1-1.2C53,88.1,52.7,87.6,51.9,87.6z"/>
		<path class="st4" d="M112.3,83.3H111v2.5h1.3c0.9,0,1-0.7,1-1.3C113.3,83.9,113.1,83.3,112.3,83.3z"/>
		<path class="st4" d="M52.7,84.3c0-0.5-0.2-1-0.9-1h-1.2v2.1h1.2C52.5,85.3,52.7,84.8,52.7,84.3z"/>
		<path class="st4" d="M160.4,86.5v-8.7H4.2v17.4h0l0,0H150l0,0h10.4V86.5L160.4,86.5L160.4,86.5z M52,92.7h-4.7v-12H52
			c3.2,0,4,1.5,4,3.5c0,0.9-0.5,1.7-1.2,2.2c0.9,0.4,1.5,1.3,1.5,2.6C56.3,91,55.4,92.7,52,92.7z M62.2,92.9c-4,0-4.9-2.5-4.9-6.3
			c0-3.8,0.9-6.3,4.9-6.3s4.9,2.5,4.9,6.3C67.1,90.5,66.2,92.9,62.2,92.9z M73.2,92.9c-4,0-4.9-2.5-4.9-6.3c0-3.8,0.9-6.3,4.9-6.3
			c4,0,4.9,2.5,4.9,6.3C78.1,90.5,77.2,92.9,73.2,92.9z M83.3,92.9c-1.6,0-3-0.3-3.9-0.8l0-2.9c0.7,0.4,2.1,0.9,3.6,0.9
			c1.5,0,2-0.4,2-1c0-0.7-0.5-1-1.4-1.1c-3-0.4-4.2-1.1-4.2-3.7c0-2.4,1.4-3.8,4.7-3.8c1.7,0,2.9,0.3,3.5,0.6l0,2.9
			c-0.8-0.4-2.1-0.6-3.3-0.6c-1.2,0-1.8,0.3-1.8,1c0,0.7,0.5,0.9,1.5,1c2.8,0.3,4.2,0.9,4.2,3.7C88.1,91.9,86.2,92.9,83.3,92.9z
			 M97.3,83.4h-2.8v9.3h-3.1v-9.3h-2.8v-2.8h8.8V83.4z M106.4,83.4h-4.9v1.7h4.5v2.8h-4.5v2h4.9v2.8h-8.1v-12h8.1V83.4z M113.6,92.7
			l-1.6-4.4H111v4.4h-3.1v-12h4.4c3.4,0,4.4,1.5,4.4,3.8c0,1.5-0.4,2.6-1.6,3.2l2.2,5H113.6z"/>
	</g>
	<polygon class="st2" points="163.9,41.2 163.9,38.6 164.8,38.6 164.8,38.3 162.7,38.3 162.7,38.6 163.7,38.6 163.7,41.2 	"/>
	<polygon class="st2" points="168,38.3 167.6,38.3 166.7,40.7 165.7,38.3 165.3,38.3 165.3,41.2 165.6,41.2 165.6,38.7 166.6,41.2 
		166.7,41.2 167.8,38.7 167.8,41.2 168,41.2 	"/>
</g>
<g id="Everyday_Math" class="st1">
	<path class="st2" d="M2.1,5.7h36.4l0.8,15.5h-2.4C34.7,9,31.7,8.5,19.8,8.5c-3.6,0-4.5,0.2-4.5,2.4v14.4h2.2c5.2,0,7.7-2.3,8-8.3
		h2.7v19.8h-2.7c0-5.4-2.2-8.8-6.9-8.8h-3.3v16.3c0,2.1,0.8,2.4,4.5,2.4c14,0,14.9-1.3,18.1-13.4h2.4l-1.1,16.1H2.1v-2.7h3.3
		c2.4,0,3.4-0.7,3.4-3.1V11.5c0-2.4-1-3.1-3.4-3.1H2.1V5.7z"/>
	<path class="st2" d="M66.3,29.5c0.8-1.9,1-2.8,1-3.7c0-1.8-1.1-2.1-4.2-2.1v-2.4h12v2.4c-3.1,0-4.6,2.8-6.3,6.7l-8.3,19.4h-1.8
		L48.7,27.3c-1.3-3-1.9-3.6-4.3-3.6h-0.7v-2.4h14.2v2.4H57c-2.2,0-3.3,0.2-3.3,1.3c0,0.5,0.2,1.2,0.5,1.9l6.8,15.5L66.3,29.5z"/>
	<path class="st2" d="M83.1,35.7v0.8c0,7,3.9,10.6,8.7,10.6c4.6,0,7.2-2.5,9.2-6.5l2,1.1c-2.5,5.4-6.2,8.4-12.2,8.4
		c-8.3,0-13.8-5.7-13.8-13.9c0-10.1,5.5-15.8,14.1-15.8c7,0,11.5,6.4,11.9,15.3H83.1z M93.8,33.3c2.5,0,3.1-0.4,3.1-2.3
		c0-5.1-2.5-8.2-6.3-8.2c-4.8,0-6.9,3.9-7.4,10.5H93.8z"/>
	<path class="st2" d="M105.4,21.9l11.2-0.6v7.2h0.1c0.7-3.2,3.6-8.1,9-8.1c2.6,0,4.8,1.9,4.8,4.7c0,2.3-1.2,4.1-3.6,4.1
		c-2,0-3.3-1.5-3.3-3.3c0-1.1,0.3-1.9,1.4-2.7v-0.1h-0.1c-6.3,0.5-8.3,10.8-8.3,15.8v6c0,1.6,1,1.9,3.5,1.9h2.2v2.4h-16.4v-2.4h2
		c2.3,0,3.2-0.6,3.2-3V26c0-1.4-0.9-1.7-2.9-1.7h-2.8V21.9z"/>
	<path class="st2" d="M152.7,21.3h12v2.4c-3,0.1-3.9,1.2-5.1,4l-7.8,19c-4.5,10.8-8.4,14.9-13.4,14.9c-2.9,0-5.5-1.4-5.5-4.7
		c0-2,1.7-3.4,3.7-3.4c1.7,0,2.9,1.3,2.9,2.5c0,1.1-0.4,1.6-0.4,2.1c0,0.6,0.4,0.8,0.7,0.8c2.6,0,5.2-3.5,8.3-10.1l-9.5-21.5
		c-1.3-3-1.9-3.6-4.3-3.6h-0.7v-2.4h14.2v2.4h-0.8c-2.2,0-3.3,0.2-3.3,1.3c0,0.5,0.2,1.2,0.5,1.9l6.6,15.2l4.7-11.6
		c1.1-2.8,1.6-3.9,1.6-4.8c0-1.3-1.5-1.9-2.5-1.9h-1.8V21.3z"/>
	<path class="st2" d="M180.9,5.4l11.7-0.6v38.9c0,2.7,0.6,3.1,4.9,3.1v2.4L187,49.8v-5.3h-0.1c-1.3,3.7-4.3,5.6-8.3,5.6
		c-7.8,0-12.3-6.4-12.3-14.5c0-9.5,5.7-15.2,12.2-15.2c3.6,0,6.7,1.6,8.4,4.6h0.1V9.5c0-1.4-0.9-1.7-2.9-1.7h-3.3V5.4z M179.7,23.4
		c-4.3,0-7.3,3.6-7.3,11.9c0,8.3,3,11.9,7.3,11.9c4.3,0,7.3-3.6,7.3-11.9C187,27,184.1,23.4,179.7,23.4"/>
	<path class="st2" d="M220.5,28.7c0-3.9-1.7-5.6-6.5-5.6c-4,0-5.6,1.2-5.6,2.1c0,0.7,1.3,2,1.3,3.4c0,2.1-1.4,3-3.4,3
		c-2.2,0-3.2-1.7-3.2-3.8c0-3.7,4.5-7.4,11.7-7.4c7.8,0,11.2,2.8,11.2,9.2c0,3-0.2,11.6-0.2,13.9c0,1.1,0.8,2.8,2.2,2.8
		c1.6,0,2-0.7,2.7-0.7c0.6,0,0.8,0.3,0.8,1c0,0.9-2.2,3.3-5.4,3.3c-3.1,0-4.6-1.6-5.4-4.5c-2.6,3.2-6.7,4.8-10.8,4.8
		c-4.5,0-8.4-2.1-8.4-7.2c0-5.7,7.2-9.5,19-11V28.7z M220.5,34.4c-10.4,1.4-13.1,3.6-13.1,8.1c0,2.9,2.4,4.7,5.1,4.7
		c3.7,0,8.1-3,8.1-8V34.4z"/>
	<path class="st2" d="M250.3,21.3h12v2.4c-3,0.1-3.9,1.2-5.1,4l-7.8,19c-4.5,10.8-8.4,14.9-13.4,14.9c-2.9,0-5.5-1.4-5.5-4.7
		c0-2,1.7-3.4,3.7-3.4c1.7,0,2.9,1.3,2.9,2.5c0,1.1-0.4,1.6-0.4,2.1c0,0.6,0.4,0.8,0.7,0.8c2.6,0,5.2-3.5,8.3-10.1l-9.5-21.5
		c-1.3-3-1.9-3.6-4.3-3.6h-0.7v-2.4h14.2v2.4h-0.8c-2.2,0-3.3,0.2-3.3,1.3c0,0.5,0.2,1.2,0.5,1.9l6.6,15.2l4.7-11.6
		c1.1-2.8,1.6-3.9,1.6-4.8c0-1.3-1.5-1.9-2.5-1.9h-1.8V21.3z"/>
	<path class="st2" d="M234.2,61.1c2.3,0,4.2-1.9,4.2-4.1c0-2.3-1.9-4.1-4.2-4.1c-2.3,0-4.3,1.9-4.3,4.1
		C229.8,59.3,231.9,61.1,234.2,61.1"/>
	<path class="st2" d="M136.7,61.1c2.3,0,4.2-1.9,4.2-4.1c0-2.3-1.9-4.1-4.2-4.1c-2.3,0-4.3,1.9-4.3,4.1
		C132.4,59.3,134.4,61.1,136.7,61.1"/>
	<path class="st2" d="M268,85l0,1.3c-0.1,6,3.2,9,11.3,9c7.4,0,11.5-3.8,11.7-9.8c0.2-11.6-14.2-8.1-14.1-13.4
		c0-1.6,0.7-2.8,3.1-2.8c1.9,0,2.9,0.7,2.9,3.3l0,0.6h8l0-1c0.1-4.3-2.3-8.4-10.7-8.4c-7.2,0-11.5,3.1-11.6,9
		c-0.1,6.3,3.4,7.8,10.7,10.3c2.8,0.9,3.4,2.3,3.4,3.7c0,1.7-1.2,3.1-3.3,3.1c-1.4,0-2.3-0.6-2.7-1.4c-0.4-0.9-0.5-2.1-0.6-3.4H268z
		 M265.9,75.8c0.1-7.2-2.2-12.1-11.7-12.1c-9.8,0-12.3,6.3-12.5,14.7c-0.2,8.9,0.6,16.9,11.9,16.9c8.2,0,11.9-3.7,12.1-13h-8.3
		c-0.2,5.3-0.8,7.1-3.5,7.1c-3,0-3.3-3.1-3.2-9.9c0.1-6.2,0.6-9.9,3.6-9.9c2.4,0,3.4,1.8,3.3,6.2H265.9z M229.1,94.5h9l0.5-30h-9
		L229.1,94.5z M213.2,86.8c-0.1,7,1.6,8.1,7.8,8.1c1.7,0,3.4-0.1,5.2-0.3l0.1-6c-0.4,0.1-0.9,0.1-1.3,0.1c-2.1,0-2.9-0.7-2.8-2.8
		l0.3-15.1h4.2l0.1-6.2h-4.2l0.2-8.8h-9l-0.2,8.8h-3.7l-0.1,6.2h3.7L213.2,86.8z M192.5,85.3c0-1.7,0.5-2.6,1.4-3.3
		c0.8-0.7,2.1-0.7,4.9-2.2c0,1.2-0.1,2.8-0.1,5.3c-0.1,3-1.8,4.1-3.7,4.1C193.4,89.1,192.5,87.6,192.5,85.3 M192.9,73.7
		c0.1-2.6,0.8-4.1,3.3-4.1c2,0,2.8,1.2,2.8,3c0,2.3-0.5,2.7-3.3,3.4c-2.5,0.7-5.8,1.2-8.1,2.4c-2.2,1.2-3.7,4.2-3.8,7.7
		c-0.1,6.5,2.8,9.2,7.8,9.2c3,0,5.9-1.6,7.1-4.2h0.1c0,1.2,0.1,2.4,0.4,3.4h8.7c-1-1.3-1-4.2-0.9-6.5l0.3-15.4
		c0.1-6.3-3.1-8.9-10.5-8.9c-3.7,0-6.3,0.5-8.4,1.9c-2.1,1.4-3.4,3.9-3.5,8H192.9z M141.9,94.5h9l0.3-19.6c0.1-2.9,1.6-4.3,3.3-4.3
		c1.7,0,2.6,1.3,2.5,3.4l-0.4,20.5h9l0.3-19.6c0-2.9,1.6-4.3,3.3-4.3c1.7,0,2.6,1.3,2.5,3.4l-0.4,20.5h9l0.4-22.5
		c0.1-5.8-2.6-8.3-7.7-8.3c-3.3,0-5.3,1.1-7.5,4.6c-1.3-4.1-4.7-4.6-7.3-4.6c-3.3,0-6,1.7-7.3,4.3H151l0.1-3.6h-8.7L141.9,94.5z
		 M123.8,75.8c0.1-4,0.6-6.5,3.6-6.5c2.5,0,3,2.3,2.9,6.5H123.8z M138.8,81c0.2-10.2-0.5-17.2-11.6-17.2c-9.8,0-12.3,6.3-12.5,14.7
		c-0.2,8.9,0.6,16.9,11.9,16.9c7.4,0,11.5-3.6,11.8-11h-8.3c-0.3,3.8-1,5.5-3.4,5.5c-2.6,0-3.2-2.3-3.1-6.9l0-1.8H138.8z M87.4,94.5
		h9l0.3-19.6c0-2.9,1.6-4.3,3.3-4.3c1.7,0,2.6,1.3,2.5,3.4l-0.4,20.5h9l0.4-22.5c0.1-5.8-2.6-8.3-7.7-8.3c-3,0-5.5,1.1-6.9,4.1h-0.1
		L97,54.9h-9L87.4,94.5z M71.6,86.8c-0.1,7,1.6,8.1,7.8,8.1c1.7,0,3.4-0.1,5.2-0.3l0.1-6c-0.4,0.1-0.9,0.1-1.3,0.1
		c-2.1,0-2.9-0.7-2.8-2.8l0.3-15.1H85l0.1-6.2H81l0.2-8.8h-9L72,64.5h-3.7l-0.1,6.2h3.7L71.6,86.8z M50.9,85.3
		c0-1.7,0.5-2.6,1.4-3.3c0.8-0.7,2.1-0.7,4.9-2.2c0,1.2-0.1,2.8-0.1,5.3c-0.1,3-1.8,4.1-3.7,4.1C51.8,89.1,50.9,87.6,50.9,85.3
		 M51.3,73.7c0.1-2.6,0.8-4.1,3.3-4.1c2,0,2.8,1.2,2.8,3c0,2.3-0.5,2.7-3.3,3.4c-2.5,0.7-5.8,1.2-8.1,2.4c-2.2,1.2-3.7,4.2-3.8,7.7
		c-0.1,6.5,2.8,9.2,7.8,9.2c3,0,5.8-1.6,7.1-4.2h0.1c0,1.2,0.1,2.4,0.4,3.4h8.7c-1-1.3-1-4.2-0.9-6.5l0.3-15.4
		c0.1-6.3-3.1-8.9-10.5-8.9c-3.7,0-6.3,0.5-8.4,1.9c-2.1,1.4-3.4,3.9-3.5,8H51.3z M1.5,94.5h8.3l0.5-30.8h0.1l5.8,30.8h7.2l6.6-30.8
		h0.1l-0.5,30.8h8.7L39,54.9H25.5l-5.2,26h-0.1l-4.4-26H2.2L1.5,94.5z"/>
	<path class="st2" d="M298.2,70c0,1.5-1.1,2.4-2.3,2.4v0h0c-1.2,0-2.2-1-2.2-2.4c0-1.5,1-2.4,2.3-2.4
		C297.2,67.6,298.3,68.6,298.2,70 M299.1,70c0-2-1.4-3.2-3.1-3.2c-1.7,0-3.2,1.2-3.2,3.2c0,2,1.4,3.2,3.1,3.2
		C297.6,73.2,299.1,72,299.1,70 M295.5,69.7l0-0.8h0.5c0.3,0,0.7,0,0.6,0.4c0,0.4-0.2,0.4-0.5,0.4H295.5z M295.4,70.3h0.3l0.8,1.4
		h0.9l-0.8-1.5c0.5,0,0.8-0.3,0.8-0.9c0-0.8-0.5-1-1.4-1h-1.3l-0.1,3.4h0.7L295.4,70.3z"/>
</g>
<g id="Inspire_Science" class="st1">
	<g class="st3">
		<g>
			<g>
				<defs>
					<path id="SVGID_1_" d="M80.3,24.9l-2.6,3.3l3-3l0.1,3.1l0.3-3.4l3.2-1.2l-3.4,0.9l1-4.2l-1.5,4l-1.2-1.2l0.8,1.2L77.3,24
						L80.3,24.9z M120,33.4l-3-0.2l0.3-7.8l-0.6,7.7l-3.1-2.3l2.9,2.7l-0.1,3.2l0.4-2.9l1.1,1.9l-0.8-2L120,33.4z M93.4,18l-3.1,0.9
						l0,0l3.2-0.5l-0.7,1.4l1-1.3l3.3,2.6L94,18.1l1.6-0.2l-1.5,0l1.5-1.1l-1.8,1l1.1-2.7l-1.4,2.4l-0.6-0.6l0.4,0.7l-3.1-1.8
						L93.4,18z M104.7,26.3l-1.7,0.2l2.3,0.1l2,2.7l-1.7-2.7l3.6-0.7l-3.7,0.2l-0.4-1.1l0,0.2l0.1,1l-4.5-1.7l0.1,0.1L104.7,26.3z
						 M100.6,24.5L100.6,24.5L100.6,24.5L100.6,24.5z M97.9,54.4L97.9,54.4L97.9,54.4L97.9,54.4z M85.1,36l-0.2,1.4l0.6-1.6l1.7,1.6
						l-1.5-1.8l1.4-0.8l-1.7,0.5l-1.3-2.2l1,2.5L83,35.7L85.1,36z M88,24.9l0,1.2l0.2-0.8l2.3,0.6L88.4,25l1.1-1.7l-1.1,1.3
						l-0.8-2.1l0.5,1.9l-1.6-1l0,0l0,0l1.5,1.2l-2.2,0L88,24.9z M87.7,41.5l-0.9,1.4l1.2-1.5l1.1,0.7l-1.1-1.2l0-0.6l-0.2,0.6
						l-0.7-0.4l0.5,0.4l-1.2,0.1l1.2,0.2l-2.3,1.6L87.7,41.5z M104.9,35.6l-1-0.6l0.3-0.7l-0.6,0.6l-0.7-0.6l0.4,0.5l-1.5-0.6l1.4,1
						l-0.8,1.1l1.1-1l1.3,1.1l-0.9-1.1L104.9,35.6L104.9,35.6z M111.3,32.4l0,0.2l0,0L111.3,32.4L111.3,32.4z M87.6,56.3L87.6,56.3
						L87.6,56.3L87.6,56.3L87.6,56.3z M114.7,45.8L114.7,45.8L114.7,45.8L114.7,45.8z M85.1,61.9L85.1,61.9L85.1,61.9L85.1,61.9z
						 M91.6,60.2L91.6,60.2L91.6,60.2L91.6,60.2z M77.1,39.5L77.1,39.5L77.1,39.5L77.1,39.5z M100.5,24.4L100.5,24.4L100.5,24.4
						L100.5,24.4z M116,33.6L116,33.6L116,33.6L116,33.6z M100.6,24.4L100.6,24.4L100.6,24.4L100.6,24.4L100.6,24.4z M114.8,45.8
						L114.8,45.8L114.8,45.8L114.8,45.8z M114.7,45.8L114.7,45.8L114.7,45.8L114.7,45.8z M101.7,26.3L101.7,26.3L101.7,26.3
						L101.7,26.3L101.7,26.3L101.7,26.3L101.7,26.3z M101.7,26.3L101.7,26.3L101.7,26.3L101.7,26.3z M101.7,26.3L101.7,26.3
						L101.7,26.3L101.7,26.3z M91.6,60.1L91.6,60.1L91.6,60.1L91.6,60.1L91.6,60.1L91.6,60.1z M114.6,45.8L114.6,45.8L114.6,45.8
						L114.6,45.8L114.6,45.8L114.6,45.8z M97.3,47L97.3,47L97.3,47L97.3,47z M109.4,37.5L109.4,37.5L109.4,37.5L109.4,37.5z
						 M114,36.4L114,36.4L114,36.4L114,36.4z M99.4,44.5l5.3,9.2l-5.8-9.1l6.4,13.1l-7.6-13.4l0.6,1.5l-0.1-0.2l-0.4,1.1l0,0.3
						l0.3-0.2l-0.2,0.4l0.3,1.7l-0.5-1.6l0.1,1.4l-0.3-1.3l-1,2.3l0.8-2.4l-0.9-0.2l1,0l0.1-0.3l-1-3.2l0.8,3.3l-1.1-2.5l0.1,1.3
						L96,44.4L96,49.5l-0.4-2.3l0,0l0.4,6.4l-0.8-7l-0.9,11.1l0.4-9.5l-0.2-1.9l0-0.7L93.3,49l1.4-5.4l-1.1,1.8l0.5-2.1l-2.4,3.4
						l1.6-3.1l-4.8,6l3.8-5.8l-8.2,8.1l-0.2-0.4l8.3-8.6l-8.4,5.6l6.5-5.4L86.9,45l3.6-2.2l-13.1,5.6L92.8,41l-2.7,0.6l0,0L92,41
						l-3.4,0l3.4-0.7l-10.4-0.2l9.5-0.1l-13.3-1.3l0,0l0,0l-0.6,0.9l-0.1,0l0,0l0.1-0.1l0.4-0.8l-0.3-0.1l0.3,0l0.9-1.7l-2.8-0.6
						l2.9,0l-1-3.7l1.4,3.5l1.8-1.1l-1.5,1.4l-1.5,2.1l-0.1,0.1l14.5,0.6l-12-2.4l12.9,2.2L86.7,36l6.1,2.1L87,33l5.2,3.9L81.7,25.9
						l0-0.1L93,35.9l-4.5-10.2l3.5,6.9l0.2-0.1l-0.7-1.7l0.9,1.7l0.9-0.4l-1.2-2.3l1.4,2l0.2-0.9l0.1,0.9l0.7-0.6l-0.3,0.7l0.3,0.1
						l-0.3,0.1l0.3,0.5L94.1,32l0.6,2.2l-0.9-2l-1.2,0.4l2.1,4l-1-4.1l1.5,4.2l-1.4-17.7l2,15.6l0.2-3l0.3,3.9l0.3-2.8l0,2.6
						l0.9-3.6l-1,4.7l5-9.8l-4.4,10.2l0,0l3.3-5.3l0,0l-1.8,3.5l6.4-8L98.8,37l2.6-2.1l-1.9,2.2l3.5-1.9l-3.6,3.1L111,35l0.2-2.2
						l0-0.1l0,0l-0.1,2.3l4.7-1.3l-4.7,1.6l0,1.7l3.2-0.9l-3.2,1.2l0.2,5.2l-0.7-4.9l-1.2,1.2l1-1.6l-1.5-0.9l2,0.6l0.1-1.5
						l-11.4,3.9l9.8-1.8l-10.3,2.3l6.8,0.5l-7,0l5,1.7l1-1l-0.6,1.1l1.3,0.4l0.5-0.1l-0.4,0.1l8.9,3.1l0.1,0.1l-9.8-2.8l-0.8,0.3
						l1,2.6l-1.6-2.1l-0.3,1.8l0.1-1.8l-1.2,0.7l1.3-1.2l-3.2-0.7l1.7,1.4l-1.2-0.4l5.7,5.5l0,0l0,0l-6.6-5.7l8,7.7l-1.5-0.6
						L99.4,44.5z M93.7,35.7l-1.4-3.2l-0.2,0.1L93.7,35.7z M96.9,43.2l0.8,3.2l0.4-1L96.9,43.2z M99.3,41.3l4,1.7l-0.1-0.6
						L99.3,41.3z M101.6,26.4L101.6,26.4L101.6,26.4L101.6,26.4z"/>
				</defs>
				<use xlink:href="#SVGID_1_"  style="overflow:visible;fill:#FFFFFF;"/>
				<clipPath id="SVGID_00000132794311032732435100000012028144679020889791_">
					<use xlink:href="#SVGID_1_"  style="overflow:visible;"/>
				</clipPath>
				
					<rect x="71" y="13.9" style="clip-path:url(#SVGID_00000132794311032732435100000012028144679020889791_);fill:#FFFFFF;" width="49.8" height="52.2"/>
			</g>
		</g>
		<g class="st6">
			<defs>
				<filter id="Adobe_OpacityMaskFilter" filterUnits="userSpaceOnUse" x="91.1" y="35.7" width="8.7" height="8.7">
					<feFlood  style="flood-color:white;flood-opacity:1" result="back"/>
					<feBlend  in="SourceGraphic" in2="back" mode="normal"/>
				</filter>
			</defs>
			
				<mask maskUnits="userSpaceOnUse" x="91.1" y="35.7" width="8.7" height="8.7" id="SVGID_00000018233658123447597860000017205948273008637329_">
				<g class="st7">
					
						<image style="overflow:visible;" width="13" height="14" xlink:href="A8760B1E2B8A8A79.jpg"  transform="matrix(1 0 0 1 89 33)">
					</image>
				</g>
			</mask>
			<g style="mask:url(#SVGID_00000018233658123447597860000017205948273008637329_);">
				<polygon class="st4" points="95.5,38.6 99.8,35.7 96.9,40 99.8,44.3 95.5,41.4 91.2,44.4 94.1,40 91.1,35.7 				"/>
			</g>
		</g>
	</g>
	<g class="st3">
		<path class="st4" d="M202.7,40.5c-1.5,0-2.8,1.3-2.8,2.9c0,1.6,1.3,2.8,2.8,2.8c1.6,0,2.9-1.3,2.9-2.8
			C205.6,41.8,204.3,40.5,202.7,40.5z"/>
		<path class="st4" d="M200.4,48.3v21.5c0,0,0,0.1,0,0.1c0,1.3,1,2.3,2.3,2.3c1.3,0,2.3-1,2.3-2.3l0-21.6H200.4z"/>
		<path class="st4" d="M165.7,52.7l-0.1,0c-3.7-1-6.9-1.9-6.9-4.5c0-2.6,2.4-4.3,5.8-4.3c3.4,0,6.4,1.2,8.5,3.5l0.4,0.5l3-3.7
			l-0.3-0.3c-2.8-3-6.6-4.5-11.3-4.5c-6.4,0-11.1,3.8-11.1,9.1c0,6.4,5.7,7.9,10.7,9.2l0.1,0c4,1.1,7.4,2,7.4,5.3
			c0,0.8-0.3,4.7-6.7,4.7c-3.9,0-6.6-1.7-8.2-3.2l-0.1-0.1c0,0,0,0,0,0c-0.1-0.1-0.1-0.1-0.2-0.2l-0.1-0.1l0,0
			c-0.4-0.2-0.8-0.4-1.3-0.4c-0.7,0-1.3,0.3-1.8,0.8c-0.8,0.9-0.8,2.1-0.1,3l0,0l0.2,0.1c0,0.1,0.1,0.1,0.2,0.2c0,0,0,0,0.1,0.1l0,0
			c2.9,2.7,6.8,4.2,11.3,4.2c8.8,0,11.9-4.9,11.9-9.6C176.8,55.7,170.7,54.1,165.7,52.7z"/>
		<path class="st4" d="M190,51.9c2.2,0,3.9,0.9,5.2,2.7l0.4,0.5l3.1-2.9l-0.3-0.4c-2.1-2.8-4.9-4.1-8.6-4.1
			c-6.7,0-11.6,5.1-11.6,12.2c0,7.1,4.9,12.2,11.6,12.2c3.5,0,6.1-1.2,8.2-3.6l0,0c0,0,0.1-0.1,0.1-0.1l0.3-0.3l0,0
			c0.2-0.3,0.2-0.7,0.2-1.1c0-0.6-0.3-1.1-0.7-1.4c-0.4-0.3-0.9-0.5-1.4-0.5c-0.6,0-1.2,0.3-1.6,0.7l0,0.1c-1.3,1.5-2.9,2.2-4.8,2.2
			c-4.3,0-7.1-3.2-7.1-8.1C182.9,55.1,185.7,51.9,190,51.9z"/>
		<path class="st4" d="M244.9,47.7c-2.9,0-5.6,1.4-7.4,3v-2.4H233l0,21.6c0,1.3,1,2.3,2.3,2.3c1.3,0,2.3-1,2.3-2.3c0,0,0-0.1,0-0.1
			V55c1.2-1.5,3.5-3.1,6-3.1c3.1,0,4.4,1.4,4.4,4.6l0,13.2c0,0.1,0,0.1,0,0.2c0,1.3,1,2.3,2.3,2.3c1.1,0,2-0.7,2.2-1.7h0.1v-15
			C252.6,50.4,249.9,47.7,244.9,47.7z"/>
		<path class="st4" d="M219.2,47.7c-6.6,0-11.5,5.2-11.5,12.2c0,7.2,4.9,12.2,11.9,12.2c3.5,0,6.4-1.1,8.8-3.2
			c0.1-0.1,0.3-0.2,0.4-0.3c0.3-0.4,0.5-0.9,0.5-1.4c0-0.5-0.3-1-0.7-1.3c-0.6-0.5-1.6-0.6-2.3-0.2l0,0l-0.4,0.3
			c-1.6,1.4-3.8,2.2-5.9,2.2c-4.6,0-7-3.2-7.4-6.6h17.9v-1.4C230.4,52.9,225.8,47.7,219.2,47.7z M212.4,58c0.5-4.6,4.2-6.3,6.7-6.3
			c2.6,0,6.4,1.7,6.8,6.3H212.4z"/>
		<path class="st4" d="M298.9,60.2c0-7.3-4.6-12.5-11.2-12.5c-6.6,0-11.5,5.2-11.5,12.2c0,7.2,4.9,12.2,11.9,12.2
			c3.5,0,6.4-1.1,8.8-3.2c0,0,0.1-0.1,0.1-0.1c0.8-0.7,0.9-1.9,0.3-2.7c-0.4-0.4-0.9-0.7-1.5-0.7c-0.3,0-0.7,0.1-1,0.3l0,0l-0.1,0.1
			c0,0-0.1,0.1-0.1,0.1c0,0-0.1,0.1-0.1,0.1l0,0c-1.6,1.4-3.8,2.2-5.9,2.2c-4.6,0-7-3.2-7.4-6.6h17.9V60.2z M281,58
			c0.5-4.6,4.2-6.3,6.7-6.3c2.6,0,6.4,1.7,6.8,6.3H281z"/>
		<path class="st4" d="M267.1,51.9c2.2,0,3.9,0.9,5.2,2.7l0.4,0.5l3.1-2.9l-0.3-0.4c-2.1-2.8-4.9-4.1-8.6-4.1
			c-6.7,0-11.6,5.1-11.6,12.2c0,7.1,4.9,12.2,11.6,12.2c3.5,0,6.1-1.2,8.2-3.6l0,0c0,0,0.1-0.1,0.1-0.1l0.3-0.3l0,0
			c0.4-0.8,0.2-1.9-0.5-2.5c-0.7-0.6-1.7-0.7-2.5-0.2l-0.1-0.1l-0.4,0.4l-0.1,0.1l0,0c-1.3,1.5-2.9,2.2-4.8,2.2
			c-4.3,0-7.1-3.2-7.1-8.1C259.9,55.1,262.8,51.9,267.1,51.9z"/>
	</g>
	<g class="st3">
		<path class="st4" d="M51.8,56.3l-0.4-0.1C49,55.8,48,55.6,48,54.8c0-0.8,1.2-1.5,2.8-1.5c2.9,0,5.5,1.3,6.7,2.5c0,0,0.1,0.1,0.1,0
			c0.1,0,0.1,0,0.1-0.1l2.9-4.9c0-0.1,0-0.2,0-0.2c-2-1.4-5.2-3.1-9.9-3.1c-3.1,0-5.7,0.8-7.5,2.3c-1.7,1.4-2.6,3.4-2.6,5.5
			c0,6.2,5.8,7.1,9.7,7.8c2,0.3,3.9,0.7,3.9,1.7c0,1.3-1.6,1.6-3,1.6c-1.8,0-4.1-0.7-6.2-1.8c-0.5-0.3-1.1-0.5-1.7-0.5
			c-1.8,0-3.2,1.4-3.2,3.2c0,1.1,0.6,2.2,1.6,2.7c0,0,0,0,0.1,0c2.5,1.4,5.8,2.2,9,2.2c6.6,0,10.8-3.1,10.8-7.9
			C61.6,58.1,55.7,57,51.8,56.3z"/>
		<path class="st4" d="M9.5,39.3c0-0.1-0.1-0.2-0.2-0.2H1c-0.1,0-0.2,0.1-0.2,0.2v29.4c0,2.4,1.9,4.3,4.3,4.3c2.4,0,4.3-1.9,4.3-4.3
			c0-0.1,0-0.1,0-0.2L9.5,39.3z"/>
		<path class="st4" d="M29.4,47.5c-4.3,0-6.9,2.1-7.9,3.2v-2.4c0-0.1-0.1-0.2-0.2-0.2h-7.4c-0.1,0-0.2,0.1-0.2,0.2l0,20.6
			c0,0.1,0,0.3,0,0.4c0,2.2,1.8,3.9,3.9,3.9c2.2,0,3.9-1.8,3.9-3.9c0,0,0,0,0-0.1V56.6c1.2-1.4,2.7-2.2,4.4-2.2
			c2.5,0,3.7,1.2,3.7,3.7l0,10.7c0,0.1,0,0.3,0,0.4c0,2.2,1.8,3.9,3.9,3.9c2.2,0,3.9-1.8,3.9-3.9V55C37.3,50.2,34.4,47.5,29.4,47.5z
			"/>
		<path class="st4" d="M133.7,47.5c-7.2,0-12.6,5.3-12.6,12.4c0,7.3,5.3,12.5,12.9,12.5c2.8,0,5.6-0.6,7.7-1.7c0,0,0,0,0.1,0
			c1.5-0.7,2.3-2.4,1.6-4c-0.5-1.1-1.6-1.8-2.8-1.8c-0.4,0-0.8,0.1-1.2,0.2c0,0,0,0,0,0c0,0,0,0,0,0c-1.4,0.8-3.4,1.2-4.5,1.2
			c-3.3,0-5.2-1.9-5.6-3.8h16.4c0.1,0,0.2-0.1,0.2-0.2v-1.6C145.8,52.8,140.9,47.5,133.7,47.5z M129.1,57.2c0.4-1.8,1.8-3.7,4.6-3.7
			c3.7,0,4.5,2.7,4.6,3.7H129.1z"/>
		<path class="st4" d="M78.5,47.5c-2.6,0-5,1-6.7,3v-2.3c0-0.1-0.1-0.2-0.2-0.2h-7.4c-0.1,0-0.2,0.1-0.2,0.2l0,28.9l0,0.1
			c0,0.1,0,0.1,0,0.2c0,2.2,1.8,3.9,3.9,3.9c2.2,0,3.9-1.8,3.9-3.9c0-0.1,0-0.1,0-0.2l0-7.9c1.8,2,4.1,3.1,6.7,3.1
			c6.3,0,10.4-4.9,10.4-12.5C89,52.3,84.9,47.5,78.5,47.5z M81,59.9c0,3.3-2,5.5-5,5.5c-1.5,0-3.4-0.9-4.3-2v-7c0.9-1.2,2.7-2,4.3-2
			C79,54.4,81,56.6,81,59.9z"/>
		<path class="st4" d="M122.1,50.6c-0.3-1.8-1.8-3.1-3.6-3.1c-0.2,0-0.4,0-0.6,0c-0.2,0-0.3,0.1-0.5,0.1c-1.9,0.5-3.9,1.6-5.1,2.9
			v-2.4c0-0.1-0.1-0.2-0.2-0.2h-7.4c-0.1,0-0.2,0.1-0.2,0.2l0,20.7c0,0.1,0,0.2,0,0.3c0,2.2,1.8,3.9,3.9,3.9c2.2,0,3.9-1.8,3.9-3.9
			c0,0,0-0.1,0-0.1l0-12.4c1-1.2,3.5-2,5.3-2c0.1,0,0.3,0,0.4,0c0.2,0,0.3,0,0.5,0h0c0.2,0,0.4,0,0.6,0c1-0.2,1.8-0.7,2.4-1.5
			C122.1,52.5,122.3,51.5,122.1,50.6z"/>
		<path class="st4" d="M99.6,69l0-20.8c0,0,0-0.1,0-0.1c0,0-0.1,0-0.1,0H92c-0.1,0-0.2,0.1-0.2,0.2l0,20.7l0,0c0,0.1,0,0.2,0,0.2
			c0,2.2,1.8,3.9,3.9,3.9c2.2,0,3.9-1.8,3.9-3.9C99.6,69.2,99.6,69.1,99.6,69L99.6,69z"/>
	</g>
</g>
<g id="My_Math" class="st1">
	<path class="st2" d="M25.5,66.2c1.1-0.1,1.6-0.5,1.6-1.3l12.6-19.4c1.6-3.3,3.9-6.1,7-8.6l0.2,0l1.7,14c0.8,14.8,1.6,25.8,2.4,33.2
		l-1.6,1.5l0,0.2l0.5,0.7l0,0.2l-3.5,0.2l-0.2,0.2L46,87c-0.5,0-0.8-0.3-0.8-0.9l-0.4,0c-0.9,0.5-1.3,1.3-1.3,2.2l-0.2,0l-0.4-3
		c0.8,0,1.1-1.6,0.9-4.7l-1.8-12.3l0.2-1.2c-0.3,0-0.5-0.7-0.8-2.1l0.2-0.9l0-0.2l-0.3-0.2l0.2-1.4c-0.1-1.8-0.5-2.8-1.1-2.7
		c-0.4,0-0.6,0.4-0.6,1c0.1,1.2-3.9,7.5-11.9,18.9l-0.2,0l-2.4-1.5l-7.2-8.5c-0.8,0-1.4-0.2-1.9-0.8c-1.2-1.1-2.1-2.4-2.5-3.9
		l-2.3,0.6l1.1,13.1l0.3,0.2l-0.2,0l0.3,10.1l-0.2,1.7c0,0.5-1.8,1-5.5,1.4c-0.9,0-1.9-0.4-2.9-1.5l0-0.5l0.1-3.8l-0.3-0.7l0.2-0.3
		l-0.3-1.4l-0.5-9.8l0.2-1.6l-0.2,0l0-0.5l0.2-0.7L3,70l-0.2-4.6L2.1,47.1l-0.3-1.4l0.1-2.6l-0.1-1.4c0.7,0,2.5,1,5.3,3.2L23,62.8
		C24.6,64,25.4,65.2,25.5,66.2"/>
	<path class="st2" d="M94,83.6c0-0.6,0-1.1,0-1.6c0-1.4,0-1.9,0-2.5l0-0.2c0-0.1-0.1-0.2-0.1-0.3l0-0.2l0-0.2c0-0.1,0-0.2-0.1-0.3
		l0-0.2c0-0.5-0.1-0.7-0.1-1c0-0.4,0-2.3,0-2.3c-0.2-1.8-0.4-3.2-0.5-4.8c0-0.5-0.1-0.9-0.1-1.3l0-0.3c0-0.1,0-0.1-0.1-0.2l0-0.3
		c0-0.6-0.1-1.1-0.2-1.6c0-0.1,0-0.1-0.1-0.2c-0.1-1.2-0.2-2.2-0.2-3.2l0-0.1l0-0.2c0-0.1,0-0.2,0-0.3l0-0.2c0.1-1,0-1.9-0.1-2.8
		l0-0.2c0-0.1,0-0.2,0-0.3l0-0.2l0-0.3c-0.1-1.8,0-3.3-0.1-4.9l0-0.2l0-0.2c0-1,0.1-1.7,0-2.7l-0.2-0.2c0,0,0,0,0-0.1
		c0,0,0-0.1,0-0.1c0,0,0,0,0-0.1l0-0.1l0,0l0-0.1l-0.5-0.4l-0.4-0.1c-0.1,0-0.2,0-0.4-0.1c-0.5,0-0.8,0-1.4,0
		c-1.7,0.4-2.1,0.4-2.5,0.4l-0.4,0l-0.5,0.4l-0.2,0c-0.2,0-0.3,0-0.5,0l-0.2,0l-0.5,0.2c-0.8,0.1-0.8,0.1-0.8,0.2L83,50.7l-0.1,0
		l0,0l-0.1,0c0,0-0.1,0-0.1,0l-0.2,0c-0.4,0.1-0.7,0-1,0.1l0-0.1l0,0c0.1-0.4,0.5-0.2,0.2-0.7c-0.9-0.4-1.7,0.1-2.5,0.1l-0.2,0
		l-0.1,0.1c0,0-0.1,0-0.2,0.1l-0.1,0.1c-0.1,0-0.1,0-0.2,0.1c-0.1,0-0.2,0.1-0.3,0.2c-0.1,0-0.1,0-0.2,0.1c-0.6,0.3-1.2,0.5-1.8,0.8
		c0,0-0.1,0-0.1,0.1c-0.1,0-0.2,0-0.3,0.1c0,0-0.1,0-0.1,0.1c-0.1,0-0.2,0-0.3,0.1l-0.5,0c-0.1,0-0.2,0.1-0.3,0.1L74.3,52
		c-0.1,0-0.3,0.1-0.4,0.1l-0.2,0.1l0,0l-0.1,0l0,0l0,0.1c0,0,0,0-0.1,0l-0.1,0c0,0,0,0-0.1,0l-1.1,0.7c-0.1,0-0.2,0.1-0.3,0.2
		c-0.2,0.1-0.4,0.2-0.6,0.4c-0.1,0-0.2,0.1-0.3,0.2c-0.1,0.1-0.2,0.1-0.3,0.2c-0.2,0.1-0.4,0.2-0.6,0.3l0,0.3c-0.1,0-0.1,0-0.2,0.1
		c-0.1,0-0.2,0.1-0.4,0.1c-0.1,0-0.1,0-0.2,0.1c-0.1,0.1-0.2,0.1-0.3,0.2c-0.2,0.1-0.4,0.2-0.5,0.3c-0.9,0.7-1.8,1-2.7,1.5
		c-0.2,0.1-0.4,0.2-0.6,0.4c-0.1,0.1-0.2,0.1-0.3,0.2c-0.2,0.2-0.4,0.3-0.5,0.5c-0.1,0.1-0.2,0.1-0.3,0.2c-0.1,0.2-0.2,0.4-0.3,0.6
		c-0.3,0.3-0.5,0.6-0.7,0.9l-0.3,0.5l0,0l0,0.1l0,0l-0.1,0.1c-0.3,0.5-0.4,0.9-0.7,1.2c0,0-0.1,0-0.2,0.1l-0.1,0.1
		c-0.3,0.9-0.7,1.7-0.6,2.7c-0.1,0.3-0.1,0.7-0.2,1c-0.2,0.3-0.2,0.5-0.2,0.8c0,0,0,0,0,0.1c0,0.1,0,0.1,0,0.2l0,0.4
		c0,0.1,0,0.1,0,0.2c-0.2,1-0.3,2-0.2,2.9c-0.2,1-0.6,2-0.2,2.8c0.2,0.6,0.2,0.8,0.2,1.5c0,0.1,0,0.1,0.1,0.2l0,0.2
		c0,0.1,0,0.1,0.1,0.2c0.1,1.1,0.5,2,0.5,2.9c0.2,1.4,0.8,2.7,1.2,3.8l0,0l0,0l0,0c0.5,0.8,1.1,1.2,1.7,1.8c0,0,0,0,0.1,0
		c0,0,0,0,0,0.1c0,0,0,0,0.1,0c0.8,0.6,1.9,1.2,2.8,1.2l0,0.2c0,0,0,0,0.1,0l0,0c0,0,0,0,0.1,0l0.1,0c1,0.3,3.1,0.1,4.2,0l0.1,0
		l0.1,0.1l0,0.1l0,0l0,0.1l0.1,0.1l0.1,0.1c0,0,0,0,0,0.1c0.3,0.2,0.6,0.2,0.8,0.3c0.6,0,1.1,0.1,1.7,0.1c0,0,0,0,0.1,0l0.1,0
		c0,0,0,0,0.1,0c0.6-0.4,0.9-0.4,1.7-0.4c0.6,0,1-0.1,1.4-0.1l1.1-0.1l0-0.2l0.2,0l0.1-0.1c0.5-0.5,1.1-0.7,1.7-0.8l0.1,0
		c0.2,0,0.3-0.1,0.4-0.1l0.1,0l0.1,0c0.1-0.1,0.2-0.1,0.4-0.1c0,0,0,0,0.1,0c0.3-0.2,0.9-0.3,1.1-0.5l0.2-0.2
		c0.1-0.1,0.2-0.2,0.3-0.3l0.2-0.2c0.1-0.1,1.5-2.8,1.6-1.3l0,0l0,0l0,0l0,0.7c0.6,0,0.8,1,0.8,1.4c0.3,0.1,0.3,0.3,0.3,0.4
		c0.3,0,0.6,0,0.9,0c0.6,0,1.3,0,1.9,0c0.3,0,0.6,0,0.9,0l0,0l0.1,0l0,0l0.1,0c0,0,0,0,0.1,0l0.1,0l0,0l0.1,0l0,0
		c0.8-0.2,1.3-0.2,2-0.6c0.1,0,0.2-0.1,0.4-0.1c0.3,0,0.4-0.1,0.7-0.1c0.1,0,0.2-0.1,0.4-0.1L94,83.6z M83.7,75.2c0,0,0,0.1,0,0.1
		c0,0,0,0,0,0.1l0,0.2c0,0,0,0,0,0.1l-0.5,0c-0.1,0.5-1,0.8-1.3,1.1c-0.1,0-0.1,0-0.2,0.1l-0.1,0.1c0,0,0,0-0.1,0l-0.2,0
		c0,0,0,0-0.1,0c-1.4,0.1-2.7,0.5-4.1,0.6l0,0l0,0l0,0c0,0,0,0-0.1,0c-0.4,0.1-0.7,0.3-1,0.3L75.8,78l0,0.1c0,0,0,0,0,0.1l0,0.1
		c0,0-0.1,0-0.1,0l-0.3,0c0,0-0.1,0-0.1,0c-0.1,0-0.1-0.1-0.2-0.1c-1-0.4-2.2-0.7-3.1-1.4c-0.1,0-0.3-0.1-0.4-0.1l0,0c0,0,0,0-0.1,0
		c-0.7-0.2-1.3-0.5-1.9-0.7c0,0,0,0,0-0.1l0,0c0,0,0,0,0-0.1c0,0,0-0.1-0.1-0.1c0-0.1,0-0.1-0.1-0.2c-0.6-0.7-1.1-1.7-1.4-2.5
		c0,0,0-0.1-0.1-0.2c0,0,0-0.1-0.1-0.1c0-0.1-0.1-0.2-0.2-0.3c0,0,0-0.1-0.1-0.1c0,0,0-0.1-0.1-0.2l-0.1-0.2c0,0,0-0.1-0.1-0.2
		l0.1-0.4l0.2,0l0,0.2c0,0,0,0,0.1,0l0,0c0,0,0,0,0.1,0c0,0,0,0,0,0.1c0,0.1,0,0.1,0.1,0.2c0,0,0,0,0,0.1l0.2,0l0,0.2c0,0,0,0,0.1,0
		l0,0c0,0,0,0,0.1,0l0-0.2c0-0.1-0.1-0.1-0.1-0.2c-0.1-0.1-0.1-0.2-0.2-0.3c0-0.1-0.1-0.1-0.1-0.2l-0.1-0.1c0,0,0-0.1-0.1-0.2
		l-0.1-0.1l0-0.6c-0.3-0.7-0.3-1.6,0.1-2.2c0.2-1,0.9-2.2,1.7-2.5c0.3-0.3,0.8-0.8,0.8-1.2c0,0,0-0.1,0.1-0.1
		c0.1-0.3,0.3-0.5,0.5-0.7c0.1-0.3,0.4-0.5,0.7-0.7c0.1-0.3,1.6-1.6,1.9-1.9l0.1-0.1c0,0,0,0,0.1,0c0,0,0,0,0-0.1c0,0,0,0,0.1,0
		c0,0,0.1,0,0.1-0.1c0.5-0.3,1-0.4,1.4-0.8c0.4,0,0.6-0.1,1-0.1c0,0,0,0,0.1,0c0,0,0.1,0,0.2-0.1l0.3,0c0,0,0.1,0,0.2,0
		c0.1,0,0.2-0.1,0.3-0.1c0.5-0.1,1-0.2,1.5-0.2c0,0,0.1,0,0.2,0c0.5,0,0.9,0.1,1.4,0c0.1,0,0.1,0,0.2-0.1l0.1,0c0,0,0.1,0,0.1,0
		l0.3,0c0,0,0.1,0,0.1,0l0.5,0c0,0,0,0.1,0.1,0.2c0,0,0,0,0.1,0l0.1,0.1l0,0.2l0,0.3l0.1,0.1c0.1,0,0.1,0.1,0.3,0.2
		c0.3,0.5,0.6,0.9,0.6,1.4c0,0,0,0,0,0.1c0,0.1,0,0.1,0.1,0.2c0.2,0.6,0.2,1.1,0.2,1.6l0,0.1c0,0.1,0,0.2,0.1,0.3
		c0.2,0.9,0.3,0.3,0.3,1.7c0,0.2,0.1,0.4,0.1,0.6c0,0.4,0.1,0.7,0.1,1.1c0,0.2,0.1,0.4,0.1,0.6c0.1,0.6,0.1,1.1,0.2,1.6
		c0,0.2,0.1,0.4,0.1,0.5c0,0.8,0,1.1,0,1.4c0,0.7-0.3,1.4-0.3,2c0,0,0,0.1-0.1,0.1c0,0.1,0,0.1-0.1,0.2
		C83.2,74.1,83.6,74.8,83.7,75.2"/>
	<path class="st2" d="M136.8,31.5c0.6,0.5,0.8,1,0.9,1.5l0.1,1.6l0.3,2l-0.2,0.7l2.1,15.3l0,0.4l-1.1-0.8l-0.2,0l-0.2,0.2l1.2,3.1
		l4.3-1.8l1.5-0.1l2.6,0.1l0.5-0.4l1.3-0.1l6.3,1.6c2.1,0.6,3.8,2.4,5.2,5.5l2.9,15.9l0.2,4.4l-2.3,0.1l-1.3-0.1l-4.3,1.1l-0.2,0
		l0.2-1.6l-0.1-1.8l-0.4-2.2l0.1-2l-0.1-1.6l0.2-0.9c-0.6-4.6-1-6.9-1.4-6.9c-0.1-2.3-2.1-3.8-5.9-4.6l-2.5,0.6l-1-0.2l-0.2,0
		c0,0.9-0.5,1.6-1.7,2.1l-0.8,0l0-0.9c0-0.7-0.3-1.2-0.8-1.3l-0.2,0l-0.3,0.2c-0.1,2.5-0.5,3.8-1.1,3.8l0.3,0.6l-0.4,2.3l0.9,7.3
		l-0.2,0.9l0,0.2l0.3,0.2l0.6,7.6l-0.5,0.5l-2.6,0.1l-1,0.7l-0.8,0l-3.8,0.4l0.4-2.5l-0.2-3.4l-0.7-9.1l0.1-2.5
		c-1.2-6.8-1.9-12.3-2.1-16.4l-0.3-0.6l0.3,0l-0.4-1.8l0-6.3c-0.7-6.9-1.2-10.4-1.6-10.4l0-0.2l0.5-0.5l3.6-0.2L136.8,31.5z"/>
	<polygon class="st2" points="114.4,36.3 105.1,38.2 105.7,53.9 99.5,55.5 99.7,62.8 100.6,62.8 106.7,62 109.2,86.5 118,86.2 
		115.9,60.3 123.7,59 122.4,50.1 115.7,51.8 	"/>
	<path class="st2" d="M18.2,15.8c-0.7-0.5-1.1-0.7-1.2-0.7l0,0.3l0,0.6l0.1,0.3l0.3,4.1l0.1,1.1l0.1,0.2l0,0.2l0,0.1l0.1,0l0,0.4
		l0.2,2.2l0.1,0.3L17.8,25l0.1,0.2l0,0.9l0,0.1c0.2,0.2,0.5,0.3,0.7,0.3c0.8-0.1,1.3-0.3,1.3-0.4l0-0.4l-0.2-2.3l0.1,0l-0.1,0
		l-0.4-3l0.5-0.2c0.1,0.3,0.3,0.6,0.6,0.9c0.1,0.1,0.3,0.2,0.4,0.2l1.7,1.9l0.6,0.3l0,0c1.7-2.7,2.6-4.1,2.6-4.4
		c0-0.1,0-0.2,0.1-0.2c0.1,0,0.2,0.2,0.3,0.6l0,0.3l0.1,0.1l0,0.1l0,0.2c0.1,0.3,0.1,0.5,0.2,0.5l0,0.3l0.5,2.8
		c0.1,0.7,0,1.1-0.2,1.1l0.1,0.7l0.1,0c0-0.2,0.1-0.4,0.3-0.5l0.1,0c0,0.1,0.1,0.2,0.2,0.2l0.1,0l0.1-0.1l0.8-0.1l0-0.1l-0.1-0.1
		l0-0.1l0.3-0.4c-0.3-1.7-0.5-4.2-0.8-7.5l-0.5-3.2l0,0c-0.7,0.6-1.2,1.3-1.5,2l-2.7,4.5c0,0.2-0.1,0.3-0.3,0.3
		c0-0.2-0.2-0.5-0.6-0.8L18.2,15.8z"/>
	<path class="st2" d="M31.3,18.9c-0.3,0.6-0.5,1.3-0.4,2.1c1.3,2.4,2.3,3.5,3.1,3.4c0.1,0.1,0.6,0.2,1.5,0.2
		c0.6-0.1,1.2-0.4,1.8-0.9c0.4-0.5,0.6-0.8,0.5-1c0-0.2-0.3-0.4-1-0.8l-0.2-0.1L35.4,23l-0.1,0c-0.3,0-0.6,0-0.9-0.2l-0.2,0.1
		c0-0.1-0.2-0.3-0.6-0.5c-0.4-0.6-0.7-1.3-0.7-2.2l0.1-0.1l0,0c-0.1-0.7,0.1-1.2,0.6-1.5c0.4-0.5,0.8-0.8,1.1-0.8l0.3,0
		c0.4,0,0.9,0.2,1.7,0.7c0.1,0,0.3-0.3,0.5-0.7L36.4,17l0.1,0l0.2,0.1l0.1,0l0-0.1c-0.6-0.5-1.3-0.8-2.2-0.7l-0.1,0
		c-1,0.2-1.7,0.4-2.1,0.7c-0.3,0.2-0.5,0.5-0.8,1c-0.3,0.3-0.4,0.6-0.4,0.7L31.3,18.9z"/>
	<path class="st2" d="M43.6,12.5L43.6,12.5l-0.9,0.1l0-0.1c-0.4,0.3-1,0.7-1.6,1.3c-0.5,0-0.9,1-1.1,2.7c-0.2,0-0.2,0.6-0.1,1.7
		c0.4,2.3,0.8,3.4,1,3.4c0.9,1.4,1.6,2.1,2.2,2c0.9,0.3,1.5,0.4,2,0.4l0.1,0l4.3-1c0.1-0.1,0.4-0.2,1-0.4l0-1.5l-0.6-3.4
		c0-0.2-0.4-0.3-1.1-0.2L47,17.6l-0.3,0.1l0,0.1l0.1,0.3l-0.1,0.1l0.2,1l0.5,0l0.2-0.1c0.4,0,0.6,0.1,0.6,0.2l0,0.1
		c-0.1,0.2-0.2,0.3-0.1,0.4l0.1,0.1l0,0.1L48.1,20l0.1,0.1l0,0.1c-0.2,0.8-0.4,1.2-0.8,1.2c-0.1,0.1-0.2,0.2-0.4,0.2l-0.4,0
		l-1.1,0.2l-1.2,0c-0.1-0.1-0.6-0.3-1.2-0.6l-0.6-0.9c-0.3-0.4-0.5-1.3-0.6-2.7l0-0.6l-0.1,0.1l-0.1,0l-0.1-0.1
		c0.1-0.8,0.6-1.5,1.5-2.2c0.9-0.5,1.7-0.8,2.4-0.9c1-0.1,1.8,0,2.4,0.4l0.1,0c0.6-0.7,0.8-1.2,0.8-1.4c-0.3-0.3-0.9-0.5-1.9-0.8
		c0-0.1-0.3-0.1-0.8-0.2C44.4,12.1,43.6,12.4,43.6,12.5L43.6,12.5z"/>
	<path class="st2" d="M55.4,14.7l-0.6,0.1c-0.3,0.4-0.5,0.6-0.7,0.6l-0.2-0.3l-0.8,0.1l0,0.2l0.1,0.1l0.1,2.3l0.1,0.2l0,0.2l0.1,0.4
		l0.2,3.7l0.2,1l0.2,0c0-0.2,0-0.3,0.1-0.3l0.9,0.1L55,23l0.2,0c0.1-0.1,0.2-0.4,0.1-0.8l0,0L55.3,22l0-0.4l0-0.2l-0.1,0l0-0.1
		l0-0.7l-0.1,0L55,19.2l0-0.1L55,19l0,0c0-0.5,0-0.8,0.1-0.9L55,17.8l0-0.2c0-0.1,0.1-0.4,0.3-0.8l0.1,0.1l0.1,0
		c0-0.3,0.6-0.5,2-0.8l0.3,0.1c0.1,0,0.3-0.5,0.5-1.4c-0.3-0.2-0.9-0.2-2-0.2L55.4,14.7z"/>
	<path class="st2" d="M67.6,21.1c0-0.1,0-0.1,0-0.2c0-0.1,0-0.1,0-0.2c0-0.2,0-0.3,0-0.4c0-0.1,0-0.1,0-0.2l0,0c0,0,0,0,0,0
		c0,0,0,0,0,0l0-0.1c0,0,0,0,0,0c0,0,0,0,0,0l0,0c0,0,0-0.1,0-0.1c0,0,0-0.1,0-0.1c0,0,0-0.2,0-0.3c0-0.1,0-0.1,0-0.2
		c0,0,0-0.1,0-0.1c-0.1-0.4-0.1-0.7-0.1-1.1c0-0.1,0-0.1,0-0.2c0,0,0-0.1,0-0.1l0-0.1c0,0,0,0,0,0c0,0,0,0,0,0l0-0.1
		c0-0.1,0-0.1,0-0.2c0-0.1,0-0.1,0-0.2c0,0,0,0,0,0c0,0,0,0,0,0c0-0.3-0.1-0.5-0.1-0.7l0-0.1c0,0,0,0,0,0c0,0,0,0,0,0l0,0
		c0-0.1,0-0.2,0-0.3c0-0.1,0-0.2,0-0.3l0,0c0,0,0,0,0,0c0,0,0,0,0,0l0-0.1c0-0.2,0-0.4,0-0.6c0-0.2,0-0.4,0-0.5l0-0.1
		c0-0.1,0-0.2,0-0.3c0-0.1,0-0.2,0-0.3l-0.1,0v0c0,0,0,0,0,0c0,0,0,0,0,0c0,0,0,0,0,0l0,0c0,0,0,0,0,0l0,0l0,0l0,0l-0.1-0.1l-0.1,0
		c0,0,0,0,0,0c0,0,0,0,0,0c-0.1,0-0.1,0-0.1,0c0,0-0.1,0-0.2,0c-0.2,0-0.3,0.1-0.4,0.1c-0.1,0-0.1,0-0.2,0l-0.1,0l-0.1,0.1l-0.1,0
		c0,0,0,0-0.1,0c0,0,0,0-0.1,0l-0.1,0l-0.1,0c-0.1,0-0.1,0-0.1,0c0,0,0,0,0,0l-0.2,0.1l0,0l0,0l0,0l0,0c0,0,0,0,0,0l0,0
		c0,0-0.1,0-0.1,0c0,0-0.1,0-0.1,0l0,0c0,0,0-0.1,0.1-0.1c0,0,0,0,0-0.1c-0.1,0-0.2,0-0.3,0c-0.1,0-0.2,0.1-0.3,0.1l0,0l0,0
		c0,0,0,0,0,0c0,0,0,0,0,0l0,0c0,0,0,0,0,0c0,0,0,0,0,0c0,0,0,0-0.1,0c0,0,0,0,0,0c0,0,0,0,0,0c-0.1,0-0.1,0.1-0.2,0.1
		c-0.1,0-0.1,0.1-0.2,0.1l0,0c0,0,0,0,0,0c0,0,0,0,0,0c0,0,0,0,0,0l0,0c0,0,0,0,0,0c0,0,0,0,0,0c0,0,0,0,0,0l-0.1,0c0,0,0,0,0,0
		c0,0-0.1,0-0.1,0c0,0,0,0,0,0c0,0,0,0,0,0c0,0,0,0,0,0c0,0,0,0,0,0c0,0,0,0,0,0l0,0l0,0l0,0l0,0l0,0c0,0,0,0,0,0l0,0l0,0
		c0,0,0,0,0,0l-0.2,0.2c0,0,0,0-0.1,0c0,0,0,0-0.1,0c0,0,0,0-0.1,0c0,0,0,0-0.1,0c0,0,0,0,0,0c0,0,0,0,0,0c0,0,0,0-0.1,0
		c0,0,0,0-0.1,0l0,0.1c0,0,0,0,0,0c0,0,0,0,0,0c0,0,0,0,0,0c0,0,0,0,0,0c0,0,0,0,0,0c0,0,0,0,0,0c0,0,0,0,0,0c0,0,0,0,0,0
		c0,0,0,0-0.1,0c0,0,0,0-0.1,0c-0.1,0.1-0.2,0.1-0.3,0.2c-0.1,0.1-0.2,0.1-0.3,0.2c0,0,0,0-0.1,0c0,0-0.1,0.1-0.1,0.1c0,0,0,0,0,0
		c0,0,0,0-0.1,0.1c0,0,0,0-0.1,0.1c0,0,0,0,0,0c0,0,0,0,0,0c0,0,0,0,0,0.1c0,0,0,0,0,0.1c0,0,0,0.1-0.1,0.1c0,0-0.1,0.1-0.1,0.1
		l-0.1,0.1l0,0l0,0l0,0c-0.1,0.1-0.1,0.2-0.2,0.3c0,0,0,0,0,0c0,0,0,0,0,0l0,0c-0.1,0.2-0.1,0.4-0.1,0.6c0,0,0,0.1,0,0.1
		c0,0,0,0.1,0,0.1c0,0.1,0,0.1,0,0.2l0,0c0,0,0,0,0,0c0,0,0,0,0,0c0,0,0,0,0,0l0,0.1c0,0,0,0,0,0c0,0,0,0,0,0c0,0.2,0,0.4,0,0.7
		c0,0.1,0,0.2-0.1,0.3c0,0.1,0,0.2,0,0.3c0,0.1,0.1,0.2,0.1,0.3c0,0,0,0,0,0c0,0,0,0,0,0l0,0c0,0,0,0,0,0c0,0,0,0,0,0
		c0,0.1,0,0.2,0.1,0.3c0,0.1,0.1,0.2,0.1,0.3c0,0.2,0.1,0.3,0.1,0.4c0.1,0.2,0.1,0.3,0.2,0.4l0,0l0,0l0,0c0.1,0.2,0.3,0.3,0.4,0.4
		l0,0c0,0,0,0,0,0l0,0c0,0,0,0,0,0c0.2,0.1,0.4,0.3,0.7,0.2l0,0.1l0,0c0,0,0,0,0,0l0,0l0,0c0,0,0,0,0,0l0,0c0.1,0,0.3,0,0.5,0
		c0.1,0,0.2,0,0.3,0c0.1,0,0.2,0,0.2,0l0,0l0,0l0,0l0,0l0,0l0,0c0,0,0,0,0,0v0c0,0,0.1,0,0.1,0c0,0,0,0,0.1,0c0.1,0,0.1,0,0.2,0
		c0.1,0,0.1,0,0.2,0c0,0,0,0,0,0l0,0l0,0c0,0,0,0,0,0h0c0.1-0.1,0.2-0.1,0.4-0.1c0.1,0,0.1,0,0.2,0c0,0,0.1,0,0.1,0l0.2,0l0-0.1
		l0.1,0l0,0c0.1-0.1,0.2-0.2,0.4-0.2l0,0c0,0,0.1,0,0.1,0l0,0c0,0,0,0,0,0c0,0,0,0,0,0c0,0,0,0,0,0l0,0c0,0,0.1,0,0.1-0.1
		c0,0,0.1,0,0.1-0.1l0,0c0,0,0,0,0,0c0,0,0,0,0,0l0,0c0,0,0,0,0.1-0.1c0.1-0.1,0.2-0.3,0.2-0.3c0,0,0.1,0,0.1,0.1v0l0,0l0,0.2
		c0.1,0,0.2,0.2,0.2,0.3c0.1,0,0.1,0.1,0.1,0.1c0,0,0.1,0,0.1,0c0,0,0.1,0,0.1,0c0.1,0,0.1,0,0.2,0c0.1,0,0.1,0,0.2,0
		c0,0,0.1,0,0.1,0c0,0,0.1,0,0.1,0l0,0l0,0l0,0l0,0h0c0,0,0,0,0,0l0,0l0,0l0,0l0,0c0.2,0,0.3-0.1,0.5-0.1c0,0,0,0,0,0c0,0,0,0,0,0
		c0,0,0.1,0,0.1,0c0,0,0,0,0.1,0C67.6,21.2,67.6,21.2,67.6,21.1C67.6,21.2,67.6,21.2,67.6,21.1L67.6,21.1z M65.2,19.3L65.2,19.3
		C65.2,19.4,65.2,19.4,65.2,19.3l-0.1,0c0,0-0.1,0.1-0.1,0.1c-0.1,0-0.1,0.1-0.2,0.1c0,0,0,0,0,0c0,0,0,0,0,0l0,0c0,0,0,0,0,0l0,0
		l0,0c0,0,0,0,0,0l0,0c-0.2,0-0.3,0-0.5,0.1c-0.2,0-0.3,0.1-0.5,0.1l0,0l0,0l0,0l0,0c0,0,0,0,0,0c0,0-0.1,0-0.1,0c0,0-0.1,0-0.1,0
		l0,0l0,0l0,0c0,0,0,0,0,0l0,0c0,0,0,0,0,0c0,0,0,0,0,0l-0.1,0c0,0,0,0,0,0c0,0,0,0,0,0c0,0,0,0,0,0c0,0,0,0,0,0
		c-0.2-0.1-0.5-0.1-0.7-0.3c0,0,0,0-0.1,0c0,0,0,0,0,0l0,0c0,0,0,0,0,0l0,0c-0.1,0-0.2,0-0.2-0.1c-0.1,0-0.1,0-0.2-0.1l0,0
		c0,0,0,0,0,0l0,0l0,0c0,0,0,0,0,0l0,0c0,0,0,0,0,0c0,0,0,0,0,0c-0.1-0.1-0.3-0.4-0.4-0.6c0,0,0,0,0,0c0,0,0,0,0,0c0,0,0,0,0,0l0,0
		c0,0,0,0,0,0c0,0,0,0,0,0c0,0,0,0,0,0l0,0c0,0,0,0,0,0c0,0,0,0,0,0c0,0,0,0,0,0c0,0,0,0,0,0c0,0,0,0,0,0c0,0,0,0,0,0l0-0.1l0.1,0
		l0,0.1h0c0,0,0,0,0,0l0,0l0,0c0,0,0,0,0,0l0,0c0,0,0,0,0,0c0,0,0,0,0,0c0,0,0,0,0,0l0,0l0,0l0,0l0,0c0,0,0,0,0,0l0,0l0,0
		c0,0,0,0,0,0l0-0.1c0,0,0,0,0,0c0,0,0,0,0-0.1c0,0,0,0,0-0.1c0,0,0,0,0,0l0,0c0,0,0,0,0,0c0,0,0,0,0,0l0,0l0-0.1
		c-0.1-0.2-0.1-0.4,0-0.5c0-0.2,0.2-0.5,0.4-0.6c0,0,0.1-0.1,0.1-0.1c0-0.1,0.1-0.1,0.1-0.1c0,0,0,0,0,0l0,0c0,0,0-0.1,0-0.1
		c0,0,0,0,0.1-0.1c0-0.1,0.1-0.1,0.2-0.2c0,0,0.1-0.1,0.2-0.2c0-0.1,0.1-0.1,0.1-0.1c0,0,0.1-0.1,0.1-0.1l0,0c0,0,0,0,0,0
		c0,0,0,0,0,0c0,0,0,0,0,0c0,0,0,0,0,0l0,0c0.1,0,0.1-0.1,0.2-0.1c0,0,0.1-0.1,0.1-0.1c0,0,0.1,0,0.1,0c0,0,0.1,0,0.1,0c0,0,0,0,0,0
		l0,0c0,0,0,0,0,0c0,0,0,0,0,0l0.1,0c0,0,0,0,0,0c0,0,0,0,0,0c0,0,0,0,0,0c0,0,0,0,0,0c0.1,0,0.1,0,0.2,0c0.1,0,0.1,0,0.2,0
		c0,0,0,0,0,0c0,0,0,0,0,0c0.1,0,0.1,0,0.2,0c0,0,0.1,0,0.2,0c0,0,0,0,0,0c0,0,0,0,0,0l0,0c0,0,0,0,0,0l0,0l0.1,0c0,0,0,0,0,0l0,0
		l0.1,0c0,0,0,0,0,0c0,0,0,0,0,0l0,0c0,0,0,0,0,0l0,0l0,0.1l0,0c0,0,0,0,0,0c0,0,0,0,0,0c0,0.1,0.1,0.1,0.1,0.2c0,0,0,0.1,0.1,0.2
		c0,0,0,0,0,0l0,0c0,0,0,0,0,0c0,0,0,0,0,0c0,0.1,0.1,0.2,0.1,0.4l0,0c0,0,0,0,0,0c0,0,0,0,0,0c0,0,0,0.1,0,0.1c0,0,0,0.1,0,0.1
		c0,0,0,0.1,0,0.2c0,0,0,0,0,0.1c0,0,0,0,0,0.1c0,0,0,0.1,0,0.1c0,0,0,0.1,0,0.1c0,0,0,0,0,0.1c0,0,0,0,0,0.1c0,0.1,0,0.2,0.1,0.4
		c0,0,0,0,0,0.1c0,0,0,0,0,0.1c0,0.1,0,0.1,0,0.2c0,0,0,0.1,0,0.1c0,0.1,0,0.2,0,0.2c0,0.1,0,0.2,0,0.2l0,0c0,0,0,0,0,0c0,0,0,0,0,0
		c0,0,0,0,0,0c0,0,0,0,0,0.1c0,0.1,0,0.1,0.1,0.2C65.2,19.2,65.2,19.2,65.2,19.3C65.2,19.3,65.2,19.3,65.2,19.3
		C65.2,19.3,65.2,19.3,65.2,19.3L65.2,19.3C65.2,19.3,65.2,19.3,65.2,19.3L65.2,19.3z"/>
	<path class="st2" d="M73.7,16.6c-0.1,0-0.2-0.2-0.4-0.5l0.1-0.1l0-0.1c-0.1-0.2-0.6-1-1.7-2.2c-0.1-0.3-0.2-0.5-0.4-0.4
		c-0.7,0.2-1.2,0.4-1.6,0.4l0,0.1c0.5,0.4,0.8,0.7,0.8,0.8c0.3,0.5,0.5,0.8,0.5,1l0,0.1l-0.1,0.2l-0.1,0l-0.2-0.1l0,0
		c0.7,1.5,1.3,2.7,1.9,3.6c0.3,0.5,0.5,0.9,0.5,1.3l0.6,0.9l0,0c0.1,0,0.1-0.2,0.2-0.4c0.1,0,0.2-0.1,0.2-0.4l-0.1-0.1l0,0
		c0.2-0.7,0.5-1.5,0.9-2.2l0.6-1.3l-0.1-0.2l0.1-0.1c0.3,0,0.4,0.2,0.5,0.6c0,0,0.6,1,1.7,3l0.4,0.4l0.1,0c0-0.2,0-0.3,0.1-0.3
		c0.1,0.1,0.1,0.2,0.2,0.2c0-0.4,0-0.6,0.1-0.6l0.4-1.3c0.3-1,0.6-2.6,0.9-4.8l0.2-1.1l0.1-0.2l-0.6,0.1l-0.3,0l-0.5,0
		c-0.5,0-0.7,0.2-0.7,0.4c-0.4,1.8-0.7,2.8-0.9,3.1l-0.1,0L77,16.1l0,0l0.1-0.3c-0.2-0.2-0.5-0.5-0.9-1.1L75,12.8
		c-0.2,0.2-0.4,1.2-0.8,3l-0.3,0.6L73.7,16.6z"/>
	<path class="st2" d="M90.6,8.5l0.2,2l0.2,1.7l-0.1,0.6l0.1,0l0,0.1l0,0.3l0.1,0.4l0.1,4.2l0.2,1.4l0.1,0l0.2-0.1l0.8,0
		c0.8-0.1,1.1-0.3,1.1-0.7l-0.1-1.1l0.1-0.1l-0.1-0.2l0-0.4l-0.1-0.6l0.1-1l-0.1-0.8c0-0.1,0.3-0.2,0.8-0.4c0.8,0,1.6,0,2.4,0
		l0.2-0.1c0.2,0.1,0.6,0.1,1.3,0.1c0-0.2,0.1-0.3,0.2-0.3c0.1,0.1,0.3,0.3,0.4,0.7l0,1.2l0.2,0.2l0,0.1L98.7,16l0.1,0.2l0,0.2
		l0.2,1.3l0,0.5l0,0.6l1.1,0.1l0.3,0l0.2-0.1l0.3,0c0.4,0,0.6-0.5,0.5-1.3l-0.1-0.2l0.1-0.1l-0.2-1l0.1-0.4l-0.2-0.7l0-0.4l-0.2-1.4
		l-0.4-4.9l0.1-0.1l0-0.1l-0.1-0.2l-0.1-1.1l-0.1,0c-1.4,0.2-2.1,0.4-2.1,0.6l0,0.5l0.2,2.2l0.1,1c-0.2,0.2-0.6,0.3-1,0.3l-2.3,0.2
		c-0.1,0.2-0.1,0.2-0.2,0.3c-0.1-0.2-0.3-0.3-0.6-0.3l-0.3,0L93.9,12l-0.6,0L93,12l-0.1-0.1c0.1-0.5,0.1-1.2,0-2.1l0-0.1L92.7,9
		l0-0.7l0-0.2l0-0.1L92.7,8l0-0.1l0-0.6l-0.2-0.2l0-0.1l-0.1,0.1l-0.5,0l-0.1,0c-0.2,0.1-0.6,0.2-1.3,0.2L90.6,8.5z"/>
	<path class="st2" d="M104,8.4l0.7-0.2l0,0l0-0.1l0,0l0.1,0l0,0c0.1-0.1,0.2-0.4,0.2-0.9l0,0l0-0.4c0-0.3-0.3-0.6-0.8-0.6
		c-0.6,0.2-0.9,0.5-0.9,0.8c-0.1,0-0.1,0.3-0.1,0.7c0,0.5,0.3,0.7,0.7,0.8L104,8.4z"/>
	<path class="st2" d="M104.5,18.8c0.2-0.1,0.3-0.1,0.3-0.2l1.2-0.2l0.3,0l0.1-0.2l0-0.3l0-0.2l-0.2-1.3c0.1-0.1,0.1-0.5,0.1-1.2l0,0
		l0,0c-0.1-0.9-0.1-1.6,0-2.2l-0.2-1.1l0,0l-0.1-0.6l0-0.5l-0.1-0.4l0-0.5l-0.2,0l-0.1,0.1l-0.2,0l-0.9,0.1l-0.1,0.1l0,0l-0.3,0.2
		l0,0.3l0,0.3l0.1,1.2l0,0l0,0l0,0.1l0.1,0.4l0.2,2l0,1.6l0.2,2.4L104.5,18.8z"/>
	<path class="st2" d="M107.9,5.3l-0.2,0l0.2,1.8l0,0.8l0.3,2.5l0,0.8l0.1,0.3l0.1,2.7l0.4,3.4l0.1,0.1l0.3,0
		c1.1-0.2,1.6-0.4,1.6-0.6l-0.2-2.1l-0.1-0.8l0-0.1l-0.3-2.1l0-0.8l-0.1-0.5l0-1L110,9.7l0-0.1l0-0.1c-0.3-2.8-0.5-4.3-0.7-4.4l-1,0
		l-0.2,0.1l-0.1-0.1L107.9,5.3z"/>
	<path class="st2" d="M113.5,4.8l-0.2,0l0.2,1.8l0,0.8l0.3,2.5l0,0.8l0.1,0.3l0.1,2.7l0.4,3.4l0.1,0.1l0.3,0
		c1.1-0.2,1.6-0.4,1.6-0.6l-0.2-2.1l-0.1-0.8l0-0.1l-0.3-2.1l0-0.8l-0.1-0.5l0-1l-0.1-0.1l0-0.1l0-0.1c-0.3-2.8-0.5-4.3-0.7-4.4
		l-1,0l-0.2,0.1l-0.1-0.1L113.5,4.8z"/>
	<path class="st2" d="M69.6,38.9c0.5-0.1,0.7-0.3,0.6-0.6l4-9c0.4-1.5,1.2-2.8,2.4-4.1l0.1,0l1.8,5.7c1.4,6.1,2.6,10.6,3.5,13.6
		l-0.6,0.7l0,0.1l0.3,0.2l0,0.1l-1.5,0.3L80,46l-0.1-0.1c-0.2,0-0.3-0.1-0.4-0.3l-0.2,0c-0.4,0.3-0.5,0.6-0.4,1l-0.1,0l-0.4-1.2
		c0.3-0.1,0.4-0.8,0.1-2l-1.7-5l0-0.5c-0.1,0-0.3-0.2-0.5-0.8l0-0.4l0-0.1l-0.1-0.1l0-0.6c-0.2-0.8-0.4-1.1-0.7-1.1
		c-0.2,0-0.2,0.2-0.2,0.5c0.1,0.5-1.1,3.4-3.7,8.7l-0.1,0l-1.2-0.5l-3.7-3c-0.3,0.1-0.6,0-0.9-0.2c-0.6-0.4-1.1-0.9-1.4-1.4
		l-0.9,0.4l1.5,5.3l0.1,0.1l-0.1,0l0.9,4.2l0.1,0.7c0,0.2-0.7,0.5-2.3,1c-0.4,0.1-0.9,0-1.4-0.4l0-0.2l-0.3-1.6l-0.2-0.3l0.1-0.1
		l-0.2-0.6l-0.9-4l-0.1-0.7l-0.1,0l0-0.2l0-0.3l-0.2-0.4l-0.4-1.9l-1.7-7.5l-0.2-0.6L57.7,31l-0.1-0.6c0.3-0.1,1.2,0.2,2.5,0.9
		l8.2,6.3C69,38,69.5,38.4,69.6,38.9"/>
	<path class="st2" d="M83.2,33.1c-0.1-0.5,0.8-1.5,2.7-2.9l0.1,0c0.3,0.6,0.5,1,0.8,1.2c2.2,2.5,3.4,4,3.6,4.6l-0.3,0.2l0,0.2
		c0.4-0.1,0.8,0.1,1,0.7l0.1,0.9l0.3,0.2l0.5-1c0-0.5,0.1-1.6,0.4-3.2c0.3-3.3,0.7-5.1,1.2-5.2c1.6-0.1,2.5,0,2.5,0.3l0.1,0.3
		c-0.4,2.2-0.5,3.7-0.5,4.5c-1.1,6.3-1.5,9.8-1.4,10.3L93.5,48l0.2,0.4c-0.1,1.3-0.3,2-0.6,2.1c0.2,0.7-0.7,1.5-2.5,2.5
		c-0.4,0-0.6-0.2-0.7-0.6l-0.2-2c0.3-0.2,0.6-0.7,1-1.5c0.3-1.4,0.5-3.7,0.4-6.7c-0.3-0.4-0.6-0.7-0.9-0.7l0.2-0.4L90,40.5l-2.8-2.9
		c-1.5-1.9-2.5-3-3-3.2l-0.3,0.1l0.1,0.3l-0.2-0.2l0.1-0.3l-0.4-0.7L83.2,33.1z"/>
</g>
<g id="Redbird_ELA" class="st1">
	<path class="st2" d="M20.5,41.2c3.6-1.7,6.5-5.2,6.5-9.7c0-5.3-3-8.4-7.2-10.2c-4.3-1.8-16.3-6.2-19.7-7.4
		c3.5,11.6,5.5,9.7,16,11.6c4.4,0.8,5.8,3.6,5.8,6c0,3.3-2.4,5.6-6,5.6H9.1v-6.8H3.7v29.3h5.4V42.3h5l13,17.5h7.2L20.5,41.2z"/>
	<polygon class="st2" points="52.7,59.8 78,59.8 78,54.3 58.2,54.3 58.2,41.3 72.1,41.3 72.1,35.8 58.2,35.8 58.2,26.4 78,26.4 
		78,20.9 52.7,20.9 	"/>
	<path class="st2" d="M110.5,54.3h-8.6V26.4h8.2c7.7,0,14.3,6.1,14.3,13.8C124.5,48,118.2,54.3,110.5,54.3 M120.7,23.8
		c-3-1.9-6-3-10.5-3H96.4v38.9h14c10.8,0,19.6-8.7,19.6-19.5C130,33.3,126.3,27.3,120.7,23.8"/>
	<path class="st2" d="M162.8,54.3h-9v-13h9c3.6,0,6.6,3.2,6.6,6.8C169.3,51.8,166.4,54.3,162.8,54.3 M153.8,25.9h5.4
		c3.6,0,5.8,2.2,5.8,5.4s-2.2,4.6-5.8,4.6h-5.4V25.9z M167.1,37.9c1.9-1.4,3.1-3.5,3.1-6.4c0-6.3-4.2-10.6-11-10.6h-10.8v38.9H163
		c6.8,0,11.8-4.7,11.8-11.6C174.7,42.9,171.7,39.2,167.1,37.9"/>
	<rect x="193.1" y="20.9" class="st2" width="5.6" height="38.9"/>
	<path class="st2" d="M229.3,37.2h-6.8V25.9h6.8c3.6,0,5.8,2.3,5.8,5.6S232.9,37.2,229.3,37.2 M233.9,41.2c3.7-1.7,6.6-5.2,6.6-9.6
		c0-6.4-4.2-10.7-11-10.7h-12.3v38.9h5.4V42.3h5l13,17.5h7.2L233.9,41.2z"/>
	<path class="st2" d="M280.1,54.3h-8.6V26.4h8.2c7.7,0,14.3,6.1,14.3,13.8S287.9,54.3,280.1,54.3 M290.3,23.8c-3-1.9-6-3-10.5-3
		h-13.8v38.9h14c10.8,0,19.6-8.7,19.6-19.5C299.6,33.3,295.9,27.3,290.3,23.8"/>
	<path class="st2" d="M19.6,80.9H24l-2.2-5.7L19.6,80.9z M24.6,82.7H19l-1.2,3.2h-2.1l5-13H23l5,13h-2.1L24.6,82.7z"/>
	<path class="st2" d="M81.4,80.9h4.4l-2.2-5.7L81.4,80.9z M86.4,82.7h-5.7l-1.2,3.2h-2.1l5-13h2.4l5,13h-2L86.4,82.7z"/>
	<path class="st2" d="M132.5,80.9h4.4l-2.2-5.7L132.5,80.9z M137.6,82.7h-5.7l-1.2,3.2h-2.1l5-13h2.4l5,13h-2.1L137.6,82.7z"/>
	<polygon class="st2" points="108.5,72.9 116.9,72.9 116.9,74.7 110.4,74.7 110.4,77.9 115,77.9 115,79.6 110.4,79.6 110.4,84.2 
		116.9,84.2 116.9,85.9 108.5,85.9 	"/>
	<path class="st2" d="M170.9,83.1c0.7,0.8,1.8,1.4,3.1,1.4c1.5,0,2.2-0.9,2.2-1.9c0-1.3-1.2-1.9-2.5-2.5c-1.6-0.7-3.4-1.5-3.4-3.8
		c0-2,1.6-3.5,3.9-3.5c1.5,0,2.7,0.5,3.6,1.4l-0.9,1.4c-0.7-0.8-1.7-1.1-2.7-1.1c-1.1,0-2,0.7-2,1.8c0,1.1,1.1,1.6,2.3,2.2
		c1.6,0.8,3.5,1.6,3.5,4.1c0,2-1.4,3.7-4.1,3.7c-1.8,0-3.1-0.6-4-1.6L170.9,83.1z"/>
	<polygon class="st2" points="3.9,72.9 5.8,72.9 5.8,84.2 11.7,84.2 11.7,85.9 3.9,85.9 	"/>
	<polygon class="st2" points="33.8,75.9 33.8,85.9 31.8,85.9 31.8,72.9 33.9,72.9 40.9,82.7 40.9,72.9 42.9,72.9 42.9,85.9 41,85.9 
			"/>
	<path class="st2" d="M53.5,72.7c2.4,0,4,1.1,5.1,2.6L57,76.2c-0.8-1-2-1.8-3.6-1.8c-2.7,0-4.7,2.1-4.7,5c0,2.9,2,5,4.7,5
		c1.4,0,2.7-0.7,3.3-1.3v-2.9H54v-1.7h4.6v5.4c-1.2,1.4-3,2.3-5.2,2.3c-3.7,0-6.7-2.7-6.7-6.7C46.7,75.4,49.7,72.7,53.5,72.7"/>
	<path class="st2" d="M99.3,72.7c2.4,0,4,1.1,5.1,2.6l-1.6,0.9c-0.7-1-2-1.8-3.6-1.8c-2.7,0-4.7,2.1-4.7,5c0,2.9,2,5,4.7,5
		c1.4,0,2.7-0.7,3.3-1.3v-2.9h-2.7v-1.7h4.6v5.4c-1.2,1.4-3,2.3-5.2,2.3c-3.7,0-6.7-2.7-6.7-6.7C92.6,75.4,95.6,72.7,99.3,72.7"/>
	<path class="st2" d="M294.4,72.7c2.4,0,4,1.1,5.1,2.6l-1.6,0.9c-0.7-1-2-1.8-3.6-1.8c-2.7,0-4.7,2.1-4.7,5c0,2.9,2,5,4.7,5
		c1.4,0,2.7-0.7,3.3-1.3v-2.9h-2.7v-1.7h4.6v5.4c-1.2,1.4-3,2.3-5.2,2.3c-3.7,0-6.7-2.7-6.7-6.7C287.6,75.4,290.7,72.7,294.4,72.7"
		/>
	<path class="st2" d="M62.6,72.8h2v7.8c0,2.2,1.2,3.6,3.5,3.6s3.5-1.4,3.5-3.6v-7.8h2v7.9c0,3.2-1.8,5.3-5.4,5.3
		c-3.6,0-5.5-2.1-5.5-5.3L62.6,72.8L62.6,72.8z"/>
	<polygon class="st2" points="160.6,74.7 156.6,74.7 156.6,72.9 166.6,72.9 166.6,74.7 162.6,74.7 162.6,85.9 160.6,85.9 	"/>
	<path class="st2" d="M194.1,77.9c1.3-0.6,2.4-1.3,2.4-2.5c0-0.9-0.6-1.4-1.4-1.4c-0.9,0-1.7,0.7-1.7,1.8
		C193.4,76.4,193.7,77.2,194.1,77.9 M196.5,83.6c-0.7-0.7-1.4-1.4-1.7-1.9c-0.5-0.6-1-1.3-1.5-2c-1,0.6-1.7,1.4-1.7,2.6
		c0,1.5,1.2,2.4,2.4,2.4C195,84.7,195.8,84.3,196.5,83.6 M201.1,85.9h-2.3c-0.4-0.3-0.8-0.8-1.3-1.2c-1,0.9-2.2,1.5-3.7,1.5
		c-2.3,0-4.1-1.2-4.1-3.6c0-2,1.4-3,2.8-3.8c-0.6-1-1-2-1-2.9c0-1.7,1.5-3,3.4-3c1.7,0,3.1,1,3.1,2.6c0,2-1.6,2.8-3.3,3.6
		c0.5,0.6,1,1.3,1.4,1.7c0.5,0.6,1,1.1,1.4,1.6c0.7-1,1.1-2.1,1.4-2.8l1.4,0.7c-0.4,1-1,2.2-1.8,3.3C199.4,84.2,200.2,85,201.1,85.9
		"/>
	<polygon class="st2" points="221.3,75.9 218.6,85.9 216.5,85.9 212.8,72.9 215,72.9 217.7,83.3 220.5,72.9 222.1,72.9 224.9,83.3 
		227.6,72.9 229.8,72.9 226.1,85.9 224,85.9 	"/>
	<rect x="247.7" y="72.9" class="st2" width="2" height="13"/>
	<polygon class="st2" points="257.6,74.7 253.5,74.7 253.5,72.9 263.5,72.9 263.5,74.7 259.5,74.7 259.5,85.9 257.6,85.9 	"/>
	<rect x="267.4" y="72.9" class="st2" width="2" height="13"/>
	<polygon class="st2" points="275.2,75.9 275.2,85.9 273.3,85.9 273.3,72.9 275.3,72.9 282.3,82.7 282.3,72.9 284.3,72.9 
		284.3,85.9 282.4,85.9 	"/>
	<path class="st2" d="M146.5,74.6h2c1.2,0,1.9,0.8,1.9,1.9c0,1.1-0.8,1.9-1.9,1.9h-2V74.6z M152.5,85.9h2.4l-4.6-6.2
		c1.2-0.6,2-1.7,2-3.2c0-2.1-1.4-3.6-3.7-3.6h-3.8v13h1.8v-5.8h1.7L152.5,85.9z"/>
	<path class="st2" d="M235.5,74.7h2c1.2,0,1.9,0.8,1.9,1.9c0,1.1-0.7,1.9-1.9,1.9h-2V74.7z M241.4,85.9h2.4l-4.6-6.2
		c1.2-0.6,1.9-1.7,1.9-3.2c0-2.1-1.4-3.6-3.6-3.6h-3.8v12.9h1.8v-5.8h1.6L241.4,85.9z"/>
</g>
<g id="Redbird_Math_00000039095239868114650080000009316756197563948700_" class="st1">
	<g class="st3">
		<path class="st4" d="M23,39c3.8-1.7,6.8-5.3,6.8-10c0-5.5-3.1-8.7-7.5-10.5c-4.5-1.9-16.9-6.4-20.4-7.7c3.6,11.9,5.7,10,16.6,12
			c4.5,0.8,6,3.7,6,6.2c0,3.4-2.5,5.8-6.2,5.8h-7.1v-7H5.6l0,30.3h5.5V40.1h5.1l13.4,18.1h7.5L23,39z"/>
		<polygon class="st4" points="53,58.2 79.2,58.2 79.2,52.4 58.7,52.4 58.7,39.1 73.1,39.1 73.1,33.4 58.7,33.4 58.7,23.7 
			79.2,23.7 79.2,18 53,18 		"/>
		<path class="st4" d="M122.8,21c-3.1-1.9-6.2-3-10.8-3H97.7v40.2h14.4c11.1,0,20.2-9,20.2-20.2C132.3,30.8,128.5,24.6,122.8,21z
			 M112.2,52.5h-8.8V23.7h8.5c8,0,14.8,6.3,14.8,14.3S120.2,52.5,112.2,52.5z"/>
		<path class="st4" d="M169.1,35.5c2-1.5,3.2-3.6,3.2-6.6c0-6.5-4.4-11-11.4-11h-11.2v40.2h15c7,0,12.1-4.9,12.1-12
			C176.9,40.7,173.8,36.9,169.1,35.5z M155.3,23.2h5.5c3.7,0,6,2.3,6,5.5c0,3.3-2.3,4.8-6,4.8h-5.5V23.2z M164.7,52.5h-9.4V39.1h9.4
			c3.7,0,6.8,3.3,6.8,7.1C171.4,49.9,168.3,52.5,164.7,52.5z"/>
		<rect x="193.9" y="18" class="st4" width="5.7" height="40.2"/>
		<path class="st4" d="M235.4,39c3.8-1.7,6.8-5.3,6.8-10c0-6.6-4.4-11.1-11.4-11.1h-12.7v40.2l5.5,0V40.1h5.1l13.4,18.1h7.5
			L235.4,39z M230.7,34.9h-7.1V23.2h7.1c3.7,0,6,2.4,6,5.8C236.7,32.5,234.4,34.9,230.7,34.9z"/>
		<path class="st4" d="M289.5,21c-3.1-1.9-6.1-3-10.8-3l-14.2,0v40.2h14.4c11.1,0,20.2-9,20.2-20.2C299.1,30.8,295.3,24.6,289.5,21z
			 M279,52.5h-8.8V23.7h8.5c8,0,14.8,6.3,14.8,14.3S287,52.5,279,52.5z"/>
	</g>
	<g class="st3">
		<path class="st4" d="M33,81.8h-6l-1.3,3.4h-2.2l5.2-13.7h2.5l5.2,13.7h-2.2L33,81.8z M27.7,80h4.6L30,74L27.7,80z"/>
		<path class="st4" d="M108.8,81.8h-6l-1.3,3.4h-2.2l5.2-13.7h2.5l5.2,13.7h-2.2L108.8,81.8z M103.5,80h4.6l-2.3-6L103.5,80z"/>
		<path class="st4" d="M42.7,73.4h-4.2v-1.8H49v1.8h-4.2v11.9h-2V73.4z"/>
		<path class="st4" d="M62.3,78.5h-7.3v6.7h-2V71.6h2v5.1h7.3v-5.1h2v13.7h-2V78.5z"/>
		<path class="st4" d="M68.5,71.6h8.9v1.8h-6.8v3.4h4.9v1.8h-4.9v4.9h6.8v1.8h-8.9V71.6z"/>
		<path class="st4" d="M93.2,74.4l-4.9,6.2l-4.8-6.2v10.8h-2V71.6h2l4.8,6.2l4.9-6.2h2v13.7h-2V74.4z"/>
		<path class="st4" d="M17.4,74.4l-4.9,6.2l-4.9-6.2v10.8h-2V71.6h2l4.9,6.2l4.9-6.2h2v13.7h-2V74.4z"/>
		<path class="st4" d="M118.5,73.4h-4.2v-1.8h10.5v1.8h-4.2v11.9h-2V73.4z"/>
		<path class="st4" d="M128.8,71.6h2v13.7h-2V71.6z"/>
		<path class="st4" d="M151.7,82.2c0.7,0.8,1.9,1.5,3.2,1.5c1.6,0,2.3-0.9,2.3-2c0-1.4-1.2-1.9-2.6-2.6c-1.6-0.7-3.5-1.6-3.5-4
			c0-2.1,1.6-3.7,4.1-3.7c1.5,0,2.8,0.5,3.7,1.4l-1,1.5c-0.7-0.8-1.8-1.2-2.8-1.2c-1.2,0-2,0.7-2,1.8c0,1.2,1.2,1.7,2.4,2.3
			c1.7,0.8,3.6,1.7,3.6,4.3c0,2.1-1.4,3.8-4.2,3.8c-1.8,0-3.2-0.7-4.2-1.7L151.7,82.2z"/>
		<path class="st4" d="M146.6,81.8c-1,1.1-2.5,1.8-4.2,1.8c-3.1,0-5.6-2.3-5.6-5.2c0-2.8,2.5-5.2,5.6-5.2c1.7,0,3.2,0.7,4.2,1.8
			v-2.3c-1.2-0.8-2.6-1.2-4.2-1.2c-4.1,0-7.4,3.1-7.4,7c0,3.8,3.3,7,7.4,7c1.6,0,3-0.5,4.2-1.2V81.8z"/>
	</g>
</g>
<g id="Reveal_Math" class="st1">
	<g id="Layer_2_00000000921188520460082150000013263986204222979981_" class="st3">
		<g id="Hero">
			<path class="st4" d="M112.3,26.3c0.1-0.5,0.1-1,0.1-1.5c0-7.8-6.3-14.1-14.1-14.1S84.1,17,84.1,24.8S90.4,39,98.2,39
				c5.2,0,9.7-2.8,12.2-7l-2.5-1.5c-1.9,3.3-5.5,5.5-9.6,5.5c-5.7,0-10.4-4.2-11.1-9.7h22.2c0,0,0,0,0,0L112.3,26.3L112.3,26.3z
				 M98.2,13.6c5.7,0,10.4,4.3,11.1,9.8H87.1C87.8,17.9,92.5,13.6,98.2,13.6"/>
			<path class="st4" d="M57.3,26.3c0.1-0.5,0.1-1,0.1-1.5c0-7.8-6.3-14.1-14.1-14.1S29.1,17,29.1,24.8S35.4,39,43.2,39
				c5.2,0,9.7-2.8,12.2-7l-2.5-1.5c-1.9,3.3-5.5,5.5-9.6,5.5c-5.7,0-10.4-4.2-11.1-9.7h22.2c0,0,0,0,0,0L57.3,26.3L57.3,26.3z
				 M43.2,13.6c5.7,0,10.4,4.3,11.1,9.8H32.1C32.8,17.9,37.5,13.6,43.2,13.6"/>
			<path class="st4" d="M140.8,10.7v5.7c-2.6-3.4-6.7-5.6-11.3-5.6c-7.8,0-14.1,6.3-14.1,14.1S121.7,39,129.5,39
				c4.6,0,8.7-2.2,11.3-5.6V39h2.9V10.7H140.8z M129.5,36.1c-6.2,0-11.2-5-11.2-11.2s5-11.2,11.2-11.2c6.2,0,11.2,5,11.2,11.2
				S135.7,36.1,129.5,36.1"/>
			<rect x="150.1" y="1.2" class="st4" width="2.9" height="37.7"/>
			<path class="st4" d="M27.4,12.4c0-6-4.8-10.9-10.7-11.1v0H1.5V39h2.9V23.5h11.9c0.4,0,0.8,0,1.1-0.1L24,39h3.2l-6.8-16.4
				C24.5,21,27.4,17,27.4,12.4 M4.4,20.6V4.1h12.2c4.4,0.1,8,3.8,8,8.2s-3.7,8.3-8.3,8.3l0,0L4.4,20.6L4.4,20.6z"/>
			<polygon class="st4" points="79,23.5 84.1,11.3 81,11.3 75.9,23.5 			"/>
			<polygon class="st4" points="66,23.5 60.9,11.3 57.8,11.3 62.9,23.5 			"/>
			<polygon class="st4" points="74.7,26.3 70.9,35.1 67.2,26.3 64.1,26.3 69.3,38.5 72.6,38.5 77.8,26.3 			"/>
			<rect x="173" y="65" class="st4" width="49.9" height="16.6"/>
			<rect x="74.6" y="80.3" class="st4" width="30" height="12.5"/>
			<polygon class="st4" points="1.5,48.4 1.5,55.3 29.9,83.6 41.6,71.9 18.1,48.4 			"/>
			<polygon class="st4" points="58.2,48.4 41.6,48.4 18.1,71.9 29.9,83.6 58.2,55.3 			"/>
			<rect x="118" y="48.4" class="st4" width="49.8" height="16.6"/>
			<rect x="118" y="48.4" class="st4" width="26.4" height="16.6"/>
			<rect x="41.6" y="48.4" class="st4" width="16.6" height="49.8"/>
			<polygon class="st4" points="41.6,48.4 41.6,48.4 41.6,71.9 58.2,55.3 58.2,48.4 			"/>
			<rect x="134.6" y="48.4" class="st4" width="16.6" height="49.8"/>
			<rect x="134.6" y="48.4" class="st4" width="16.6" height="16.6"/>
			<polygon class="st4" points="83.9,48.4 102,98.2 119.7,98.2 101.5,48.4 			"/>
			<polygon class="st4" points="95.5,80.3 100,92.8 117.7,92.8 113.2,80.3 			"/>
			<polygon class="st4" points="81.2,48.4 63.1,98.2 80.8,98.2 98.9,48.4 			"/>
			<rect x="206.3" y="48.4" class="st4" width="16.6" height="49.8"/>
			<rect x="206.3" y="65" class="st4" width="16.6" height="16.6"/>
			<rect x="1.5" y="48.4" class="st4" width="16.6" height="49.8"/>
			<rect x="173" y="48.4" class="st4" width="16.6" height="49.8"/>
			<path class="st4" d="M226.2,51.5c0-1.8,1.4-3.2,3.2-3.2c1.8,0,3.2,1.4,3.2,3.2c0,1.8-1.4,3.2-3.2,3.2S226.2,53.3,226.2,51.5
				 M226.6,51.5c0,1.5,1.2,2.8,2.8,2.8c1.5,0,2.7-1.2,2.7-2.8c0-1.5-1.2-2.7-2.7-2.7S226.6,50,226.6,51.5 M229.3,51.9h-0.7v1.5h-0.5
				v-3.7h1.5c0.6,0,1.2,0.4,1.2,1.1c0,0.8-0.7,1.1-0.9,1.1l1,1.5h-0.6L229.3,51.9L229.3,51.9z M228.6,50.1v1.3h1
				c0.3,0,0.7-0.3,0.7-0.7c0-0.4-0.3-0.7-0.7-0.7H228.6z"/>
		</g>
	</g>
</g>
<g>
	<path class="st4" d="M39.7,55.8H47c0.2,2.9,0,5.3,6.2,5.3c3,0,5.7,0,5.7-3.6c0-2.8-2.2-2.4-8-3.7c-7.3-1.5-10.3-3.6-10.3-8.8
		c0-7.1,5.7-8.9,12.3-8.9c12.6,0,12.4,7.9,12.6,10h-7.4c-0.2-2.7-0.7-4.2-5.3-4.2c-2.2,0-4.7,0.4-4.7,2.7c0,2.3,1.8,2.4,8.8,3.9
		c6.3,1.4,9.7,3.7,9.7,9.2c0,6.4-4.7,9.4-13.5,9.4C40.2,67,39.7,59.1,39.7,55.8"/>
	<path class="st4" d="M68,36.8H72v-9.3h7.8v9.3h4.8v5.1h-4.8v15.2c0,1.5,0,2.1,0.5,2.6c0.5,0.5,1.1,0.5,1.8,0.5h2.5v6H80
		c-2.1,0-5-0.1-6.5-1.5c-1.5-1.4-1.6-4.2-1.6-6V41.9H68L68,36.8L68,36.8z"/>
	<path class="st4" d="M88.3,36.8h7.8v19.6c0,3.1,1.7,4.5,5,4.5c3.9,0,5.2-1.5,5.2-4.8V36.8h7.8v29.4h-7.7V63c-1.1,2-1.9,4-8.6,4
		c-8.9,0-9.7-6.1-9.7-8.6L88.3,36.8L88.3,36.8z"/>
	<path class="st4" d="M138.5,39.4V27.5h7.8v38.7h-7.4v-3.6c-1,1.6-2.8,4.4-8.2,4.4c-8.3,0-12.4-6-12.4-15.7
		c0-9.2,3.3-15.3,12.2-15.3C135.6,36.1,137.2,37.8,138.5,39.4 M132.1,41.9c-4.7,0-6.1,2.2-6.1,8.9c0,6.1,1,10.1,5.9,10.1
		c6.5,0,6.7-5.4,6.7-9.4C138.7,44.8,136.8,41.9,132.1,41.9"/>
	<path class="st4" d="M149.1,36.8h8.2l7,20.1l6.3-20.1h8.3l-11,28.5c-2,5.3-3.3,7.5-4.8,8.9c-1.9,1.6-4.5,1.7-5.4,1.7h-5.7v-6.5h3.6
		c1.7,0,2.1-0.1,2.6-0.4c0.4-0.2,0.8-1.1,1.2-2l1.2-2.9L149.1,36.8z"/>
	<path class="st4" d="M173.5,63L173.5,63l2.8-7.2h2.4c0.2,2.9,0,5.3,6.2,5.3c3,0,5.7,0,5.7-3.6c0-2.8-2.2-2.4-8-3.7
		c-2-0.4-3.7-0.8-5-1.4l2.5-6.6c0.7,1.1,3.1,1.4,8.5,2.5c6.3,1.4,9.7,3.7,9.7,9.2c0,6.4-4.7,9.4-13.5,9.4
		C178.7,67,175.3,65.2,173.5,63"/>
	<path class="st4" d="M184,36.1L184,36.1h0.7c12.6,0,12.4,7.9,12.6,10h-7.4c-0.2-2.7-0.7-4.2-5.3-4.2c-1,0-2,0.1-2.9,0.4L184,36.1z"
		/>
	<path class="st4" d="M197.5,36.8h8.2l7,20.1l6.4-20.1h8.3l-11.1,28.5c-2,5.3-3.3,7.5-4.8,8.9c-1.9,1.6-4.5,1.7-5.4,1.7h-5.8v-6.5
		h3.6c1.7,0,2.1-0.1,2.6-0.4c0.4-0.2,0.8-1.1,1.2-2l1.2-2.9L197.5,36.8z"/>
	<path class="st4" d="M230.4,36.8h7.5v4c0.6-1.8,1.2-4.7,7.8-4.7c6.8,0,10.4,2.3,10.4,9.4v20.9h-7.8V46.8c0-2.9-1.1-4.6-5.1-4.6
		c-3.3,0-5,1-5,5.1v19h-7.8V36.8z"/>
	<path class="st4" d="M281.6,46.9c-0.4-2.2-0.4-4.9-6.1-4.9c-5.7,0-6.9,4.3-6.9,8.9c0,6.8,1.5,10.3,6.6,10.3c6.4,0,6.1-2.9,6.4-6
		h7.7c0,4.6-2.4,11.7-13.9,11.7c-9.3,0-14.4-5.1-14.4-15.6c0-8.8,3.8-15.4,15.1-15.4c9.8,0,13,5.1,13,10.9L281.6,46.9L281.6,46.9z"
		/>
	<path class="st4" d="M295.8,35.9c1.9,0,3.3,1.4,3.3,3.2c0,1.8-1.4,3.3-3.3,3.3c-1.9,0-3.3-1.4-3.3-3.3
		C292.4,37.3,293.9,35.9,295.8,35.9 M295.7,36.5c-1.4,0-2.4,1.1-2.4,2.5c0,1.4,1,2.5,2.5,2.5c1.4,0,2.4-1.1,2.4-2.5
		C298.2,37.7,297.2,36.5,295.7,36.5 M295.2,40.7h-0.7v-3.2c0.3-0.1,0.7-0.1,1.2-0.1c0.7,0,0.8,0.1,1.1,0.3c0.2,0.1,0.3,0.4,0.3,0.7
		c0,0.4-0.3,0.7-0.7,0.7c0.3,0.1,0.5,0.4,0.6,0.7c0.1,0.5,0.2,0.7,0.3,0.7h-0.8c-0.1-0.1-0.2-0.4-0.3-0.7c-0.1-0.4-0.3-0.5-0.7-0.5
		h-0.4L295.2,40.7L295.2,40.7z M295.2,39h0.4c0.4,0,0.7-0.1,0.7-0.5c0-0.3-0.2-0.5-0.7-0.5h-0.4L295.2,39L295.2,39z"/>
	<path class="st4" d="M25,36.1c-4,0.1-7.2,3.4-7.1,7.3c0.1,4,3.4,7.2,7.3,7.1c4-0.1,7.2-3.4,7.1-7.3C32.2,39.2,29,36.1,25,36.1
		L25,36.1z"/>
	<path class="st4" d="M25,52.7c-4,0.1-7.2,3.4-7.1,7.3c0.1,4,3.4,7.2,7.3,7.1c4-0.1,7.2-3.4,7.1-7.3C32.2,55.8,29,52.7,25,52.7
		L25,52.7z"/>
	<path class="st4" d="M8.5,52.7c-4,0.1-7.2,3.4-7.1,7.3c0.1,4,3.4,7.2,7.3,7.1c4-0.1,7.2-3.4,7.1-7.3C15.6,55.8,12.5,52.7,8.5,52.7
		L8.5,52.7z"/>
	<path class="st4" d="M8.5,36.1c-4,0.1-7.2,3.4-7.1,7.3c0.1,4,3.4,7.2,7.3,7.1c4-0.1,7.2-3.4,7.1-7.3C15.6,39.2,12.5,36.1,8.5,36.1
		L8.5,36.1z"/>
</g>
</svg>
