<?xml version="1.0" encoding="utf-8"?>
<!-- Generator: Adobe Illustrator 27.7.0, SVG Export Plug-In . SVG Version: 6.00 Build 0)  -->
<svg version="1.1" id="Layer_1" xmlns="http://www.w3.org/2000/svg" xmlns:xlink="http://www.w3.org/1999/xlink" x="0px" y="0px"
	 viewBox="0 0 224.7 71.7" style="enable-background:new 0 0 224.7 71.7;" xml:space="preserve">
<style type="text/css">
	.st0{display:none;fill:#FF0013;}
	.st1{fill:#FFFFFF;}
	.st2{fill:none;}
</style>
<rect x="-3.1" y="-3.7" class="st0" width="230.8" height="78.5"/>
<g>
	<polygon class="st1" points="99.2,2.4 106.4,2.4 108.8,21.3 119.3,2.4 127.3,2.4 111.7,28.6 103.2,28.6 	"/>
	<g>
		<path class="st1" d="M127.5,9.6h6l-4.2,18.9h-6L127.5,9.6z M132.2,0.4c1.8,0,3.1,1.3,3.1,2.9c0,2.5-2.2,4-3.9,4
			c-1.8,0-3.1-1.3-3.1-2.9C128.3,1.8,130.4,0.4,132.2,0.4"/>
		<path class="st1" d="M137.9,9.6h6l-0.6,2.4c1.6-1.7,3.7-2.8,6.5-2.8l-1.3,5.9c-0.3-0.1-1.1-0.2-2-0.2c-1.7,0-3.3,0.7-4.3,1.8
			l-2.6,11.9h-6L137.9,9.6z"/>
		<path class="st1" d="M150.9,23.2l1.8-8.3h-3.1l1.2-5.2h3.1l1.1-5.2h6l-1.1,5.2h3.8l-1.2,5.2h-3.8l-1.4,6.4
			c-0.1,0.3-0.1,0.7-0.1,0.9c0,0.9,0.6,1.6,1.8,1.6c0.4,0,1-0.2,1.2-0.3l0.1,4.8c-0.7,0.5-2,0.8-3.3,0.8c-3.7,0-6.3-1.4-6.3-4.5
			C150.8,24.3,150.8,23.7,150.9,23.2"/>
		<path class="st1" d="M170.3,20.6c-0.1,0.4-0.2,0.7-0.2,1c0,1.5,1.3,2.1,2.8,2.1c1.6,0,2.9-1,3.9-1.9l2.7-12.2h6l-4.2,18.9h-6
			l0.5-2.3c-1.4,1.3-3.3,2.8-6.1,2.8c-3.8,0-6.1-2-6.1-4.9c0-0.4,0.1-1.2,0.2-1.6l2.9-12.9h6L170.3,20.6z"/>
		<path class="st1" d="M202.7,9.6h6l-4.2,18.9h-6l0.5-2.2c-1.6,1.8-3.3,2.7-5.4,2.7c-4.2,0-7.1-2.8-7.1-7.8c0-5.5,3.4-12,10-12
			c2.4,0,4.5,0.9,5.8,2.7L202.7,9.6z M196.4,23.7c1.4,0,2.7-0.7,3.6-1.8l1.3-5.7c-0.8-1-2.2-1.7-3.8-1.7c-2.8,0-4.8,2.5-4.8,5.4
			C192.7,22.2,194.3,23.7,196.4,23.7"/>
		<polygon class="st1" points="214.7,2.4 220.7,2.4 214.9,28.6 208.9,28.6 		"/>
	</g>
</g>
<path class="st1" d="M30.7,46.2c-0.3,0.4-0.8,1.5-0.8,3c0,2.3,2,4,4.6,4h21.5c2.6,0,4.6-1.7,4.6-4c0-1.5-0.6-2.6-0.8-3l-8.5-14.6
	v-8.5c0.6-0.7,1.3-1.9,0.8-3.2c-0.4-0.9-1.3-1.5-2.4-1.5c-0.4-0.1-0.9,0-1.2,0h-6.3c-0.3,0-0.8-0.1-1.2,0c-1.1,0-2,0.6-2.4,1.5
	c-0.5,1.3,0.2,2.4,0.8,3.2v8.5L30.7,46.2z M43,32.7V22.2h4.4v10.5l9,15.5l0.1,0.1c0,0,0.2,0.4,0.2,0.9c0,0.1-0.3,0.2-0.8,0.2H34.5
	c-0.5,0-0.8-0.2-0.8-0.2c0-0.6,0.2-0.9,0.2-0.9L43,32.7z M15.9,56.8H7.5V6.1c0-3,0.9-3.8,3.9-3.8H78c3,0,5,0.9,5,3.8v50.7h-8.4V10.7
	H15.9V56.8z M87.2,63v4.3c0,1.2-0.5,2.1-1.7,2.1H3.9c-1.2,0-1.5-0.5-1.5-1.7v-5c0-1.2,0.3-1.7,1.5-1.7h61.4h0.1h20.1
	C86.7,61,87.2,61.8,87.2,63"/>
<rect x="-53.2" y="-4.4" class="st2" width="193.9" height="109.1"/>
<g>
	<polygon class="st1" points="99.2,42.6 105.9,42.6 105.9,62.9 116.4,62.9 116.4,68.8 99.2,68.8 	"/>
	<path class="st1" d="M130.7,66.9c-1.2,1.4-3.4,2.3-5.9,2.3c-2.9,0-6.5-2-6.5-6.2c0-4.6,3.6-6,6.5-6c2.5,0,4.7,0.8,5.9,2.2v-2.4
		c0-1.6-1.4-2.7-3.8-2.7c-1.9,0-3.8,0.7-5.4,2l-2.2-3.8c2.4-2.1,5.7-2.9,8.6-2.9c4.5,0,8.8,1.7,8.8,7.6v11.8h-6V66.9z M130.7,62.2
		c-0.6-0.9-2-1.3-3.4-1.3c-1.6,0-3,0.7-3,2.2c0,1.5,1.4,2.2,3,2.2c1.3,0,2.7-0.5,3.4-1.4V62.2z"/>
	<path class="st1" d="M141.2,42.6h6v9.4c1.5-1.9,3.5-2.7,5.6-2.7c4.7,0,8.3,3.7,8.3,9.9c0,6.4-3.7,10-8.3,10c-2.1,0-4-0.9-5.6-2.7
		v2.2h-6V42.6z M150.8,63.9c2.4,0,4.2-1.8,4.2-4.6c0-2.8-1.8-4.6-4.2-4.6c-1.3,0-2.9,0.7-3.6,1.7v5.8
		C147.9,63.3,149.5,63.9,150.8,63.9"/>
	<path class="st1" d="M165.2,62.2c1.4,1.3,4.4,2.5,6.7,2.5c1.8,0,2.5-0.6,2.5-1.4c0-1-1.3-1.3-3.3-1.6c-3.2-0.5-7.8-1.2-7.8-6
		c0-3.3,2.9-6.2,8.1-6.2c3.2,0,5.9,1,7.9,2.5l-2.3,4c-1.1-1.1-3.3-2.1-5.6-2.1c-1.4,0-2.4,0.5-2.4,1.3c0,0.9,1,1.2,3,1.5
		c3.2,0.5,8,1.3,8,6.3c0,3.6-3.2,6.3-8.6,6.3c-3.4,0-6.9-1.1-8.9-2.9L165.2,62.2z"/>
</g>
</svg>
